<?xml version="1.0" encoding="utf-8" standalone="no"?>
<!DOCTYPE svg PUBLIC "-//W3C//DTD SVG 1.1//EN"
  "http://www.w3.org/Graphics/SVG/1.1/DTD/svg11.dtd">
<svg xmlns:xlink="http://www.w3.org/1999/xlink" width="281.720313pt" height="269.86pt" viewBox="0 0 281.720313 269.86" xmlns="http://www.w3.org/2000/svg" version="1.1">
 <metadata>
  <rdf:RDF xmlns:dc="http://purl.org/dc/elements/1.1/" xmlns:cc="http://creativecommons.org/ns#" xmlns:rdf="http://www.w3.org/1999/02/22-rdf-syntax-ns#">
   <cc:Work>
    <dc:type rdf:resource="http://purl.org/dc/dcmitype/StillImage"/>
    <dc:date>2025-04-10T13:14:34.921525</dc:date>
    <dc:format>image/svg+xml</dc:format>
    <dc:creator>
     <cc:Agent>
      <dc:title>Matplotlib v3.9.0, https://matplotlib.org/</dc:title>
     </cc:Agent>
    </dc:creator>
   </cc:Work>
  </rdf:RDF>
 </metadata>
 <defs>
  <style type="text/css">*{stroke-linejoin: round; stroke-linecap: butt}</style>
 </defs>
 <g id="figure_1">
  <g id="patch_1">
   <path d="M 0 269.86 
L 281.720313 269.86 
L 281.720313 0 
L 0 0 
L 0 269.86 
z
" style="fill: none"/>
  </g>
  <g id="axes_1">
   <g id="patch_2">
    <path d="M 42.320312 232.66 
L 265.520312 232.66 
L 265.520312 10.9 
L 42.320312 10.9 
L 42.320312 232.66 
z
" style="fill: none"/>
   </g>
   <g id="PathCollection_1">
    <defs>
     <path id="m0e09b4211a" d="M 0 3 
C 0.795609 3 1.55874 2.683901 2.12132 2.12132 
C 2.683901 1.55874 3 0.795609 3 0 
C 3 -0.795609 2.683901 -1.55874 2.12132 -2.12132 
C 1.55874 -2.683901 0.795609 -3 0 -3 
C -0.795609 -3 -1.55874 -2.683901 -2.12132 -2.12132 
C -2.683901 -1.55874 -3 -0.795609 -3 0 
C -3 0.795609 -2.683901 1.55874 -2.12132 2.12132 
C -1.55874 2.683901 -0.795609 3 0 3 
z
" style="stroke: #388ecc"/>
    </defs>
    <g clip-path="url(#p239f8d2c0c)">
     <use xlink:href="#m0e09b4211a" x="115.201945" y="45.778251" style="fill: #388ecc; stroke: #388ecc"/>
    </g>
   </g>
   <g id="matplotlib.axis_1">
    <g id="xtick_1">
     <g id="line2d_1">
      <defs>
       <path id="m5fae8abec9" d="M 0 0 
L 0 3.5 
" style="stroke: #000000; stroke-width: 0.8"/>
      </defs>
      <g>
       <use xlink:href="#m5fae8abec9" x="42.320312" y="232.66" style="stroke: #000000; stroke-width: 0.8"/>
      </g>
     </g>
     <g id="text_1">
      <!-- 310 -->
      <g transform="translate(33.320312 247.06) scale(0.1 -0.1)">
       <defs>
        <path id="IBMPlexSans-33" d="M 1670 2573 
Q 2125 2573 2352 2781 
Q 2579 2989 2579 3315 
L 2579 3360 
Q 2579 3712 2358 3888 
Q 2138 4064 1779 4064 
Q 1434 4064 1216 3913 
Q 998 3763 858 3507 
L 461 3814 
Q 544 3949 662 4080 
Q 781 4211 941 4313 
Q 1101 4416 1312 4480 
Q 1523 4544 1792 4544 
Q 2074 4544 2323 4470 
Q 2573 4397 2755 4253 
Q 2938 4109 3043 3897 
Q 3149 3686 3149 3418 
Q 3149 3200 3081 3027 
Q 3014 2854 2899 2726 
Q 2784 2598 2627 2508 
Q 2470 2419 2291 2374 
L 2291 2349 
Q 2470 2310 2640 2224 
Q 2810 2138 2941 2000 
Q 3072 1862 3152 1667 
Q 3232 1472 3232 1222 
Q 3232 934 3123 694 
Q 3014 454 2816 284 
Q 2618 115 2336 19 
Q 2054 -77 1715 -77 
Q 1427 -77 1203 -13 
Q 979 51 806 160 
Q 634 269 502 403 
Q 371 538 269 685 
L 672 992 
Q 755 858 854 749 
Q 954 640 1075 563 
Q 1197 486 1350 444 
Q 1504 403 1709 403 
Q 2182 403 2425 617 
Q 2669 832 2669 1229 
L 2669 1280 
Q 2669 1677 2425 1891 
Q 2182 2106 1709 2106 
L 1184 2106 
L 1184 2573 
L 1670 2573 
z
" transform="scale(0.015625)"/>
        <path id="IBMPlexSans-31" d="M 563 0 
L 563 474 
L 1811 474 
L 1811 4070 
L 1766 4070 
L 640 3021 
L 326 3360 
L 1510 4467 
L 2349 4467 
L 2349 474 
L 3501 474 
L 3501 0 
L 563 0 
z
" transform="scale(0.015625)"/>
        <path id="IBMPlexSans-30" d="M 1920 -77 
Q 1120 -77 752 531 
Q 384 1139 384 2234 
Q 384 3328 752 3936 
Q 1120 4544 1920 4544 
Q 2720 4544 3088 3936 
Q 3456 3328 3456 2234 
Q 3456 1139 3088 531 
Q 2720 -77 1920 -77 
z
M 1920 390 
Q 2182 390 2368 499 
Q 2554 608 2669 806 
Q 2784 1005 2838 1273 
Q 2893 1542 2893 1869 
L 2893 2598 
Q 2893 2925 2838 3193 
Q 2784 3462 2669 3660 
Q 2554 3859 2368 3968 
Q 2182 4077 1920 4077 
Q 1658 4077 1472 3968 
Q 1286 3859 1171 3660 
Q 1056 3462 1001 3193 
Q 947 2925 947 2598 
L 947 1869 
Q 947 1542 1001 1273 
Q 1056 1005 1171 806 
Q 1286 608 1472 499 
Q 1658 390 1920 390 
z
" transform="scale(0.015625)"/>
       </defs>
       <use xlink:href="#IBMPlexSans-33"/>
       <use xlink:href="#IBMPlexSans-31" x="59.999985"/>
       <use xlink:href="#IBMPlexSans-30" x="119.999969"/>
      </g>
     </g>
    </g>
    <g id="xtick_2">
     <g id="line2d_2">
      <g>
       <use xlink:href="#m5fae8abec9" x="98.120312" y="232.66" style="stroke: #000000; stroke-width: 0.8"/>
      </g>
     </g>
     <g id="text_2">
      <!-- 320 -->
      <g transform="translate(89.120312 247.06) scale(0.1 -0.1)">
       <defs>
        <path id="IBMPlexSans-32" d="M 3411 0 
L 480 0 
L 480 550 
L 1939 1894 
Q 2253 2182 2464 2505 
Q 2675 2829 2675 3155 
L 2675 3232 
Q 2675 3603 2470 3833 
Q 2266 4064 1850 4064 
Q 1645 4064 1491 4006 
Q 1338 3949 1226 3846 
Q 1114 3744 1040 3606 
Q 966 3469 922 3309 
L 442 3494 
Q 506 3693 618 3881 
Q 730 4070 899 4217 
Q 1069 4365 1309 4454 
Q 1549 4544 1875 4544 
Q 2202 4544 2458 4448 
Q 2714 4352 2886 4179 
Q 3059 4006 3152 3769 
Q 3245 3533 3245 3245 
Q 3245 2982 3171 2758 
Q 3098 2534 2970 2332 
Q 2842 2131 2659 1939 
Q 2477 1747 2266 1555 
L 1062 474 
L 3411 474 
L 3411 0 
z
" transform="scale(0.015625)"/>
       </defs>
       <use xlink:href="#IBMPlexSans-33"/>
       <use xlink:href="#IBMPlexSans-32" x="59.999985"/>
       <use xlink:href="#IBMPlexSans-30" x="119.999969"/>
      </g>
     </g>
    </g>
    <g id="xtick_3">
     <g id="line2d_3">
      <g>
       <use xlink:href="#m5fae8abec9" x="153.920313" y="232.66" style="stroke: #000000; stroke-width: 0.8"/>
      </g>
     </g>
     <g id="text_3">
      <!-- 330 -->
      <g transform="translate(144.920313 247.06) scale(0.1 -0.1)">
       <use xlink:href="#IBMPlexSans-33"/>
       <use xlink:href="#IBMPlexSans-33" x="59.999985"/>
       <use xlink:href="#IBMPlexSans-30" x="119.999969"/>
      </g>
     </g>
    </g>
    <g id="xtick_4">
     <g id="line2d_4">
      <g>
       <use xlink:href="#m5fae8abec9" x="209.720313" y="232.66" style="stroke: #000000; stroke-width: 0.8"/>
      </g>
     </g>
     <g id="text_4">
      <!-- 340 -->
      <g transform="translate(200.720313 247.06) scale(0.1 -0.1)">
       <defs>
        <path id="IBMPlexSans-34" d="M 2400 0 
L 2400 877 
L 243 877 
L 243 1350 
L 2112 4467 
L 2912 4467 
L 2912 1325 
L 3558 1325 
L 3558 877 
L 2912 877 
L 2912 0 
L 2400 0 
z
M 749 1325 
L 2400 1325 
L 2400 4051 
L 2368 4051 
L 749 1325 
z
" transform="scale(0.015625)"/>
       </defs>
       <use xlink:href="#IBMPlexSans-33"/>
       <use xlink:href="#IBMPlexSans-34" x="59.999985"/>
       <use xlink:href="#IBMPlexSans-30" x="119.999969"/>
      </g>
     </g>
    </g>
    <g id="xtick_5">
     <g id="line2d_5">
      <g>
       <use xlink:href="#m5fae8abec9" x="265.520313" y="232.66" style="stroke: #000000; stroke-width: 0.8"/>
      </g>
     </g>
     <g id="text_5">
      <!-- 350 -->
      <g transform="translate(256.520313 247.06) scale(0.1 -0.1)">
       <defs>
        <path id="IBMPlexSans-35" d="M 3187 3994 
L 1229 3994 
L 1101 2291 
L 1146 2291 
Q 1306 2515 1507 2649 
Q 1709 2784 2061 2784 
Q 2349 2784 2592 2688 
Q 2835 2592 3014 2416 
Q 3194 2240 3293 1984 
Q 3392 1728 3392 1402 
Q 3392 1075 3289 803 
Q 3187 531 2992 336 
Q 2797 141 2518 32 
Q 2240 -77 1888 -77 
Q 1606 -77 1392 -13 
Q 1178 51 1011 160 
Q 845 269 720 403 
Q 595 538 493 685 
L 896 992 
Q 979 858 1072 749 
Q 1165 640 1277 563 
Q 1389 486 1536 444 
Q 1683 403 1888 403 
Q 2349 403 2585 646 
Q 2822 890 2822 1331 
L 2822 1395 
Q 2822 1837 2585 2080 
Q 2349 2323 1888 2323 
Q 1581 2323 1405 2211 
Q 1229 2099 1088 1946 
L 634 2010 
L 794 4467 
L 3187 4467 
L 3187 3994 
z
" transform="scale(0.015625)"/>
       </defs>
       <use xlink:href="#IBMPlexSans-33"/>
       <use xlink:href="#IBMPlexSans-35" x="59.999985"/>
       <use xlink:href="#IBMPlexSans-30" x="119.999969"/>
      </g>
     </g>
    </g>
    <g id="xtick_6">
     <g id="line2d_6">
      <defs>
       <path id="me0a24d8082" d="M 0 0 
L 0 2 
" style="stroke: #000000; stroke-width: 0.6"/>
      </defs>
      <g>
       <use xlink:href="#me0a24d8082" x="53.480313" y="232.66" style="stroke: #000000; stroke-width: 0.6"/>
      </g>
     </g>
    </g>
    <g id="xtick_7">
     <g id="line2d_7">
      <g>
       <use xlink:href="#me0a24d8082" x="64.640313" y="232.66" style="stroke: #000000; stroke-width: 0.6"/>
      </g>
     </g>
    </g>
    <g id="xtick_8">
     <g id="line2d_8">
      <g>
       <use xlink:href="#me0a24d8082" x="75.800313" y="232.66" style="stroke: #000000; stroke-width: 0.6"/>
      </g>
     </g>
    </g>
    <g id="xtick_9">
     <g id="line2d_9">
      <g>
       <use xlink:href="#me0a24d8082" x="86.960313" y="232.66" style="stroke: #000000; stroke-width: 0.6"/>
      </g>
     </g>
    </g>
    <g id="xtick_10">
     <g id="line2d_10">
      <g>
       <use xlink:href="#me0a24d8082" x="109.280313" y="232.66" style="stroke: #000000; stroke-width: 0.6"/>
      </g>
     </g>
    </g>
    <g id="xtick_11">
     <g id="line2d_11">
      <g>
       <use xlink:href="#me0a24d8082" x="120.440313" y="232.66" style="stroke: #000000; stroke-width: 0.6"/>
      </g>
     </g>
    </g>
    <g id="xtick_12">
     <g id="line2d_12">
      <g>
       <use xlink:href="#me0a24d8082" x="131.600312" y="232.66" style="stroke: #000000; stroke-width: 0.6"/>
      </g>
     </g>
    </g>
    <g id="xtick_13">
     <g id="line2d_13">
      <g>
       <use xlink:href="#me0a24d8082" x="142.760313" y="232.66" style="stroke: #000000; stroke-width: 0.6"/>
      </g>
     </g>
    </g>
    <g id="xtick_14">
     <g id="line2d_14">
      <g>
       <use xlink:href="#me0a24d8082" x="165.080312" y="232.66" style="stroke: #000000; stroke-width: 0.6"/>
      </g>
     </g>
    </g>
    <g id="xtick_15">
     <g id="line2d_15">
      <g>
       <use xlink:href="#me0a24d8082" x="176.240313" y="232.66" style="stroke: #000000; stroke-width: 0.6"/>
      </g>
     </g>
    </g>
    <g id="xtick_16">
     <g id="line2d_16">
      <g>
       <use xlink:href="#me0a24d8082" x="187.400313" y="232.66" style="stroke: #000000; stroke-width: 0.6"/>
      </g>
     </g>
    </g>
    <g id="xtick_17">
     <g id="line2d_17">
      <g>
       <use xlink:href="#me0a24d8082" x="198.560313" y="232.66" style="stroke: #000000; stroke-width: 0.6"/>
      </g>
     </g>
    </g>
    <g id="xtick_18">
     <g id="line2d_18">
      <g>
       <use xlink:href="#me0a24d8082" x="220.880313" y="232.66" style="stroke: #000000; stroke-width: 0.6"/>
      </g>
     </g>
    </g>
    <g id="xtick_19">
     <g id="line2d_19">
      <g>
       <use xlink:href="#me0a24d8082" x="232.040313" y="232.66" style="stroke: #000000; stroke-width: 0.6"/>
      </g>
     </g>
    </g>
    <g id="xtick_20">
     <g id="line2d_20">
      <g>
       <use xlink:href="#me0a24d8082" x="243.200313" y="232.66" style="stroke: #000000; stroke-width: 0.6"/>
      </g>
     </g>
    </g>
    <g id="xtick_21">
     <g id="line2d_21">
      <g>
       <use xlink:href="#me0a24d8082" x="254.360312" y="232.66" style="stroke: #000000; stroke-width: 0.6"/>
      </g>
     </g>
    </g>
    <g id="text_6">
     <!-- Initial Temperature $T_0$ (K) -->
     <g transform="translate(96.020312 260.66) scale(0.1 -0.1)">
      <defs>
       <path id="IBMPlexSans-49" d="M 384 0 
L 384 448 
L 1011 448 
L 1011 4019 
L 384 4019 
L 384 4467 
L 2176 4467 
L 2176 4019 
L 1549 4019 
L 1549 448 
L 2176 448 
L 2176 0 
L 384 0 
z
" transform="scale(0.015625)"/>
       <path id="IBMPlexSans-6e" d="M 544 0 
L 544 3302 
L 1056 3302 
L 1056 2765 
L 1082 2765 
Q 1203 3046 1424 3212 
Q 1645 3379 2016 3379 
Q 2528 3379 2825 3049 
Q 3123 2720 3123 2118 
L 3123 0 
L 2611 0 
L 2611 2029 
Q 2611 2918 1862 2918 
Q 1709 2918 1565 2880 
Q 1421 2842 1305 2765 
Q 1190 2688 1123 2569 
Q 1056 2451 1056 2291 
L 1056 0 
L 544 0 
z
" transform="scale(0.015625)"/>
       <path id="IBMPlexSans-69" d="M 800 4077 
Q 634 4077 560 4157 
Q 486 4237 486 4365 
L 486 4448 
Q 486 4576 560 4656 
Q 634 4736 800 4736 
Q 966 4736 1040 4656 
Q 1114 4576 1114 4448 
L 1114 4365 
Q 1114 4237 1040 4157 
Q 966 4077 800 4077 
z
M 544 3302 
L 1056 3302 
L 1056 0 
L 544 0 
L 544 3302 
z
" transform="scale(0.015625)"/>
       <path id="IBMPlexSans-74" d="M 1274 0 
Q 1005 0 867 150 
Q 730 301 730 544 
L 730 2854 
L 186 2854 
L 186 3302 
L 493 3302 
Q 659 3302 720 3369 
Q 781 3437 781 3603 
L 781 4218 
L 1242 4218 
L 1242 3302 
L 1965 3302 
L 1965 2854 
L 1242 2854 
L 1242 448 
L 1914 448 
L 1914 0 
L 1274 0 
z
" transform="scale(0.015625)"/>
       <path id="IBMPlexSans-61" d="M 2944 0 
Q 2656 0 2531 153 
Q 2406 307 2374 538 
L 2342 538 
Q 2234 230 1984 76 
Q 1734 -77 1389 -77 
Q 864 -77 573 192 
Q 282 461 282 922 
Q 282 1389 624 1638 
Q 966 1888 1690 1888 
L 2342 1888 
L 2342 2214 
Q 2342 2566 2150 2752 
Q 1958 2938 1562 2938 
Q 1261 2938 1059 2803 
Q 858 2669 723 2445 
L 416 2733 
Q 550 3002 844 3190 
Q 1139 3379 1587 3379 
Q 2189 3379 2521 3084 
Q 2854 2790 2854 2266 
L 2854 448 
L 3232 448 
L 3232 0 
L 2944 0 
z
M 1472 358 
Q 1664 358 1824 403 
Q 1984 448 2099 531 
Q 2214 614 2278 723 
Q 2342 832 2342 960 
L 2342 1504 
L 1664 1504 
Q 1222 1504 1020 1376 
Q 819 1248 819 1005 
L 819 870 
Q 819 627 995 492 
Q 1171 358 1472 358 
z
" transform="scale(0.015625)"/>
       <path id="IBMPlexSans-6c" d="M 1088 0 
Q 819 0 681 150 
Q 544 301 544 531 
L 544 4736 
L 1056 4736 
L 1056 448 
L 1542 448 
L 1542 0 
L 1088 0 
z
" transform="scale(0.015625)"/>
       <path id="IBMPlexSans-20" transform="scale(0.015625)"/>
       <path id="IBMPlexSans-54" d="M 2099 3994 
L 2099 0 
L 1562 0 
L 1562 3994 
L 141 3994 
L 141 4467 
L 3520 4467 
L 3520 3994 
L 2099 3994 
z
" transform="scale(0.015625)"/>
       <path id="IBMPlexSans-65" d="M 1786 -77 
Q 1446 -77 1174 44 
Q 902 166 707 393 
Q 512 621 406 937 
Q 301 1254 301 1651 
Q 301 2042 406 2362 
Q 512 2682 707 2909 
Q 902 3136 1174 3257 
Q 1446 3379 1786 3379 
Q 2118 3379 2380 3257 
Q 2643 3136 2828 2921 
Q 3014 2707 3113 2412 
Q 3213 2118 3213 1766 
L 3213 1523 
L 838 1523 
L 838 1370 
Q 838 1158 905 976 
Q 973 794 1097 659 
Q 1222 525 1404 448 
Q 1587 371 1818 371 
Q 2131 371 2364 518 
Q 2598 666 2726 941 
L 3091 678 
Q 2931 339 2592 131 
Q 2253 -77 1786 -77 
z
M 1786 2950 
Q 1574 2950 1401 2876 
Q 1229 2803 1104 2668 
Q 979 2534 908 2352 
Q 838 2170 838 1952 
L 838 1907 
L 2662 1907 
L 2662 1978 
Q 2662 2419 2422 2684 
Q 2182 2950 1786 2950 
z
" transform="scale(0.015625)"/>
       <path id="IBMPlexSans-6d" d="M 544 0 
L 544 3302 
L 1056 3302 
L 1056 2765 
L 1082 2765 
Q 1139 2893 1212 3005 
Q 1286 3117 1392 3200 
Q 1498 3283 1638 3331 
Q 1779 3379 1971 3379 
Q 2298 3379 2573 3222 
Q 2848 3066 2982 2707 
L 2995 2707 
Q 3085 2976 3331 3177 
Q 3578 3379 4000 3379 
Q 4506 3379 4790 3049 
Q 5075 2720 5075 2118 
L 5075 0 
L 4563 0 
L 4563 2029 
Q 4563 2470 4390 2694 
Q 4218 2918 3840 2918 
Q 3686 2918 3548 2880 
Q 3411 2842 3302 2765 
Q 3194 2688 3130 2569 
Q 3066 2451 3066 2291 
L 3066 0 
L 2554 0 
L 2554 2029 
Q 2554 2470 2381 2694 
Q 2208 2918 1843 2918 
Q 1690 2918 1549 2880 
Q 1408 2842 1299 2765 
Q 1190 2688 1123 2569 
Q 1056 2451 1056 2291 
L 1056 0 
L 544 0 
z
" transform="scale(0.015625)"/>
       <path id="IBMPlexSans-70" d="M 544 3302 
L 1056 3302 
L 1056 2765 
L 1082 2765 
Q 1210 3078 1456 3228 
Q 1702 3379 2048 3379 
Q 2355 3379 2604 3257 
Q 2854 3136 3030 2912 
Q 3206 2688 3299 2368 
Q 3392 2048 3392 1651 
Q 3392 1254 3299 934 
Q 3206 614 3030 390 
Q 2854 166 2604 44 
Q 2355 -77 2048 -77 
Q 1376 -77 1082 538 
L 1056 538 
L 1056 -1280 
L 544 -1280 
L 544 3302 
z
M 1907 384 
Q 2342 384 2592 656 
Q 2842 928 2842 1370 
L 2842 1933 
Q 2842 2374 2592 2646 
Q 2342 2918 1907 2918 
Q 1734 2918 1577 2870 
Q 1421 2822 1305 2739 
Q 1190 2656 1123 2537 
Q 1056 2419 1056 2285 
L 1056 1056 
Q 1056 896 1123 771 
Q 1190 646 1305 560 
Q 1421 474 1577 429 
Q 1734 384 1907 384 
z
" transform="scale(0.015625)"/>
       <path id="IBMPlexSans-72" d="M 544 0 
L 544 3302 
L 1056 3302 
L 1056 2694 
L 1088 2694 
Q 1178 2931 1408 3116 
Q 1638 3302 2042 3302 
L 2240 3302 
L 2240 2790 
L 1939 2790 
Q 1523 2790 1289 2633 
Q 1056 2477 1056 2240 
L 1056 0 
L 544 0 
z
" transform="scale(0.015625)"/>
       <path id="IBMPlexSans-75" d="M 2579 538 
L 2554 538 
Q 2502 422 2428 310 
Q 2355 198 2246 112 
Q 2138 26 1984 -25 
Q 1830 -77 1626 -77 
Q 1114 -77 813 252 
Q 512 582 512 1184 
L 512 3302 
L 1024 3302 
L 1024 1274 
Q 1024 384 1779 384 
Q 1933 384 2077 422 
Q 2221 461 2333 537 
Q 2445 614 2512 732 
Q 2579 851 2579 1018 
L 2579 3302 
L 3091 3302 
L 3091 0 
L 2579 0 
L 2579 538 
z
" transform="scale(0.015625)"/>
       <path id="DejaVuSans-Oblique-54" d="M 378 4666 
L 4325 4666 
L 4225 4134 
L 2559 4134 
L 1759 0 
L 1125 0 
L 1925 4134 
L 275 4134 
L 378 4666 
z
" transform="scale(0.015625)"/>
       <path id="DejaVuSans-30" d="M 2034 4250 
Q 1547 4250 1301 3770 
Q 1056 3291 1056 2328 
Q 1056 1369 1301 889 
Q 1547 409 2034 409 
Q 2525 409 2770 889 
Q 3016 1369 3016 2328 
Q 3016 3291 2770 3770 
Q 2525 4250 2034 4250 
z
M 2034 4750 
Q 2819 4750 3233 4129 
Q 3647 3509 3647 2328 
Q 3647 1150 3233 529 
Q 2819 -91 2034 -91 
Q 1250 -91 836 529 
Q 422 1150 422 2328 
Q 422 3509 836 4129 
Q 1250 4750 2034 4750 
z
" transform="scale(0.015625)"/>
       <path id="IBMPlexSans-28" d="M 531 1997 
Q 531 2458 620 2886 
Q 710 3315 867 3683 
Q 1024 4051 1235 4352 
Q 1446 4653 1690 4864 
L 2176 4864 
Q 1907 4621 1692 4313 
Q 1478 4006 1328 3660 
Q 1178 3315 1094 2956 
Q 1011 2598 1011 2266 
L 1011 1715 
Q 1011 1376 1094 1017 
Q 1178 659 1331 313 
Q 1485 -32 1699 -339 
Q 1914 -646 2176 -877 
L 1690 -877 
Q 1453 -678 1241 -377 
Q 1030 -77 873 294 
Q 717 666 624 1098 
Q 531 1530 531 1997 
z
" transform="scale(0.015625)"/>
       <path id="IBMPlexSans-4b" d="M 1766 2195 
L 1133 1491 
L 1133 0 
L 595 0 
L 595 4467 
L 1133 4467 
L 1133 2093 
L 1152 2093 
L 1792 2867 
L 3142 4467 
L 3802 4467 
L 2138 2554 
L 3917 0 
L 3251 0 
L 1766 2195 
z
" transform="scale(0.015625)"/>
       <path id="IBMPlexSans-29" d="M 1613 1997 
Q 1613 1530 1520 1098 
Q 1427 666 1270 294 
Q 1114 -77 902 -377 
Q 691 -678 454 -877 
L -32 -877 
Q 230 -646 444 -339 
Q 659 -32 812 313 
Q 966 659 1049 1017 
Q 1133 1376 1133 1715 
L 1133 2266 
Q 1133 2598 1049 2956 
Q 966 3315 816 3660 
Q 666 4006 451 4313 
Q 237 4621 -32 4864 
L 454 4864 
Q 698 4653 909 4352 
Q 1120 4051 1277 3683 
Q 1434 3315 1523 2886 
Q 1613 2458 1613 1997 
z
" transform="scale(0.015625)"/>
      </defs>
      <use xlink:href="#IBMPlexSans-49"/>
      <use xlink:href="#IBMPlexSans-6e" transform="translate(39.999985 0)"/>
      <use xlink:href="#IBMPlexSans-69" transform="translate(96.799973 0)"/>
      <use xlink:href="#IBMPlexSans-74" transform="translate(121.799957 0)"/>
      <use xlink:href="#IBMPlexSans-69" transform="translate(156.899948 0)"/>
      <use xlink:href="#IBMPlexSans-61" transform="translate(181.899933 0)"/>
      <use xlink:href="#IBMPlexSans-6c" transform="translate(235.299927 0)"/>
      <use xlink:href="#IBMPlexSans-20" transform="translate(262.499924 0)"/>
      <use xlink:href="#IBMPlexSans-54" transform="translate(286.099915 0)"/>
      <use xlink:href="#IBMPlexSans-65" transform="translate(343.299911 0)"/>
      <use xlink:href="#IBMPlexSans-6d" transform="translate(398.199905 0)"/>
      <use xlink:href="#IBMPlexSans-70" transform="translate(485.499893 0)"/>
      <use xlink:href="#IBMPlexSans-65" transform="translate(543.499878 0)"/>
      <use xlink:href="#IBMPlexSans-72" transform="translate(598.399872 0)"/>
      <use xlink:href="#IBMPlexSans-61" transform="translate(635.099869 0)"/>
      <use xlink:href="#IBMPlexSans-74" transform="translate(688.499863 0)"/>
      <use xlink:href="#IBMPlexSans-75" transform="translate(723.599854 0)"/>
      <use xlink:href="#IBMPlexSans-72" transform="translate(780.399841 0)"/>
      <use xlink:href="#IBMPlexSans-65" transform="translate(817.099838 0)"/>
      <use xlink:href="#IBMPlexSans-20" transform="translate(871.999832 0)"/>
      <use xlink:href="#DejaVuSans-Oblique-54" transform="translate(895.599823 0)"/>
      <use xlink:href="#DejaVuSans-30" transform="translate(956.683807 -16.40625) scale(0.7)"/>
      <use xlink:href="#IBMPlexSans-20" transform="translate(1003.954315 0)"/>
      <use xlink:href="#IBMPlexSans-28" transform="translate(1027.554306 0)"/>
      <use xlink:href="#IBMPlexSans-4b" transform="translate(1061.054291 0)"/>
      <use xlink:href="#IBMPlexSans-29" transform="translate(1124.454285 0)"/>
     </g>
    </g>
   </g>
   <g id="matplotlib.axis_2">
    <g id="ytick_1">
     <g id="line2d_22">
      <defs>
       <path id="m43c214818d" d="M 0 0 
L -3.5 0 
" style="stroke: #000000; stroke-width: 0.8"/>
      </defs>
      <g>
       <use xlink:href="#m43c214818d" x="42.320312" y="232.66" style="stroke: #000000; stroke-width: 0.8"/>
      </g>
     </g>
     <g id="text_7">
      <!-- 0.4 -->
      <g transform="translate(20.6 236.36) scale(0.1 -0.1)">
       <defs>
        <path id="IBMPlexSans-2e" d="M 870 -77 
Q 666 -77 573 25 
Q 480 128 480 294 
L 480 378 
Q 480 544 573 646 
Q 666 749 870 749 
Q 1075 749 1168 646 
Q 1261 544 1261 378 
L 1261 294 
Q 1261 128 1168 25 
Q 1075 -77 870 -77 
z
" transform="scale(0.015625)"/>
       </defs>
       <use xlink:href="#IBMPlexSans-30"/>
       <use xlink:href="#IBMPlexSans-2e" x="59.999985"/>
       <use xlink:href="#IBMPlexSans-34" x="87.199982"/>
      </g>
     </g>
    </g>
    <g id="ytick_2">
     <g id="line2d_23">
      <g>
       <use xlink:href="#m43c214818d" x="42.320312" y="177.22" style="stroke: #000000; stroke-width: 0.8"/>
      </g>
     </g>
     <g id="text_8">
      <!-- 0.5 -->
      <g transform="translate(20.6 180.92) scale(0.1 -0.1)">
       <use xlink:href="#IBMPlexSans-30"/>
       <use xlink:href="#IBMPlexSans-2e" x="59.999985"/>
       <use xlink:href="#IBMPlexSans-35" x="87.199982"/>
      </g>
     </g>
    </g>
    <g id="ytick_3">
     <g id="line2d_24">
      <g>
       <use xlink:href="#m43c214818d" x="42.320312" y="121.78" style="stroke: #000000; stroke-width: 0.8"/>
      </g>
     </g>
     <g id="text_9">
      <!-- 0.6 -->
      <g transform="translate(20.6 125.48) scale(0.1 -0.1)">
       <defs>
        <path id="IBMPlexSans-36" d="M 1926 -77 
Q 1581 -77 1302 41 
Q 1024 160 829 381 
Q 634 602 531 922 
Q 429 1242 429 1638 
Q 429 2138 576 2576 
Q 723 3014 956 3376 
Q 1190 3738 1472 4016 
Q 1754 4294 2022 4467 
L 2714 4467 
Q 2355 4205 2073 3955 
Q 1792 3706 1581 3434 
Q 1370 3162 1222 2851 
Q 1075 2541 986 2150 
L 1018 2138 
Q 1178 2413 1430 2595 
Q 1683 2778 2093 2778 
Q 2381 2778 2624 2682 
Q 2867 2586 3040 2406 
Q 3213 2227 3312 1971 
Q 3411 1715 3411 1402 
Q 3411 1075 3305 803 
Q 3200 531 3005 336 
Q 2810 141 2534 32 
Q 2259 -77 1926 -77 
z
M 1920 390 
Q 2362 390 2608 633 
Q 2854 877 2854 1331 
L 2854 1382 
Q 2854 1837 2608 2080 
Q 2362 2323 1920 2323 
Q 1478 2323 1232 2080 
Q 986 1837 986 1382 
L 986 1331 
Q 986 877 1232 633 
Q 1478 390 1920 390 
z
" transform="scale(0.015625)"/>
       </defs>
       <use xlink:href="#IBMPlexSans-30"/>
       <use xlink:href="#IBMPlexSans-2e" x="59.999985"/>
       <use xlink:href="#IBMPlexSans-36" x="87.199982"/>
      </g>
     </g>
    </g>
    <g id="ytick_4">
     <g id="line2d_25">
      <g>
       <use xlink:href="#m43c214818d" x="42.320312" y="66.34" style="stroke: #000000; stroke-width: 0.8"/>
      </g>
     </g>
     <g id="text_10">
      <!-- 0.7 -->
      <g transform="translate(20.6 70.04) scale(0.1 -0.1)">
       <defs>
        <path id="IBMPlexSans-37" d="M 1120 0 
L 2829 4006 
L 922 4006 
L 922 3174 
L 442 3174 
L 442 4467 
L 3373 4467 
L 3373 3994 
L 1696 0 
L 1120 0 
z
" transform="scale(0.015625)"/>
       </defs>
       <use xlink:href="#IBMPlexSans-30"/>
       <use xlink:href="#IBMPlexSans-2e" x="59.999985"/>
       <use xlink:href="#IBMPlexSans-37" x="87.199982"/>
      </g>
     </g>
    </g>
    <g id="ytick_5">
     <g id="line2d_26">
      <g>
       <use xlink:href="#m43c214818d" x="42.320312" y="10.9" style="stroke: #000000; stroke-width: 0.8"/>
      </g>
     </g>
     <g id="text_11">
      <!-- 0.8 -->
      <g transform="translate(20.6 14.6) scale(0.1 -0.1)">
       <defs>
        <path id="IBMPlexSans-38" d="M 1920 -77 
Q 1536 -77 1248 22 
Q 960 122 765 294 
Q 570 467 470 704 
Q 371 941 371 1216 
Q 371 1677 620 1945 
Q 870 2214 1274 2323 
L 1274 2374 
Q 922 2496 714 2768 
Q 506 3040 506 3424 
Q 506 3936 877 4240 
Q 1248 4544 1920 4544 
Q 2592 4544 2963 4240 
Q 3334 3936 3334 3424 
Q 3334 3040 3126 2768 
Q 2918 2496 2566 2374 
L 2566 2323 
Q 2970 2214 3219 1945 
Q 3469 1677 3469 1216 
Q 3469 941 3369 704 
Q 3270 467 3075 294 
Q 2880 122 2592 22 
Q 2304 -77 1920 -77 
z
M 1920 390 
Q 2387 390 2643 598 
Q 2899 806 2899 1190 
L 2899 1325 
Q 2899 1709 2643 1917 
Q 2387 2125 1920 2125 
Q 1453 2125 1197 1917 
Q 941 1709 941 1325 
L 941 1190 
Q 941 806 1197 598 
Q 1453 390 1920 390 
z
M 1920 2573 
Q 2342 2573 2560 2752 
Q 2778 2931 2778 3277 
L 2778 3373 
Q 2778 3718 2560 3897 
Q 2342 4077 1920 4077 
Q 1498 4077 1280 3897 
Q 1062 3718 1062 3373 
L 1062 3277 
Q 1062 2931 1280 2752 
Q 1498 2573 1920 2573 
z
" transform="scale(0.015625)"/>
       </defs>
       <use xlink:href="#IBMPlexSans-30"/>
       <use xlink:href="#IBMPlexSans-2e" x="59.999985"/>
       <use xlink:href="#IBMPlexSans-38" x="87.199982"/>
      </g>
     </g>
    </g>
    <g id="ytick_6">
     <g id="line2d_27">
      <defs>
       <path id="m0daf064c7e" d="M 0 0 
L -2 0 
" style="stroke: #000000; stroke-width: 0.6"/>
      </defs>
      <g>
       <use xlink:href="#m0daf064c7e" x="42.320312" y="221.572" style="stroke: #000000; stroke-width: 0.6"/>
      </g>
     </g>
    </g>
    <g id="ytick_7">
     <g id="line2d_28">
      <g>
       <use xlink:href="#m0daf064c7e" x="42.320312" y="210.484" style="stroke: #000000; stroke-width: 0.6"/>
      </g>
     </g>
    </g>
    <g id="ytick_8">
     <g id="line2d_29">
      <g>
       <use xlink:href="#m0daf064c7e" x="42.320312" y="199.396" style="stroke: #000000; stroke-width: 0.6"/>
      </g>
     </g>
    </g>
    <g id="ytick_9">
     <g id="line2d_30">
      <g>
       <use xlink:href="#m0daf064c7e" x="42.320312" y="188.308" style="stroke: #000000; stroke-width: 0.6"/>
      </g>
     </g>
    </g>
    <g id="ytick_10">
     <g id="line2d_31">
      <g>
       <use xlink:href="#m0daf064c7e" x="42.320312" y="166.132" style="stroke: #000000; stroke-width: 0.6"/>
      </g>
     </g>
    </g>
    <g id="ytick_11">
     <g id="line2d_32">
      <g>
       <use xlink:href="#m0daf064c7e" x="42.320312" y="155.044" style="stroke: #000000; stroke-width: 0.6"/>
      </g>
     </g>
    </g>
    <g id="ytick_12">
     <g id="line2d_33">
      <g>
       <use xlink:href="#m0daf064c7e" x="42.320312" y="143.956" style="stroke: #000000; stroke-width: 0.6"/>
      </g>
     </g>
    </g>
    <g id="ytick_13">
     <g id="line2d_34">
      <g>
       <use xlink:href="#m0daf064c7e" x="42.320312" y="132.868" style="stroke: #000000; stroke-width: 0.6"/>
      </g>
     </g>
    </g>
    <g id="ytick_14">
     <g id="line2d_35">
      <g>
       <use xlink:href="#m0daf064c7e" x="42.320312" y="110.692" style="stroke: #000000; stroke-width: 0.6"/>
      </g>
     </g>
    </g>
    <g id="ytick_15">
     <g id="line2d_36">
      <g>
       <use xlink:href="#m0daf064c7e" x="42.320312" y="99.604" style="stroke: #000000; stroke-width: 0.6"/>
      </g>
     </g>
    </g>
    <g id="ytick_16">
     <g id="line2d_37">
      <g>
       <use xlink:href="#m0daf064c7e" x="42.320312" y="88.516" style="stroke: #000000; stroke-width: 0.6"/>
      </g>
     </g>
    </g>
    <g id="ytick_17">
     <g id="line2d_38">
      <g>
       <use xlink:href="#m0daf064c7e" x="42.320312" y="77.428" style="stroke: #000000; stroke-width: 0.6"/>
      </g>
     </g>
    </g>
    <g id="ytick_18">
     <g id="line2d_39">
      <g>
       <use xlink:href="#m0daf064c7e" x="42.320312" y="55.252" style="stroke: #000000; stroke-width: 0.6"/>
      </g>
     </g>
    </g>
    <g id="ytick_19">
     <g id="line2d_40">
      <g>
       <use xlink:href="#m0daf064c7e" x="42.320312" y="44.164" style="stroke: #000000; stroke-width: 0.6"/>
      </g>
     </g>
    </g>
    <g id="ytick_20">
     <g id="line2d_41">
      <g>
       <use xlink:href="#m0daf064c7e" x="42.320312" y="33.076" style="stroke: #000000; stroke-width: 0.6"/>
      </g>
     </g>
    </g>
    <g id="ytick_21">
     <g id="line2d_42">
      <g>
       <use xlink:href="#m0daf064c7e" x="42.320312" y="21.988" style="stroke: #000000; stroke-width: 0.6"/>
      </g>
     </g>
    </g>
    <g id="text_12">
     <!-- Final Conversion, X -->
     <g transform="translate(14.6 164.590156) rotate(-90) scale(0.1 -0.1)">
      <defs>
       <path id="IBMPlexSans-46" d="M 595 0 
L 595 4467 
L 3258 4467 
L 3258 3994 
L 1133 3994 
L 1133 2496 
L 3072 2496 
L 3072 2022 
L 1133 2022 
L 1133 0 
L 595 0 
z
" transform="scale(0.015625)"/>
       <path id="IBMPlexSans-43" d="M 2170 -77 
Q 1318 -77 844 502 
Q 371 1082 371 2208 
Q 371 3334 844 3939 
Q 1318 4544 2170 4544 
Q 2733 4544 3113 4288 
Q 3494 4032 3706 3565 
L 3270 3302 
Q 3136 3648 2861 3856 
Q 2586 4064 2170 4064 
Q 1882 4064 1654 3955 
Q 1427 3846 1270 3644 
Q 1114 3443 1030 3164 
Q 947 2886 947 2541 
L 947 1875 
Q 947 1184 1267 793 
Q 1587 403 2170 403 
Q 2598 403 2886 624 
Q 3174 845 3309 1210 
L 3738 941 
Q 3526 467 3129 195 
Q 2733 -77 2170 -77 
z
" transform="scale(0.015625)"/>
       <path id="IBMPlexSans-6f" d="M 1792 -77 
Q 1459 -77 1184 44 
Q 909 166 713 393 
Q 518 621 409 937 
Q 301 1254 301 1651 
Q 301 2042 409 2362 
Q 518 2682 713 2909 
Q 909 3136 1184 3257 
Q 1459 3379 1792 3379 
Q 2125 3379 2397 3257 
Q 2669 3136 2867 2909 
Q 3066 2682 3174 2362 
Q 3283 2042 3283 1651 
Q 3283 1254 3174 937 
Q 3066 621 2867 393 
Q 2669 166 2397 44 
Q 2125 -77 1792 -77 
z
M 1792 378 
Q 2208 378 2470 634 
Q 2733 890 2733 1414 
L 2733 1888 
Q 2733 2413 2470 2669 
Q 2208 2925 1792 2925 
Q 1376 2925 1113 2669 
Q 851 2413 851 1888 
L 851 1414 
Q 851 890 1113 634 
Q 1376 378 1792 378 
z
" transform="scale(0.015625)"/>
       <path id="IBMPlexSans-76" d="M 1274 0 
L 115 3302 
L 627 3302 
L 1203 1664 
L 1562 538 
L 1594 538 
L 1952 1664 
L 2541 3302 
L 3034 3302 
L 1869 0 
L 1274 0 
z
" transform="scale(0.015625)"/>
       <path id="IBMPlexSans-73" d="M 1536 -77 
Q 1075 -77 764 99 
Q 454 275 230 570 
L 595 864 
Q 787 621 1024 489 
Q 1261 358 1574 358 
Q 1901 358 2083 499 
Q 2266 640 2266 896 
Q 2266 1088 2141 1225 
Q 2016 1363 1690 1414 
L 1427 1453 
Q 1197 1485 1005 1552 
Q 813 1619 669 1731 
Q 525 1843 445 2009 
Q 365 2176 365 2406 
Q 365 2650 454 2832 
Q 544 3014 701 3136 
Q 858 3258 1075 3318 
Q 1293 3379 1542 3379 
Q 1946 3379 2218 3238 
Q 2490 3098 2694 2848 
L 2355 2541 
Q 2246 2694 2035 2819 
Q 1824 2944 1504 2944 
Q 1184 2944 1021 2806 
Q 858 2669 858 2432 
Q 858 2189 1021 2080 
Q 1184 1971 1491 1920 
L 1747 1882 
Q 2298 1798 2528 1564 
Q 2758 1331 2758 954 
Q 2758 474 2432 198 
Q 2106 -77 1536 -77 
z
" transform="scale(0.015625)"/>
       <path id="IBMPlexSans-2c" d="M 870 749 
Q 1075 749 1168 643 
Q 1261 538 1261 371 
L 1261 282 
Q 1261 19 1107 -297 
Q 954 -614 678 -851 
L 250 -851 
Q 442 -646 560 -464 
Q 678 -282 730 -58 
Q 602 -26 541 64 
Q 480 154 480 282 
L 480 371 
Q 480 538 573 643 
Q 666 749 870 749 
z
" transform="scale(0.015625)"/>
       <path id="IBMPlexSans-58" d="M 3770 0 
L 3123 0 
L 1952 1875 
L 1939 1875 
L 768 0 
L 154 0 
L 1613 2272 
L 192 4467 
L 838 4467 
L 1958 2688 
L 1971 2688 
L 3117 4467 
L 3731 4467 
L 2298 2291 
L 3770 0 
z
" transform="scale(0.015625)"/>
      </defs>
      <use xlink:href="#IBMPlexSans-46"/>
      <use xlink:href="#IBMPlexSans-69" x="55.899994"/>
      <use xlink:href="#IBMPlexSans-6e" x="80.899979"/>
      <use xlink:href="#IBMPlexSans-61" x="137.699966"/>
      <use xlink:href="#IBMPlexSans-6c" x="191.09996"/>
      <use xlink:href="#IBMPlexSans-20" x="218.299957"/>
      <use xlink:href="#IBMPlexSans-43" x="241.899948"/>
      <use xlink:href="#IBMPlexSans-6f" x="303.999939"/>
      <use xlink:href="#IBMPlexSans-6e" x="359.999924"/>
      <use xlink:href="#IBMPlexSans-76" x="416.799911"/>
      <use xlink:href="#IBMPlexSans-65" x="465.999908"/>
      <use xlink:href="#IBMPlexSans-72" x="520.899902"/>
      <use xlink:href="#IBMPlexSans-73" x="557.599899"/>
      <use xlink:href="#IBMPlexSans-69" x="606.299896"/>
      <use xlink:href="#IBMPlexSans-6f" x="631.299881"/>
      <use xlink:href="#IBMPlexSans-6e" x="687.299866"/>
      <use xlink:href="#IBMPlexSans-2c" x="744.099854"/>
      <use xlink:href="#IBMPlexSans-20" x="771.29985"/>
      <use xlink:href="#IBMPlexSans-58" x="794.899841"/>
     </g>
    </g>
   </g>
   <g id="line2d_43">
    <path d="M 42.320312 45.778251 
L 265.520312 45.778251 
" clip-path="url(#p239f8d2c0c)" style="fill: none; stroke-dasharray: 1.85,0.8; stroke-dashoffset: 0; stroke: #808080; stroke-width: 0.5"/>
   </g>
   <g id="line2d_44">
    <path d="M 115.201945 232.66 
L 115.201945 10.9 
" clip-path="url(#p239f8d2c0c)" style="fill: none; stroke-dasharray: 1.85,0.8; stroke-dashoffset: 0; stroke: #808080; stroke-width: 0.5"/>
   </g>
   <g id="line2d_45">
    <path d="M 42.320312 227.0274 
L 46.875415 207.635105 
L 51.430517 187.301416 
L 55.985619 166.476907 
L 60.540721 145.710379 
L 65.095823 125.71272 
L 69.650925 107.257248 
L 74.206027 91.042503 
L 78.761129 77.560132 
L 83.316231 66.964276 
L 87.871333 59.145778 
L 92.426435 53.611813 
L 96.981537 49.964742 
L 101.536639 47.721481 
L 106.091741 46.482612 
L 110.646843 45.906091 
L 115.201945 45.778251 
L 119.757047 45.926394 
L 124.312149 46.242209 
L 128.867251 46.664261 
L 133.422353 47.099401 
L 137.977455 47.638724 
L 142.532557 48.140303 
L 147.087659 48.659864 
L 151.642761 49.184665 
L 156.197864 49.713507 
L 160.752966 50.245533 
L 165.308068 50.785201 
L 169.86317 51.363594 
L 174.418272 51.857579 
L 178.973374 52.396472 
L 183.528476 53.111414 
L 188.083578 53.568715 
L 192.63868 53.989072 
L 197.193782 54.663083 
L 201.748884 55.061973 
L 206.303986 55.606514 
L 210.859088 56.063298 
L 215.41419 56.611109 
L 219.969292 57.15309 
L 224.524394 57.644461 
L 229.079496 58.592146 
L 233.634598 58.689729 
L 238.1897 59.40405 
L 242.744802 59.739869 
L 247.299904 60.469446 
L 251.855006 60.782665 
L 256.410108 61.335704 
L 260.96521 61.885598 
L 265.520313 62.283698 
" clip-path="url(#p239f8d2c0c)" style="fill: none; stroke: #65489d; stroke-width: 2; stroke-linecap: square"/>
   </g>
   <g id="patch_3">
    <path d="M 42.320312 232.66 
L 42.320312 10.9 
" style="fill: none; stroke: #000000; stroke-width: 0.8; stroke-linejoin: miter; stroke-linecap: square"/>
   </g>
   <g id="patch_4">
    <path d="M 265.520312 232.66 
L 265.520312 10.9 
" style="fill: none; stroke: #000000; stroke-width: 0.8; stroke-linejoin: miter; stroke-linecap: square"/>
   </g>
   <g id="patch_5">
    <path d="M 42.320312 232.66 
L 265.520313 232.66 
" style="fill: none; stroke: #000000; stroke-width: 0.8; stroke-linejoin: miter; stroke-linecap: square"/>
   </g>
   <g id="patch_6">
    <path d="M 42.320312 10.9 
L 265.520313 10.9 
" style="fill: none; stroke: #000000; stroke-width: 0.8; stroke-linejoin: miter; stroke-linecap: square"/>
   </g>
   <g id="text_13">
    <!-- $X_{opt}$ = 0.74 at $T_{opt}$ =323.1 K -->
    <g style="fill: #388ecc" transform="translate(129.060312 218.472) scale(0.1 -0.1)">
     <defs>
      <path id="DejaVuSans-Oblique-58" d="M 878 4666 
L 1516 4666 
L 2316 2981 
L 3763 4666 
L 4500 4666 
L 2578 2438 
L 3738 0 
L 3103 0 
L 2163 1966 
L 459 0 
L -275 0 
L 1906 2509 
L 878 4666 
z
" transform="scale(0.015625)"/>
      <path id="DejaVuSans-Oblique-6f" d="M 1625 -91 
Q 1009 -91 651 289 
Q 294 669 294 1325 
Q 294 1706 417 2101 
Q 541 2497 738 2766 
Q 1047 3184 1428 3384 
Q 1809 3584 2291 3584 
Q 2888 3584 3255 3212 
Q 3622 2841 3622 2241 
Q 3622 1825 3500 1412 
Q 3378 1000 3181 728 
Q 2875 309 2494 109 
Q 2113 -91 1625 -91 
z
M 891 1344 
Q 891 869 1089 633 
Q 1288 397 1691 397 
Q 2269 397 2648 901 
Q 3028 1406 3028 2181 
Q 3028 2634 2825 2865 
Q 2622 3097 2228 3097 
Q 1903 3097 1650 2945 
Q 1397 2794 1197 2484 
Q 1050 2253 970 1956 
Q 891 1659 891 1344 
z
" transform="scale(0.015625)"/>
      <path id="DejaVuSans-Oblique-70" d="M 3175 2156 
Q 3175 2616 2975 2859 
Q 2775 3103 2400 3103 
Q 2144 3103 1911 2972 
Q 1678 2841 1497 2591 
Q 1319 2344 1212 1994 
Q 1106 1644 1106 1300 
Q 1106 863 1306 627 
Q 1506 391 1875 391 
Q 2147 391 2380 519 
Q 2613 647 2778 891 
Q 2956 1147 3065 1494 
Q 3175 1841 3175 2156 
z
M 1394 2969 
Q 1625 3272 1939 3428 
Q 2253 3584 2638 3584 
Q 3175 3584 3472 3232 
Q 3769 2881 3769 2247 
Q 3769 1728 3584 1258 
Q 3400 788 3053 416 
Q 2822 169 2531 39 
Q 2241 -91 1919 -91 
Q 1547 -91 1294 64 
Q 1041 219 916 525 
L 556 -1331 
L -19 -1331 
L 922 3500 
L 1497 3500 
L 1394 2969 
z
" transform="scale(0.015625)"/>
      <path id="DejaVuSans-Oblique-74" d="M 2706 3500 
L 2619 3053 
L 1472 3053 
L 1100 1153 
Q 1081 1047 1072 975 
Q 1063 903 1063 863 
Q 1063 663 1183 572 
Q 1303 481 1569 481 
L 2150 481 
L 2053 0 
L 1503 0 
Q 991 0 739 200 
Q 488 400 488 806 
Q 488 878 497 964 
Q 506 1050 525 1153 
L 897 3053 
L 409 3053 
L 500 3500 
L 978 3500 
L 1172 4494 
L 1747 4494 
L 1556 3500 
L 2706 3500 
z
" transform="scale(0.015625)"/>
      <path id="IBMPlexSans-3d" d="M 429 2381 
L 429 2816 
L 3411 2816 
L 3411 2381 
L 429 2381 
z
M 429 1101 
L 429 1536 
L 3411 1536 
L 3411 1101 
L 429 1101 
z
" transform="scale(0.015625)"/>
     </defs>
     <use xlink:href="#DejaVuSans-Oblique-58" transform="translate(0 0.09375)"/>
     <use xlink:href="#DejaVuSans-Oblique-6f" transform="translate(68.505859 -16.3125) scale(0.7)"/>
     <use xlink:href="#DejaVuSans-Oblique-70" transform="translate(111.333008 -16.3125) scale(0.7)"/>
     <use xlink:href="#DejaVuSans-Oblique-74" transform="translate(155.766602 -16.3125) scale(0.7)"/>
     <use xlink:href="#IBMPlexSans-20" transform="translate(185.947266 0.09375)"/>
     <use xlink:href="#IBMPlexSans-3d" transform="translate(209.547256 0.09375)"/>
     <use xlink:href="#IBMPlexSans-20" transform="translate(269.547241 0.09375)"/>
     <use xlink:href="#IBMPlexSans-30" transform="translate(293.147232 0.09375)"/>
     <use xlink:href="#IBMPlexSans-2e" transform="translate(353.147217 0.09375)"/>
     <use xlink:href="#IBMPlexSans-37" transform="translate(380.347214 0.09375)"/>
     <use xlink:href="#IBMPlexSans-34" transform="translate(440.347198 0.09375)"/>
     <use xlink:href="#IBMPlexSans-20" transform="translate(500.347183 0.09375)"/>
     <use xlink:href="#IBMPlexSans-61" transform="translate(523.947174 0.09375)"/>
     <use xlink:href="#IBMPlexSans-74" transform="translate(577.347168 0.09375)"/>
     <use xlink:href="#IBMPlexSans-20" transform="translate(612.447159 0.09375)"/>
     <use xlink:href="#DejaVuSans-Oblique-54" transform="translate(636.04715 0.09375)"/>
     <use xlink:href="#DejaVuSans-Oblique-6f" transform="translate(697.131134 -16.3125) scale(0.7)"/>
     <use xlink:href="#DejaVuSans-Oblique-70" transform="translate(739.958282 -16.3125) scale(0.7)"/>
     <use xlink:href="#DejaVuSans-Oblique-74" transform="translate(784.391876 -16.3125) scale(0.7)"/>
     <use xlink:href="#IBMPlexSans-20" transform="translate(814.57254 0.09375)"/>
     <use xlink:href="#IBMPlexSans-3d" transform="translate(838.172531 0.09375)"/>
     <use xlink:href="#IBMPlexSans-33" transform="translate(898.172516 0.09375)"/>
     <use xlink:href="#IBMPlexSans-32" transform="translate(958.172501 0.09375)"/>
     <use xlink:href="#IBMPlexSans-33" transform="translate(1018.172485 0.09375)"/>
     <use xlink:href="#IBMPlexSans-2e" transform="translate(1078.17247 0.09375)"/>
     <use xlink:href="#IBMPlexSans-31" transform="translate(1105.372467 0.09375)"/>
     <use xlink:href="#IBMPlexSans-20" transform="translate(1165.372452 0.09375)"/>
     <use xlink:href="#IBMPlexSans-4b" transform="translate(1188.972443 0.09375)"/>
    </g>
   </g>
  </g>
 </g>
 <defs>
  <clipPath id="p239f8d2c0c">
   <rect x="42.320312" y="10.9" width="223.2" height="221.76"/>
  </clipPath>
 </defs>
</svg>
