<?xml version="1.0" encoding="utf-8" standalone="no"?>
<!DOCTYPE svg PUBLIC "-//W3C//DTD SVG 1.1//EN"
  "http://www.w3.org/Graphics/SVG/1.1/DTD/svg11.dtd">
<svg xmlns:xlink="http://www.w3.org/1999/xlink" width="275.720312pt" height="281.94pt" viewBox="0 0 275.720312 281.94" xmlns="http://www.w3.org/2000/svg" version="1.1">
 <metadata>
  <rdf:RDF xmlns:dc="http://purl.org/dc/elements/1.1/" xmlns:cc="http://creativecommons.org/ns#" xmlns:rdf="http://www.w3.org/1999/02/22-rdf-syntax-ns#">
   <cc:Work>
    <dc:type rdf:resource="http://purl.org/dc/dcmitype/StillImage"/>
    <dc:date>2025-04-10T13:14:34.560646</dc:date>
    <dc:format>image/svg+xml</dc:format>
    <dc:creator>
     <cc:Agent>
      <dc:title>Matplotlib v3.9.0, https://matplotlib.org/</dc:title>
     </cc:Agent>
    </dc:creator>
   </cc:Work>
  </rdf:RDF>
 </metadata>
 <defs>
  <style type="text/css">*{stroke-linejoin: round; stroke-linecap: butt}</style>
 </defs>
 <g id="figure_1">
  <g id="patch_1">
   <path d="M 0 281.94 
L 275.720312 281.94 
L 275.720312 0 
L 0 0 
L 0 281.94 
z
" style="fill: none"/>
  </g>
  <g id="axes_1">
   <g id="patch_2">
    <path d="M 42.320312 243.84 
L 265.520312 243.84 
L 265.520312 22.08 
L 42.320312 22.08 
L 42.320312 243.84 
z
" style="fill: none"/>
   </g>
   <g id="matplotlib.axis_1">
    <g id="xtick_1">
     <g id="line2d_1">
      <defs>
       <path id="m9af93feeb0" d="M 0 0 
L 0 3.5 
" style="stroke: #000000; stroke-width: 0.8"/>
      </defs>
      <g>
       <use xlink:href="#m9af93feeb0" x="42.320312" y="243.84" style="stroke: #000000; stroke-width: 0.8"/>
      </g>
     </g>
     <g id="text_1">
      <!-- 0 -->
      <g transform="translate(39.320312 258.24) scale(0.1 -0.1)">
       <defs>
        <path id="IBMPlexSans-30" d="M 1920 -77 
Q 1120 -77 752 531 
Q 384 1139 384 2234 
Q 384 3328 752 3936 
Q 1120 4544 1920 4544 
Q 2720 4544 3088 3936 
Q 3456 3328 3456 2234 
Q 3456 1139 3088 531 
Q 2720 -77 1920 -77 
z
M 1920 390 
Q 2182 390 2368 499 
Q 2554 608 2669 806 
Q 2784 1005 2838 1273 
Q 2893 1542 2893 1869 
L 2893 2598 
Q 2893 2925 2838 3193 
Q 2784 3462 2669 3660 
Q 2554 3859 2368 3968 
Q 2182 4077 1920 4077 
Q 1658 4077 1472 3968 
Q 1286 3859 1171 3660 
Q 1056 3462 1001 3193 
Q 947 2925 947 2598 
L 947 1869 
Q 947 1542 1001 1273 
Q 1056 1005 1171 806 
Q 1286 608 1472 499 
Q 1658 390 1920 390 
z
" transform="scale(0.015625)"/>
       </defs>
       <use xlink:href="#IBMPlexSans-30"/>
      </g>
     </g>
    </g>
    <g id="xtick_2">
     <g id="line2d_2">
      <g>
       <use xlink:href="#m9af93feeb0" x="86.960313" y="243.84" style="stroke: #000000; stroke-width: 0.8"/>
      </g>
     </g>
     <g id="text_2">
      <!-- 1 -->
      <g transform="translate(83.960313 258.24) scale(0.1 -0.1)">
       <defs>
        <path id="IBMPlexSans-31" d="M 563 0 
L 563 474 
L 1811 474 
L 1811 4070 
L 1766 4070 
L 640 3021 
L 326 3360 
L 1510 4467 
L 2349 4467 
L 2349 474 
L 3501 474 
L 3501 0 
L 563 0 
z
" transform="scale(0.015625)"/>
       </defs>
       <use xlink:href="#IBMPlexSans-31"/>
      </g>
     </g>
    </g>
    <g id="xtick_3">
     <g id="line2d_3">
      <g>
       <use xlink:href="#m9af93feeb0" x="131.600313" y="243.84" style="stroke: #000000; stroke-width: 0.8"/>
      </g>
     </g>
     <g id="text_3">
      <!-- 2 -->
      <g transform="translate(128.600313 258.24) scale(0.1 -0.1)">
       <defs>
        <path id="IBMPlexSans-32" d="M 3411 0 
L 480 0 
L 480 550 
L 1939 1894 
Q 2253 2182 2464 2505 
Q 2675 2829 2675 3155 
L 2675 3232 
Q 2675 3603 2470 3833 
Q 2266 4064 1850 4064 
Q 1645 4064 1491 4006 
Q 1338 3949 1226 3846 
Q 1114 3744 1040 3606 
Q 966 3469 922 3309 
L 442 3494 
Q 506 3693 618 3881 
Q 730 4070 899 4217 
Q 1069 4365 1309 4454 
Q 1549 4544 1875 4544 
Q 2202 4544 2458 4448 
Q 2714 4352 2886 4179 
Q 3059 4006 3152 3769 
Q 3245 3533 3245 3245 
Q 3245 2982 3171 2758 
Q 3098 2534 2970 2332 
Q 2842 2131 2659 1939 
Q 2477 1747 2266 1555 
L 1062 474 
L 3411 474 
L 3411 0 
z
" transform="scale(0.015625)"/>
       </defs>
       <use xlink:href="#IBMPlexSans-32"/>
      </g>
     </g>
    </g>
    <g id="xtick_4">
     <g id="line2d_4">
      <g>
       <use xlink:href="#m9af93feeb0" x="176.240313" y="243.84" style="stroke: #000000; stroke-width: 0.8"/>
      </g>
     </g>
     <g id="text_4">
      <!-- 3 -->
      <g transform="translate(173.240313 258.24) scale(0.1 -0.1)">
       <defs>
        <path id="IBMPlexSans-33" d="M 1670 2573 
Q 2125 2573 2352 2781 
Q 2579 2989 2579 3315 
L 2579 3360 
Q 2579 3712 2358 3888 
Q 2138 4064 1779 4064 
Q 1434 4064 1216 3913 
Q 998 3763 858 3507 
L 461 3814 
Q 544 3949 662 4080 
Q 781 4211 941 4313 
Q 1101 4416 1312 4480 
Q 1523 4544 1792 4544 
Q 2074 4544 2323 4470 
Q 2573 4397 2755 4253 
Q 2938 4109 3043 3897 
Q 3149 3686 3149 3418 
Q 3149 3200 3081 3027 
Q 3014 2854 2899 2726 
Q 2784 2598 2627 2508 
Q 2470 2419 2291 2374 
L 2291 2349 
Q 2470 2310 2640 2224 
Q 2810 2138 2941 2000 
Q 3072 1862 3152 1667 
Q 3232 1472 3232 1222 
Q 3232 934 3123 694 
Q 3014 454 2816 284 
Q 2618 115 2336 19 
Q 2054 -77 1715 -77 
Q 1427 -77 1203 -13 
Q 979 51 806 160 
Q 634 269 502 403 
Q 371 538 269 685 
L 672 992 
Q 755 858 854 749 
Q 954 640 1075 563 
Q 1197 486 1350 444 
Q 1504 403 1709 403 
Q 2182 403 2425 617 
Q 2669 832 2669 1229 
L 2669 1280 
Q 2669 1677 2425 1891 
Q 2182 2106 1709 2106 
L 1184 2106 
L 1184 2573 
L 1670 2573 
z
" transform="scale(0.015625)"/>
       </defs>
       <use xlink:href="#IBMPlexSans-33"/>
      </g>
     </g>
    </g>
    <g id="xtick_5">
     <g id="line2d_5">
      <g>
       <use xlink:href="#m9af93feeb0" x="220.880313" y="243.84" style="stroke: #000000; stroke-width: 0.8"/>
      </g>
     </g>
     <g id="text_5">
      <!-- 4 -->
      <g transform="translate(217.880313 258.24) scale(0.1 -0.1)">
       <defs>
        <path id="IBMPlexSans-34" d="M 2400 0 
L 2400 877 
L 243 877 
L 243 1350 
L 2112 4467 
L 2912 4467 
L 2912 1325 
L 3558 1325 
L 3558 877 
L 2912 877 
L 2912 0 
L 2400 0 
z
M 749 1325 
L 2400 1325 
L 2400 4051 
L 2368 4051 
L 749 1325 
z
" transform="scale(0.015625)"/>
       </defs>
       <use xlink:href="#IBMPlexSans-34"/>
      </g>
     </g>
    </g>
    <g id="xtick_6">
     <g id="line2d_6">
      <g>
       <use xlink:href="#m9af93feeb0" x="265.520312" y="243.84" style="stroke: #000000; stroke-width: 0.8"/>
      </g>
     </g>
     <g id="text_6">
      <!-- 5 -->
      <g transform="translate(262.520312 258.24) scale(0.1 -0.1)">
       <defs>
        <path id="IBMPlexSans-35" d="M 3187 3994 
L 1229 3994 
L 1101 2291 
L 1146 2291 
Q 1306 2515 1507 2649 
Q 1709 2784 2061 2784 
Q 2349 2784 2592 2688 
Q 2835 2592 3014 2416 
Q 3194 2240 3293 1984 
Q 3392 1728 3392 1402 
Q 3392 1075 3289 803 
Q 3187 531 2992 336 
Q 2797 141 2518 32 
Q 2240 -77 1888 -77 
Q 1606 -77 1392 -13 
Q 1178 51 1011 160 
Q 845 269 720 403 
Q 595 538 493 685 
L 896 992 
Q 979 858 1072 749 
Q 1165 640 1277 563 
Q 1389 486 1536 444 
Q 1683 403 1888 403 
Q 2349 403 2585 646 
Q 2822 890 2822 1331 
L 2822 1395 
Q 2822 1837 2585 2080 
Q 2349 2323 1888 2323 
Q 1581 2323 1405 2211 
Q 1229 2099 1088 1946 
L 634 2010 
L 794 4467 
L 3187 4467 
L 3187 3994 
z
" transform="scale(0.015625)"/>
       </defs>
       <use xlink:href="#IBMPlexSans-35"/>
      </g>
     </g>
    </g>
    <g id="xtick_7">
     <g id="line2d_7">
      <defs>
       <path id="m4149cea64b" d="M 0 0 
L 0 2 
" style="stroke: #000000; stroke-width: 0.6"/>
      </defs>
      <g>
       <use xlink:href="#m4149cea64b" x="51.248312" y="243.84" style="stroke: #000000; stroke-width: 0.6"/>
      </g>
     </g>
    </g>
    <g id="xtick_8">
     <g id="line2d_8">
      <g>
       <use xlink:href="#m4149cea64b" x="60.176313" y="243.84" style="stroke: #000000; stroke-width: 0.6"/>
      </g>
     </g>
    </g>
    <g id="xtick_9">
     <g id="line2d_9">
      <g>
       <use xlink:href="#m4149cea64b" x="69.104313" y="243.84" style="stroke: #000000; stroke-width: 0.6"/>
      </g>
     </g>
    </g>
    <g id="xtick_10">
     <g id="line2d_10">
      <g>
       <use xlink:href="#m4149cea64b" x="78.032313" y="243.84" style="stroke: #000000; stroke-width: 0.6"/>
      </g>
     </g>
    </g>
    <g id="xtick_11">
     <g id="line2d_11">
      <g>
       <use xlink:href="#m4149cea64b" x="95.888313" y="243.84" style="stroke: #000000; stroke-width: 0.6"/>
      </g>
     </g>
    </g>
    <g id="xtick_12">
     <g id="line2d_12">
      <g>
       <use xlink:href="#m4149cea64b" x="104.816313" y="243.84" style="stroke: #000000; stroke-width: 0.6"/>
      </g>
     </g>
    </g>
    <g id="xtick_13">
     <g id="line2d_13">
      <g>
       <use xlink:href="#m4149cea64b" x="113.744313" y="243.84" style="stroke: #000000; stroke-width: 0.6"/>
      </g>
     </g>
    </g>
    <g id="xtick_14">
     <g id="line2d_14">
      <g>
       <use xlink:href="#m4149cea64b" x="122.672313" y="243.84" style="stroke: #000000; stroke-width: 0.6"/>
      </g>
     </g>
    </g>
    <g id="xtick_15">
     <g id="line2d_15">
      <g>
       <use xlink:href="#m4149cea64b" x="140.528313" y="243.84" style="stroke: #000000; stroke-width: 0.6"/>
      </g>
     </g>
    </g>
    <g id="xtick_16">
     <g id="line2d_16">
      <g>
       <use xlink:href="#m4149cea64b" x="149.456313" y="243.84" style="stroke: #000000; stroke-width: 0.6"/>
      </g>
     </g>
    </g>
    <g id="xtick_17">
     <g id="line2d_17">
      <g>
       <use xlink:href="#m4149cea64b" x="158.384313" y="243.84" style="stroke: #000000; stroke-width: 0.6"/>
      </g>
     </g>
    </g>
    <g id="xtick_18">
     <g id="line2d_18">
      <g>
       <use xlink:href="#m4149cea64b" x="167.312313" y="243.84" style="stroke: #000000; stroke-width: 0.6"/>
      </g>
     </g>
    </g>
    <g id="xtick_19">
     <g id="line2d_19">
      <g>
       <use xlink:href="#m4149cea64b" x="185.168313" y="243.84" style="stroke: #000000; stroke-width: 0.6"/>
      </g>
     </g>
    </g>
    <g id="xtick_20">
     <g id="line2d_20">
      <g>
       <use xlink:href="#m4149cea64b" x="194.096313" y="243.84" style="stroke: #000000; stroke-width: 0.6"/>
      </g>
     </g>
    </g>
    <g id="xtick_21">
     <g id="line2d_21">
      <g>
       <use xlink:href="#m4149cea64b" x="203.024313" y="243.84" style="stroke: #000000; stroke-width: 0.6"/>
      </g>
     </g>
    </g>
    <g id="xtick_22">
     <g id="line2d_22">
      <g>
       <use xlink:href="#m4149cea64b" x="211.952313" y="243.84" style="stroke: #000000; stroke-width: 0.6"/>
      </g>
     </g>
    </g>
    <g id="xtick_23">
     <g id="line2d_23">
      <g>
       <use xlink:href="#m4149cea64b" x="229.808312" y="243.84" style="stroke: #000000; stroke-width: 0.6"/>
      </g>
     </g>
    </g>
    <g id="xtick_24">
     <g id="line2d_24">
      <g>
       <use xlink:href="#m4149cea64b" x="238.736313" y="243.84" style="stroke: #000000; stroke-width: 0.6"/>
      </g>
     </g>
    </g>
    <g id="xtick_25">
     <g id="line2d_25">
      <g>
       <use xlink:href="#m4149cea64b" x="247.664313" y="243.84" style="stroke: #000000; stroke-width: 0.6"/>
      </g>
     </g>
    </g>
    <g id="xtick_26">
     <g id="line2d_26">
      <g>
       <use xlink:href="#m4149cea64b" x="256.592313" y="243.84" style="stroke: #000000; stroke-width: 0.6"/>
      </g>
     </g>
    </g>
    <g id="text_7">
     <!-- Volume ($m^3$) -->
     <g transform="translate(124.720312 272.74) scale(0.1 -0.1)">
      <defs>
       <path id="IBMPlexSans-56" d="M 1613 0 
L 128 4467 
L 704 4467 
L 1440 2214 
L 1933 538 
L 1965 538 
L 2470 2214 
L 3213 4467 
L 3770 4467 
L 2266 0 
L 1613 0 
z
" transform="scale(0.015625)"/>
       <path id="IBMPlexSans-6f" d="M 1792 -77 
Q 1459 -77 1184 44 
Q 909 166 713 393 
Q 518 621 409 937 
Q 301 1254 301 1651 
Q 301 2042 409 2362 
Q 518 2682 713 2909 
Q 909 3136 1184 3257 
Q 1459 3379 1792 3379 
Q 2125 3379 2397 3257 
Q 2669 3136 2867 2909 
Q 3066 2682 3174 2362 
Q 3283 2042 3283 1651 
Q 3283 1254 3174 937 
Q 3066 621 2867 393 
Q 2669 166 2397 44 
Q 2125 -77 1792 -77 
z
M 1792 378 
Q 2208 378 2470 634 
Q 2733 890 2733 1414 
L 2733 1888 
Q 2733 2413 2470 2669 
Q 2208 2925 1792 2925 
Q 1376 2925 1113 2669 
Q 851 2413 851 1888 
L 851 1414 
Q 851 890 1113 634 
Q 1376 378 1792 378 
z
" transform="scale(0.015625)"/>
       <path id="IBMPlexSans-6c" d="M 1088 0 
Q 819 0 681 150 
Q 544 301 544 531 
L 544 4736 
L 1056 4736 
L 1056 448 
L 1542 448 
L 1542 0 
L 1088 0 
z
" transform="scale(0.015625)"/>
       <path id="IBMPlexSans-75" d="M 2579 538 
L 2554 538 
Q 2502 422 2428 310 
Q 2355 198 2246 112 
Q 2138 26 1984 -25 
Q 1830 -77 1626 -77 
Q 1114 -77 813 252 
Q 512 582 512 1184 
L 512 3302 
L 1024 3302 
L 1024 1274 
Q 1024 384 1779 384 
Q 1933 384 2077 422 
Q 2221 461 2333 537 
Q 2445 614 2512 732 
Q 2579 851 2579 1018 
L 2579 3302 
L 3091 3302 
L 3091 0 
L 2579 0 
L 2579 538 
z
" transform="scale(0.015625)"/>
       <path id="IBMPlexSans-6d" d="M 544 0 
L 544 3302 
L 1056 3302 
L 1056 2765 
L 1082 2765 
Q 1139 2893 1212 3005 
Q 1286 3117 1392 3200 
Q 1498 3283 1638 3331 
Q 1779 3379 1971 3379 
Q 2298 3379 2573 3222 
Q 2848 3066 2982 2707 
L 2995 2707 
Q 3085 2976 3331 3177 
Q 3578 3379 4000 3379 
Q 4506 3379 4790 3049 
Q 5075 2720 5075 2118 
L 5075 0 
L 4563 0 
L 4563 2029 
Q 4563 2470 4390 2694 
Q 4218 2918 3840 2918 
Q 3686 2918 3548 2880 
Q 3411 2842 3302 2765 
Q 3194 2688 3130 2569 
Q 3066 2451 3066 2291 
L 3066 0 
L 2554 0 
L 2554 2029 
Q 2554 2470 2381 2694 
Q 2208 2918 1843 2918 
Q 1690 2918 1549 2880 
Q 1408 2842 1299 2765 
Q 1190 2688 1123 2569 
Q 1056 2451 1056 2291 
L 1056 0 
L 544 0 
z
" transform="scale(0.015625)"/>
       <path id="IBMPlexSans-65" d="M 1786 -77 
Q 1446 -77 1174 44 
Q 902 166 707 393 
Q 512 621 406 937 
Q 301 1254 301 1651 
Q 301 2042 406 2362 
Q 512 2682 707 2909 
Q 902 3136 1174 3257 
Q 1446 3379 1786 3379 
Q 2118 3379 2380 3257 
Q 2643 3136 2828 2921 
Q 3014 2707 3113 2412 
Q 3213 2118 3213 1766 
L 3213 1523 
L 838 1523 
L 838 1370 
Q 838 1158 905 976 
Q 973 794 1097 659 
Q 1222 525 1404 448 
Q 1587 371 1818 371 
Q 2131 371 2364 518 
Q 2598 666 2726 941 
L 3091 678 
Q 2931 339 2592 131 
Q 2253 -77 1786 -77 
z
M 1786 2950 
Q 1574 2950 1401 2876 
Q 1229 2803 1104 2668 
Q 979 2534 908 2352 
Q 838 2170 838 1952 
L 838 1907 
L 2662 1907 
L 2662 1978 
Q 2662 2419 2422 2684 
Q 2182 2950 1786 2950 
z
" transform="scale(0.015625)"/>
       <path id="IBMPlexSans-20" transform="scale(0.015625)"/>
       <path id="IBMPlexSans-28" d="M 531 1997 
Q 531 2458 620 2886 
Q 710 3315 867 3683 
Q 1024 4051 1235 4352 
Q 1446 4653 1690 4864 
L 2176 4864 
Q 1907 4621 1692 4313 
Q 1478 4006 1328 3660 
Q 1178 3315 1094 2956 
Q 1011 2598 1011 2266 
L 1011 1715 
Q 1011 1376 1094 1017 
Q 1178 659 1331 313 
Q 1485 -32 1699 -339 
Q 1914 -646 2176 -877 
L 1690 -877 
Q 1453 -678 1241 -377 
Q 1030 -77 873 294 
Q 717 666 624 1098 
Q 531 1530 531 1997 
z
" transform="scale(0.015625)"/>
       <path id="DejaVuSans-Oblique-6d" d="M 5747 2113 
L 5338 0 
L 4763 0 
L 5166 2094 
Q 5191 2228 5203 2325 
Q 5216 2422 5216 2491 
Q 5216 2772 5059 2928 
Q 4903 3084 4622 3084 
Q 4203 3084 3875 2770 
Q 3547 2456 3450 1953 
L 3066 0 
L 2491 0 
L 2900 2094 
Q 2925 2209 2937 2307 
Q 2950 2406 2950 2484 
Q 2950 2769 2794 2926 
Q 2638 3084 2363 3084 
Q 1938 3084 1609 2770 
Q 1281 2456 1184 1953 
L 800 0 
L 225 0 
L 909 3500 
L 1484 3500 
L 1375 2956 
Q 1609 3263 1923 3423 
Q 2238 3584 2597 3584 
Q 2978 3584 3223 3384 
Q 3469 3184 3519 2828 
Q 3781 3197 4126 3390 
Q 4472 3584 4856 3584 
Q 5306 3584 5551 3325 
Q 5797 3066 5797 2591 
Q 5797 2488 5784 2364 
Q 5772 2241 5747 2113 
z
" transform="scale(0.015625)"/>
       <path id="DejaVuSans-33" d="M 2597 2516 
Q 3050 2419 3304 2112 
Q 3559 1806 3559 1356 
Q 3559 666 3084 287 
Q 2609 -91 1734 -91 
Q 1441 -91 1130 -33 
Q 819 25 488 141 
L 488 750 
Q 750 597 1062 519 
Q 1375 441 1716 441 
Q 2309 441 2620 675 
Q 2931 909 2931 1356 
Q 2931 1769 2642 2001 
Q 2353 2234 1838 2234 
L 1294 2234 
L 1294 2753 
L 1863 2753 
Q 2328 2753 2575 2939 
Q 2822 3125 2822 3475 
Q 2822 3834 2567 4026 
Q 2313 4219 1838 4219 
Q 1578 4219 1281 4162 
Q 984 4106 628 3988 
L 628 4550 
Q 988 4650 1302 4700 
Q 1616 4750 1894 4750 
Q 2613 4750 3031 4423 
Q 3450 4097 3450 3541 
Q 3450 3153 3228 2886 
Q 3006 2619 2597 2516 
z
" transform="scale(0.015625)"/>
       <path id="IBMPlexSans-29" d="M 1613 1997 
Q 1613 1530 1520 1098 
Q 1427 666 1270 294 
Q 1114 -77 902 -377 
Q 691 -678 454 -877 
L -32 -877 
Q 230 -646 444 -339 
Q 659 -32 812 313 
Q 966 659 1049 1017 
Q 1133 1376 1133 1715 
L 1133 2266 
Q 1133 2598 1049 2956 
Q 966 3315 816 3660 
Q 666 4006 451 4313 
Q 237 4621 -32 4864 
L 454 4864 
Q 698 4653 909 4352 
Q 1120 4051 1277 3683 
Q 1434 3315 1523 2886 
Q 1613 2458 1613 1997 
z
" transform="scale(0.015625)"/>
      </defs>
      <use xlink:href="#IBMPlexSans-56" transform="translate(0 0.765625)"/>
      <use xlink:href="#IBMPlexSans-6f" transform="translate(60.899994 0.765625)"/>
      <use xlink:href="#IBMPlexSans-6c" transform="translate(116.899979 0.765625)"/>
      <use xlink:href="#IBMPlexSans-75" transform="translate(144.099976 0.765625)"/>
      <use xlink:href="#IBMPlexSans-6d" transform="translate(200.899963 0.765625)"/>
      <use xlink:href="#IBMPlexSans-65" transform="translate(288.199951 0.765625)"/>
      <use xlink:href="#IBMPlexSans-20" transform="translate(343.099945 0.765625)"/>
      <use xlink:href="#IBMPlexSans-28" transform="translate(366.699936 0.765625)"/>
      <use xlink:href="#DejaVuSans-Oblique-6d" transform="translate(400.199921 0.765625)"/>
      <use xlink:href="#DejaVuSans-33" transform="translate(502.261926 39.046875) scale(0.7)"/>
      <use xlink:href="#IBMPlexSans-29" transform="translate(549.532434 0.765625)"/>
     </g>
    </g>
   </g>
   <g id="matplotlib.axis_2">
    <g id="ytick_1">
     <g id="line2d_27">
      <defs>
       <path id="m07d47db5e5" d="M 0 0 
L -3.5 0 
" style="stroke: #000000; stroke-width: 0.8"/>
      </defs>
      <g>
       <use xlink:href="#m07d47db5e5" x="42.320312" y="243.84" style="stroke: #000000; stroke-width: 0.8"/>
      </g>
     </g>
     <g id="text_8">
      <!-- 0.0 -->
      <g transform="translate(20.6 247.54) scale(0.1 -0.1)">
       <defs>
        <path id="IBMPlexSans-2e" d="M 870 -77 
Q 666 -77 573 25 
Q 480 128 480 294 
L 480 378 
Q 480 544 573 646 
Q 666 749 870 749 
Q 1075 749 1168 646 
Q 1261 544 1261 378 
L 1261 294 
Q 1261 128 1168 25 
Q 1075 -77 870 -77 
z
" transform="scale(0.015625)"/>
       </defs>
       <use xlink:href="#IBMPlexSans-30"/>
       <use xlink:href="#IBMPlexSans-2e" x="59.999985"/>
       <use xlink:href="#IBMPlexSans-30" x="87.199982"/>
      </g>
     </g>
    </g>
    <g id="ytick_2">
     <g id="line2d_28">
      <g>
       <use xlink:href="#m07d47db5e5" x="42.320312" y="188.4" style="stroke: #000000; stroke-width: 0.8"/>
      </g>
     </g>
     <g id="text_9">
      <!-- 0.2 -->
      <g transform="translate(20.6 192.1) scale(0.1 -0.1)">
       <use xlink:href="#IBMPlexSans-30"/>
       <use xlink:href="#IBMPlexSans-2e" x="59.999985"/>
       <use xlink:href="#IBMPlexSans-32" x="87.199982"/>
      </g>
     </g>
    </g>
    <g id="ytick_3">
     <g id="line2d_29">
      <g>
       <use xlink:href="#m07d47db5e5" x="42.320312" y="132.96" style="stroke: #000000; stroke-width: 0.8"/>
      </g>
     </g>
     <g id="text_10">
      <!-- 0.4 -->
      <g transform="translate(20.6 136.66) scale(0.1 -0.1)">
       <use xlink:href="#IBMPlexSans-30"/>
       <use xlink:href="#IBMPlexSans-2e" x="59.999985"/>
       <use xlink:href="#IBMPlexSans-34" x="87.199982"/>
      </g>
     </g>
    </g>
    <g id="ytick_4">
     <g id="line2d_30">
      <g>
       <use xlink:href="#m07d47db5e5" x="42.320312" y="77.52" style="stroke: #000000; stroke-width: 0.8"/>
      </g>
     </g>
     <g id="text_11">
      <!-- 0.6 -->
      <g transform="translate(20.6 81.22) scale(0.1 -0.1)">
       <defs>
        <path id="IBMPlexSans-36" d="M 1926 -77 
Q 1581 -77 1302 41 
Q 1024 160 829 381 
Q 634 602 531 922 
Q 429 1242 429 1638 
Q 429 2138 576 2576 
Q 723 3014 956 3376 
Q 1190 3738 1472 4016 
Q 1754 4294 2022 4467 
L 2714 4467 
Q 2355 4205 2073 3955 
Q 1792 3706 1581 3434 
Q 1370 3162 1222 2851 
Q 1075 2541 986 2150 
L 1018 2138 
Q 1178 2413 1430 2595 
Q 1683 2778 2093 2778 
Q 2381 2778 2624 2682 
Q 2867 2586 3040 2406 
Q 3213 2227 3312 1971 
Q 3411 1715 3411 1402 
Q 3411 1075 3305 803 
Q 3200 531 3005 336 
Q 2810 141 2534 32 
Q 2259 -77 1926 -77 
z
M 1920 390 
Q 2362 390 2608 633 
Q 2854 877 2854 1331 
L 2854 1382 
Q 2854 1837 2608 2080 
Q 2362 2323 1920 2323 
Q 1478 2323 1232 2080 
Q 986 1837 986 1382 
L 986 1331 
Q 986 877 1232 633 
Q 1478 390 1920 390 
z
" transform="scale(0.015625)"/>
       </defs>
       <use xlink:href="#IBMPlexSans-30"/>
       <use xlink:href="#IBMPlexSans-2e" x="59.999985"/>
       <use xlink:href="#IBMPlexSans-36" x="87.199982"/>
      </g>
     </g>
    </g>
    <g id="ytick_5">
     <g id="line2d_31">
      <g>
       <use xlink:href="#m07d47db5e5" x="42.320312" y="22.08" style="stroke: #000000; stroke-width: 0.8"/>
      </g>
     </g>
     <g id="text_12">
      <!-- 0.8 -->
      <g transform="translate(20.6 25.78) scale(0.1 -0.1)">
       <defs>
        <path id="IBMPlexSans-38" d="M 1920 -77 
Q 1536 -77 1248 22 
Q 960 122 765 294 
Q 570 467 470 704 
Q 371 941 371 1216 
Q 371 1677 620 1945 
Q 870 2214 1274 2323 
L 1274 2374 
Q 922 2496 714 2768 
Q 506 3040 506 3424 
Q 506 3936 877 4240 
Q 1248 4544 1920 4544 
Q 2592 4544 2963 4240 
Q 3334 3936 3334 3424 
Q 3334 3040 3126 2768 
Q 2918 2496 2566 2374 
L 2566 2323 
Q 2970 2214 3219 1945 
Q 3469 1677 3469 1216 
Q 3469 941 3369 704 
Q 3270 467 3075 294 
Q 2880 122 2592 22 
Q 2304 -77 1920 -77 
z
M 1920 390 
Q 2387 390 2643 598 
Q 2899 806 2899 1190 
L 2899 1325 
Q 2899 1709 2643 1917 
Q 2387 2125 1920 2125 
Q 1453 2125 1197 1917 
Q 941 1709 941 1325 
L 941 1190 
Q 941 806 1197 598 
Q 1453 390 1920 390 
z
M 1920 2573 
Q 2342 2573 2560 2752 
Q 2778 2931 2778 3277 
L 2778 3373 
Q 2778 3718 2560 3897 
Q 2342 4077 1920 4077 
Q 1498 4077 1280 3897 
Q 1062 3718 1062 3373 
L 1062 3277 
Q 1062 2931 1280 2752 
Q 1498 2573 1920 2573 
z
" transform="scale(0.015625)"/>
       </defs>
       <use xlink:href="#IBMPlexSans-30"/>
       <use xlink:href="#IBMPlexSans-2e" x="59.999985"/>
       <use xlink:href="#IBMPlexSans-38" x="87.199982"/>
      </g>
     </g>
    </g>
    <g id="ytick_6">
     <g id="line2d_32">
      <defs>
       <path id="m5648937b7f" d="M 0 0 
L -2 0 
" style="stroke: #000000; stroke-width: 0.6"/>
      </defs>
      <g>
       <use xlink:href="#m5648937b7f" x="42.320312" y="229.98" style="stroke: #000000; stroke-width: 0.6"/>
      </g>
     </g>
    </g>
    <g id="ytick_7">
     <g id="line2d_33">
      <g>
       <use xlink:href="#m5648937b7f" x="42.320312" y="216.12" style="stroke: #000000; stroke-width: 0.6"/>
      </g>
     </g>
    </g>
    <g id="ytick_8">
     <g id="line2d_34">
      <g>
       <use xlink:href="#m5648937b7f" x="42.320312" y="202.26" style="stroke: #000000; stroke-width: 0.6"/>
      </g>
     </g>
    </g>
    <g id="ytick_9">
     <g id="line2d_35">
      <g>
       <use xlink:href="#m5648937b7f" x="42.320312" y="174.54" style="stroke: #000000; stroke-width: 0.6"/>
      </g>
     </g>
    </g>
    <g id="ytick_10">
     <g id="line2d_36">
      <g>
       <use xlink:href="#m5648937b7f" x="42.320312" y="160.68" style="stroke: #000000; stroke-width: 0.6"/>
      </g>
     </g>
    </g>
    <g id="ytick_11">
     <g id="line2d_37">
      <g>
       <use xlink:href="#m5648937b7f" x="42.320312" y="146.82" style="stroke: #000000; stroke-width: 0.6"/>
      </g>
     </g>
    </g>
    <g id="ytick_12">
     <g id="line2d_38">
      <g>
       <use xlink:href="#m5648937b7f" x="42.320312" y="119.1" style="stroke: #000000; stroke-width: 0.6"/>
      </g>
     </g>
    </g>
    <g id="ytick_13">
     <g id="line2d_39">
      <g>
       <use xlink:href="#m5648937b7f" x="42.320312" y="105.24" style="stroke: #000000; stroke-width: 0.6"/>
      </g>
     </g>
    </g>
    <g id="ytick_14">
     <g id="line2d_40">
      <g>
       <use xlink:href="#m5648937b7f" x="42.320312" y="91.38" style="stroke: #000000; stroke-width: 0.6"/>
      </g>
     </g>
    </g>
    <g id="ytick_15">
     <g id="line2d_41">
      <g>
       <use xlink:href="#m5648937b7f" x="42.320312" y="63.66" style="stroke: #000000; stroke-width: 0.6"/>
      </g>
     </g>
    </g>
    <g id="ytick_16">
     <g id="line2d_42">
      <g>
       <use xlink:href="#m5648937b7f" x="42.320312" y="49.8" style="stroke: #000000; stroke-width: 0.6"/>
      </g>
     </g>
    </g>
    <g id="ytick_17">
     <g id="line2d_43">
      <g>
       <use xlink:href="#m5648937b7f" x="42.320312" y="35.94" style="stroke: #000000; stroke-width: 0.6"/>
      </g>
     </g>
    </g>
    <g id="text_13">
     <!-- Conversion -->
     <g transform="translate(14.6 158.070156) rotate(-90) scale(0.1 -0.1)">
      <defs>
       <path id="IBMPlexSans-43" d="M 2170 -77 
Q 1318 -77 844 502 
Q 371 1082 371 2208 
Q 371 3334 844 3939 
Q 1318 4544 2170 4544 
Q 2733 4544 3113 4288 
Q 3494 4032 3706 3565 
L 3270 3302 
Q 3136 3648 2861 3856 
Q 2586 4064 2170 4064 
Q 1882 4064 1654 3955 
Q 1427 3846 1270 3644 
Q 1114 3443 1030 3164 
Q 947 2886 947 2541 
L 947 1875 
Q 947 1184 1267 793 
Q 1587 403 2170 403 
Q 2598 403 2886 624 
Q 3174 845 3309 1210 
L 3738 941 
Q 3526 467 3129 195 
Q 2733 -77 2170 -77 
z
" transform="scale(0.015625)"/>
       <path id="IBMPlexSans-6e" d="M 544 0 
L 544 3302 
L 1056 3302 
L 1056 2765 
L 1082 2765 
Q 1203 3046 1424 3212 
Q 1645 3379 2016 3379 
Q 2528 3379 2825 3049 
Q 3123 2720 3123 2118 
L 3123 0 
L 2611 0 
L 2611 2029 
Q 2611 2918 1862 2918 
Q 1709 2918 1565 2880 
Q 1421 2842 1305 2765 
Q 1190 2688 1123 2569 
Q 1056 2451 1056 2291 
L 1056 0 
L 544 0 
z
" transform="scale(0.015625)"/>
       <path id="IBMPlexSans-76" d="M 1274 0 
L 115 3302 
L 627 3302 
L 1203 1664 
L 1562 538 
L 1594 538 
L 1952 1664 
L 2541 3302 
L 3034 3302 
L 1869 0 
L 1274 0 
z
" transform="scale(0.015625)"/>
       <path id="IBMPlexSans-72" d="M 544 0 
L 544 3302 
L 1056 3302 
L 1056 2694 
L 1088 2694 
Q 1178 2931 1408 3116 
Q 1638 3302 2042 3302 
L 2240 3302 
L 2240 2790 
L 1939 2790 
Q 1523 2790 1289 2633 
Q 1056 2477 1056 2240 
L 1056 0 
L 544 0 
z
" transform="scale(0.015625)"/>
       <path id="IBMPlexSans-73" d="M 1536 -77 
Q 1075 -77 764 99 
Q 454 275 230 570 
L 595 864 
Q 787 621 1024 489 
Q 1261 358 1574 358 
Q 1901 358 2083 499 
Q 2266 640 2266 896 
Q 2266 1088 2141 1225 
Q 2016 1363 1690 1414 
L 1427 1453 
Q 1197 1485 1005 1552 
Q 813 1619 669 1731 
Q 525 1843 445 2009 
Q 365 2176 365 2406 
Q 365 2650 454 2832 
Q 544 3014 701 3136 
Q 858 3258 1075 3318 
Q 1293 3379 1542 3379 
Q 1946 3379 2218 3238 
Q 2490 3098 2694 2848 
L 2355 2541 
Q 2246 2694 2035 2819 
Q 1824 2944 1504 2944 
Q 1184 2944 1021 2806 
Q 858 2669 858 2432 
Q 858 2189 1021 2080 
Q 1184 1971 1491 1920 
L 1747 1882 
Q 2298 1798 2528 1564 
Q 2758 1331 2758 954 
Q 2758 474 2432 198 
Q 2106 -77 1536 -77 
z
" transform="scale(0.015625)"/>
       <path id="IBMPlexSans-69" d="M 800 4077 
Q 634 4077 560 4157 
Q 486 4237 486 4365 
L 486 4448 
Q 486 4576 560 4656 
Q 634 4736 800 4736 
Q 966 4736 1040 4656 
Q 1114 4576 1114 4448 
L 1114 4365 
Q 1114 4237 1040 4157 
Q 966 4077 800 4077 
z
M 544 3302 
L 1056 3302 
L 1056 0 
L 544 0 
L 544 3302 
z
" transform="scale(0.015625)"/>
      </defs>
      <use xlink:href="#IBMPlexSans-43"/>
      <use xlink:href="#IBMPlexSans-6f" x="62.099991"/>
      <use xlink:href="#IBMPlexSans-6e" x="118.099976"/>
      <use xlink:href="#IBMPlexSans-76" x="174.899963"/>
      <use xlink:href="#IBMPlexSans-65" x="224.09996"/>
      <use xlink:href="#IBMPlexSans-72" x="278.999954"/>
      <use xlink:href="#IBMPlexSans-73" x="315.699951"/>
      <use xlink:href="#IBMPlexSans-69" x="364.399948"/>
      <use xlink:href="#IBMPlexSans-6f" x="389.399933"/>
      <use xlink:href="#IBMPlexSans-6e" x="445.399918"/>
     </g>
    </g>
   </g>
   <g id="line2d_44">
    <path d="M 42.320312 243.84 
L 57.066258 238.487433 
L 71.365358 233.063427 
L 85.21761 227.575471 
L 99.069862 221.846309 
L 112.475267 216.0665 
L 125.433826 210.236444 
L 137.945538 204.362615 
L 150.233826 198.347069 
L 162.298691 192.195431 
L 174.363556 185.796943 
L 186.651844 179.026471 
L 199.163556 171.874542 
L 211.898691 164.336424 
L 225.080673 156.274215 
L 238.932925 147.540447 
L 253.902294 137.836311 
L 265.520312 130.1437 
L 265.520312 130.1437 
" clip-path="url(#p58b1475446)" style="fill: none; stroke: #105e5d; stroke-width: 2; stroke-linecap: square"/>
   </g>
   <g id="line2d_45">
    <path d="M 42.320312 22.361705 
L 99.740132 23.700425 
L 151.12752 25.115234 
L 199.163556 26.66197 
L 251.66806 28.583075 
L 265.520312 29.119974 
L 265.520312 29.119974 
" clip-path="url(#p58b1475446)" style="fill: none; stroke-dasharray: 7.4,3.2; stroke-dashoffset: 0; stroke: #105e5d; stroke-width: 2"/>
   </g>
   <g id="patch_3">
    <path d="M 42.320312 243.84 
L 42.320312 22.08 
" style="fill: none; stroke: #000000; stroke-width: 0.8; stroke-linejoin: miter; stroke-linecap: square"/>
   </g>
   <g id="patch_4">
    <path d="M 265.520312 243.84 
L 265.520312 22.08 
" style="fill: none; stroke: #000000; stroke-width: 0.8; stroke-linejoin: miter; stroke-linecap: square"/>
   </g>
   <g id="patch_5">
    <path d="M 42.320312 243.84 
L 265.520312 243.84 
" style="fill: none; stroke: #000000; stroke-width: 0.8; stroke-linejoin: miter; stroke-linecap: square"/>
   </g>
   <g id="patch_6">
    <path d="M 42.320312 22.08 
L 265.520312 22.08 
" style="fill: none; stroke: #000000; stroke-width: 0.8; stroke-linejoin: miter; stroke-linecap: square"/>
   </g>
   <g id="text_14">
    <!-- T = 310 K -->
    <g transform="translate(128.036875 16.08) scale(0.12 -0.12)">
     <defs>
      <path id="IBMPlexSans-54" d="M 2099 3994 
L 2099 0 
L 1562 0 
L 1562 3994 
L 141 3994 
L 141 4467 
L 3520 4467 
L 3520 3994 
L 2099 3994 
z
" transform="scale(0.015625)"/>
      <path id="IBMPlexSans-3d" d="M 429 2381 
L 429 2816 
L 3411 2816 
L 3411 2381 
L 429 2381 
z
M 429 1101 
L 429 1536 
L 3411 1536 
L 3411 1101 
L 429 1101 
z
" transform="scale(0.015625)"/>
      <path id="IBMPlexSans-4b" d="M 1766 2195 
L 1133 1491 
L 1133 0 
L 595 0 
L 595 4467 
L 1133 4467 
L 1133 2093 
L 1152 2093 
L 1792 2867 
L 3142 4467 
L 3802 4467 
L 2138 2554 
L 3917 0 
L 3251 0 
L 1766 2195 
z
" transform="scale(0.015625)"/>
     </defs>
     <use xlink:href="#IBMPlexSans-54"/>
     <use xlink:href="#IBMPlexSans-20" x="57.199997"/>
     <use xlink:href="#IBMPlexSans-3d" x="80.799988"/>
     <use xlink:href="#IBMPlexSans-20" x="140.799973"/>
     <use xlink:href="#IBMPlexSans-33" x="164.399963"/>
     <use xlink:href="#IBMPlexSans-31" x="224.399948"/>
     <use xlink:href="#IBMPlexSans-30" x="284.399933"/>
     <use xlink:href="#IBMPlexSans-20" x="344.399918"/>
     <use xlink:href="#IBMPlexSans-4b" x="367.999908"/>
    </g>
   </g>
   <g id="legend_1">
    <g id="patch_7">
     <path d="M 215.020312 238.84 
L 258.520312 238.84 
Q 260.520312 238.84 260.520312 236.84 
L 260.520312 209.04 
Q 260.520312 207.04 258.520312 207.04 
L 215.020312 207.04 
Q 213.020312 207.04 213.020312 209.04 
L 213.020312 236.84 
Q 213.020312 238.84 215.020312 238.84 
L 215.020312 238.84 
z
" style="fill: none; opacity: 0.8; stroke: #cccccc; stroke-linejoin: miter"/>
    </g>
    <g id="line2d_46">
     <path d="M 217.020312 214.94 
L 227.020312 214.94 
L 237.020312 214.94 
" style="fill: none; stroke: #105e5d; stroke-width: 2; stroke-linecap: square"/>
    </g>
    <g id="text_15">
     <!-- $X$ -->
     <g transform="translate(245.020312 218.44) scale(0.1 -0.1)">
      <defs>
       <path id="DejaVuSans-Oblique-58" d="M 878 4666 
L 1516 4666 
L 2316 2981 
L 3763 4666 
L 4500 4666 
L 2578 2438 
L 3738 0 
L 3103 0 
L 2163 1966 
L 459 0 
L -275 0 
L 1906 2509 
L 878 4666 
z
" transform="scale(0.015625)"/>
      </defs>
      <use xlink:href="#DejaVuSans-Oblique-58" transform="translate(0 0.09375)"/>
     </g>
    </g>
    <g id="line2d_47">
     <path d="M 217.020312 229.34 
L 227.020312 229.34 
L 237.020312 229.34 
" style="fill: none; stroke-dasharray: 7.4,3.2; stroke-dashoffset: 0; stroke: #105e5d; stroke-width: 2"/>
    </g>
    <g id="text_16">
     <!-- $X_e$ -->
     <g transform="translate(245.020312 232.84) scale(0.1 -0.1)">
      <defs>
       <path id="DejaVuSans-Oblique-65" d="M 3078 2063 
Q 3088 2113 3092 2166 
Q 3097 2219 3097 2272 
Q 3097 2653 2873 2875 
Q 2650 3097 2266 3097 
Q 1838 3097 1509 2826 
Q 1181 2556 1013 2059 
L 3078 2063 
z
M 3578 1613 
L 903 1613 
Q 884 1494 878 1425 
Q 872 1356 872 1306 
Q 872 872 1139 634 
Q 1406 397 1894 397 
Q 2269 397 2603 481 
Q 2938 566 3225 728 
L 3116 159 
Q 2806 34 2476 -28 
Q 2147 -91 1806 -91 
Q 1078 -91 686 257 
Q 294 606 294 1247 
Q 294 1794 489 2264 
Q 684 2734 1063 3103 
Q 1306 3334 1642 3459 
Q 1978 3584 2356 3584 
Q 2950 3584 3301 3228 
Q 3653 2872 3653 2272 
Q 3653 2128 3634 1964 
Q 3616 1800 3578 1613 
z
" transform="scale(0.015625)"/>
      </defs>
      <use xlink:href="#DejaVuSans-Oblique-58" transform="translate(0 0.09375)"/>
      <use xlink:href="#DejaVuSans-Oblique-65" transform="translate(68.505859 -16.3125) scale(0.7)"/>
     </g>
    </g>
   </g>
  </g>
 </g>
 <defs>
  <clipPath id="p58b1475446">
   <rect x="42.320312" y="22.08" width="223.2" height="221.76"/>
  </clipPath>
 </defs>
</svg>
