<?xml version="1.0" encoding="UTF-8" standalone="no"?>
<!-- Created with Inkscape (http://www.inkscape.org/) -->

<svg
   width="210mm"
   height="297mm"
   viewBox="0 0 210 297"
   version="1.1"
   id="svg1"
   inkscape:version="1.3.2 (091e20e, 2023-11-25, custom)"
   sodipodi:docname="effect_of_epsilon_on_conversion.svg"
   xmlns:inkscape="http://www.inkscape.org/namespaces/inkscape"
   xmlns:sodipodi="http://sodipodi.sourceforge.net/DTD/sodipodi-0.dtd"
   xmlns="http://www.w3.org/2000/svg"
   xmlns:svg="http://www.w3.org/2000/svg">
  <sodipodi:namedview
     id="namedview1"
     pagecolor="#ffffff"
     bordercolor="#000000"
     borderopacity="0.25"
     inkscape:showpageshadow="2"
     inkscape:pageopacity="0.0"
     inkscape:pagecheckerboard="0"
     inkscape:deskcolor="#d1d1d1"
     inkscape:document-units="mm"
     showgrid="true"
     inkscape:zoom="2.3748293"
     inkscape:cx="325.28654"
     inkscape:cy="377.71136"
     inkscape:window-width="2729"
     inkscape:window-height="2088"
     inkscape:window-x="1351"
     inkscape:window-y="0"
     inkscape:window-maximized="0"
     inkscape:current-layer="layer1">
    <inkscape:grid
       id="grid1"
       units="px"
       originx="0"
       originy="0"
       spacingx="0.26458333"
       spacingy="0.26458334"
       empcolor="#0099e5"
       empopacity="0.30196078"
       color="#0099e5"
       opacity="0.14901961"
       empspacing="5"
       dotted="false"
       gridanglex="30"
       gridanglez="30"
       visible="true" />
  </sodipodi:namedview>
  <defs
     id="defs1">
    <marker
       style="overflow:visible"
       id="marker2"
       refX="0"
       refY="0"
       orient="auto-start-reverse"
       inkscape:stockid="Rounded arrow"
       markerWidth="1"
       markerHeight="0.80000001"
       viewBox="0 0 1 1"
       inkscape:isstock="true"
       inkscape:collect="always"
       preserveAspectRatio="none">
      <path
         transform="scale(0.7)"
         d="m -0.21114562,-4.1055728 6.42229122,3.21114561 a 1,1 90 0 1 0,1.78885438 L -0.21114562,4.1055728 A 1.236068,1.236068 31.717474 0 1 -2,3 v -6 a 1.236068,1.236068 148.28253 0 1 1.78885438,-1.1055728 z"
         style="fill:context-stroke;fill-rule:evenodd;stroke:none"
         id="path2" />
    </marker>
    <marker
       style="overflow:visible"
       id="RoundedArrow"
       refX="0"
       refY="0"
       orient="auto-start-reverse"
       inkscape:stockid="Rounded arrow"
       markerWidth="1"
       markerHeight="0.80000001"
       viewBox="0 0 1 1"
       inkscape:isstock="true"
       inkscape:collect="always"
       preserveAspectRatio="none">
      <path
         transform="scale(0.7)"
         d="m -0.21114562,-4.1055728 6.42229122,3.21114561 a 1,1 90 0 1 0,1.78885438 L -0.21114562,4.1055728 A 1.236068,1.236068 31.717474 0 1 -2,3 v -6 a 1.236068,1.236068 148.28253 0 1 1.78885438,-1.1055728 z"
         style="fill:context-stroke;fill-rule:evenodd;stroke:none"
         id="path8" />
    </marker>
  </defs>
  <g
     inkscape:label="Layer 1"
     inkscape:groupmode="layer"
     id="layer1">
    <text
       xml:space="preserve"
       style="font-style:normal;font-variant:normal;font-weight:normal;font-stretch:normal;font-size:4.23333px;line-height:normal;font-family:Sans;-inkscape-font-specification:'Sans, Normal';font-variant-ligatures:normal;font-variant-position:sub;font-variant-caps:normal;font-variant-numeric:normal;font-variant-east-asian:normal;text-align:end;text-decoration-color:#000000;text-anchor:end;fill:#0f62fe;stroke:none;stroke-width:0.2;stroke-linecap:square;stroke-linejoin:round;-inkscape-stroke:none;paint-order:markers fill stroke"
       x="81.617218"
       y="127.73782"
       id="text14"><tspan
         sodipodi:role="line"
         id="tspan14"
         style="stroke-width:0.2"
         x="81.617218"
         y="127.73782" /></text>
    <g
       inkscape:label=""
       transform="translate(63.268324,130.33485)"
       id="g1"
       style="fill:#0043ce" />
    <text
       xml:space="preserve"
       style="font-size:4.23333px;line-height:normal;font-family:Sans;-inkscape-font-specification:'Sans, Normal';font-variant-position:sub;text-align:end;text-decoration-color:#000000;text-anchor:end;fill:#0f62fe;stroke:none;stroke-width:0.7;stroke-linecap:square;stroke-linejoin:round;stroke-dashoffset:0.340157;paint-order:markers fill stroke"
       x="124.35416"
       y="47.625004"
       id="text2"><tspan
         sodipodi:role="line"
         id="tspan2"
         style="baseline-shift:baseline;stroke:none;stroke-width:0.7"
         x="124.35416"
         y="47.625004" /></text>
    <text
       xml:space="preserve"
       style="font-size:4.23333px;line-height:normal;font-family:'IBM Plex Sans';-inkscape-font-specification:'IBM Plex Sans, Normal';text-align:end;text-decoration-color:#000000;text-anchor:end;fill:none;stroke:#0f62fe;stroke-width:0.2;stroke-linecap:square;stroke-linejoin:round;-inkscape-stroke:none;paint-order:markers fill stroke"
       x="32.920517"
       y="54.548615"
       id="text1"><tspan
         sodipodi:role="line"
         id="tspan1"
         style="font-size:4.23333px;fill:#0f62fe;stroke:none;stroke-width:0.2"
         x="32.920517"
         y="54.548615" /></text>
    <g
       id="g107"
       inkscape:export-filename="change_in_volumetric_flowrate.png"
       inkscape:export-xdpi="300"
       inkscape:export-ydpi="300">
      <path
         style="fill:none;stroke:#000000;stroke-width:0.554356;stroke-linecap:square;stroke-linejoin:round;-inkscape-stroke:none;marker-start:url(#RoundedArrow);marker-end:url(#marker2);paint-order:markers fill stroke"
         d="M 36.490333,53.791266 V 120.43858 H 98.223874"
         id="path1"
         inkscape:export-filename="cstr_first_order_reaction.png"
         inkscape:export-xdpi="300"
         inkscape:export-ydpi="300" />
      <path
         style="fill:none;stroke:#eb6200;stroke-width:0.7;stroke-linecap:square;stroke-linejoin:round;stroke-dasharray:none;stroke-dashoffset:0.340157;paint-order:markers fill stroke"
         d="M 36.947841,84.45266 C 58.208332,63.500002 82.09066,62.248743 93.855422,59.793249"
         id="path6"
         sodipodi:nodetypes="cc" />
      <text
         xml:space="preserve"
         style="font-size:4.23333px;line-height:normal;font-family:Sans;-inkscape-font-specification:'Sans, Normal';font-variant-position:sub;text-align:end;text-decoration-color:#000000;text-anchor:end;fill:#4d5358;stroke:none;stroke-width:0.7;stroke-linecap:square;stroke-linejoin:round;stroke-dashoffset:0.340157;paint-order:markers fill stroke"
         x="32.692303"
         y="61.071285"
         id="text15"><tspan
           sodipodi:role="line"
           id="tspan15"
           style="fill:#4d5358;stroke-width:0.7"
           x="32.692303"
           y="61.071285"><tspan
             style="font-style:normal;font-variant:normal;font-weight:normal;font-stretch:normal;font-size:4.23333px;font-family:'IBM Plex Sans';-inkscape-font-specification:'IBM Plex Sans, Normal';font-variant-ligatures:normal;font-variant-position:normal;font-variant-caps:normal;font-variant-numeric:normal;font-variant-east-asian:normal;fill:#4d5358"
             id="tspan13">2.0</tspan></tspan></text>
      <path
         style="fill:none;stroke:#4d5358;stroke-width:0.7;stroke-linecap:square;stroke-linejoin:round;stroke-dashoffset:0.340157;paint-order:markers fill stroke"
         d="m 35.983332,59.531252 h -1.5875"
         id="path29-2"
         sodipodi:nodetypes="cc" />
      <text
         xml:space="preserve"
         style="font-size:4.23333px;line-height:normal;font-family:Sans;-inkscape-font-specification:'Sans, Normal';font-variant-position:sub;text-align:end;text-decoration-color:#000000;text-anchor:end;fill:#4d5358;stroke:none;stroke-width:0.7;stroke-linecap:square;stroke-linejoin:round;stroke-dashoffset:0.340157;paint-order:markers fill stroke"
         x="32.605129"
         y="103.09889"
         id="text10"><tspan
           sodipodi:role="line"
           id="tspan10"
           style="fill:#4d5358;stroke-width:0.7"
           x="32.605129"
           y="103.09889"><tspan
             style="font-style:normal;font-variant:normal;font-weight:normal;font-stretch:normal;font-size:4.23333px;font-family:'IBM Plex Sans';-inkscape-font-specification:'IBM Plex Sans, Normal';font-variant-ligatures:normal;font-variant-position:normal;font-variant-caps:normal;font-variant-numeric:normal;font-variant-east-asian:normal;fill:#4d5358"
             id="tspan9">0.5</tspan></tspan></text>
      <path
         style="fill:none;stroke:#4d5358;stroke-width:0.7;stroke-linecap:square;stroke-linejoin:round;stroke-dashoffset:0.340157;paint-order:markers fill stroke"
         d="m 35.866525,101.684 h -1.5875"
         id="path42"
         sodipodi:nodetypes="cc" />
      <text
         xml:space="preserve"
         style="font-size:4.23333px;line-height:normal;font-family:Sans;-inkscape-font-specification:'Sans, Normal';font-variant-position:sub;text-align:end;text-decoration-color:#000000;text-anchor:end;fill:#4d5358;stroke:none;stroke-width:0.7;stroke-linecap:square;stroke-linejoin:round;stroke-dashoffset:0.340157;paint-order:markers fill stroke"
         x="32.603012"
         y="86.053833"
         id="text8"><tspan
           sodipodi:role="line"
           id="tspan8"
           style="fill:#4d5358;stroke-width:0.7"
           x="32.603012"
           y="86.053833"><tspan
             style="font-style:normal;font-variant:normal;font-weight:normal;font-stretch:normal;font-size:4.23333px;font-family:'IBM Plex Sans';-inkscape-font-specification:'IBM Plex Sans, Normal';font-variant-ligatures:normal;font-variant-position:normal;font-variant-caps:normal;font-variant-numeric:normal;font-variant-east-asian:normal;fill:#4d5358"
             id="tspan7">1.0</tspan></tspan></text>
      <path
         style="fill:none;stroke:#4d5358;stroke-width:0.7;stroke-linecap:square;stroke-linejoin:round;stroke-dashoffset:0.340157;paint-order:markers fill stroke"
         d="m 35.961775,84.576401 h -1.5875"
         id="path43"
         sodipodi:nodetypes="cc" />
      <text
         xml:space="preserve"
         style="font-size:4.23333px;line-height:normal;font-family:'IBM Plex Sans';-inkscape-font-specification:'IBM Plex Sans, Normal';text-align:end;text-decoration-color:#000000;text-anchor:end;fill:none;stroke:#0f62fe;stroke-width:0.2;stroke-linecap:square;stroke-linejoin:round;-inkscape-stroke:none;paint-order:markers fill stroke"
         x="68.096619"
         y="128.42496"
         id="text54"><tspan
           sodipodi:role="line"
           id="tspan54"
           style="font-size:4.23333px;fill:#0f62fe;stroke:none;stroke-width:0.2"
           x="68.096619"
           y="128.42496">V</tspan></text>
      <path
         style="fill:none;stroke:#0f62fe;stroke-width:0.7;stroke-linecap:square;stroke-linejoin:round;stroke-dashoffset:0.340157;paint-order:markers fill stroke;stroke-dasharray:none;font-variation-settings:normal;opacity:1;vector-effect:none;fill-opacity:1;stroke-miterlimit:4;stroke-opacity:1;-inkscape-stroke:none;stop-color:#000000;stop-opacity:1"
         d="m 36.777083,84.666668 h 57.41458"
         id="path54"
         sodipodi:nodetypes="cc" />
      <path
         style="fill:#ee5396;stroke:#4d5358;stroke-width:0.7;stroke-linecap:square;stroke-linejoin:round;stroke-dasharray:0.7, 2.1;stroke-dashoffset:0;paint-order:markers fill stroke"
         d="m 36.512501,101.86454 h 57.41458"
         id="path55"
         sodipodi:nodetypes="cc" />
      <path
         style="fill:#ee5396;stroke:#4d5358;stroke-width:0.7;stroke-linecap:square;stroke-linejoin:round;stroke-dasharray:0.7, 2.1;stroke-dashoffset:0;paint-order:markers fill stroke"
         d="m 36.902074,59.531252 h 57.41458"
         id="path56"
         sodipodi:nodetypes="cc" />
      <g
         id="g105"
         style="fill:#0f62fe">
        <g
           inkscape:label=""
           transform="translate(99.221916,80.008899)"
           id="g58"
           style="fill:#0f62fe">
          <g
             fill="#000000"
             fill-opacity="1"
             id="g4"
             transform="matrix(0.352778,0,0,0.352778,-0.873963,-0.638395)"
             style="fill:#0f62fe">
            <g
               id="use3"
               transform="translate(1.993,10.294)"
               style="fill:#0f62fe">
              <path
                 d="m 3.109375,-5.21875 c -1.53125,0.375 -2.625,1.96875 -2.625,3.359375 0,1.28125 0.859375,2 1.8125,2 1.40625,0 2.359375,-1.9375 2.359375,-3.515625 0,-1.078125 -0.5,-1.734375 -0.796875,-2.140625 C 3.421875,-6.078125 2.703125,-7 2.703125,-7.5625 c 0,-0.203125 0.15625,-0.5625 0.671875,-0.5625 0.375,0 0.609375,0.125 0.96875,0.328125 0.109375,0.078125 0.375,0.234375 0.53125,0.234375 0.25,0 0.4375,-0.25 0.4375,-0.453125 0,-0.21875 -0.1875,-0.25 -0.609375,-0.34375 -0.5625,-0.125 -0.71875,-0.125 -0.921875,-0.125 -0.203125,0 -1.375,0 -1.375,1.21875 0,0.578125 0.296875,1.265625 0.703125,2.046875 z m 0.125,0.234375 C 3.6875,-4.046875 3.875,-3.6875 3.875,-2.90625 c 0,0.9375 -0.5,2.8125 -1.5625,2.8125 -0.46875,0 -1.140625,-0.3125 -1.140625,-1.421875 0,-0.78125 0.4375,-3.03125 2.0625,-3.46875 z m 0,0"
                 id="path57"
                 style="fill:#0f62fe" />
            </g>
          </g>
          <g
             fill="#000000"
             fill-opacity="1"
             id="g5"
             transform="matrix(0.352778,0,0,0.352778,-0.873963,-0.638395)"
             style="fill:#0f62fe">
            <g
               id="use4"
               transform="translate(10.946,10.294)"
               style="fill:#0f62fe">
              <path
                 d="m 8.0625,-3.875 c 0.171875,0 0.390625,0 0.390625,-0.21875 C 8.453125,-4.3125 8.25,-4.3125 8.0625,-4.3125 H 1.03125 c -0.171875,0 -0.390625,0 -0.390625,0.21875 0,0.21875 0.203125,0.21875 0.390625,0.21875 z m 0,2.21875 c 0.171875,0 0.390625,0 0.390625,-0.203125 C 8.453125,-2.09375 8.25,-2.09375 8.0625,-2.09375 H 1.03125 c -0.171875,0 -0.390625,0 -0.390625,0.21875 0,0.21875 0.203125,0.21875 0.390625,0.21875 z m 0,0"
                 id="path7"
                 style="fill:#0f62fe" />
            </g>
          </g>
          <g
             fill="#000000"
             fill-opacity="1"
             id="g6"
             transform="matrix(0.352778,0,0,0.352778,-0.873963,-0.638395)"
             style="fill:#0f62fe">
            <g
               id="use5"
               transform="translate(23.374626,10.294)"
               style="fill:#0f62fe">
              <path
                 d="m 5.359375,-3.828125 c 0,-0.984375 -0.0625,-1.953125 -0.5,-2.859375 -0.484375,-1 -1.34375,-1.265625 -1.9375,-1.265625 -0.6875,0 -1.53125,0.34375 -1.984375,1.34375 -0.328125,0.75 -0.453125,1.5 -0.453125,2.78125 0,1.15625 0.09375,2.03125 0.515625,2.890625 0.46875,0.90625 1.296875,1.1875 1.921875,1.1875 1.03125,0 1.625,-0.625 1.984375,-1.3125 0.421875,-0.890625 0.453125,-2.0625 0.453125,-2.765625 z m -2.4375,3.84375 C 2.53125,0.015625 1.75,-0.203125 1.53125,-1.5 c -0.125,-0.71875 -0.125,-1.625 -0.125,-2.46875 0,-0.984375 0,-1.859375 0.1875,-2.5625 0.203125,-0.8125 0.8125,-1.171875 1.328125,-1.171875 0.453125,0 1.140625,0.265625 1.375,1.296875 0.15625,0.6875 0.15625,1.625 0.15625,2.4375 0,0.796875 0,1.703125 -0.140625,2.4375 -0.21875,1.3125 -0.984375,1.546875 -1.390625,1.546875 z m 0,0"
                 id="path58"
                 style="fill:#0f62fe" />
            </g>
          </g>
        </g>
        <g
           inkscape:label=""
           transform="translate(99.221915,84.790665)"
           id="g65"
           style="fill:#0f62fe">
          <g
             fill="#000000"
             fill-opacity="1"
             id="g60"
             transform="matrix(0.352778,0,0,0.352778,-0.896011,-0.614848)"
             style="fill:#0f62fe">
            <g
               id="g59"
               transform="translate(1.993,9.6960001)"
               style="fill:#0f62fe">
              <path
                 d="m 3.484375,-2.71875 c 0.171875,0 0.375,0 0.375,-0.1875 0,-0.15625 -0.125,-0.15625 -0.328125,-0.15625 h -1.9375 c 0.296875,-1.078125 1,-1.75 2.0625,-1.75 H 4 c 0.203125,0 0.390625,0 0.390625,-0.1875 0,-0.15625 -0.140625,-0.15625 -0.34375,-0.15625 h -0.40625 c -1.484375,0 -3.09375,1.171875 -3.09375,3.046875 0,1.328125 0.90625,2.234375 2.078125,2.234375 0.765625,0 1.515625,-0.484375 1.515625,-0.609375 0,-0.0625 -0.03125,-0.140625 -0.09375,-0.140625 -0.046875,0 -0.0625,0.015625 -0.125,0.0625 -0.453125,0.296875 -0.890625,0.4375 -1.25,0.4375 -0.640625,0 -1.3125,-0.40625 -1.3125,-1.578125 0,-0.21875 0.03125,-0.53125 0.140625,-1.015625 z m 0,0"
                 id="path59"
                 style="fill:#0f62fe" />
            </g>
          </g>
          <g
             fill="#000000"
             fill-opacity="1"
             id="g62"
             transform="matrix(0.352778,0,0,0.352778,-0.896011,-0.614848)"
             style="fill:#0f62fe">
            <g
               id="g61"
               transform="translate(10.04,9.6960001)"
               style="fill:#0f62fe">
              <path
                 d="m 8.0625,-3.875 c 0.171875,0 0.390625,0 0.390625,-0.21875 C 8.453125,-4.3125 8.25,-4.3125 8.0625,-4.3125 H 1.03125 c -0.171875,0 -0.390625,0 -0.390625,0.21875 0,0.21875 0.203125,0.21875 0.390625,0.21875 z m 0,2.21875 c 0.171875,0 0.390625,0 0.390625,-0.203125 C 8.453125,-2.09375 8.25,-2.09375 8.0625,-2.09375 H 1.03125 c -0.171875,0 -0.390625,0 -0.390625,0.21875 0,0.21875 0.203125,0.21875 0.390625,0.21875 z m 0,0"
                 id="path60"
                 style="fill:#0f62fe" />
            </g>
          </g>
          <g
             fill="#000000"
             fill-opacity="1"
             id="g64"
             transform="matrix(0.352778,0,0,0.352778,-0.896011,-0.614848)"
             style="fill:#0f62fe">
            <g
               id="g63"
               transform="translate(22.468626,9.6960001)"
               style="fill:#0f62fe">
              <path
                 d="m 5.359375,-3.828125 c 0,-0.984375 -0.0625,-1.953125 -0.5,-2.859375 -0.484375,-1 -1.34375,-1.265625 -1.9375,-1.265625 -0.6875,0 -1.53125,0.34375 -1.984375,1.34375 -0.328125,0.75 -0.453125,1.5 -0.453125,2.78125 0,1.15625 0.09375,2.03125 0.515625,2.890625 0.46875,0.90625 1.296875,1.1875 1.921875,1.1875 1.03125,0 1.625,-0.625 1.984375,-1.3125 0.421875,-0.890625 0.453125,-2.0625 0.453125,-2.765625 z m -2.4375,3.84375 C 2.53125,0.015625 1.75,-0.203125 1.53125,-1.5 c -0.125,-0.71875 -0.125,-1.625 -0.125,-2.46875 0,-0.984375 0,-1.859375 0.1875,-2.5625 0.203125,-0.8125 0.8125,-1.171875 1.328125,-1.171875 0.453125,0 1.140625,0.265625 1.375,1.296875 0.15625,0.6875 0.15625,1.625 0.15625,2.4375 0,0.796875 0,1.703125 -0.140625,2.4375 -0.21875,1.3125 -0.984375,1.546875 -1.390625,1.546875 z m 0,0"
                 id="path62"
                 style="fill:#0f62fe" />
            </g>
          </g>
        </g>
      </g>
      <g
         id="g104"
         style="fill:#eb6200"
         transform="translate(0.097539)">
        <g
           inkscape:label=""
           transform="translate(99.124376,60.330513)"
           id="g75"
           style="fill:#eb6200">
          <g
             fill="#000000"
             fill-opacity="1"
             id="g70"
             transform="matrix(0.352778,0,0,0.352778,-0.896011,-0.614848)"
             style="fill:#eb6200">
            <g
               id="g69"
               transform="translate(1.993,9.6960001)"
               style="fill:#eb6200">
              <path
                 d="m 3.484375,-2.71875 c 0.171875,0 0.375,0 0.375,-0.1875 0,-0.15625 -0.125,-0.15625 -0.328125,-0.15625 h -1.9375 c 0.296875,-1.078125 1,-1.75 2.0625,-1.75 H 4 c 0.203125,0 0.390625,0 0.390625,-0.1875 0,-0.15625 -0.140625,-0.15625 -0.34375,-0.15625 h -0.40625 c -1.484375,0 -3.09375,1.171875 -3.09375,3.046875 0,1.328125 0.90625,2.234375 2.078125,2.234375 0.765625,0 1.515625,-0.484375 1.515625,-0.609375 0,-0.0625 -0.03125,-0.140625 -0.09375,-0.140625 -0.046875,0 -0.0625,0.015625 -0.125,0.0625 -0.453125,0.296875 -0.890625,0.4375 -1.25,0.4375 -0.640625,0 -1.3125,-0.40625 -1.3125,-1.578125 0,-0.21875 0.03125,-0.53125 0.140625,-1.015625 z m 0,0"
                 id="path68"
                 style="fill:#eb6200" />
            </g>
          </g>
          <g
             fill="#000000"
             fill-opacity="1"
             id="g72"
             transform="matrix(0.352778,0,0,0.352778,-0.896011,-0.614848)"
             style="fill:#eb6200">
            <g
               id="g71"
               transform="translate(10.04,9.6960001)"
               style="fill:#eb6200">
              <path
                 d="m 8.0625,-3.875 c 0.171875,0 0.390625,0 0.390625,-0.21875 C 8.453125,-4.3125 8.25,-4.3125 8.0625,-4.3125 H 1.03125 c -0.171875,0 -0.390625,0 -0.390625,0.21875 0,0.21875 0.203125,0.21875 0.390625,0.21875 z m 0,2.21875 c 0.171875,0 0.390625,0 0.390625,-0.203125 C 8.453125,-2.09375 8.25,-2.09375 8.0625,-2.09375 H 1.03125 c -0.171875,0 -0.390625,0 -0.390625,0.21875 0,0.21875 0.203125,0.21875 0.390625,0.21875 z m 0,0"
                 id="path70"
                 style="fill:#eb6200" />
            </g>
          </g>
          <g
             fill="#000000"
             fill-opacity="1"
             id="g74"
             transform="matrix(0.352778,0,0,0.352778,-0.896011,-0.614848)"
             style="fill:#eb6200">
            <g
               id="g73"
               transform="translate(22.468626,9.6960001)"
               style="fill:#eb6200">
              <path
                 d="m 3.4375,-7.65625 c 0,-0.28125 0,-0.296875 -0.234375,-0.296875 C 2.921875,-7.625 2.3125,-7.1875 1.09375,-7.1875 v 0.34375 c 0.265625,0 0.859375,0 1.53125,-0.296875 v 6.21875 c 0,0.4375 -0.046875,0.578125 -1.09375,0.578125 h -0.375 V 0 c 0.328125,-0.03125 1.484375,-0.03125 1.875,-0.03125 0.40625,0 1.546875,0 1.875,0.03125 v -0.34375 h -0.375 c -1.046875,0 -1.09375,-0.140625 -1.09375,-0.578125 z m 0,0"
                 id="path72"
                 style="fill:#eb6200" />
            </g>
          </g>
        </g>
        <g
           inkscape:label=""
           transform="translate(99.124377,55.860643)"
           id="g82"
           style="fill:#eb6200">
          <g
             fill="#000000"
             fill-opacity="1"
             id="g77"
             transform="matrix(0.352778,0,0,0.352778,-0.873963,-0.638748)"
             style="fill:#eb6200">
            <g
               id="g76"
               transform="translate(1.993,10.295)"
               style="fill:#eb6200">
              <path
                 d="m 3.109375,-5.21875 c -1.53125,0.375 -2.625,1.96875 -2.625,3.359375 0,1.28125 0.859375,2 1.8125,2 1.40625,0 2.359375,-1.9375 2.359375,-3.515625 0,-1.078125 -0.5,-1.734375 -0.796875,-2.140625 C 3.421875,-6.078125 2.703125,-7 2.703125,-7.5625 c 0,-0.203125 0.15625,-0.5625 0.671875,-0.5625 0.375,0 0.609375,0.125 0.96875,0.328125 0.109375,0.078125 0.375,0.234375 0.53125,0.234375 0.25,0 0.4375,-0.25 0.4375,-0.453125 0,-0.21875 -0.1875,-0.25 -0.609375,-0.34375 -0.5625,-0.125 -0.71875,-0.125 -0.921875,-0.125 -0.203125,0 -1.375,0 -1.375,1.21875 0,0.578125 0.296875,1.265625 0.703125,2.046875 z m 0.125,0.234375 C 3.6875,-4.046875 3.875,-3.6875 3.875,-2.90625 c 0,0.9375 -0.5,2.8125 -1.5625,2.8125 -0.46875,0 -1.140625,-0.3125 -1.140625,-1.421875 0,-0.78125 0.4375,-3.03125 2.0625,-3.46875 z m 0,0"
                 id="path75"
                 style="fill:#eb6200" />
            </g>
          </g>
          <g
             fill="#000000"
             fill-opacity="1"
             id="g79"
             transform="matrix(0.352778,0,0,0.352778,-0.873963,-0.638748)"
             style="fill:#eb6200">
            <g
               id="g78"
               transform="translate(10.943858,10.295)"
               style="fill:#eb6200">
              <path
                 d="m 7.875,-2.71875 c 0.234375,-0.109375 0.234375,-0.1875 0.234375,-0.265625 0,-0.078125 -0.015625,-0.15625 -0.234375,-0.25 L 1.40625,-6.21875 C 1.25,-6.28125 1.234375,-6.296875 1.203125,-6.296875 c -0.140625,0 -0.21875,0.109375 -0.21875,0.21875 0,0.140625 0.09375,0.1875 0.25,0.25 L 7.375,-2.984375 1.21875,-0.140625 C 0.984375,-0.03125 0.984375,0.046875 0.984375,0.125 c 0,0.09375 0.078125,0.203125 0.21875,0.203125 0.03125,0 0.046875,0 0.203125,-0.078125 z m 0,0"
                 id="path77"
                 style="fill:#eb6200" />
            </g>
          </g>
          <g
             fill="#000000"
             fill-opacity="1"
             id="g81"
             transform="matrix(0.352778,0,0,0.352778,-0.873963,-0.638748)"
             style="fill:#eb6200">
            <g
               id="g80"
               transform="translate(23.372,10.295)"
               style="fill:#eb6200">
              <path
                 d="m 5.359375,-3.828125 c 0,-0.984375 -0.0625,-1.953125 -0.5,-2.859375 -0.484375,-1 -1.34375,-1.265625 -1.9375,-1.265625 -0.6875,0 -1.53125,0.34375 -1.984375,1.34375 -0.328125,0.75 -0.453125,1.5 -0.453125,2.78125 0,1.15625 0.09375,2.03125 0.515625,2.890625 0.46875,0.90625 1.296875,1.1875 1.921875,1.1875 1.03125,0 1.625,-0.625 1.984375,-1.3125 0.421875,-0.890625 0.453125,-2.0625 0.453125,-2.765625 z m -2.4375,3.84375 C 2.53125,0.015625 1.75,-0.203125 1.53125,-1.5 c -0.125,-0.71875 -0.125,-1.625 -0.125,-2.46875 0,-0.984375 0,-1.859375 0.1875,-2.5625 0.203125,-0.8125 0.8125,-1.171875 1.328125,-1.171875 0.453125,0 1.140625,0.265625 1.375,1.296875 0.15625,0.6875 0.15625,1.625 0.15625,2.4375 0,0.796875 0,1.703125 -0.140625,2.4375 -0.21875,1.3125 -0.984375,1.546875 -1.390625,1.546875 z m 0,0"
                 id="path79"
                 style="fill:#eb6200" />
            </g>
          </g>
        </g>
      </g>
      <g
         id="g106"
         style="fill:#ee5396"
         transform="translate(1.989975,-7.9375004)">
        <g
           inkscape:label=""
           transform="translate(97.23194,109.7194)"
           id="g68"
           style="fill:#ee5396">
          <g
             fill="#000000"
             fill-opacity="1"
             id="g67"
             transform="matrix(0.352778,0,0,0.352778,-0.896011,-0.614848)"
             style="fill:#ee5396">
            <g
               id="g66"
               transform="translate(1.993,9.6960001)"
               style="fill:#ee5396">
              <path
                 d="m 3.484375,-2.71875 c 0.171875,0 0.375,0 0.375,-0.1875 0,-0.15625 -0.125,-0.15625 -0.328125,-0.15625 h -1.9375 c 0.296875,-1.078125 1,-1.75 2.0625,-1.75 H 4 c 0.203125,0 0.390625,0 0.390625,-0.1875 0,-0.15625 -0.140625,-0.15625 -0.34375,-0.15625 h -0.40625 c -1.484375,0 -3.09375,1.171875 -3.09375,3.046875 0,1.328125 0.90625,2.234375 2.078125,2.234375 0.765625,0 1.515625,-0.484375 1.515625,-0.609375 0,-0.0625 -0.03125,-0.140625 -0.09375,-0.140625 -0.046875,0 -0.0625,0.015625 -0.125,0.0625 -0.453125,0.296875 -0.890625,0.4375 -1.25,0.4375 -0.640625,0 -1.3125,-0.40625 -1.3125,-1.578125 0,-0.21875 0.03125,-0.53125 0.140625,-1.015625 z m 0,0"
                 id="path10"
                 style="fill:#ee5396" />
            </g>
          </g>
          <g
             fill="#000000"
             fill-opacity="1"
             id="g7"
             transform="matrix(0.352778,0,0,0.352778,-0.896011,-0.614848)"
             style="fill:#ee5396">
            <g
               id="use6"
               transform="translate(10.04,9.6960001)"
               style="fill:#ee5396">
              <path
                 d="m 8.0625,-3.875 c 0.171875,0 0.390625,0 0.390625,-0.21875 C 8.453125,-4.3125 8.25,-4.3125 8.0625,-4.3125 H 1.03125 c -0.171875,0 -0.390625,0 -0.390625,0.21875 0,0.21875 0.203125,0.21875 0.390625,0.21875 z m 0,2.21875 c 0.171875,0 0.390625,0 0.390625,-0.203125 C 8.453125,-2.09375 8.25,-2.09375 8.0625,-2.09375 H 1.03125 c -0.171875,0 -0.390625,0 -0.390625,0.21875 0,0.21875 0.203125,0.21875 0.390625,0.21875 z m 0,0"
                 id="path11"
                 style="fill:#ee5396" />
            </g>
          </g>
          <g
             fill="#000000"
             fill-opacity="1"
             id="g8"
             transform="matrix(0.352778,0,0,0.352778,-0.896011,-0.614848)"
             style="fill:#ee5396">
            <g
               id="use7"
               transform="translate(22.468626,9.6960001)"
               style="fill:#ee5396">
              <path
                 d="m 5.359375,-3.828125 c 0,-0.984375 -0.0625,-1.953125 -0.5,-2.859375 -0.484375,-1 -1.34375,-1.265625 -1.9375,-1.265625 -0.6875,0 -1.53125,0.34375 -1.984375,1.34375 -0.328125,0.75 -0.453125,1.5 -0.453125,2.78125 0,1.15625 0.09375,2.03125 0.515625,2.890625 0.46875,0.90625 1.296875,1.1875 1.921875,1.1875 1.03125,0 1.625,-0.625 1.984375,-1.3125 0.421875,-0.890625 0.453125,-2.0625 0.453125,-2.765625 z m -2.4375,3.84375 C 2.53125,0.015625 1.75,-0.203125 1.53125,-1.5 c -0.125,-0.71875 -0.125,-1.625 -0.125,-2.46875 0,-0.984375 0,-1.859375 0.1875,-2.5625 0.203125,-0.8125 0.8125,-1.171875 1.328125,-1.171875 0.453125,0 1.140625,0.265625 1.375,1.296875 0.15625,0.6875 0.15625,1.625 0.15625,2.4375 0,0.796875 0,1.703125 -0.140625,2.4375 -0.21875,1.3125 -0.984375,1.546875 -1.390625,1.546875 z m 0,0"
                 id="path12"
                 style="fill:#ee5396" />
            </g>
          </g>
          <g
             fill="#000000"
             fill-opacity="1"
             id="g9"
             transform="matrix(0.352778,0,0,0.352778,-0.896011,-0.614848)"
             style="fill:#ee5396">
            <g
               id="use8"
               transform="translate(28.319,9.6960001)"
               style="fill:#ee5396">
              <path
                 d="m 2.203125,-0.578125 c 0,-0.34375 -0.296875,-0.578125 -0.578125,-0.578125 -0.34375,0 -0.578125,0.28125 -0.578125,0.578125 0,0.34375 0.28125,0.578125 0.5625,0.578125 0.34375,0 0.59375,-0.28125 0.59375,-0.578125 z m 0,0"
                 id="path13"
                 style="fill:#ee5396" />
            </g>
          </g>
          <g
             fill="#000000"
             fill-opacity="1"
             id="g10"
             transform="matrix(0.352778,0,0,0.352778,-0.896011,-0.614848)"
             style="fill:#ee5396">
            <g
               id="use9"
               transform="translate(31.57,9.6960001)"
               style="fill:#ee5396">
              <path
                 d="m 1.53125,-6.84375 c 0.515625,0.15625 0.9375,0.171875 1.0625,0.171875 1.34375,0 2.21875,-0.984375 2.21875,-1.15625 0,-0.046875 -0.03125,-0.109375 -0.109375,-0.109375 -0.015625,0 -0.046875,0 -0.15625,0.046875 C 3.890625,-7.609375 3.3125,-7.5625 3,-7.5625 c -0.78125,0 -1.34375,-0.25 -1.578125,-0.34375 C 1.34375,-7.9375 1.3125,-7.9375 1.296875,-7.9375 c -0.09375,0 -0.09375,0.078125 -0.09375,0.265625 V -4.125 c 0,0.21875 0,0.28125 0.140625,0.28125 0.0625,0 0.078125,0 0.203125,-0.15625 C 1.875,-4.484375 2.4375,-4.765625 3.03125,-4.765625 c 0.640625,0 0.953125,0.578125 1.046875,0.78125 0.203125,0.46875 0.21875,1.0625 0.21875,1.515625 0,0.453125 0,1.125 -0.34375,1.671875 -0.265625,0.421875 -0.71875,0.71875 -1.25,0.71875 -0.796875,0 -1.5625,-0.53125 -1.78125,-1.40625 0.0625,0.03125 0.125,0.03125 0.1875,0.03125 0.203125,0 0.53125,-0.109375 0.53125,-0.515625 0,-0.34375 -0.234375,-0.53125 -0.53125,-0.53125 -0.21875,0 -0.53125,0.109375 -0.53125,0.578125 0,1.015625 0.828125,2.171875 2.140625,2.171875 1.359375,0 2.546875,-1.140625 2.546875,-2.65625 0,-1.421875 -0.96875,-2.609375 -2.21875,-2.609375 -0.6875,0 -1.203125,0.3125 -1.515625,0.640625 z m 0,0"
                 id="path14"
                 style="fill:#ee5396" />
            </g>
          </g>
        </g>
        <g
           inkscape:label=""
           transform="translate(97.231941,104.49388)"
           id="g89"
           style="fill:#ee5396">
          <g
             fill="#000000"
             fill-opacity="1"
             id="g84"
             transform="matrix(0.352778,0,0,0.352778,-0.873963,-0.638748)"
             style="fill:#ee5396">
            <g
               id="g83"
               transform="translate(1.993,10.295)"
               style="fill:#ee5396">
              <path
                 d="m 3.109375,-5.21875 c -1.53125,0.375 -2.625,1.96875 -2.625,3.359375 0,1.28125 0.859375,2 1.8125,2 1.40625,0 2.359375,-1.9375 2.359375,-3.515625 0,-1.078125 -0.5,-1.734375 -0.796875,-2.140625 C 3.421875,-6.078125 2.703125,-7 2.703125,-7.5625 c 0,-0.203125 0.15625,-0.5625 0.671875,-0.5625 0.375,0 0.609375,0.125 0.96875,0.328125 0.109375,0.078125 0.375,0.234375 0.53125,0.234375 0.25,0 0.4375,-0.25 0.4375,-0.453125 0,-0.21875 -0.1875,-0.25 -0.609375,-0.34375 -0.5625,-0.125 -0.71875,-0.125 -0.921875,-0.125 -0.203125,0 -1.375,0 -1.375,1.21875 0,0.578125 0.296875,1.265625 0.703125,2.046875 z m 0.125,0.234375 C 3.6875,-4.046875 3.875,-3.6875 3.875,-2.90625 c 0,0.9375 -0.5,2.8125 -1.5625,2.8125 -0.46875,0 -1.140625,-0.3125 -1.140625,-1.421875 0,-0.78125 0.4375,-3.03125 2.0625,-3.46875 z m 0,0"
                 id="path82"
                 style="fill:#ee5396" />
            </g>
          </g>
          <g
             fill="#000000"
             fill-opacity="1"
             id="g86"
             transform="matrix(0.352778,0,0,0.352778,-0.873963,-0.638748)"
             style="fill:#ee5396">
            <g
               id="g85"
               transform="translate(10.943858,10.295)"
               style="fill:#ee5396">
              <path
                 d="m 7.875,-5.828125 c 0.21875,-0.09375 0.234375,-0.171875 0.234375,-0.25 0,-0.125 -0.09375,-0.21875 -0.21875,-0.21875 -0.03125,0 -0.03125,0.015625 -0.203125,0.078125 L 1.21875,-3.234375 C 1,-3.140625 0.984375,-3.0625 0.984375,-2.984375 c 0,0.078125 0,0.15625 0.234375,0.265625 L 7.6875,0.25 c 0.15625,0.078125 0.171875,0.078125 0.203125,0.078125 0.125,0 0.21875,-0.09375 0.21875,-0.21875 0,-0.078125 -0.015625,-0.15625 -0.234375,-0.25 L 1.71875,-2.96875 Z m 0,0"
                 id="path84"
                 style="fill:#ee5396" />
            </g>
          </g>
          <g
             fill="#000000"
             fill-opacity="1"
             id="g88"
             transform="matrix(0.352778,0,0,0.352778,-0.873963,-0.638748)"
             style="fill:#ee5396">
            <g
               id="g87"
               transform="translate(23.372,10.295)"
               style="fill:#ee5396">
              <path
                 d="m 5.359375,-3.828125 c 0,-0.984375 -0.0625,-1.953125 -0.5,-2.859375 -0.484375,-1 -1.34375,-1.265625 -1.9375,-1.265625 -0.6875,0 -1.53125,0.34375 -1.984375,1.34375 -0.328125,0.75 -0.453125,1.5 -0.453125,2.78125 0,1.15625 0.09375,2.03125 0.515625,2.890625 0.46875,0.90625 1.296875,1.1875 1.921875,1.1875 1.03125,0 1.625,-0.625 1.984375,-1.3125 0.421875,-0.890625 0.453125,-2.0625 0.453125,-2.765625 z m -2.4375,3.84375 C 2.53125,0.015625 1.75,-0.203125 1.53125,-1.5 c -0.125,-0.71875 -0.125,-1.625 -0.125,-2.46875 0,-0.984375 0,-1.859375 0.1875,-2.5625 0.203125,-0.8125 0.8125,-1.171875 1.328125,-1.171875 0.453125,0 1.140625,0.265625 1.375,1.296875 0.15625,0.6875 0.15625,1.625 0.15625,2.4375 0,0.796875 0,1.703125 -0.140625,2.4375 -0.21875,1.3125 -0.984375,1.546875 -1.390625,1.546875 z m 0,0"
                 id="path86"
                 style="fill:#ee5396" />
            </g>
          </g>
        </g>
      </g>
      <g
         inkscape:label=""
         transform="translate(28.884368,49.747929)"
         id="g103">
        <g
           fill="#000000"
           fill-opacity="1"
           id="g3"
           transform="matrix(0.352778,0,0,0.352778,-1.12448,-0.673232)">
          <g
             id="use2"
             transform="translate(5.1209998,5.4239998)">
            <path
               d="m 4.4375,-2.90625 c 0,-0.609375 -0.359375,-0.609375 -0.390625,-0.609375 -0.203125,0 -0.421875,0.203125 -0.421875,0.40625 0,0.125 0.0625,0.1875 0.140625,0.25 0.171875,0.15625 0.296875,0.390625 0.296875,0.640625 0,0.515625 -0.703125,2.078125 -1.703125,2.078125 -0.28125,0 -0.828125,-0.078125 -0.828125,-0.78125 0,-0.375 0.203125,-0.890625 0.4375,-1.53125 0.078125,-0.15625 0.109375,-0.234375 0.109375,-0.390625 0,-0.421875 -0.359375,-0.671875 -0.71875,-0.671875 -0.796875,0 -1.125,1.125 -1.125,1.21875 0,0.078125 0.0625,0.109375 0.125,0.109375 0.109375,0 0.109375,-0.046875 0.140625,-0.125 0.203125,-0.703125 0.546875,-0.984375 0.828125,-0.984375 0.125,0 0.1875,0.078125 0.1875,0.265625 0,0.171875 -0.0625,0.359375 -0.109375,0.5 C 1.046875,-1.609375 0.953125,-1.296875 0.953125,-1 c 0,0.8125 0.6875,1.078125 1.375,1.078125 0.625,0 1.078125,-0.421875 1.34375,-0.78125 C 4.3125,-1.53125 4.4375,-2.65625 4.4375,-2.90625 Z m 0,0"
               id="path5" />
          </g>
        </g>
        <path
           fill="none"
           stroke-width="0.478"
           stroke-linecap="butt"
           stroke-linejoin="miter"
           stroke="#000000"
           stroke-opacity="1"
           stroke-miterlimit="10"
           d="M 0,5.2322502 H 8.746094"
           id="path3"
           transform="scale(0.352778)" />
        <g
           fill="#000000"
           fill-opacity="1"
           id="g100"
           transform="matrix(0.352778,0,0,0.352778,-1.12448,-0.673232)">
          <g
             id="g99"
             transform="translate(3.188,14.254)">
            <path
               d="m 4.4375,-2.90625 c 0,-0.609375 -0.359375,-0.609375 -0.390625,-0.609375 -0.203125,0 -0.421875,0.203125 -0.421875,0.40625 0,0.125 0.0625,0.1875 0.140625,0.25 0.171875,0.15625 0.296875,0.390625 0.296875,0.640625 0,0.515625 -0.703125,2.078125 -1.703125,2.078125 -0.28125,0 -0.828125,-0.078125 -0.828125,-0.78125 0,-0.375 0.203125,-0.890625 0.4375,-1.53125 0.078125,-0.15625 0.109375,-0.234375 0.109375,-0.390625 0,-0.421875 -0.359375,-0.671875 -0.71875,-0.671875 -0.796875,0 -1.125,1.125 -1.125,1.21875 0,0.078125 0.0625,0.109375 0.125,0.109375 0.109375,0 0.109375,-0.046875 0.140625,-0.125 0.203125,-0.703125 0.546875,-0.984375 0.828125,-0.984375 0.125,0 0.1875,0.078125 0.1875,0.265625 0,0.171875 -0.0625,0.359375 -0.109375,0.5 C 1.046875,-1.609375 0.953125,-1.296875 0.953125,-1 c 0,0.8125 0.6875,1.078125 1.375,1.078125 0.625,0 1.078125,-0.421875 1.34375,-0.78125 C 4.3125,-1.53125 4.4375,-2.65625 4.4375,-2.90625 Z m 0,0"
               id="path98" />
          </g>
        </g>
        <g
           fill="#000000"
           fill-opacity="1"
           id="g102"
           transform="matrix(0.352778,0,0,0.352778,-1.12448,-0.673232)">
          <g
             id="g101"
             transform="translate(7.7820001,15.36)">
            <path
               d="m 3.296875,-1.90625 c 0,-0.4375 0,-2.078125 -1.46875,-2.078125 -1.46875,0 -1.46875,1.640625 -1.46875,2.078125 0,0.421875 0,2.03125 1.46875,2.03125 1.46875,0 1.46875,-1.609375 1.46875,-2.03125 z m -1.46875,1.84375 c -0.25,0 -0.65625,-0.125 -0.8125,-0.625 -0.09375,-0.34375 -0.09375,-0.921875 -0.09375,-1.296875 0,-0.40625 0,-0.859375 0.09375,-1.1875 0.140625,-0.53125 0.59375,-0.609375 0.8125,-0.609375 0.265625,0 0.671875,0.125 0.796875,0.578125 0.09375,0.3125 0.09375,0.75 0.09375,1.21875 0,0.375 0,0.984375 -0.09375,1.3125 C 2.453125,-0.140625 2.015625,-0.0625 1.828125,-0.0625 Z m 0,0"
               id="path100" />
          </g>
        </g>
      </g>
      <path
         style="fill:none;stroke:#ee5396;stroke-width:0.7;stroke-linecap:square;stroke-linejoin:round;stroke-dasharray:none;stroke-dashoffset:0.340157;paint-order:markers fill stroke"
         d="m 37.189818,85.27591 c 23.664347,13.942843 41.132004,14.323181 56.907581,16.72191"
         id="path106"
         sodipodi:nodetypes="cc" />
    </g>
  </g>
</svg>
