<?xml version="1.0" encoding="UTF-8" standalone="no"?>
<!-- Created with Inkscape (http://www.inkscape.org/) -->

<svg
   width="210mm"
   height="297mm"
   viewBox="0 0 210 297"
   version="1.1"
   id="svg1"
   inkscape:version="1.3.2 (091e20e, 2023-11-25, custom)"
   sodipodi:docname="elementary_reaction.svg"
   inkscape:export-filename="elementary_reaction.png"
   inkscape:export-xdpi="96"
   inkscape:export-ydpi="96"
   xmlns:inkscape="http://www.inkscape.org/namespaces/inkscape"
   xmlns:sodipodi="http://sodipodi.sourceforge.net/DTD/sodipodi-0.dtd"
   xmlns="http://www.w3.org/2000/svg"
   xmlns:svg="http://www.w3.org/2000/svg">
  <sodipodi:namedview
     id="namedview1"
     pagecolor="#ffffff"
     bordercolor="#000000"
     borderopacity="0.25"
     inkscape:showpageshadow="2"
     inkscape:pageopacity="0.0"
     inkscape:pagecheckerboard="0"
     inkscape:deskcolor="#d1d1d1"
     inkscape:document-units="mm"
     inkscape:zoom="4.7496585"
     inkscape:cx="231.70087"
     inkscape:cy="287.59963"
     inkscape:window-width="2729"
     inkscape:window-height="2088"
     inkscape:window-x="1358"
     inkscape:window-y="0"
     inkscape:window-maximized="0"
     inkscape:current-layer="g1"
     showgrid="true">
    <inkscape:grid
       id="grid36"
       units="px"
       originx="0"
       originy="0"
       spacingx="0.26458333"
       spacingy="0.26458334"
       empcolor="#0099e5"
       empopacity="0.30196078"
       color="#0099e5"
       opacity="0.14901961"
       empspacing="5"
       dotted="false"
       gridanglex="30"
       gridanglez="30"
       visible="true" />
  </sodipodi:namedview>
  <defs
     id="defs1">
    <inkscape:path-effect
       effect="fillet_chamfer"
       id="path-effect39"
       is_visible="true"
       lpeversion="1"
       nodesatellites_param="F,0,0,1,0,0,0,1 @ F,0,0,1,0,2.686211,0,1 @ F,0,0,1,0,2.6738384,0,1 @ F,0,0,1,0,0,0,1 @ F,0,0,1,0,0,0,1"
       radius="0"
       unit="px"
       method="auto"
       mode="F"
       chamfer_steps="1"
       flexible="false"
       use_knot_distance="true"
       apply_no_radius="true"
       apply_with_radius="true"
       only_selected="false"
       hide_knots="false" />
    <marker
       style="overflow:visible"
       id="Dot"
       refX="0"
       refY="0"
       orient="auto"
       inkscape:stockid="Dot"
       markerWidth="1"
       markerHeight="1"
       viewBox="0 0 1 1"
       inkscape:isstock="true"
       inkscape:collect="always"
       preserveAspectRatio="xMidYMid">
      <path
         transform="scale(0.5)"
         style="fill:context-stroke;fill-rule:evenodd;stroke:none"
         d="M 5,0 C 5,2.76 2.76,5 0,5 -2.76,5 -5,2.76 -5,0 c 0,-2.76 2.3,-5 5,-5 2.76,0 5,2.24 5,5 z"
         sodipodi:nodetypes="sssss"
         id="path17" />
    </marker>
    <inkscape:path-effect
       effect="fillet_chamfer"
       id="path-effect37"
       is_visible="true"
       lpeversion="1"
       nodesatellites_param="F,0,0,1,0,0,0,1 @ F,0,0,1,0,2.686211,0,1 @ F,0,0,1,0,2.6738384,0,1 @ F,0,0,1,0,0,0,1 @ F,0,0,1,0,0,0,1"
       radius="0"
       unit="px"
       method="auto"
       mode="F"
       chamfer_steps="1"
       flexible="false"
       use_knot_distance="true"
       apply_no_radius="true"
       apply_with_radius="true"
       only_selected="false"
       hide_knots="false" />
  </defs>
  <g
     inkscape:label="Layer 1"
     inkscape:groupmode="layer"
     id="layer1">
    <g
       inkscape:label=""
       transform="translate(29.2293, 76.3377)"
       id="g1">
      <g
         id="g39"
         inkscape:export-filename="elementary_reaction"
         inkscape:export-xdpi="300"
         inkscape:export-ydpi="300">
        <g
           fill="#000000"
           fill-opacity="1"
           id="g11"
           transform="matrix(0.352778,0,0,0.352778,-59.8454,-2.78933)"
           style="fill:#0043ce">
          <g
             id="use10"
             transform="translate(169.15601,16.438)"
             style="fill:#0043ce">
            <path
               d="m 5.53125,-3.03125 c 0,-1.15625 -0.65625,-2.234375 -1.921875,-2.234375 -1.5625,0 -3.125,1.703125 -3.125,3.40625 0,1.03125 0.640625,1.984375 1.859375,1.984375 0.734375,0 1.625,-0.296875 2.46875,-1.015625 C 4.984375,-0.21875 5.359375,0.125 5.875,0.125 c 0.640625,0 0.96875,-0.671875 0.96875,-0.828125 0,-0.109375 -0.09375,-0.109375 -0.125,-0.109375 -0.09375,0 -0.109375,0.03125 -0.140625,0.125 C 6.46875,-0.375 6.1875,-0.125 5.90625,-0.125 c -0.375,0 -0.375,-0.765625 -0.375,-1.484375 1.21875,-1.46875 1.515625,-2.96875 1.515625,-2.984375 0,-0.109375 -0.109375,-0.109375 -0.140625,-0.109375 -0.109375,0 -0.109375,0.046875 -0.171875,0.25 -0.140625,0.53125 -0.453125,1.46875 -1.203125,2.4375 z m -0.75,1.859375 c -1.046875,0.9375 -2,1.046875 -2.421875,1.046875 -0.84375,0 -1.078125,-0.75 -1.078125,-1.3125 0,-0.515625 0.265625,-1.734375 0.625,-2.390625 0.5,-0.828125 1.171875,-1.203125 1.703125,-1.203125 1.15625,0 1.15625,1.515625 1.15625,2.515625 0,0.296875 -0.015625,0.609375 -0.015625,0.90625 0,0.25 0.015625,0.3125 0.03125,0.4375 z m 0,0"
               id="path21"
               style="fill:#0043ce" />
          </g>
        </g>
        <g
           fill="#000000"
           fill-opacity="1"
           id="g12"
           transform="matrix(0.352778,0,0,0.352778,-59.8454,-2.78933)">
          <g
             id="use11"
             transform="translate(176.67343,16.438)">
            <path
               d="M 2.03125,-1.328125 C 1.609375,-0.625 1.203125,-0.375 0.640625,-0.34375 0.5,-0.328125 0.40625,-0.328125 0.40625,-0.125 c 0,0.078125 0.0625,0.125 0.140625,0.125 0.21875,0 0.75,-0.03125 0.96875,-0.03125 C 1.859375,-0.03125 2.25,0 2.578125,0 c 0.078125,0 0.21875,0 0.21875,-0.234375 0,-0.09375 -0.09375,-0.109375 -0.171875,-0.109375 -0.265625,-0.03125 -0.5,-0.125 -0.5,-0.40625 0,-0.171875 0.078125,-0.296875 0.234375,-0.5625 l 0.90625,-1.515625 H 6.3125 c 0.015625,0.109375 0.015625,0.203125 0.015625,0.3125 0.046875,0.3125 0.1875,1.5625 0.1875,1.78125 0,0.359375 -0.609375,0.390625 -0.796875,0.390625 -0.140625,0 -0.265625,0 -0.265625,0.21875 C 5.453125,0 5.5625,0 5.625,0 5.828125,0 6.078125,-0.03125 6.28125,-0.03125 H 6.953125 C 7.6875,-0.03125 8.21875,0 8.21875,0 8.3125,0 8.4375,0 8.4375,-0.234375 8.4375,-0.34375 8.328125,-0.34375 8.15625,-0.34375 7.5,-0.34375 7.484375,-0.453125 7.453125,-0.8125 L 6.71875,-8.265625 c -0.03125,-0.25 -0.078125,-0.265625 -0.203125,-0.265625 -0.125,0 -0.1875,0.015625 -0.296875,0.203125 z M 3.46875,-3.171875 5.875,-7.1875 6.28125,-3.171875 Z m 0,0"
               id="path22" />
          </g>
        </g>
        <g
           fill="#000000"
           fill-opacity="1"
           id="g13"
           transform="matrix(0.352778,0,0,0.352778,-59.8454,-2.78933)">
          <g
             id="use12"
             transform="translate(188.10899,16.438)">
            <path
               d="M 4.765625,-2.765625 H 8.0625 c 0.171875,0 0.390625,0 0.390625,-0.203125 0,-0.234375 -0.203125,-0.234375 -0.390625,-0.234375 H 4.765625 V -6.5 c 0,-0.171875 0,-0.390625 -0.21875,-0.390625 -0.21875,0 -0.21875,0.203125 -0.21875,0.390625 v 3.296875 H 1.03125 c -0.171875,0 -0.390625,0 -0.390625,0.21875 0,0.21875 0.203125,0.21875 0.390625,0.21875 H 4.328125 V 0.53125 c 0,0.171875 0,0.390625 0.21875,0.390625 0.21875,0 0.21875,-0.203125 0.21875,-0.390625 z m 0,0"
               id="path23" />
          </g>
        </g>
        <g
           fill="#000000"
           fill-opacity="1"
           id="g14"
           transform="matrix(0.352778,0,0,0.352778,-59.8454,-2.78933)"
           style="fill:#eb6200">
          <g
             id="use13"
             transform="translate(199.871,16.438)"
             style="fill:#eb6200">
            <path
               d="m 6.765625,-6.953125 c 0,-0.71875 -0.609375,-1.46875 -1.703125,-1.46875 -1.53125,0 -2.515625,1.890625 -2.828125,3.125 l -1.890625,7.5 C 0.328125,2.296875 0.390625,2.3125 0.453125,2.3125 c 0.078125,0 0.140625,0 0.15625,-0.0625 l 0.84375,-3.34375 C 1.5625,-0.4375 2.21875,0.125 2.921875,0.125 4.640625,0.125 6.25,-1.21875 6.25,-3 6.25,-3.453125 6.140625,-3.90625 5.890625,-4.296875 5.75,-4.515625 5.5625,-4.6875 5.375,-4.828125 c 0.859375,-0.453125 1.390625,-1.1875 1.390625,-2.125 z M 4.6875,-4.84375 C 4.5,-4.765625 4.296875,-4.75 4.078125,-4.75 3.90625,-4.75 3.75,-4.734375 3.53125,-4.8125 c 0.125,-0.078125 0.3125,-0.09375 0.5625,-0.09375 0.203125,0 0.421875,0.015625 0.59375,0.0625 z M 6.140625,-7.0625 c 0,0.65625 -0.3125,1.609375 -1.09375,2.046875 C 4.8125,-5.09375 4.5,-5.15625 4.25,-5.15625 4,-5.15625 3.28125,-5.171875 3.28125,-4.796875 3.28125,-4.46875 3.9375,-4.5 4.140625,-4.5 c 0.3125,0 0.578125,-0.078125 0.875,-0.15625 0.375,0.3125 0.546875,0.71875 0.546875,1.3125 0,0.6875 -0.203125,1.25 -0.421875,1.765625 C 4.75,-0.6875 3.8125,-0.125 2.984375,-0.125 c -0.875,0 -1.328125,-0.6875 -1.328125,-1.5 0,-0.109375 0,-0.265625 0.046875,-0.4375 l 0.78125,-3.15625 c 0.390625,-1.5625 1.40625,-2.96875 2.5625,-2.96875 0.859375,0 1.09375,0.59375 1.09375,1.125 z m 0,0"
               id="path24"
               style="fill:#eb6200" />
          </g>
        </g>
        <g
           fill="#000000"
           fill-opacity="1"
           id="g15"
           transform="matrix(0.352778,0,0,0.352778,-59.8454,-2.78933)">
          <g
             id="use14"
             transform="translate(207.13737,16.438)">
            <path
               d="M 4.375,-7.34375 C 4.484375,-7.796875 4.53125,-7.8125 5,-7.8125 h 1.546875 c 1.359375,0 1.359375,1.140625 1.359375,1.25 0,0.96875 -0.96875,2.203125 -2.546875,2.203125 h -1.71875 z m 2.015625,3.078125 C 7.703125,-4.5 8.875,-5.421875 8.875,-6.515625 8.875,-7.453125 8.0625,-8.15625 6.703125,-8.15625 H 2.875 c -0.234375,0 -0.34375,0 -0.34375,0.21875 0,0.125 0.109375,0.125 0.296875,0.125 0.71875,0 0.71875,0.09375 0.71875,0.21875 0,0.03125 0,0.09375 -0.046875,0.28125 L 1.890625,-0.890625 C 1.78125,-0.46875 1.75,-0.34375 0.921875,-0.34375 c -0.234375,0 -0.34375,0 -0.34375,0.21875 0,0.125 0.0625,0.125 0.3125,0.125 h 4.09375 C 6.8125,0 8.21875,-1.390625 8.21875,-2.59375 c 0,-0.984375 -0.859375,-1.578125 -1.828125,-1.671875 z m -1.6875,3.921875 h -1.625 c -0.15625,0 -0.1875,0 -0.25,-0.015625 -0.140625,-0.015625 -0.15625,-0.03125 -0.15625,-0.125 0,-0.09375 0.03125,-0.15625 0.046875,-0.265625 L 3.5625,-4.125 h 2.25 c 1.40625,0 1.40625,1.3125 1.40625,1.40625 0,1.15625 -1.03125,2.375 -2.515625,2.375 z m 0,0"
               id="path25" />
          </g>
        </g>
        <g
           fill="#000000"
           fill-opacity="1"
           id="g16"
           transform="matrix(0.352778,0,0,0.352778,-59.8454,-2.78933)">
          <g
             id="use15"
             transform="translate(219.959,16.438)">
            <path
               d="m 9.96875,-2.75 c -0.65625,0.5 -0.984375,1 -1.078125,1.140625 -0.53125,0.828125 -0.625,1.578125 -0.625,1.59375 C 8.265625,0.125 8.40625,0.125 8.5,0.125 c 0.203125,0 0.21875,-0.015625 0.265625,-0.234375 0.265625,-1.171875 0.96875,-2.171875 2.328125,-2.71875 0.140625,-0.046875 0.171875,-0.078125 0.171875,-0.15625 0,-0.09375 -0.0625,-0.125 -0.09375,-0.140625 C 10.65625,-3.328125 9.203125,-3.921875 8.75,-5.921875 c -0.03125,-0.15625 -0.046875,-0.1875 -0.25,-0.1875 -0.09375,0 -0.234375,0 -0.234375,0.140625 0,0.03125 0.09375,0.78125 0.609375,1.578125 0.234375,0.359375 0.578125,0.78125 1.09375,1.15625 h -8.875 c -0.21875,0 -0.4375,0 -0.4375,0.25 C 0.65625,-2.75 0.875,-2.75 1.09375,-2.75 Z m 0,0"
               id="path26" />
          </g>
        </g>
        <g
           fill="#000000"
           fill-opacity="1"
           id="g17"
           transform="matrix(0.352778,0,0,0.352778,-59.8454,-2.78933)">
          <g
             id="use16"
             transform="translate(235.235,16.438)">
            <path
               d="M 4.515625,-1.453125 C 4.5,-2.046875 4.46875,-2.96875 4.015625,-4.046875 3.78125,-4.640625 3.375,-5.265625 2.5,-5.265625 c -1.46875,0 -2.265625,1.875 -2.265625,2.1875 0,0.109375 0.078125,0.109375 0.109375,0.109375 0.109375,0 0.109375,-0.03125 0.171875,-0.1875 0.25,-0.734375 1.015625,-1.328125 1.84375,-1.328125 1.65625,0 1.890625,1.859375 1.890625,3.03125 0,0.765625 -0.078125,1.015625 -0.15625,1.25 -0.21875,0.734375 -0.609375,2.21875 -0.609375,2.5625 0,0.09375 0.03125,0.203125 0.125,0.203125 0.1875,0 0.28125,-0.40625 0.421875,-0.875 0.28125,-1.046875 0.359375,-1.578125 0.421875,-2.0625 0.03125,-0.28125 0.703125,-2.25 1.65625,-4.125 0.078125,-0.203125 0.25,-0.515625 0.25,-0.5625 0,0 -0.015625,-0.09375 -0.125,-0.09375 -0.015625,0 -0.078125,0 -0.109375,0.046875 -0.015625,0.03125 -0.4375,0.84375 -0.796875,1.65625 -0.171875,0.40625 -0.421875,0.9375 -0.8125,2 z m 0,0"
               id="path27" />
          </g>
        </g>
        <g
           fill="#000000"
           fill-opacity="1"
           id="g18"
           transform="matrix(0.352778,0,0,0.352778,-59.8454,-2.78933)">
          <g
             id="use17"
             transform="translate(241.95262,16.438)">
            <path
               d="m 8.921875,-8.3125 c 0,-0.109375 -0.078125,-0.109375 -0.09375,-0.109375 -0.03125,0 -0.078125,0 -0.171875,0.125 l -0.828125,1 c -0.421875,-0.71875 -1.078125,-1.125 -1.96875,-1.125 -2.578125,0 -5.265625,2.625 -5.265625,5.4375 0,2 1.40625,3.234375 3.140625,3.234375 0.96875,0 1.796875,-0.40625 2.5,-0.984375 1.03125,-0.875 1.34375,-2.03125 1.34375,-2.140625 0,-0.09375 -0.09375,-0.09375 -0.125,-0.09375 -0.109375,0 -0.125,0.0625 -0.15625,0.109375 -0.546875,1.875 -2.15625,2.765625 -3.359375,2.765625 -1.265625,0 -2.359375,-0.8125 -2.359375,-2.515625 0,-0.375 0.125,-2.453125 1.46875,-4.03125 0.65625,-0.765625 1.78125,-1.421875 2.921875,-1.421875 1.3125,0 1.890625,1.078125 1.890625,2.296875 0,0.3125 -0.03125,0.578125 -0.03125,0.625 0,0.109375 0.125,0.109375 0.15625,0.109375 0.125,0 0.140625,-0.015625 0.1875,-0.234375 z m 0,0"
               id="path28" />
          </g>
        </g>
        <g
           inkscape:label=""
           transform="translate(38.018212,-0.99525613)"
           id="g36">
          <g
             fill="#000000"
             fill-opacity="1"
             id="g10"
             transform="matrix(0.352778,0,0,0.352778,-1.05035,-0.671336)">
            <g
               id="use9"
               transform="translate(1.993,13.195)">
              <path
                 d="m 7.875,-2.75 c 0.203125,0 0.421875,0 0.421875,-0.234375 0,-0.25 -0.21875,-0.25 -0.421875,-0.25 H 1.40625 c -0.203125,0 -0.421875,0 -0.421875,0.25 0,0.234375 0.21875,0.234375 0.421875,0.234375 z m 0,0"
                 id="path1" />
            </g>
          </g>
          <g
             fill="#000000"
             fill-opacity="1"
             id="g3"
             transform="matrix(0.352778,0,0,0.352778,-1.05035,-0.671336)">
            <g
               id="g2"
               transform="translate(11.291,13.195)">
              <path
                 d="m 4.65625,-4.890625 c -0.375,0.078125 -0.5625,0.34375 -0.5625,0.59375 0,0.296875 0.21875,0.390625 0.390625,0.390625 0.328125,0 0.609375,-0.296875 0.609375,-0.640625 0,-0.390625 -0.375,-0.71875 -0.96875,-0.71875 -0.484375,0 -1.03125,0.203125 -1.53125,0.9375 -0.078125,-0.625 -0.5625,-0.9375 -1.046875,-0.9375 -0.453125,0 -0.703125,0.359375 -0.84375,0.609375 -0.203125,0.4375 -0.375,1.15625 -0.375,1.21875 0,0.046875 0.046875,0.109375 0.125,0.109375 0.09375,0 0.109375,-0.015625 0.1875,-0.296875 0.171875,-0.71875 0.40625,-1.40625 0.875,-1.40625 0.296875,0 0.375,0.203125 0.375,0.546875 0,0.265625 -0.125,0.734375 -0.203125,1.109375 l -0.34375,1.28125 c -0.046875,0.234375 -0.171875,0.765625 -0.234375,0.984375 -0.078125,0.3125 -0.21875,0.875 -0.21875,0.9375 0,0.15625 0.140625,0.296875 0.3125,0.296875 0.140625,0 0.359375,-0.09375 0.4375,-0.328125 C 1.671875,-0.296875 2.109375,-2.109375 2.1875,-2.375 2.25,-2.640625 2.3125,-2.890625 2.375,-3.15625 2.421875,-3.328125 2.46875,-3.515625 2.515625,-3.671875 2.546875,-3.78125 2.875,-4.359375 3.171875,-4.625 3.3125,-4.75 3.625,-5.03125 4.109375,-5.03125 4.296875,-5.03125 4.5,-5 4.65625,-4.890625 Z m 0,0"
                 id="path2" />
            </g>
          </g>
          <g
             fill="#000000"
             fill-opacity="1"
             id="g5"
             transform="matrix(0.352778,0,0,0.352778,-1.05035,-0.671336)">
            <g
               id="g4"
               transform="translate(16.566,14.989)">
              <path
                 d="M 1.46875,-0.953125 C 1.109375,-0.359375 0.78125,-0.28125 0.5,-0.265625 0.421875,-0.25 0.3125,-0.25 0.3125,-0.109375 0.3125,-0.09375 0.328125,0 0.4375,0 0.5,0 0.546875,-0.03125 1.109375,-0.03125 1.65625,-0.03125 1.828125,0 1.875,0 c 0.03125,0 0.15625,0 0.15625,-0.15625 0,-0.09375 -0.109375,-0.109375 -0.140625,-0.109375 -0.171875,0 -0.34375,-0.0625 -0.34375,-0.25 0,-0.109375 0.078125,-0.21875 0.21875,-0.453125 L 2.3125,-1.84375 H 4.5 L 4.65625,-0.5 c 0,0.125 -0.140625,0.234375 -0.515625,0.234375 -0.109375,0 -0.21875,0 -0.21875,0.15625 0,0 0,0.109375 0.140625,0.109375 0.078125,0 0.375,-0.015625 0.453125,-0.03125 h 0.5 C 5.734375,-0.03125 5.859375,0 5.921875,0 5.953125,0 6.09375,0 6.09375,-0.15625 c 0,-0.109375 -0.109375,-0.109375 -0.234375,-0.109375 -0.4375,0 -0.453125,-0.0625 -0.46875,-0.265625 L 4.75,-5.453125 C 4.734375,-5.640625 4.71875,-5.6875 4.59375,-5.6875 c -0.140625,0 -0.1875,0.078125 -0.25,0.15625 z M 2.484375,-2.109375 4.125,-4.71875 4.46875,-2.109375 Z m 0,0"
                 id="path3" />
            </g>
          </g>
          <g
             fill="#000000"
             fill-opacity="1"
             id="g7"
             transform="matrix(0.352778,0,0,0.352778,-1.05035,-0.671336)">
            <g
               id="g6"
               transform="translate(26.728001,13.195)">
              <path
                 d="m 8.0625,-3.875 c 0.171875,0 0.390625,0 0.390625,-0.21875 C 8.453125,-4.3125 8.25,-4.3125 8.0625,-4.3125 H 1.03125 c -0.171875,0 -0.390625,0 -0.390625,0.21875 0,0.21875 0.203125,0.21875 0.390625,0.21875 z m 0,2.21875 c 0.171875,0 0.390625,0 0.390625,-0.203125 C 8.453125,-2.09375 8.25,-2.09375 8.0625,-2.09375 H 1.03125 c -0.171875,0 -0.390625,0 -0.390625,0.21875 0,0.21875 0.203125,0.21875 0.390625,0.21875 z m 0,0"
                 id="path5" />
            </g>
          </g>
          <g
             fill="#000000"
             fill-opacity="1"
             id="g9"
             transform="matrix(0.352778,0,0,0.352778,-1.05035,-0.671336)">
            <g
               id="g8"
               transform="translate(39.153999,13.195)">
              <path
                 d="m 3.359375,-8 c 0.015625,-0.046875 0.03125,-0.109375 0.03125,-0.171875 0,-0.125 -0.109375,-0.125 -0.140625,-0.125 -0.015625,0 -0.4375,0.03125 -0.65625,0.0625 C 2.390625,-8.21875 2.21875,-8.203125 2,-8.1875 c -0.296875,0.03125 -0.375,0.03125 -0.375,0.25 0,0.125 0.125,0.125 0.234375,0.125 0.609375,0 0.609375,0.109375 0.609375,0.21875 0,0.046875 0,0.078125 -0.046875,0.296875 L 0.703125,-0.46875 C 0.65625,-0.28125 0.65625,-0.265625 0.65625,-0.1875 c 0,0.265625 0.203125,0.3125 0.328125,0.3125 0.328125,0 0.40625,-0.265625 0.5,-0.640625 L 2.046875,-2.75 c 0.859375,0.09375 1.375,0.453125 1.375,1.03125 0,0.0625 0,0.109375 -0.046875,0.296875 -0.046875,0.171875 -0.046875,0.328125 -0.046875,0.375 0,0.703125 0.46875,1.171875 1.078125,1.171875 0.546875,0 0.828125,-0.5 0.921875,-0.671875 0.25,-0.4375 0.40625,-1.109375 0.40625,-1.15625 0,-0.0625 -0.046875,-0.109375 -0.109375,-0.109375 -0.109375,0 -0.125,0.046875 -0.171875,0.234375 C 5.28125,-0.953125 5.03125,-0.125 4.421875,-0.125 4.1875,-0.125 4.03125,-0.234375 4.03125,-0.6875 c 0,-0.234375 0.046875,-0.5 0.09375,-0.671875 0.046875,-0.21875 0.046875,-0.234375 0.046875,-0.375 0,-0.703125 -0.640625,-1.09375 -1.734375,-1.234375 0.4375,-0.265625 0.859375,-0.734375 1.03125,-0.921875 0.671875,-0.765625 1.140625,-1.140625 1.6875,-1.140625 0.28125,0 0.359375,0.078125 0.4375,0.140625 -0.4375,0.046875 -0.609375,0.359375 -0.609375,0.59375 0,0.296875 0.234375,0.390625 0.390625,0.390625 0.328125,0 0.609375,-0.28125 0.609375,-0.65625 0,-0.34375 -0.265625,-0.703125 -0.8125,-0.703125 -0.65625,0 -1.1875,0.453125 -2.046875,1.421875 -0.109375,0.140625 -0.5625,0.59375 -1,0.765625 z m 0,0"
                 id="path7" />
            </g>
          </g>
          <g
             fill="#000000"
             fill-opacity="1"
             id="g20"
             transform="matrix(0.352778,0,0,0.352778,-1.05035,-0.671336)">
            <g
               id="g19"
               transform="translate(45.242001,14.989)">
              <path
                 d="M 1.46875,-0.953125 C 1.109375,-0.359375 0.78125,-0.28125 0.5,-0.265625 0.421875,-0.25 0.3125,-0.25 0.3125,-0.109375 0.3125,-0.09375 0.328125,0 0.4375,0 0.5,0 0.546875,-0.03125 1.109375,-0.03125 1.65625,-0.03125 1.828125,0 1.875,0 c 0.03125,0 0.15625,0 0.15625,-0.15625 0,-0.09375 -0.109375,-0.109375 -0.140625,-0.109375 -0.171875,0 -0.34375,-0.0625 -0.34375,-0.25 0,-0.109375 0.078125,-0.21875 0.21875,-0.453125 L 2.3125,-1.84375 H 4.5 L 4.65625,-0.5 c 0,0.125 -0.140625,0.234375 -0.515625,0.234375 -0.109375,0 -0.21875,0 -0.21875,0.15625 0,0 0,0.109375 0.140625,0.109375 0.078125,0 0.375,-0.015625 0.453125,-0.03125 h 0.5 C 5.734375,-0.03125 5.859375,0 5.921875,0 5.953125,0 6.09375,0 6.09375,-0.15625 c 0,-0.109375 -0.109375,-0.109375 -0.234375,-0.109375 -0.4375,0 -0.453125,-0.0625 -0.46875,-0.265625 L 4.75,-5.453125 C 4.734375,-5.640625 4.71875,-5.6875 4.59375,-5.6875 c -0.140625,0 -0.1875,0.078125 -0.25,0.15625 z M 2.484375,-2.109375 4.125,-4.71875 4.46875,-2.109375 Z m 0,0"
                 id="path9" />
            </g>
          </g>
          <g
             fill="#000000"
             fill-opacity="1"
             id="g22"
             transform="matrix(0.352778,0,0,0.352778,-1.05035,-0.671336)">
            <g
               id="g21"
               transform="translate(52.083,13.195)">
              <path
                 d="m 8.921875,-8.3125 c 0,-0.109375 -0.078125,-0.109375 -0.09375,-0.109375 -0.03125,0 -0.078125,0 -0.171875,0.125 l -0.828125,1 c -0.421875,-0.71875 -1.078125,-1.125 -1.96875,-1.125 -2.578125,0 -5.265625,2.625 -5.265625,5.4375 0,2 1.40625,3.234375 3.140625,3.234375 0.96875,0 1.796875,-0.40625 2.5,-0.984375 1.03125,-0.875 1.34375,-2.03125 1.34375,-2.140625 0,-0.09375 -0.09375,-0.09375 -0.125,-0.09375 -0.109375,0 -0.125,0.0625 -0.15625,0.109375 -0.546875,1.875 -2.15625,2.765625 -3.359375,2.765625 -1.265625,0 -2.359375,-0.8125 -2.359375,-2.515625 0,-0.375 0.125,-2.453125 1.46875,-4.03125 0.65625,-0.765625 1.78125,-1.421875 2.921875,-1.421875 1.3125,0 1.890625,1.078125 1.890625,2.296875 0,0.3125 -0.03125,0.578125 -0.03125,0.625 0,0.109375 0.125,0.109375 0.15625,0.109375 0.125,0 0.140625,-0.015625 0.1875,-0.234375 z m 0,0"
                 id="path20" />
            </g>
          </g>
          <g
             fill="#000000"
             fill-opacity="1"
             id="g30"
             transform="matrix(0.352778,0,0,0.352778,-1.05035,-0.671336)"
             style="fill:#0043ce">
            <g
               id="g29"
               transform="translate(61.317001,8.8570004)"
               style="fill:#0043ce">
              <path
                 d="m 4.0625,-1.109375 c 0.75,-0.8125 1,-1.859375 1,-1.921875 0,-0.0625 -0.046875,-0.09375 -0.109375,-0.09375 -0.109375,0 -0.109375,0.03125 -0.15625,0.1875 C 4.5625,-2.125 4.09375,-1.5 4.0625,-1.5 4.046875,-1.5 4.046875,-1.703125 4.046875,-1.828125 4.03125,-3.234375 3.125,-3.515625 2.578125,-3.515625 c -1.125,0 -2.234375,1.09375 -2.234375,2.21875 0,0.78125 0.5625,1.375 1.40625,1.375 0.546875,0 1.140625,-0.203125 1.765625,-0.671875 0.1875,0.640625 0.640625,0.671875 0.78125,0.671875 0.453125,0 0.71875,-0.40625 0.71875,-0.5625 0,-0.09375 -0.09375,-0.09375 -0.109375,-0.09375 -0.09375,0 -0.109375,0.03125 -0.140625,0.078125 -0.125,0.34375 -0.390625,0.359375 -0.4375,0.359375 -0.109375,0 -0.234375,0 -0.265625,-0.96875 z m -0.59375,0.25 C 2.90625,-0.34375 2.234375,-0.140625 1.765625,-0.140625 1.359375,-0.140625 1,-0.375 1,-1.015625 1,-1.296875 1.125,-2.125 1.5,-2.65625 c 0.3125,-0.4375 0.75,-0.640625 1.078125,-0.640625 0.4375,0 0.6875,0.3125 0.78125,0.796875 0.125,0.546875 0.0625,1.1875 0.109375,1.640625 z m 0,0"
                 id="path29"
                 style="fill:#0043ce" />
            </g>
          </g>
          <g
             fill="#000000"
             fill-opacity="1"
             id="g32"
             transform="matrix(0.352778,0,0,0.352778,-1.05035,-0.671336)">
            <g
               id="g31"
               transform="translate(60.458,16.216)">
              <path
                 d="M 1.46875,-0.953125 C 1.109375,-0.359375 0.78125,-0.28125 0.5,-0.265625 0.421875,-0.25 0.3125,-0.25 0.3125,-0.109375 0.3125,-0.09375 0.328125,0 0.4375,0 0.5,0 0.546875,-0.03125 1.109375,-0.03125 1.65625,-0.03125 1.828125,0 1.875,0 c 0.03125,0 0.15625,0 0.15625,-0.15625 0,-0.09375 -0.109375,-0.109375 -0.140625,-0.109375 -0.171875,0 -0.34375,-0.0625 -0.34375,-0.25 0,-0.109375 0.078125,-0.21875 0.21875,-0.453125 L 2.3125,-1.84375 H 4.5 L 4.65625,-0.5 c 0,0.125 -0.140625,0.234375 -0.515625,0.234375 -0.109375,0 -0.21875,0 -0.21875,0.15625 0,0 0,0.109375 0.140625,0.109375 0.078125,0 0.375,-0.015625 0.453125,-0.03125 h 0.5 C 5.734375,-0.03125 5.859375,0 5.921875,0 5.953125,0 6.09375,0 6.09375,-0.15625 c 0,-0.109375 -0.109375,-0.109375 -0.234375,-0.109375 -0.4375,0 -0.453125,-0.0625 -0.46875,-0.265625 L 4.75,-5.453125 C 4.734375,-5.640625 4.71875,-5.6875 4.59375,-5.6875 c -0.140625,0 -0.1875,0.078125 -0.25,0.15625 z M 2.484375,-2.109375 4.125,-4.71875 4.46875,-2.109375 Z m 0,0"
                 id="path30" />
            </g>
          </g>
          <g
             fill="#000000"
             fill-opacity="1"
             id="g33"
             transform="matrix(0.352778,0,0,0.352778,-1.05035,-0.671336)">
            <g
               id="use18"
               transform="translate(67.299004,13.195)">
              <path
                 d="m 8.921875,-8.3125 c 0,-0.109375 -0.078125,-0.109375 -0.09375,-0.109375 -0.03125,0 -0.078125,0 -0.171875,0.125 l -0.828125,1 c -0.421875,-0.71875 -1.078125,-1.125 -1.96875,-1.125 -2.578125,0 -5.265625,2.625 -5.265625,5.4375 0,2 1.40625,3.234375 3.140625,3.234375 0.96875,0 1.796875,-0.40625 2.5,-0.984375 1.03125,-0.875 1.34375,-2.03125 1.34375,-2.140625 0,-0.09375 -0.09375,-0.09375 -0.125,-0.09375 -0.109375,0 -0.125,0.0625 -0.15625,0.109375 -0.546875,1.875 -2.15625,2.765625 -3.359375,2.765625 -1.265625,0 -2.359375,-0.8125 -2.359375,-2.515625 0,-0.375 0.125,-2.453125 1.46875,-4.03125 0.65625,-0.765625 1.78125,-1.421875 2.921875,-1.421875 1.3125,0 1.890625,1.078125 1.890625,2.296875 0,0.3125 -0.03125,0.578125 -0.03125,0.625 0,0.109375 0.125,0.109375 0.15625,0.109375 0.125,0 0.140625,-0.015625 0.1875,-0.234375 z m 0,0"
                 id="path32" />
            </g>
          </g>
          <g
             fill="#000000"
             fill-opacity="1"
             id="g34"
             transform="matrix(0.352778,0,0,0.352778,-1.05035,-0.671336)">
            <g
               id="use19"
               transform="translate(76.532997,7.5279999)"
               style="fill:#eb6200">
              <path
                 d="m 4.78125,-4.53125 c 0,-0.734375 -0.59375,-1.09375 -1.25,-1.09375 -1.03125,0 -1.796875,1.171875 -2.015625,2.046875 L 0.25,1.453125 C 0.234375,1.5 0.296875,1.546875 0.34375,1.546875 c 0.078125,0 0.140625,0 0.15625,-0.0625 l 0.53125,-2.125 c 0.1875,0.421875 0.5625,0.71875 1.140625,0.71875 1.09375,0 2.296875,-0.78125 2.296875,-2.046875 C 4.46875,-2.5 4.265625,-2.859375 3.875,-3.171875 3.921875,-3.1875 4.0625,-3.296875 4.109375,-3.328125 4.5,-3.59375 4.78125,-4.046875 4.78125,-4.53125 Z m -1.5625,1.359375 c -0.15625,0.015625 -0.296875,0.03125 -0.453125,0.03125 -0.078125,0 -0.171875,0 -0.25,-0.03125 0.140625,-0.046875 0.3125,-0.046875 0.453125,-0.046875 0.078125,0 0.15625,0.015625 0.25,0.046875 z M 4.28125,-4.6875 c 0,0.40625 -0.171875,0.875 -0.453125,1.15625 C 3.78125,-3.5 3.625,-3.34375 3.5625,-3.34375 3.34375,-3.375 3.171875,-3.4375 2.9375,-3.4375 c -0.203125,0 -0.703125,-0.015625 -0.703125,0.296875 0,0.234375 0.453125,0.21875 0.609375,0.21875 0.25,0 0.484375,-0.015625 0.703125,-0.109375 0.25,0.1875 0.359375,0.453125 0.359375,0.84375 0,0.46875 -0.15625,1 -0.390625,1.3125 -0.28125,0.421875 -0.78125,0.71875 -1.375,0.71875 -0.53125,0 -0.953125,-0.40625 -0.953125,-0.953125 0,-0.109375 0.015625,-0.21875 0.046875,-0.296875 L 1.75,-3.515625 c 0.171875,-0.703125 0.859375,-1.875 1.75,-1.875 0.40625,0 0.78125,0.1875 0.78125,0.703125 z m 0,0"
                 id="path31"
                 style="fill:#eb6200" />
            </g>
          </g>
          <g
             fill="#000000"
             fill-opacity="1"
             id="g35"
             transform="matrix(0.352778,0,0,0.352778,-1.05035,-0.671336)">
            <g
               id="use20"
               transform="translate(75.674004,16.436001)">
              <path
                 d="m 1.34375,-0.625 c -0.0625,0.296875 -0.078125,0.359375 -0.671875,0.359375 -0.15625,0 -0.25,0 -0.25,0.15625 C 0.421875,0 0.53125,0 0.65625,0 H 3.625 C 4.9375,0 5.90625,-0.9375 5.90625,-1.703125 5.90625,-2.28125 5.40625,-2.75 4.609375,-2.84375 5.53125,-3.015625 6.328125,-3.625 6.328125,-4.328125 6.328125,-4.921875 5.75,-5.4375 4.75,-5.4375 H 1.96875 c -0.140625,0 -0.25,0 -0.25,0.140625 0,0.125 0.09375,0.125 0.234375,0.125 0.265625,0 0.5,0 0.5,0.125 0,0.03125 -0.015625,0.03125 -0.03125,0.140625 z m 1.25,-2.3125 0.484375,-1.953125 c 0.0625,-0.265625 0.078125,-0.28125 0.40625,-0.28125 H 4.625 c 0.78125,0 0.96875,0.5 0.96875,0.828125 0,0.671875 -0.734375,1.40625 -1.75,1.40625 z M 2.046875,-0.265625 C 1.96875,-0.28125 1.9375,-0.28125 1.9375,-0.328125 c 0,-0.0625 0.015625,-0.140625 0.03125,-0.1875 l 0.5625,-2.203125 h 1.625 c 0.734375,0 0.984375,0.5 0.984375,0.953125 0,0.78125 -0.765625,1.5 -1.71875,1.5 z m 0,0"
                 id="path34" />
            </g>
          </g>
        </g>
        <path
           style="fill:none;stroke:#0043ce;stroke-width:0.2;stroke-linecap:square;stroke-linejoin:round;-inkscape-stroke:none;marker-end:url(#Dot);paint-order:markers fill stroke;stroke-opacity:1"
           d="m 1.197783,-0.9314483 -0.020162,-2.697976 a 2.6619839,2.6619839 134.83139 0 1 2.6661343,-2.6818728 l 52.8885224,0.083938 a 2.6780854,2.6780854 45.045466 0 1 2.673835,2.678082 v 2.6178282 0"
           id="path36"
           inkscape:path-effect="#path-effect37"
           inkscape:original-d="m 1.197783,-0.9314483 -0.040235,-5.384112 58.248565,0.092445 v 5.2916666 0"
           transform="translate(0.05570576,-0.56380694)" />
        <path
           style="fill:none;stroke:#eb6200;stroke-width:0.2;stroke-linecap:square;stroke-linejoin:round;stroke-opacity:1;-inkscape-stroke:none;marker-end:url(#Dot);paint-order:markers fill stroke"
           d="m 1.197783,-0.9314483 -0.020162,-2.697976 a 2.6619839,2.6619839 134.83139 0 1 2.6661343,-2.6818728 l 52.8885224,0.083938 a 2.6780854,2.6780854 45.045466 0 1 2.673835,2.678082 v 2.6178282 0"
           id="path38"
           inkscape:path-effect="#path-effect39"
           inkscape:original-d="m 1.197783,-0.9314483 -0.040235,-5.384112 58.248565,0.092445 v 5.2916666 0"
           transform="matrix(0.91731882,0,0,1,10.700735,-1.5858227)" />
      </g>
    </g>
  </g>
</svg>
