<?xml version="1.0" encoding="UTF-8" standalone="no"?>
<svg
   xmlns:dc="http://purl.org/dc/elements/1.1/"
   xmlns:cc="http://creativecommons.org/ns#"
   xmlns:rdf="http://www.w3.org/1999/02/22-rdf-syntax-ns#"
   xmlns:svg="http://www.w3.org/2000/svg"
   xmlns="http://www.w3.org/2000/svg"
   xmlns:sodipodi="http://sodipodi.sourceforge.net/DTD/sodipodi-0.dtd"
   xmlns:inkscape="http://www.inkscape.org/namespaces/inkscape"
   viewBox="0 0 189.95453 86.293273"
   version="1.1"
   id="svg19"
   sodipodi:docname="fig_p4.11_o.svg"
   width="189.95453"
   height="86.293274"
   inkscape:version="0.92.2 5c3e80d, 2017-08-06">
  <metadata
     id="metadata23">
    <rdf:RDF>
      <cc:Work
         rdf:about="">
        <dc:format>image/svg+xml</dc:format>
        <dc:type
           rdf:resource="http://purl.org/dc/dcmitype/StillImage" />
        <dc:title></dc:title>
      </cc:Work>
    </rdf:RDF>
  </metadata>
  <sodipodi:namedview
     pagecolor="#ffffff"
     bordercolor="#666666"
     borderopacity="1"
     objecttolerance="10"
     gridtolerance="10"
     guidetolerance="10"
     inkscape:pageopacity="0"
     inkscape:pageshadow="2"
     inkscape:window-width="1998"
     inkscape:window-height="1298"
     id="namedview21"
     showgrid="false"
     fit-margin-top="0"
     fit-margin-left="0"
     fit-margin-right="0"
     fit-margin-bottom="0"
     inkscape:zoom="16.029391"
     inkscape:cx="45.027454"
     inkscape:cy="20.320265"
     inkscape:window-x="0"
     inkscape:window-y="0"
     inkscape:window-maximized="0"
     inkscape:current-layer="svg19" />
  <defs
     id="defs2" />
  <defs
     id="defs7">
    <marker
       id="a"
       orient="auto"
       overflow="visible"
       refX="0"
       refY="0"
       style="overflow:visible">
      <path
         d="M 5.231,2.42 -1.324,0.01 5.23,-2.401 C 4.184,-0.978 4.19,0.969 5.231,2.42 Z"
         id="path4"
         inkscape:connector-curvature="0"
         style="fill-rule:evenodd;stroke:#000000;stroke-width:0.375;stroke-linejoin:round" />
    </marker>
  </defs>
  <g
     id="g17"
     style="stroke-width:0.52899998"
     transform="matrix(2.1233301,0,0,2.1233301,-37.658321,-76.015218)">
    <path
       d="M 18,43.178 H 41.362 V 61.622 H 18 Z m 23.363,0 H 64.725 M 41.363,61.622 H 64.725 M 41.363,43.178 h 4.45 v 18.444 h -4.45 z m 4.45,9.837 H 53.6 v 0 l 1.112,1.23 2.226,-2.46 2.224,2.46 2.226,-2.46 2.224,2.46 v 0 0 l 2.226,-2.46 2.225,2.46 2.225,-2.46 2.225,2.46 v 0 l 2.225,-2.46 2.225,2.46 2.225,-2.46 2.225,2.46 v 0 0 l 2.225,-2.46 2.225,2.46 2.225,-2.46 2.225,2.46 v 0 l 1.112,-1.23 h 13.35 m 0,15.985 V 35.8 m 0,1.23 2.225,2.459 m -2.225,-0.492 2.225,2.46 m -2.225,-0.493 2.225,2.46 m -2.225,-0.492 2.225,2.46 M 104.775,44.9 107,47.358 m -2.225,-0.491 2.225,2.459 m -2.225,-0.492 2.225,2.46 m -2.225,-0.493 2.225,2.46 m -2.225,-0.492 2.225,2.46 m -2.225,-0.493 2.225,2.46 m -2.225,-0.492 2.225,2.459 m -2.225,-0.492 2.225,2.46 m -2.225,-0.492 2.225,2.459 m -2.225,-0.492 2.225,2.46 m -2.225,-0.493 2.225,2.46 M 104.775,66.54 107,69 m -65.637,-25.822 4.45,3.689 m -4.45,-0.861 4.45,3.689 m -4.45,-0.861 4.45,3.689 m -4.45,-0.861 4.45,3.69 m -4.45,-0.862 4.45,3.69 m -4.45,-0.861 4.45,3.688"
       id="path9"
       inkscape:connector-curvature="0"
       style="fill:none;stroke:#000000" />
    <text
       x="45.825001"
       y="72.649002"
       font-size="4.951"
       font-weight="400"
       letter-spacing="0"
       style="font-weight:400;font-size:4.95100021px;line-height:125%;font-family:'IBM Plex Sans';-inkscape-font-specification:'IBM Plex Sans, Normal';font-variant-ligatures:normal;font-variant-caps:normal;font-variant-numeric:normal;font-feature-settings:normal;text-align:start;letter-spacing:0;word-spacing:0"
       transform="scale(0.95118,1.05133)"
       word-spacing="0"
       id="text13">
      <tspan
         x="45.825001"
         y="72.649002"
         id="tspan11">Reaction occurs in here</tspan>
    </text>
    <path
       d="m 24.675,62.852 c 2.953,7.692 7.925,11.998 17.8,12.296"
       id="path15"
       inkscape:connector-curvature="0"
       style="fill:none;stroke:#000000;marker-start:url(#a)" />
  </g>
</svg>
