<?xml version="1.0" encoding="UTF-8" standalone="no"?>
<!-- Created with Inkscape (http://www.inkscape.org/) -->

<svg
   width="210mm"
   height="297mm"
   viewBox="0 0 210 297"
   version="1.1"
   id="svg8"
   inkscape:version="1.3.2 (091e20e, 2023-11-25, custom)"
   sodipodi:docname="flow_systems_stoichiometry.svg"
   xml:space="preserve"
   xmlns:inkscape="http://www.inkscape.org/namespaces/inkscape"
   xmlns:sodipodi="http://sodipodi.sourceforge.net/DTD/sodipodi-0.dtd"
   xmlns="http://www.w3.org/2000/svg"
   xmlns:svg="http://www.w3.org/2000/svg"
   xmlns:rdf="http://www.w3.org/1999/02/22-rdf-syntax-ns#"
   xmlns:cc="http://creativecommons.org/ns#"
   xmlns:dc="http://purl.org/dc/elements/1.1/"><sodipodi:namedview
     id="base"
     pagecolor="#ffffff"
     bordercolor="#666666"
     borderopacity="1.0"
     inkscape:pageopacity="0.0"
     inkscape:pageshadow="2"
     inkscape:zoom="1.4911522"
     inkscape:cx="325.58715"
     inkscape:cy="631.05564"
     inkscape:document-units="mm"
     inkscape:current-layer="layer2"
     showgrid="true"
     showguides="true"
     inkscape:guide-bbox="true"
     inkscape:snap-center="true"
     inkscape:snap-object-midpoints="true"
     inkscape:snap-bbox="true"
     inkscape:snap-text-baseline="true"
     inkscape:window-width="2729"
     inkscape:window-height="2088"
     inkscape:window-x="1358"
     inkscape:window-y="0"
     inkscape:window-maximized="0"
     inkscape:bbox-paths="false"
     inkscape:showpageshadow="2"
     inkscape:pagecheckerboard="0"
     inkscape:deskcolor="#d1d1d1"><inkscape:grid
       type="xygrid"
       id="grid4516"
       units="mm"
       spacingx="1"
       spacingy="1"
       empspacing="3"
       originx="0"
       originy="0"
       visible="true" /><sodipodi:guide
       position="12,93"
       orientation="1,0"
       id="guide4518"
       inkscape:locked="false"
       inkscape:label=""
       inkscape:color="rgb(0,0,255)" /><sodipodi:guide
       position="68.999998,285.00001"
       orientation="0,1"
       id="guide4520"
       inkscape:locked="false" /><sodipodi:guide
       position="198,222.00001"
       orientation="1,0"
       id="guide4522"
       inkscape:locked="false" /><sodipodi:guide
       position="117,12"
       orientation="0,1"
       id="guide4524"
       inkscape:locked="false" /><sodipodi:guide
       position="156,60.000007"
       orientation="1,0"
       id="guide4536"
       inkscape:locked="false"
       inkscape:label=""
       inkscape:color="rgb(0,0,255)" /><sodipodi:guide
       position="107,180.00001"
       orientation="1,0"
       id="guide4538"
       inkscape:locked="false"
       inkscape:label=""
       inkscape:color="rgb(0,0,255)" /><sodipodi:guide
       position="198,192.00001"
       orientation="1,0"
       id="guide4540"
       inkscape:locked="false"
       inkscape:label=""
       inkscape:color="rgb(0,0,255)" /></sodipodi:namedview><defs
     id="defs2"><marker
       style="overflow:visible"
       id="RoundedArrow"
       refX="0"
       refY="0"
       orient="auto-start-reverse"
       inkscape:stockid="Rounded arrow"
       markerWidth="0.8"
       markerHeight="0.6"
       viewBox="0 0 1 1"
       inkscape:isstock="true"
       inkscape:collect="always"
       preserveAspectRatio="none"><path
         transform="scale(0.7)"
         d="m -0.21114562,-4.1055728 6.42229122,3.21114561 a 1,1 90 0 1 0,1.78885438 L -0.21114562,4.1055728 A 1.236068,1.236068 31.717474 0 1 -2,3 v -6 a 1.236068,1.236068 148.28253 0 1 1.78885438,-1.1055728 z"
         style="fill:context-stroke;fill-rule:evenodd;stroke:none"
         id="path8" /></marker><marker
       inkscape:isstock="true"
       style="overflow:visible"
       id="marker96822"
       refX="0.0"
       refY="0.0"
       orient="auto"
       inkscape:stockid="Arrow1Mstart"><path
         transform="scale(0.4) translate(10,0)"
         style="fill-rule:evenodd;stroke:#000000;stroke-width:1pt;stroke-opacity:1;fill:#000000;fill-opacity:1"
         d="M 0.0,0.0 L 5.0,-5.0 L -12.5,0.0 L 5.0,5.0 L 0.0,0.0 z "
         id="path96820" /></marker><marker
       inkscape:stockid="Arrow2Lstart"
       orient="auto"
       refY="0.0"
       refX="0.0"
       id="marker96702"
       style="overflow:visible"
       inkscape:isstock="true"><path
         id="path96700"
         style="fill-rule:evenodd;stroke-width:0.625;stroke-linejoin:round;stroke:#000000;stroke-opacity:1;fill:#000000;fill-opacity:1"
         d="M 8.7185878,4.0337352 L -2.2072895,0.016013256 L 8.7185884,-4.0017078 C 6.9730900,-1.6296469 6.9831476,1.6157441 8.7185878,4.0337352 z "
         transform="scale(1.1) translate(1,0)" /></marker><marker
       inkscape:stockid="Arrow2Lend"
       orient="auto"
       refY="0.0"
       refX="0.0"
       id="marker96248"
       style="overflow:visible;"
       inkscape:isstock="true"><path
         id="path96246"
         style="fill-rule:evenodd;stroke-width:0.625;stroke-linejoin:round;stroke:#000000;stroke-opacity:1;fill:#000000;fill-opacity:1"
         d="M 8.7185878,4.0337352 L -2.2072895,0.016013256 L 8.7185884,-4.0017078 C 6.9730900,-1.6296469 6.9831476,1.6157441 8.7185878,4.0337352 z "
         transform="scale(1.1) rotate(180) translate(1,0)" /></marker><inkscape:path-effect
       effect="simplify"
       id="path-effect96166"
       is_visible="true"
       steps="1"
       threshold="0.0363636"
       smooth_angles="360"
       helper_size="0"
       simplify_individual_paths="false"
       simplify_just_coalesce="false"
       simplifyindividualpaths="false"
       simplifyJustCoalesce="false" /><marker
       inkscape:isstock="true"
       style="overflow:visible;"
       id="marker192414"
       refX="0.0"
       refY="0.0"
       orient="auto"
       inkscape:stockid="Arrow2Mend"><path
         transform="scale(0.6) rotate(180) translate(0,0)"
         d="M 8.7185878,4.0337352 L -2.2072895,0.016013256 L 8.7185884,-4.0017078 C 6.9730900,-1.6296469 6.9831476,1.6157441 8.7185878,4.0337352 z "
         style="fill-rule:evenodd;stroke-width:0.625;stroke-linejoin:round;stroke:#000000;stroke-opacity:1;fill:#000000;fill-opacity:1"
         id="path192412" /></marker><marker
       inkscape:isstock="true"
       style="overflow:visible;"
       id="marker192368"
       refX="0.0"
       refY="0.0"
       orient="auto"
       inkscape:stockid="Arrow2Mend"><path
         transform="scale(0.6) rotate(180) translate(0,0)"
         d="M 8.7185878,4.0337352 L -2.2072895,0.016013256 L 8.7185884,-4.0017078 C 6.9730900,-1.6296469 6.9831476,1.6157441 8.7185878,4.0337352 z "
         style="fill-rule:evenodd;stroke-width:0.625;stroke-linejoin:round;stroke:#000000;stroke-opacity:1;fill:#000000;fill-opacity:1"
         id="path192366" /></marker><marker
       inkscape:isstock="true"
       style="overflow:visible;"
       id="marker192328"
       refX="0.0"
       refY="0.0"
       orient="auto"
       inkscape:stockid="Arrow2Mend"><path
         transform="scale(0.6) rotate(180) translate(0,0)"
         d="M 8.7185878,4.0337352 L -2.2072895,0.016013256 L 8.7185884,-4.0017078 C 6.9730900,-1.6296469 6.9831476,1.6157441 8.7185878,4.0337352 z "
         style="fill-rule:evenodd;stroke-width:0.625;stroke-linejoin:round;stroke:#000000;stroke-opacity:1;fill:#000000;fill-opacity:1"
         id="path192326" /></marker><marker
       inkscape:isstock="true"
       style="overflow:visible;"
       id="marker192122"
       refX="0.0"
       refY="0.0"
       orient="auto"
       inkscape:stockid="Arrow2Mend"><path
         transform="scale(0.6) rotate(180) translate(0,0)"
         d="M 8.7185878,4.0337352 L -2.2072895,0.016013256 L 8.7185884,-4.0017078 C 6.9730900,-1.6296469 6.9831476,1.6157441 8.7185878,4.0337352 z "
         style="fill-rule:evenodd;stroke-width:0.625;stroke-linejoin:round;stroke:#000000;stroke-opacity:1;fill:#000000;fill-opacity:1"
         id="path192120" /></marker></defs><metadata
     id="metadata5"><rdf:RDF><cc:Work
         rdf:about=""><dc:format>image/svg+xml</dc:format><dc:type
           rdf:resource="http://purl.org/dc/dcmitype/StillImage" /><dc:title /><dc:creator><cc:Agent><dc:title>Ranjeet Utikar</dc:title></cc:Agent></dc:creator><dc:rights><cc:Agent><dc:title>(C) Ranjeet Utikar 2020</dc:title></cc:Agent></dc:rights><dc:publisher><cc:Agent><dc:title>Ranjeet Utikar</dc:title></cc:Agent></dc:publisher><cc:license
           rdf:resource="http://creativecommons.org/licenses/by-nc-sa/4.0/" /></cc:Work><cc:License
         rdf:about="http://creativecommons.org/licenses/by-nc-sa/4.0/"><cc:permits
           rdf:resource="http://creativecommons.org/ns#Reproduction" /><cc:permits
           rdf:resource="http://creativecommons.org/ns#Distribution" /><cc:requires
           rdf:resource="http://creativecommons.org/ns#Notice" /><cc:requires
           rdf:resource="http://creativecommons.org/ns#Attribution" /><cc:prohibits
           rdf:resource="http://creativecommons.org/ns#CommercialUse" /><cc:permits
           rdf:resource="http://creativecommons.org/ns#DerivativeWorks" /><cc:requires
           rdf:resource="http://creativecommons.org/ns#ShareAlike" /></cc:License></rdf:RDF></metadata><g
     inkscape:label="Base"
     inkscape:groupmode="layer"
     id="layer1"
     style="display:inline"
     sodipodi:insensitive="true"><path
       style="fill:none;fill-rule:evenodd;stroke:#000000;stroke-width:0.26458332px;stroke-linecap:butt;stroke-linejoin:miter;stroke-opacity:1"
       d="M 12,285.00001 H 198 V 11.999991 H 12 Z"
       id="path4526"
       inkscape:connector-curvature="0" /><text
       xml:space="preserve"
       style="font-style:normal;font-variant:normal;font-weight:normal;font-stretch:normal;font-size:10.5833px;line-height:125%;font-family:'IBM Plex Sans';-inkscape-font-specification:'IBM Plex Sans';letter-spacing:0px;word-spacing:0px;fill:#000000;fill-opacity:1;stroke:none;stroke-width:0.264583px;stroke-linecap:butt;stroke-linejoin:miter;stroke-opacity:1"
       x="17"
       y="24"
       id="text4530"><tspan
         sodipodi:role="line"
         id="tspan4528"
         x="17"
         y="24"
         style="font-style:normal;font-variant:normal;font-weight:normal;font-stretch:normal;font-family:'IBM Plex Sans';-inkscape-font-specification:'IBM Plex Sans';stroke-width:0.264583px">Figure - Experiment 1</tspan></text></g><g
     inkscape:groupmode="layer"
     id="layer2"
     inkscape:label="Drawing"><g
       id="g38"
       inkscape:export-filename="flow_systems_stoichiometry.png"
       inkscape:export-xdpi="300"
       inkscape:export-ydpi="300"><g
         id="g30" /><g
         id="g1"><text
           id="text8"
           y="138.56938"
           x="34.915707"
           style="font-style:normal;font-variant:normal;font-weight:normal;font-stretch:normal;font-size:4.23333px;line-height:125%;font-family:'IBM Plex Sans';-inkscape-font-specification:'IBM Plex Sans, Normal';font-variant-ligatures:normal;font-variant-caps:normal;font-variant-numeric:normal;font-feature-settings:normal;text-align:start;letter-spacing:0px;word-spacing:0px;writing-mode:lr-tb;text-anchor:start;fill:#000000;fill-opacity:1;stroke:none;stroke-width:0.264583px;stroke-linecap:butt;stroke-linejoin:miter;stroke-opacity:1"
           xml:space="preserve"><tspan
             style="stroke-width:0.264583px"
             y="138.56938"
             x="34.915707"
             id="tspan1"
             sodipodi:role="line">Entering</tspan><tspan
             id="tspan4"
             style="stroke-width:0.264583px"
             y="143.86104"
             x="34.915707"
             sodipodi:role="line">F<tspan
   id="tspan2"
   style="font-size:65%;baseline-shift:sub">A0</tspan></tspan><tspan
             style="stroke-width:0.264583px"
             y="149.56757"
             x="34.915707"
             sodipodi:role="line"
             id="tspan9">F<tspan
   style="font-size:65%;baseline-shift:sub"
   id="tspan15">B0</tspan></tspan><tspan
             style="stroke-width:0.264583px"
             y="155.27409"
             x="34.915707"
             sodipodi:role="line"
             id="tspan10">F<tspan
   style="font-size:65%;baseline-shift:sub"
   id="tspan16">C0</tspan></tspan><tspan
             style="stroke-width:0.264583px"
             y="160.98064"
             x="34.915707"
             sodipodi:role="line"
             id="tspan11">F<tspan
   style="font-size:65%;baseline-shift:sub"
   id="tspan17">D0</tspan></tspan><tspan
             id="tspan8"
             style="stroke-width:0.264583px"
             y="166.68716"
             x="34.915707"
             sodipodi:role="line">F<tspan
   style="font-size:65%;baseline-shift:sub"
   id="tspan18">I0</tspan></tspan></text><text
           id="text29"
           y="138.6024"
           x="146.45311"
           style="font-style:normal;font-variant:normal;font-weight:normal;font-stretch:normal;font-size:4.23333px;line-height:125%;font-family:'IBM Plex Sans';-inkscape-font-specification:'IBM Plex Sans, Normal';font-variant-ligatures:normal;font-variant-caps:normal;font-variant-numeric:normal;font-feature-settings:normal;text-align:start;letter-spacing:0px;word-spacing:0px;writing-mode:lr-tb;text-anchor:start;fill:#000000;fill-opacity:1;stroke:none;stroke-width:0.264583px;stroke-linecap:butt;stroke-linejoin:miter;stroke-opacity:1"
           xml:space="preserve"><tspan
             style="stroke-width:0.264583px"
             y="138.6024"
             x="146.45311"
             id="tspan19"
             sodipodi:role="line">Leaving</tspan><tspan
             id="tspan21"
             style="stroke-width:0.264583px"
             y="143.89406"
             x="146.45311"
             sodipodi:role="line">F<tspan
   id="tspan20"
   style="font-size:65%;baseline-shift:sub">A</tspan></tspan><tspan
             style="stroke-width:0.264583px"
             y="149.60059"
             x="146.45311"
             sodipodi:role="line"
             id="tspan23">F<tspan
   style="font-size:65%;baseline-shift:sub"
   id="tspan22">B</tspan></tspan><tspan
             style="stroke-width:0.264583px"
             y="155.30711"
             x="146.45311"
             sodipodi:role="line"
             id="tspan25">F<tspan
   style="font-size:65%;baseline-shift:sub"
   id="tspan24">C</tspan></tspan><tspan
             style="stroke-width:0.264583px"
             y="161.01366"
             x="146.45311"
             sodipodi:role="line"
             id="tspan27">F<tspan
   style="font-size:65%;baseline-shift:sub"
   id="tspan26">D</tspan></tspan><tspan
             id="tspan29"
             style="stroke-width:0.264583px"
             y="166.72018"
             x="146.45311"
             sodipodi:role="line">F<tspan
   style="font-size:65%;baseline-shift:sub"
   id="tspan28">I</tspan></tspan></text><rect
           style="fill:#388ecc;stroke:none;stroke-width:0.478563;stroke-linecap:square;stroke-linejoin:round;stroke-dashoffset:0.340157;paint-order:markers fill stroke;fill-opacity:1"
           id="rect1"
           width="64.5"
           height="15.000011"
           x="63.750004"
           y="146.99998" /><path
           style="fill:#0f62fe;stroke:#121619;stroke-width:0.7;stroke-linecap:square;stroke-linejoin:round;stroke-dashoffset:0.340157;marker-end:url(#RoundedArrow);paint-order:markers fill stroke"
           d="M 49.646269,154.49999 H 61.646268"
           id="path29" /><path
           style="fill:#0f62fe;stroke:#121619;stroke-width:0.7;stroke-linecap:square;stroke-linejoin:round;stroke-dashoffset:0.340157;marker-end:url(#RoundedArrow);paint-order:markers fill stroke"
           d="m 127.93696,154.49999 h 11.99999"
           id="path30" /><g
           inkscape:label=""
           transform="matrix(1.245359,0,0,1.245359,72.761363,151.13968)"
           id="g37"
           style="fill:#ffffff"><g
   fill="#000000"
   fill-opacity="1"
   id="g11"
   transform="matrix(0.352778,0,0,0.352778,-0.846402,-0.704409)"
   style="fill:#ffffff">
    <g
   id="use10"
   transform="translate(1.993,12.235)"
   style="fill:#ffffff">
      <path
   d="M 2.03125,-1.328125 C 1.609375,-0.625 1.203125,-0.375 0.640625,-0.34375 0.5,-0.328125 0.40625,-0.328125 0.40625,-0.125 c 0,0.078125 0.0625,0.125 0.140625,0.125 0.21875,0 0.75,-0.03125 0.96875,-0.03125 C 1.859375,-0.03125 2.25,0 2.578125,0 c 0.078125,0 0.21875,0 0.21875,-0.234375 0,-0.09375 -0.09375,-0.109375 -0.171875,-0.109375 -0.265625,-0.03125 -0.5,-0.125 -0.5,-0.40625 0,-0.171875 0.078125,-0.296875 0.234375,-0.5625 l 0.90625,-1.515625 H 6.3125 c 0.015625,0.109375 0.015625,0.203125 0.015625,0.3125 0.046875,0.3125 0.1875,1.5625 0.1875,1.78125 0,0.359375 -0.609375,0.390625 -0.796875,0.390625 -0.140625,0 -0.265625,0 -0.265625,0.21875 C 5.453125,0 5.5625,0 5.625,0 5.828125,0 6.078125,-0.03125 6.28125,-0.03125 H 6.953125 C 7.6875,-0.03125 8.21875,0 8.21875,0 8.3125,0 8.4375,0 8.4375,-0.234375 8.4375,-0.34375 8.328125,-0.34375 8.15625,-0.34375 7.5,-0.34375 7.484375,-0.453125 7.453125,-0.8125 L 6.71875,-8.265625 c -0.03125,-0.25 -0.078125,-0.265625 -0.203125,-0.265625 -0.125,0 -0.1875,0.015625 -0.296875,0.203125 z M 3.46875,-3.171875 5.875,-7.1875 6.28125,-3.171875 Z m 0,0"
   id="path23"
   style="fill:#ffffff" />
    </g>
  </g>
  <g
   fill="#000000"
   fill-opacity="1"
   id="g12"
   transform="matrix(0.352778,0,0,0.352778,-0.846402,-0.704409)"
   style="fill:#ffffff">
    <g
   id="use11"
   transform="translate(13.425,12.235)"
   style="fill:#ffffff">
      <path
   d="M 4.765625,-2.765625 H 8.0625 c 0.171875,0 0.390625,0 0.390625,-0.203125 0,-0.234375 -0.203125,-0.234375 -0.390625,-0.234375 H 4.765625 V -6.5 c 0,-0.171875 0,-0.390625 -0.21875,-0.390625 -0.21875,0 -0.21875,0.203125 -0.21875,0.390625 v 3.296875 H 1.03125 c -0.171875,0 -0.390625,0 -0.390625,0.21875 0,0.21875 0.203125,0.21875 0.390625,0.21875 H 4.328125 V 0.53125 c 0,0.171875 0,0.390625 0.21875,0.390625 0.21875,0 0.21875,-0.203125 0.21875,-0.390625 z m 0,0"
   id="path24"
   style="fill:#ffffff" />
    </g>
  </g>
  <g
   fill="#000000"
   fill-opacity="1"
   id="g13"
   transform="matrix(0.352778,0,0,0.352778,-0.846402,-0.704409)"
   style="fill:#ffffff">
    <g
   id="use12"
   transform="translate(26.819,7.5279999)"
   style="fill:#ffffff">
      <path
   d="m 1.9375,-5.296875 c 0.015625,-0.015625 0.03125,-0.109375 0.03125,-0.125 0,-0.03125 -0.03125,-0.109375 -0.125,-0.109375 -0.03125,0 -0.28125,0.03125 -0.453125,0.046875 L 0.9375,-5.453125 c -0.171875,0.015625 -0.25,0.015625 -0.25,0.15625 0,0.125 0.109375,0.125 0.203125,0.125 0.390625,0 0.390625,0.046875 0.390625,0.109375 0,0.046875 -0.09375,0.375 -0.140625,0.546875 l -0.6875,2.78125 c -0.0625,0.265625 -0.0625,0.390625 -0.0625,0.515625 0,0.828125 0.5,1.296875 1.109375,1.296875 0.984375,0 2,-1.125 2,-2.28125 C 3.5,-3 3,-3.515625 2.359375,-3.515625 c -0.453125,0 -0.796875,0.28125 -0.96875,0.4375 z M 1.5,-0.140625 c -0.28125,0 -0.5625,-0.21875 -0.5625,-0.8125 0,-0.203125 0.03125,-0.40625 0.125,-0.796875 C 1.109375,-1.96875 1.171875,-2.203125 1.234375,-2.4375 1.28125,-2.578125 1.28125,-2.59375 1.375,-2.703125 1.640625,-3.046875 2,-3.296875 2.328125,-3.296875 c 0.40625,0 0.5625,0.390625 0.5625,0.75 0,0.296875 -0.1875,1.15625 -0.421875,1.625 C 2.265625,-0.5 1.875,-0.140625 1.5,-0.140625 Z m 0,0"
   id="path25"
   style="fill:#ffffff" />
    </g>
  </g>
  <path
   fill="none"
   stroke-width="0.478"
   stroke-linecap="butt"
   stroke-linejoin="miter"
   stroke="#000000"
   stroke-opacity="1"
   stroke-miterlimit="10"
   d="m 23.983562,7.2493439 h 4.496094"
   id="path13"
   transform="scale(0.352778)"
   style="fill:#ffffff;stroke:#ffffff" />
  <g
   fill="#000000"
   fill-opacity="1"
   id="g14"
   transform="matrix(0.352778,0,0,0.352778,-0.846402,-0.704409)"
   style="fill:#ffffff">
    <g
   id="use13"
   transform="translate(26.381001,16.357)"
   style="fill:#ffffff">
      <path
   d="M 3.125,-3.03125 C 3.046875,-3.171875 2.828125,-3.515625 2.328125,-3.515625 c -0.9375,0 -1.984375,1.109375 -1.984375,2.28125 0,0.84375 0.53125,1.3125 1.140625,1.3125 0.515625,0 0.953125,-0.40625 1.09375,-0.5625 0.140625,0.546875 0.6875,0.5625 0.78125,0.5625 0.375,0 0.546875,-0.296875 0.609375,-0.4375 C 4.140625,-0.640625 4.25,-1.109375 4.25,-1.140625 4.25,-1.1875 4.21875,-1.25 4.125,-1.25 c -0.09375,0 -0.109375,0.0625 -0.171875,0.25 -0.109375,0.4375 -0.25,0.859375 -0.5625,0.859375 -0.1875,0 -0.265625,-0.15625 -0.265625,-0.375 0,-0.140625 0.078125,-0.40625 0.125,-0.609375 0.046875,-0.203125 0.171875,-0.671875 0.203125,-0.8125 l 0.15625,-0.609375 c 0.046875,-0.1875 0.125,-0.53125 0.125,-0.5625 0,-0.1875 -0.15625,-0.25 -0.25,-0.25 -0.125,0 -0.328125,0.078125 -0.359375,0.328125 z m -0.546875,2.171875 c -0.390625,0.546875 -0.8125,0.71875 -1.0625,0.71875 -0.375,0 -0.546875,-0.34375 -0.546875,-0.75 0,-0.375 0.203125,-1.234375 0.390625,-1.578125 0.21875,-0.484375 0.609375,-0.828125 0.984375,-0.828125 0.515625,0 0.671875,0.59375 0.671875,0.6875 0,0.03125 -0.203125,0.8125 -0.25,1.015625 -0.109375,0.375 -0.109375,0.390625 -0.1875,0.734375 z m 0,0"
   id="path26"
   style="fill:#ffffff" />
    </g>
  </g>
  <g
   fill="#000000"
   fill-opacity="1"
   id="g15"
   transform="matrix(0.352778,0,0,0.352778,-0.846402,-0.704409)"
   style="fill:#ffffff">
    <g
   id="use14"
   transform="translate(32.075001,12.235)"
   style="fill:#ffffff">
      <path
   d="M 4.375,-7.34375 C 4.484375,-7.796875 4.53125,-7.8125 5,-7.8125 h 1.546875 c 1.359375,0 1.359375,1.140625 1.359375,1.25 0,0.96875 -0.96875,2.203125 -2.546875,2.203125 h -1.71875 z m 2.015625,3.078125 C 7.703125,-4.5 8.875,-5.421875 8.875,-6.515625 8.875,-7.453125 8.0625,-8.15625 6.703125,-8.15625 H 2.875 c -0.234375,0 -0.34375,0 -0.34375,0.21875 0,0.125 0.109375,0.125 0.296875,0.125 0.71875,0 0.71875,0.09375 0.71875,0.21875 0,0.03125 0,0.09375 -0.046875,0.28125 L 1.890625,-0.890625 C 1.78125,-0.46875 1.75,-0.34375 0.921875,-0.34375 c -0.234375,0 -0.34375,0 -0.34375,0.21875 0,0.125 0.0625,0.125 0.3125,0.125 h 4.09375 C 6.8125,0 8.21875,-1.390625 8.21875,-2.59375 c 0,-0.984375 -0.859375,-1.578125 -1.828125,-1.671875 z m -1.6875,3.921875 h -1.625 c -0.15625,0 -0.1875,0 -0.25,-0.015625 -0.140625,-0.015625 -0.15625,-0.03125 -0.15625,-0.125 0,-0.09375 0.03125,-0.15625 0.046875,-0.265625 L 3.5625,-4.125 h 2.25 c 1.40625,0 1.40625,1.3125 1.40625,1.40625 0,1.15625 -1.03125,2.375 -2.515625,2.375 z m 0,0"
   id="path27"
   style="fill:#ffffff" />
    </g>
  </g>
  <g
   fill="#000000"
   fill-opacity="1"
   id="g16"
   transform="matrix(0.352778,0,0,0.352778,-0.846402,-0.704409)"
   style="fill:#ffffff">
    <g
   id="use15"
   transform="translate(44.891998,12.235)"
   style="fill:#ffffff">
      <path
   d="m 9.96875,-2.75 c -0.65625,0.5 -0.984375,1 -1.078125,1.140625 -0.53125,0.828125 -0.625,1.578125 -0.625,1.59375 C 8.265625,0.125 8.40625,0.125 8.5,0.125 c 0.203125,0 0.21875,-0.015625 0.265625,-0.234375 0.265625,-1.171875 0.96875,-2.171875 2.328125,-2.71875 0.140625,-0.046875 0.171875,-0.078125 0.171875,-0.15625 0,-0.09375 -0.0625,-0.125 -0.09375,-0.140625 C 10.65625,-3.328125 9.203125,-3.921875 8.75,-5.921875 c -0.03125,-0.15625 -0.046875,-0.1875 -0.25,-0.1875 -0.09375,0 -0.234375,0 -0.234375,0.140625 0,0.03125 0.09375,0.78125 0.609375,1.578125 0.234375,0.359375 0.578125,0.78125 1.09375,1.15625 h -8.875 c -0.21875,0 -0.4375,0 -0.4375,0.25 C 0.65625,-2.75 0.875,-2.75 1.09375,-2.75 Z m 0,0"
   id="path28"
   style="fill:#ffffff" />
    </g>
  </g>
  <g
   fill="#000000"
   fill-opacity="1"
   id="g17"
   transform="matrix(0.352778,0,0,0.352778,-0.846402,-0.704409)"
   style="fill:#ffffff">
    <g
   id="use16"
   transform="translate(61.778999,7.5279999)"
   style="fill:#ffffff">
      <path
   d="m 3.265625,-3.046875 c -0.328125,0.03125 -0.4375,0.28125 -0.4375,0.4375 0,0.234375 0.203125,0.296875 0.3125,0.296875 0.03125,0 0.4375,-0.03125 0.4375,-0.515625 0,-0.484375 -0.515625,-0.6875 -1,-0.6875 -1.125,0 -2.234375,1.09375 -2.234375,2.21875 0,0.75 0.53125,1.375 1.40625,1.375 1.265625,0 1.921875,-0.796875 1.921875,-0.90625 0,-0.078125 -0.078125,-0.125 -0.125,-0.125 -0.046875,0 -0.078125,0.015625 -0.109375,0.0625 -0.625,0.75 -1.53125,0.75 -1.671875,0.75 C 1.34375,-0.140625 1,-0.40625 1,-1.015625 c 0,-0.34375 0.15625,-1.1875 0.53125,-1.6875 0.34375,-0.4375 0.75,-0.59375 1.0625,-0.59375 0.09375,0 0.453125,0.015625 0.671875,0.25 z m 0,0"
   id="path31"
   style="fill:#ffffff" />
    </g>
  </g>
  <path
   fill="none"
   stroke-width="0.478"
   stroke-linecap="butt"
   stroke-linejoin="miter"
   stroke="#000000"
   stroke-opacity="1"
   stroke-miterlimit="10"
   d="m 58.964031,7.2493439 h 4.496094"
   id="path17"
   transform="scale(0.352778)"
   style="fill:#ffffff;stroke:#ffffff" />
  <g
   fill="#000000"
   fill-opacity="1"
   id="g18"
   transform="matrix(0.352778,0,0,0.352778,-0.846402,-0.704409)"
   style="fill:#ffffff">
    <g
   id="use17"
   transform="translate(61.362999,16.357)"
   style="fill:#ffffff">
      <path
   d="M 3.125,-3.03125 C 3.046875,-3.171875 2.828125,-3.515625 2.328125,-3.515625 c -0.9375,0 -1.984375,1.109375 -1.984375,2.28125 0,0.84375 0.53125,1.3125 1.140625,1.3125 0.515625,0 0.953125,-0.40625 1.09375,-0.5625 0.140625,0.546875 0.6875,0.5625 0.78125,0.5625 0.375,0 0.546875,-0.296875 0.609375,-0.4375 C 4.140625,-0.640625 4.25,-1.109375 4.25,-1.140625 4.25,-1.1875 4.21875,-1.25 4.125,-1.25 c -0.09375,0 -0.109375,0.0625 -0.171875,0.25 -0.109375,0.4375 -0.25,0.859375 -0.5625,0.859375 -0.1875,0 -0.265625,-0.15625 -0.265625,-0.375 0,-0.140625 0.078125,-0.40625 0.125,-0.609375 0.046875,-0.203125 0.171875,-0.671875 0.203125,-0.8125 l 0.15625,-0.609375 c 0.046875,-0.1875 0.125,-0.53125 0.125,-0.5625 0,-0.1875 -0.15625,-0.25 -0.25,-0.25 -0.125,0 -0.328125,0.078125 -0.359375,0.328125 z m -0.546875,2.171875 c -0.390625,0.546875 -0.8125,0.71875 -1.0625,0.71875 -0.375,0 -0.546875,-0.34375 -0.546875,-0.75 0,-0.375 0.203125,-1.234375 0.390625,-1.578125 0.21875,-0.484375 0.609375,-0.828125 0.984375,-0.828125 0.515625,0 0.671875,0.59375 0.671875,0.6875 0,0.03125 -0.203125,0.8125 -0.25,1.015625 -0.109375,0.375 -0.109375,0.390625 -0.1875,0.734375 z m 0,0"
   id="path32"
   style="fill:#ffffff" />
    </g>
  </g>
  <g
   fill="#000000"
   fill-opacity="1"
   id="g19"
   transform="matrix(0.352778,0,0,0.352778,-0.846402,-0.704409)"
   style="fill:#ffffff">
    <g
   id="use18"
   transform="translate(67.056999,12.235)"
   style="fill:#ffffff">
      <path
   d="m 8.921875,-8.3125 c 0,-0.109375 -0.078125,-0.109375 -0.09375,-0.109375 -0.03125,0 -0.078125,0 -0.171875,0.125 l -0.828125,1 c -0.421875,-0.71875 -1.078125,-1.125 -1.96875,-1.125 -2.578125,0 -5.265625,2.625 -5.265625,5.4375 0,2 1.40625,3.234375 3.140625,3.234375 0.96875,0 1.796875,-0.40625 2.5,-0.984375 1.03125,-0.875 1.34375,-2.03125 1.34375,-2.140625 0,-0.09375 -0.09375,-0.09375 -0.125,-0.09375 -0.109375,0 -0.125,0.0625 -0.15625,0.109375 -0.546875,1.875 -2.15625,2.765625 -3.359375,2.765625 -1.265625,0 -2.359375,-0.8125 -2.359375,-2.515625 0,-0.375 0.125,-2.453125 1.46875,-4.03125 0.65625,-0.765625 1.78125,-1.421875 2.921875,-1.421875 1.3125,0 1.890625,1.078125 1.890625,2.296875 0,0.3125 -0.03125,0.578125 -0.03125,0.625 0,0.109375 0.125,0.109375 0.15625,0.109375 0.125,0 0.140625,-0.015625 0.1875,-0.234375 z m 0,0"
   id="path33"
   style="fill:#ffffff" />
    </g>
  </g>
  <g
   fill="#000000"
   fill-opacity="1"
   id="g20"
   transform="matrix(0.352778,0,0,0.352778,-0.846402,-0.704409)"
   style="fill:#ffffff">
    <g
   id="use19"
   transform="translate(78.946999,12.235)"
   style="fill:#ffffff">
      <path
   d="M 4.765625,-2.765625 H 8.0625 c 0.171875,0 0.390625,0 0.390625,-0.203125 0,-0.234375 -0.203125,-0.234375 -0.390625,-0.234375 H 4.765625 V -6.5 c 0,-0.171875 0,-0.390625 -0.21875,-0.390625 -0.21875,0 -0.21875,0.203125 -0.21875,0.390625 v 3.296875 H 1.03125 c -0.171875,0 -0.390625,0 -0.390625,0.21875 0,0.21875 0.203125,0.21875 0.390625,0.21875 H 4.328125 V 0.53125 c 0,0.171875 0,0.390625 0.21875,0.390625 0.21875,0 0.21875,-0.203125 0.21875,-0.390625 z m 0,0"
   id="path34"
   style="fill:#ffffff" />
    </g>
  </g>
  <g
   fill="#000000"
   fill-opacity="1"
   id="g21"
   transform="matrix(0.352778,0,0,0.352778,-0.846402,-0.704409)"
   style="fill:#ffffff">
    <g
   id="use20"
   transform="translate(91.973999,7.5279999)"
   style="fill:#ffffff">
      <path
   d="m 4.28125,-5.296875 c 0.015625,-0.015625 0.03125,-0.109375 0.03125,-0.125 0,-0.03125 -0.03125,-0.109375 -0.125,-0.109375 -0.03125,0 -0.28125,0.03125 -0.453125,0.046875 l -0.453125,0.03125 c -0.171875,0.015625 -0.25,0.015625 -0.25,0.15625 0,0.125 0.109375,0.125 0.203125,0.125 0.390625,0 0.390625,0.046875 0.390625,0.109375 0,0.046875 -0.078125,0.3125 -0.109375,0.46875 L 3.125,-3.03125 C 3.046875,-3.171875 2.828125,-3.515625 2.328125,-3.515625 c -0.9375,0 -1.984375,1.109375 -1.984375,2.28125 0,0.84375 0.53125,1.3125 1.140625,1.3125 0.515625,0 0.953125,-0.40625 1.09375,-0.5625 0.140625,0.546875 0.6875,0.5625 0.78125,0.5625 0.375,0 0.546875,-0.296875 0.609375,-0.4375 C 4.140625,-0.640625 4.25,-1.109375 4.25,-1.140625 4.25,-1.1875 4.21875,-1.25 4.125,-1.25 c -0.09375,0 -0.109375,0.0625 -0.171875,0.25 -0.109375,0.4375 -0.25,0.859375 -0.5625,0.859375 -0.1875,0 -0.265625,-0.15625 -0.265625,-0.375 0,-0.15625 0.03125,-0.234375 0.046875,-0.34375 z m -1.703125,4.4375 c -0.390625,0.546875 -0.8125,0.71875 -1.0625,0.71875 -0.375,0 -0.546875,-0.34375 -0.546875,-0.75 0,-0.375 0.203125,-1.234375 0.390625,-1.578125 0.21875,-0.484375 0.609375,-0.828125 0.984375,-0.828125 0.515625,0 0.671875,0.59375 0.671875,0.6875 0,0.03125 -0.203125,0.8125 -0.25,1.015625 -0.109375,0.375 -0.109375,0.390625 -0.1875,0.734375 z m 0,0"
   id="path35"
   style="fill:#ffffff" />
    </g>
  </g>
  <path
   fill="none"
   stroke-width="0.478"
   stroke-linecap="butt"
   stroke-linejoin="miter"
   stroke="#000000"
   stroke-opacity="1"
   stroke-miterlimit="10"
   d="m 89.503094,7.2493439 h 4.5"
   id="path21"
   transform="scale(0.352778)"
   style="fill:#ffffff;stroke:#ffffff" />
  <g
   fill="#000000"
   fill-opacity="1"
   id="g22"
   transform="matrix(0.352778,0,0,0.352778,-0.846402,-0.704409)"
   style="fill:#ffffff">
    <g
   id="use21"
   transform="translate(91.903999,16.357)"
   style="fill:#ffffff">
      <path
   d="M 3.125,-3.03125 C 3.046875,-3.171875 2.828125,-3.515625 2.328125,-3.515625 c -0.9375,0 -1.984375,1.109375 -1.984375,2.28125 0,0.84375 0.53125,1.3125 1.140625,1.3125 0.515625,0 0.953125,-0.40625 1.09375,-0.5625 0.140625,0.546875 0.6875,0.5625 0.78125,0.5625 0.375,0 0.546875,-0.296875 0.609375,-0.4375 C 4.140625,-0.640625 4.25,-1.109375 4.25,-1.140625 4.25,-1.1875 4.21875,-1.25 4.125,-1.25 c -0.09375,0 -0.109375,0.0625 -0.171875,0.25 -0.109375,0.4375 -0.25,0.859375 -0.5625,0.859375 -0.1875,0 -0.265625,-0.15625 -0.265625,-0.375 0,-0.140625 0.078125,-0.40625 0.125,-0.609375 0.046875,-0.203125 0.171875,-0.671875 0.203125,-0.8125 l 0.15625,-0.609375 c 0.046875,-0.1875 0.125,-0.53125 0.125,-0.5625 0,-0.1875 -0.15625,-0.25 -0.25,-0.25 -0.125,0 -0.328125,0.078125 -0.359375,0.328125 z m -0.546875,2.171875 c -0.390625,0.546875 -0.8125,0.71875 -1.0625,0.71875 -0.375,0 -0.546875,-0.34375 -0.546875,-0.75 0,-0.375 0.203125,-1.234375 0.390625,-1.578125 0.21875,-0.484375 0.609375,-0.828125 0.984375,-0.828125 0.515625,0 0.671875,0.59375 0.671875,0.6875 0,0.03125 -0.203125,0.8125 -0.25,1.015625 -0.109375,0.375 -0.109375,0.390625 -0.1875,0.734375 z m 0,0"
   id="path36"
   style="fill:#ffffff" />
    </g>
  </g>
  <g
   fill="#000000"
   fill-opacity="1"
   id="g23"
   transform="matrix(0.352778,0,0,0.352778,-0.846402,-0.704409)"
   style="fill:#ffffff">
    <g
   id="use22"
   transform="translate(97.598,12.235)"
   style="fill:#ffffff">
      <path
   d="M 1.875,-0.890625 C 1.765625,-0.46875 1.75,-0.34375 0.90625,-0.34375 c -0.21875,0 -0.34375,0 -0.34375,0.21875 C 0.5625,0 0.640625,0 0.875,0 h 3.78125 c 2.421875,0 4.78125,-2.5 4.78125,-5.15625 0,-1.734375 -1.03125,-3 -2.75,-3 H 2.859375 c -0.234375,0 -0.34375,0 -0.34375,0.21875 0,0.125 0.109375,0.125 0.296875,0.125 0.71875,0 0.71875,0.09375 0.71875,0.21875 0,0.03125 0,0.09375 -0.046875,0.28125 z M 4.40625,-7.34375 C 4.5,-7.796875 4.546875,-7.8125 5.015625,-7.8125 h 1.3125 c 1.125,0 2.15625,0.609375 2.15625,2.25 0,0.609375 -0.234375,2.6875 -1.390625,4 -0.34375,0.390625 -1.25,1.21875 -2.625,1.21875 H 3.109375 c -0.171875,0 -0.1875,0 -0.265625,-0.015625 -0.125,-0.015625 -0.140625,-0.03125 -0.140625,-0.125 0,-0.09375 0.015625,-0.15625 0.046875,-0.265625 z m 0,0"
   id="path37"
   style="fill:#ffffff" />
    </g>
  </g>
</g></g></g></g></svg>
