<?xml version="1.0" encoding="UTF-8" standalone="no"?>
<!-- Created with Inkscape (http://www.inkscape.org/) -->

<svg
   width="210mm"
   height="297mm"
   viewBox="0 0 210 297"
   version="1.1"
   id="svg1"
   inkscape:version="1.3.2 (091e20e, 2023-11-25, custom)"
   sodipodi:docname="graphical-differentiation.svg"
   xml:space="preserve"
   xmlns:inkscape="http://www.inkscape.org/namespaces/inkscape"
   xmlns:sodipodi="http://sodipodi.sourceforge.net/DTD/sodipodi-0.dtd"
   xmlns="http://www.w3.org/2000/svg"
   xmlns:svg="http://www.w3.org/2000/svg"><sodipodi:namedview
     id="namedview1"
     pagecolor="#ffffff"
     bordercolor="#000000"
     borderopacity="0.25"
     inkscape:showpageshadow="2"
     inkscape:pageopacity="0.0"
     inkscape:pagecheckerboard="0"
     inkscape:deskcolor="#d1d1d1"
     inkscape:document-units="mm"
     showgrid="true"
     inkscape:zoom="3.3585157"
     inkscape:cx="126.69287"
     inkscape:cy="192.64463"
     inkscape:window-width="2729"
     inkscape:window-height="2088"
     inkscape:window-x="1358"
     inkscape:window-y="0"
     inkscape:window-maximized="0"
     inkscape:current-layer="svg1"><inkscape:grid
       id="grid1"
       units="px"
       originx="0"
       originy="0"
       spacingx="0.26458333"
       spacingy="0.26458334"
       empcolor="#0099e5"
       empopacity="0.30196078"
       color="#0099e5"
       opacity="0.14901961"
       empspacing="5"
       dotted="false"
       gridanglex="30"
       gridanglez="30"
       visible="true" /></sodipodi:namedview><defs
     id="defs1"><marker
       style="overflow:visible"
       id="marker15"
       refX="0"
       refY="0"
       orient="auto-start-reverse"
       inkscape:stockid="Triangle arrow"
       markerWidth="0.89999998"
       markerHeight="0.60000002"
       viewBox="0 0 1 1"
       inkscape:isstock="true"
       inkscape:collect="always"
       preserveAspectRatio="none"><path
         transform="scale(0.5)"
         style="fill:context-stroke;fill-rule:evenodd;stroke:context-stroke;stroke-width:1pt"
         d="M 5.77,0 -2.88,5 V -5 Z"
         id="path15" /></marker></defs><path
     style="opacity:1;fill:none;fill-opacity:1;stroke:#000000;stroke-width:0.264583;stroke-dasharray:none;paint-order:markers fill stroke"
     d="m 38.1,50.270835 5.027083,6.085417 4.898855,5.145185 4.890725,4.644398 5.291667,5.291667 5.291667,4.497916 4.762735,3.907949"
     id="path29"
     inkscape:export-filename="integral-method-0-order.png"
     inkscape:export-xdpi="300"
     inkscape:export-ydpi="300" /><rect
     style="opacity:1;fill:#c7c6c6;fill-opacity:1;stroke:none;stroke-width:0.244183;paint-order:markers fill stroke"
     id="rect17"
     width="5.0270829"
     height="29.633333"
     x="40.481247"
     y="56.356251" /><rect
     style="opacity:1;fill:#e0e2e2;fill-opacity:1;stroke:none;stroke-width:0.222155;paint-order:markers fill stroke"
     id="rect18"
     width="5.0352182"
     height="24.48815"
     x="45.508331"
     y="61.501438" /><rect
     style="opacity:1;fill:#c7c6c6;fill-opacity:1;stroke:none;stroke-width:0.198406;paint-order:markers fill stroke"
     id="rect19"
     width="4.9561815"
     height="19.843748"
     x="50.520859"
     y="66.145836" /><rect
     style="opacity:1;fill:#e0e2e2;fill-opacity:1;stroke:none;stroke-width:0.176497;paint-order:markers fill stroke"
     id="rect26"
     width="5.3870745"
     height="14.44717"
     x="55.467091"
     y="71.542412" /><rect
     style="opacity:1;fill:#c7c6c6;fill-opacity:1;stroke:none;stroke-width:0.141952;paint-order:markers fill stroke"
     id="rect27"
     width="5.0413613"
     height="9.9860783"
     x="60.854164"
     y="76.00351" /><rect
     style="opacity:1;fill:#e0e2e2;fill-opacity:1;stroke:none;stroke-width:0.260937;paint-order:markers fill stroke"
     id="rect16"
     width="4.7624979"
     height="35.71875"
     x="35.71875"
     y="50.270836" /><path
     style="opacity:1;fill:none;fill-opacity:1;stroke:#000000;stroke-width:0.264583;stroke-dasharray:none;paint-order:markers fill stroke"
     d="m 38.1,50.270835 5.027083,6.085417 4.898855,5.145185 4.890725,4.644398 5.291667,5.291667 5.291667,4.497916 4.762735,3.907949"
     id="path28" /><g
     inkscape:label="Dark-Color-Pellette"
     inkscape:groupmode="layer"
     id="layer1"
     style="display:inline"><rect
       style="fill:#000000;stroke:none;stroke-width:0.264583px;-inkscape-stroke:none;paint-order:markers fill stroke"
       id="rect1"
       width="13.229166"
       height="14.552083"
       x="0.43676892"
       y="-16.536459" /><rect
       style="fill:#65489d;fill-opacity:1;stroke:none;stroke-width:0.264583px;-inkscape-stroke:none;paint-order:markers fill stroke"
       id="rect2"
       width="13.229166"
       height="14.552083"
       x="13.961318"
       y="-16.536459" /><rect
       style="fill:#388ecc;stroke:none;stroke-width:0.264583px;-inkscape-stroke:none;paint-order:markers fill stroke"
       id="rect3"
       width="13.229166"
       height="14.552083"
       x="-40.715027"
       y="-16.536459"
       transform="scale(-1,1)" /><rect
       style="fill:#105e5d;fill-opacity:1;stroke:none;stroke-width:0.264583px;-inkscape-stroke:none;paint-order:markers fill stroke"
       id="rect4"
       width="13.229166"
       height="14.552083"
       x="41.010414"
       y="-16.536459" /><rect
       style="fill:#9f1d54;fill-opacity:1;stroke:none;stroke-width:0.264583px;-inkscape-stroke:none;paint-order:markers fill stroke"
       id="rect5"
       width="13.229166"
       height="14.552083"
       x="54.534966"
       y="-16.536459" /><rect
       style="fill:#4d1013;fill-opacity:1;stroke:none;stroke-width:0.264583px;-inkscape-stroke:none;paint-order:markers fill stroke"
       id="rect6"
       width="13.229166"
       height="14.552083"
       x="68.059517"
       y="-16.536459" /><rect
       style="fill:#f04e58;fill-opacity:1;stroke:none;stroke-width:0.264583px;-inkscape-stroke:none;paint-order:markers fill stroke"
       id="rect7"
       width="13.229166"
       height="14.552083"
       x="81.584061"
       y="-16.536459" /><rect
       style="fill:#148040;fill-opacity:1;stroke:none;stroke-width:0.264583px;-inkscape-stroke:none;paint-order:markers fill stroke"
       id="rect8"
       width="13.229166"
       height="14.552083"
       x="95.108612"
       y="-16.536459" /></g><g
     inkscape:groupmode="layer"
     id="layer2"
     inkscape:label="Drawing" /><path
     style="fill:none;fill-opacity:1;stroke:#000000;stroke-width:0.529167;stroke-dasharray:none;marker-start:url(#marker15);marker-end:url(#marker15);paint-order:markers fill stroke"
     d="m 29.104166,42.597918 v 43.391667 l 44.714582,10e-7"
     id="path13"
     sodipodi:nodetypes="ccc"
     inkscape:export-filename="integral-method-0-order.png"
     inkscape:export-xdpi="300"
     inkscape:export-ydpi="300" /><ellipse
     style="fill:#65489d;fill-opacity:1;stroke:none;stroke-width:0.605793;stroke-dasharray:none;paint-order:markers fill stroke"
     id="ellipse16"
     cx="-65.965195"
     cy="-78.150558"
     rx="0.68674982"
     ry="0.66117954"
     transform="scale(-1)" /><ellipse
     style="fill:#65489d;fill-opacity:1;stroke:none;stroke-width:0.605793;stroke-dasharray:none;paint-order:markers fill stroke"
     id="ellipse17"
     cx="-60.75333"
     cy="-75.942825"
     rx="0.68674982"
     ry="0.66117954"
     transform="scale(-1)" /><ellipse
     style="fill:#65489d;fill-opacity:1;stroke:none;stroke-width:0.605793;stroke-dasharray:none;paint-order:markers fill stroke"
     id="ellipse18"
     cx="-55.430206"
     cy="-71.570572"
     rx="0.68674982"
     ry="0.66117954"
     transform="scale(-1)" /><ellipse
     style="fill:#65489d;fill-opacity:1;stroke:none;stroke-width:0.605793;stroke-dasharray:none;paint-order:markers fill stroke"
     id="ellipse19"
     cx="-50.502342"
     cy="-66.145836"
     rx="0.68674982"
     ry="0.66117954"
     transform="scale(-1)" /><ellipse
     style="fill:#65489d;fill-opacity:1;stroke:none;stroke-width:0.605793;stroke-dasharray:none;paint-order:markers fill stroke"
     id="ellipse20"
     cx="-35.71875"
     cy="-50.19342"
     rx="0.68674982"
     ry="0.66117954"
     transform="scale(-1)" /><ellipse
     style="fill:#65489d;fill-opacity:1;stroke:none;stroke-width:0.605793;stroke-dasharray:none;paint-order:markers fill stroke"
     id="ellipse21"
     cx="-45.574478"
     cy="-61.515907"
     rx="0.68674982"
     ry="0.66117954"
     transform="scale(-1)" /><ellipse
     style="fill:#65489d;fill-opacity:1;stroke:none;stroke-width:0.605793;stroke-dasharray:none;paint-order:markers fill stroke"
     id="ellipse23"
     cx="-40.646614"
     cy="-56.3419"
     rx="0.68674982"
     ry="0.66117954"
     transform="scale(-1)" /><path
     style="fill:none;fill-opacity:1;stroke:#525353;stroke-width:0.132292;stroke-dasharray:none;stroke-opacity:1;marker-end:url(#marker15);paint-order:markers fill stroke"
     d="m 54.239582,61.383335 c -0.978984,1.246605 -2.116667,1.852084 -3.05049,2.105671"
     id="path31"
     inkscape:transform-center-x="0.77988063"
     inkscape:transform-center-y="0.50135184"
     sodipodi:nodetypes="cc" /><text
     xml:space="preserve"
     style="font-size:2.73825px;line-height:125%;font-family:'IBM Plex Sans';-inkscape-font-specification:'IBM Plex Sans, Normal';text-decoration-color:#000000;letter-spacing:0px;word-spacing:0px;fill:#000000;stroke-width:0.17114;paint-order:markers fill stroke"
     x="34.50906"
     y="90.549202"
     id="text1"><tspan
       sodipodi:role="line"
       id="tspan1"
       style="fill:#000000;stroke-width:0.17114"
       x="34.50906"
       y="90.549202">x<tspan
   style="font-size:1.77986px;baseline-shift:sub;fill:#000000;stroke-width:0.17114"
   id="tspan2">1</tspan></tspan></text><text
     xml:space="preserve"
     style="font-size:2.73825px;line-height:125%;font-family:'IBM Plex Sans';-inkscape-font-specification:'IBM Plex Sans, Normal';text-decoration-color:#000000;letter-spacing:0px;word-spacing:0px;fill:#000000;stroke-width:0.17114;paint-order:markers fill stroke"
     x="39.449383"
     y="90.549202"
     id="text4"><tspan
       sodipodi:role="line"
       id="tspan4"
       style="fill:#000000;stroke-width:0.17114"
       x="39.449383"
       y="90.549202">x<tspan
   style="font-size:1.77986px;baseline-shift:sub;fill:#000000;stroke-width:0.17114"
   id="tspan3">2</tspan></tspan></text><text
     xml:space="preserve"
     style="font-size:2.73825px;line-height:125%;font-family:'IBM Plex Sans';-inkscape-font-specification:'IBM Plex Sans, Normal';text-decoration-color:#000000;letter-spacing:0px;word-spacing:0px;fill:#000000;stroke-width:0.17114;paint-order:markers fill stroke"
     x="44.402164"
     y="90.549202"
     id="text6"><tspan
       sodipodi:role="line"
       id="tspan6"
       style="fill:#000000;stroke-width:0.17114"
       x="44.402164"
       y="90.549202">x<tspan
   style="font-size:1.77986px;baseline-shift:sub;fill:#000000;stroke-width:0.17114"
   id="tspan5">3</tspan></tspan></text><text
     xml:space="preserve"
     style="font-size:2.73825px;line-height:125%;font-family:'IBM Plex Sans';-inkscape-font-specification:'IBM Plex Sans, Normal';text-decoration-color:#000000;letter-spacing:0px;word-spacing:0px;fill:#000000;stroke-width:0.17114;paint-order:markers fill stroke"
     x="49.284645"
     y="90.549202"
     id="text8"><tspan
       sodipodi:role="line"
       id="tspan8"
       style="fill:#000000;stroke-width:0.17114"
       x="49.284645"
       y="90.549202">x<tspan
   style="font-size:1.77986px;baseline-shift:sub;fill:#000000;stroke-width:0.17114"
   id="tspan7">4</tspan></tspan></text><text
     xml:space="preserve"
     style="font-size:2.73825px;line-height:125%;font-family:'IBM Plex Sans';-inkscape-font-specification:'IBM Plex Sans, Normal';text-decoration-color:#000000;letter-spacing:0px;word-spacing:0px;fill:#000000;stroke-width:0.17114;paint-order:markers fill stroke"
     x="54.235645"
     y="90.549202"
     id="text10"><tspan
       sodipodi:role="line"
       id="tspan10"
       style="fill:#000000;stroke-width:0.17114"
       x="54.235645"
       y="90.549202">x<tspan
   style="font-size:1.77986px;baseline-shift:sub;fill:#000000;stroke-width:0.17114"
   id="tspan9">5</tspan></tspan></text><path
     style="fill:#000000;stroke-width:0.264583;paint-order:markers fill stroke;stroke:#000000"
     d="m 35.71875,85.989585 v 1.322917"
     id="path10" /><path
     style="fill:#000000;stroke:#000000;stroke-width:0.264583;paint-order:markers fill stroke"
     d="m 40.646614,85.989586 v 1.322917"
     id="path11" /><path
     style="fill:#000000;stroke:#000000;stroke-width:0.264583;paint-order:markers fill stroke"
     d="m 45.574478,85.989586 v 1.322917"
     id="path12" /><path
     style="fill:#000000;stroke:#000000;stroke-width:0.264583;paint-order:markers fill stroke"
     d="m 50.502343,85.989586 v 1.322917"
     id="path14" /><path
     style="fill:#000000;stroke:#000000;stroke-width:0.264583;paint-order:markers fill stroke"
     d="m 55.430207,85.989586 v 1.322917"
     id="path16" /><ellipse
     style="fill:#388ecc;fill-opacity:1;stroke:none;stroke-width:0.229058;stroke-dasharray:none;paint-order:markers fill stroke"
     id="ellipse22"
     cx="-40.481247"
     cy="-53.105423"
     rx="0.25966844"
     ry="0.25"
     transform="scale(-1)" /><ellipse
     style="fill:#388ecc;fill-opacity:1;stroke:none;stroke-width:0.229058;stroke-dasharray:none;paint-order:markers fill stroke"
     id="ellipse24"
     cx="-45.508331"
     cy="-58.891788"
     rx="0.25966844"
     ry="0.25"
     transform="scale(-1)" /><ellipse
     style="fill:#388ecc;fill-opacity:1;stroke:none;stroke-width:0.229058;stroke-dasharray:none;paint-order:markers fill stroke"
     id="ellipse25"
     cx="-50.535416"
     cy="-63.779167"
     rx="0.25966844"
     ry="0.25"
     transform="scale(-1)" /><ellipse
     style="fill:#388ecc;fill-opacity:1;stroke:none;stroke-width:0.229058;stroke-dasharray:none;paint-order:markers fill stroke"
     id="ellipse27"
     cx="-60.854164"
     cy="-73.568756"
     rx="0.25966844"
     ry="0.25"
     transform="scale(-1)" /><path
     id="rect29"
     style="opacity:1;fill:#f04e58;stroke-width:0.269741;paint-order:markers fill stroke"
     d="m 55.477042,68.783771 2.683585,2.758641 -2.683585,0.0269 z"
     sodipodi:nodetypes="cccc" /><path
     id="path30"
     style="opacity:1;fill:#105e5d;stroke-width:0.269741;paint-order:markers fill stroke;fill-opacity:1"
     d="m 55.477042,68.783771 2.683585,2.758641 -2.683585,0.0269 z"
     sodipodi:nodetypes="cccc" /><path
     id="path32"
     style="opacity:1;fill:#105e5d;stroke-width:0.269741;paint-order:markers fill stroke;fill-opacity:1"
     d="m 55.634941,68.783767 -2.683585,-2.758641 2.683585,-0.0269 z"
     sodipodi:nodetypes="cccc" /><text
     xml:space="preserve"
     style="font-style:normal;font-variant:normal;font-weight:normal;font-stretch:normal;font-size:2.73825px;line-height:125%;font-family:'IBM Plex Sans';-inkscape-font-specification:'IBM Plex Sans, Normal';font-variant-ligatures:normal;font-variant-caps:normal;font-variant-numeric:normal;font-variant-east-asian:normal;text-decoration-color:#000000;letter-spacing:0px;word-spacing:0px;text-anchor:end;fill:#000000;fill-opacity:1;stroke:none;stroke-width:0.529167;stroke-dasharray:none;paint-order:markers fill stroke"
     x="71.004448"
     y="64.602226"
     id="text32"><tspan
       sodipodi:role="line"
       id="tspan32"
       style="font-style:normal;font-variant:normal;font-weight:normal;font-stretch:normal;font-size:2.73825px;font-family:'IBM Plex Sans';-inkscape-font-specification:'IBM Plex Sans, Normal';font-variant-ligatures:normal;font-variant-caps:normal;font-variant-numeric:normal;font-variant-east-asian:normal;fill:#000000;stroke:none;stroke-width:0.529167"
       x="71.004448"
       y="64.602226">balance</tspan><tspan
       sodipodi:role="line"
       style="font-style:normal;font-variant:normal;font-weight:normal;font-stretch:normal;font-size:2.73825px;font-family:'IBM Plex Sans';-inkscape-font-specification:'IBM Plex Sans, Normal';font-variant-ligatures:normal;font-variant-caps:normal;font-variant-numeric:normal;font-variant-east-asian:normal;fill:#000000;stroke:none;stroke-width:0.529167"
       x="71.004448"
       y="68.02504"
       id="tspan33">areas</tspan></text><path
     style="fill:none;fill-opacity:1;stroke:#525353;stroke-width:0.132292;stroke-dasharray:none;stroke-opacity:1;marker-end:url(#marker15);paint-order:markers fill stroke"
     d="m 60.854165,63.564607 c -2.117331,-0.191324 -4.982251,0.895911 -5.636794,2.080405"
     id="path33"
     inkscape:transform-center-x="0.77988063"
     inkscape:transform-center-y="0.50135184"
     sodipodi:nodetypes="cc" /><g
     inkscape:label=""
     transform="matrix(0.47367417,0,0,0.47367417,43.311538,50.844404)"
     id="g36"><g
   fill="#000000"
   fill-opacity="1"
   id="g8"
   transform="matrix(0.352778,0,0,0.352778,-1.1165,-0.702116)">
    <g
   id="use7"
   transform="translate(1.993,10.959)">
      <path
   d="m 3.890625,2.90625 c 0,-0.03125 0,-0.0625 -0.203125,-0.265625 C 2.484375,1.4375 1.8125,-0.53125 1.8125,-2.96875 c 0,-2.328125 0.5625,-4.328125 1.953125,-5.734375 0.125,-0.109375 0.125,-0.125 0.125,-0.171875 0,-0.0625 -0.0625,-0.09375 -0.109375,-0.09375 -0.15625,0 -1.140625,0.859375 -1.71875,2.03125 -0.609375,1.21875 -0.890625,2.484375 -0.890625,3.96875 0,1.0625 0.171875,2.484375 0.78125,3.75 C 2.671875,2.21875 3.640625,3 3.78125,3 3.828125,3 3.890625,2.96875 3.890625,2.90625 Z m 0,0"
   id="path34" />
    </g>
  </g>
  <g
   fill="#000000"
   fill-opacity="1"
   id="g9"
   transform="matrix(0.352778,0,0,0.352778,-1.1165,-0.702116)">
    <g
   id="use8"
   transform="translate(6.5450001,10.959)">
      <path
   d="m 6.015625,-8 c 0.015625,-0.046875 0.03125,-0.109375 0.03125,-0.171875 0,-0.125 -0.125,-0.125 -0.140625,-0.125 -0.015625,0 -0.59375,0.046875 -0.65625,0.0625 -0.203125,0.015625 -0.390625,0.03125 -0.59375,0.046875 -0.3125,0.03125 -0.390625,0.03125 -0.390625,0.25 0,0.125 0.09375,0.125 0.265625,0.125 0.578125,0 0.59375,0.109375 0.59375,0.21875 0,0.078125 -0.015625,0.171875 -0.03125,0.203125 l -0.734375,2.90625 c -0.125,-0.3125 -0.453125,-0.78125 -1.078125,-0.78125 -1.34375,0 -2.796875,1.734375 -2.796875,3.515625 0,1.171875 0.6875,1.875 1.5,1.875 0.65625,0 1.21875,-0.515625 1.546875,-0.90625 0.125,0.703125 0.6875,0.90625 1.046875,0.90625 0.359375,0 0.640625,-0.21875 0.859375,-0.65625 0.1875,-0.40625 0.359375,-1.125 0.359375,-1.171875 0,-0.0625 -0.046875,-0.109375 -0.125,-0.109375 C 5.5625,-1.8125 5.5625,-1.75 5.515625,-1.578125 5.328125,-0.875 5.109375,-0.125 4.609375,-0.125 4.265625,-0.125 4.25,-0.4375 4.25,-0.671875 c 0,-0.046875 0,-0.296875 0.078125,-0.625 z M 3.59375,-1.421875 C 3.53125,-1.21875 3.53125,-1.1875 3.375,-0.96875 3.109375,-0.640625 2.578125,-0.125 2.015625,-0.125 1.53125,-0.125 1.25,-0.5625 1.25,-1.265625 c 0,-0.65625 0.375,-2 0.609375,-2.5 0.40625,-0.84375 0.96875,-1.265625 1.421875,-1.265625 0.796875,0 0.953125,0.984375 0.953125,1.078125 0,0.015625 -0.03125,0.15625 -0.046875,0.1875 z m 0,0"
   id="path35" />
    </g>
    <g
   id="use9"
   transform="translate(12.627806,10.959)">
      <path
   d="m 3.140625,1.34375 c -0.3125,0.453125 -0.78125,0.859375 -1.375,0.859375 C 1.625,2.203125 1.046875,2.171875 0.875,1.625 c 0.03125,0.015625 0.09375,0.015625 0.109375,0.015625 0.359375,0 0.609375,-0.3125 0.609375,-0.59375 C 1.59375,0.78125 1.359375,0.6875 1.1875,0.6875 c -0.203125,0 -0.609375,0.140625 -0.609375,0.71875 0,0.609375 0.515625,1.03125 1.1875,1.03125 C 2.96875,2.4375 4.171875,1.34375 4.5,0.015625 L 5.671875,-4.65625 C 5.6875,-4.703125 5.71875,-4.78125 5.71875,-4.859375 5.71875,-5.03125 5.5625,-5.15625 5.390625,-5.15625 5.28125,-5.15625 5.03125,-5.109375 4.9375,-4.75 L 4.046875,-1.234375 C 4,-1.015625 4,-0.984375 3.890625,-0.859375 3.65625,-0.53125 3.265625,-0.125 2.6875,-0.125 c -0.671875,0 -0.734375,-0.65625 -0.734375,-0.96875 0,-0.6875 0.328125,-1.609375 0.65625,-2.46875 0.125,-0.34375 0.203125,-0.515625 0.203125,-0.75 0,-0.5 -0.359375,-0.953125 -0.953125,-0.953125 -1.09375,0 -1.53125,1.734375 -1.53125,1.828125 0,0.046875 0.046875,0.109375 0.125,0.109375 0.109375,0 0.125,-0.046875 0.171875,-0.21875 0.28125,-1 0.734375,-1.484375 1.203125,-1.484375 0.109375,0 0.3125,0 0.3125,0.390625 0,0.3125 -0.125,0.65625 -0.3125,1.109375 C 1.25,-1.953125 1.25,-1.5625 1.25,-1.28125 1.25,-0.140625 2.0625,0.125 2.65625,0.125 3,0.125 3.4375,0.015625 3.84375,-0.4375 l 0.015625,0.015625 C 3.6875,0.28125 3.5625,0.75 3.140625,1.34375 Z m 0,0"
   id="path36" />
    </g>
  </g>
  <g
   fill="#000000"
   fill-opacity="1"
   id="g12"
   transform="matrix(0.352778,0,0,0.352778,-1.1165,-0.702116)">
    <g
   id="use10"
   transform="translate(18.765606,10.959)">
      <path
   d="m 5.125,-8.515625 c 0,-0.015625 0.078125,-0.203125 0.078125,-0.21875 0,-0.140625 -0.125,-0.234375 -0.21875,-0.234375 -0.0625,0 -0.171875,0 -0.265625,0.265625 l -4,11.25 c 0,0.015625 -0.078125,0.1875 -0.078125,0.21875 0,0.140625 0.125,0.21875 0.21875,0.21875 0.078125,0 0.1875,-0.015625 0.265625,-0.265625 z m 0,0"
   id="path17" />
    </g>
    <g
   id="use11"
   transform="translate(24.618872,10.959)">
      <path
   d="m 6.015625,-8 c 0.015625,-0.046875 0.03125,-0.109375 0.03125,-0.171875 0,-0.125 -0.125,-0.125 -0.140625,-0.125 -0.015625,0 -0.59375,0.046875 -0.65625,0.0625 -0.203125,0.015625 -0.390625,0.03125 -0.59375,0.046875 -0.3125,0.03125 -0.390625,0.03125 -0.390625,0.25 0,0.125 0.09375,0.125 0.265625,0.125 0.578125,0 0.59375,0.109375 0.59375,0.21875 0,0.078125 -0.015625,0.171875 -0.03125,0.203125 l -0.734375,2.90625 c -0.125,-0.3125 -0.453125,-0.78125 -1.078125,-0.78125 -1.34375,0 -2.796875,1.734375 -2.796875,3.515625 0,1.171875 0.6875,1.875 1.5,1.875 0.65625,0 1.21875,-0.515625 1.546875,-0.90625 0.125,0.703125 0.6875,0.90625 1.046875,0.90625 0.359375,0 0.640625,-0.21875 0.859375,-0.65625 0.1875,-0.40625 0.359375,-1.125 0.359375,-1.171875 0,-0.0625 -0.046875,-0.109375 -0.125,-0.109375 C 5.5625,-1.8125 5.5625,-1.75 5.515625,-1.578125 5.328125,-0.875 5.109375,-0.125 4.609375,-0.125 4.265625,-0.125 4.25,-0.4375 4.25,-0.671875 c 0,-0.046875 0,-0.296875 0.078125,-0.625 z M 3.59375,-1.421875 C 3.53125,-1.21875 3.53125,-1.1875 3.375,-0.96875 3.109375,-0.640625 2.578125,-0.125 2.015625,-0.125 1.53125,-0.125 1.25,-0.5625 1.25,-1.265625 c 0,-0.65625 0.375,-2 0.609375,-2.5 0.40625,-0.84375 0.96875,-1.265625 1.421875,-1.265625 0.796875,0 0.953125,0.984375 0.953125,1.078125 0,0.015625 -0.03125,0.15625 -0.046875,0.1875 z m 0,0"
   id="path18" />
    </g>
    <g
   id="use12"
   transform="translate(30.701677,10.959)">
      <path
   d="m 5.671875,-4.875 c -0.390625,0.0625 -0.53125,0.359375 -0.53125,0.578125 0,0.296875 0.21875,0.390625 0.390625,0.390625 0.359375,0 0.609375,-0.3125 0.609375,-0.640625 0,-0.5 -0.578125,-0.71875 -1.078125,-0.71875 -0.71875,0 -1.125,0.71875 -1.234375,0.9375 -0.28125,-0.890625 -1.015625,-0.9375 -1.234375,-0.9375 -1.21875,0 -1.859375,1.5625 -1.859375,1.828125 0,0.046875 0.046875,0.109375 0.125,0.109375 0.09375,0 0.125,-0.078125 0.140625,-0.125 0.40625,-1.328125 1.21875,-1.578125 1.5625,-1.578125 0.53125,0 0.640625,0.5 0.640625,0.78125 0,0.265625 -0.078125,0.546875 -0.21875,1.125 L 2.578125,-1.5 c -0.171875,0.71875 -0.515625,1.375 -1.15625,1.375 -0.0625,0 -0.359375,0 -0.609375,-0.15625 C 1.25,-0.359375 1.34375,-0.71875 1.34375,-0.859375 1.34375,-1.09375 1.15625,-1.25 0.9375,-1.25 c -0.296875,0 -0.609375,0.265625 -0.609375,0.640625 0,0.5 0.5625,0.734375 1.078125,0.734375 0.578125,0 0.984375,-0.453125 1.234375,-0.953125 C 2.828125,-0.125 3.4375,0.125 3.875,0.125 5.09375,0.125 5.734375,-1.453125 5.734375,-1.703125 5.734375,-1.765625 5.6875,-1.8125 5.625,-1.8125 5.515625,-1.8125 5.5,-1.75 5.46875,-1.65625 5.140625,-0.609375 4.453125,-0.125 3.90625,-0.125 3.484375,-0.125 3.265625,-0.4375 3.265625,-0.921875 3.265625,-1.1875 3.3125,-1.375 3.5,-2.15625 L 3.921875,-3.796875 C 4.09375,-4.5 4.5,-5.03125 5.0625,-5.03125 c 0.015625,0 0.359375,0 0.609375,0.15625 z m 0,0"
   id="path19" />
    </g>
  </g>
  <g
   fill="#000000"
   fill-opacity="1"
   id="g13"
   transform="matrix(0.352778,0,0,0.352778,-1.1165,-0.702116)">
    <g
   id="use13"
   transform="translate(37.352001,10.959)">
      <path
   d="M 3.375,-2.96875 C 3.375,-3.890625 3.25,-5.359375 2.578125,-6.75 1.875,-8.1875 0.890625,-8.96875 0.765625,-8.96875 c -0.046875,0 -0.109375,0.03125 -0.109375,0.09375 0,0.046875 0,0.0625 0.203125,0.265625 1.203125,1.203125 1.859375,3.1875 1.859375,5.625 0,2.3125 -0.5625,4.3125 -1.9375,5.71875 C 0.65625,2.84375 0.65625,2.875 0.65625,2.90625 0.65625,2.96875 0.71875,3 0.765625,3 0.921875,3 1.90625,2.140625 2.484375,0.96875 3.09375,-0.25 3.375,-1.546875 3.375,-2.96875 Z m 0,0"
   id="path20" />
    </g>
  </g>
  <g
   fill="#000000"
   fill-opacity="1"
   id="g14"
   transform="matrix(0.352778,0,0,0.352778,-1.1165,-0.702116)">
    <g
   id="use14"
   transform="translate(41.903999,12.752)">
      <path
   d="m 2.25,-1.625 c 0.125,-0.125 0.453125,-0.390625 0.59375,-0.5 0.484375,-0.453125 0.953125,-0.890625 0.953125,-1.609375 0,-0.953125 -0.796875,-1.5625 -1.78125,-1.5625 -0.96875,0 -1.59375,0.71875 -1.59375,1.4375 0,0.390625 0.3125,0.4375 0.421875,0.4375 0.171875,0 0.421875,-0.109375 0.421875,-0.421875 0,-0.40625 -0.40625,-0.40625 -0.5,-0.40625 C 1,-4.84375 1.53125,-5.03125 1.921875,-5.03125 c 0.734375,0 1.125,0.625 1.125,1.296875 0,0.828125 -0.578125,1.4375 -1.53125,2.390625 l -1,1.046875 C 0.421875,-0.21875 0.421875,-0.203125 0.421875,0 H 3.5625 l 0.234375,-1.421875 h -0.25 C 3.53125,-1.265625 3.46875,-0.875 3.375,-0.71875 c -0.046875,0.0625 -0.65625,0.0625 -0.78125,0.0625 H 1.171875 Z m 0,0"
   id="path21" />
    </g>
  </g>
</g><g
     inkscape:label=""
     transform="matrix(0.47367417,0,0,0.47367417,51.504036,59.037795)"
     id="g50"><g
   fill="#000000"
   fill-opacity="1"
   id="g38"
   transform="matrix(0.352778,0,0,0.352778,-1.1165,-0.702116)">
    <g
   id="g37"
   transform="translate(1.993,10.959)">
      <path
   d="m 3.890625,2.90625 c 0,-0.03125 0,-0.0625 -0.203125,-0.265625 C 2.484375,1.4375 1.8125,-0.53125 1.8125,-2.96875 c 0,-2.328125 0.5625,-4.328125 1.953125,-5.734375 0.125,-0.109375 0.125,-0.125 0.125,-0.171875 0,-0.0625 -0.0625,-0.09375 -0.109375,-0.09375 -0.15625,0 -1.140625,0.859375 -1.71875,2.03125 -0.609375,1.21875 -0.890625,2.484375 -0.890625,3.96875 0,1.0625 0.171875,2.484375 0.78125,3.75 C 2.671875,2.21875 3.640625,3 3.78125,3 3.828125,3 3.890625,2.96875 3.890625,2.90625 Z m 0,0"
   id="path37" />
    </g>
  </g>
  <g
   fill="#000000"
   fill-opacity="1"
   id="g41"
   transform="matrix(0.352778,0,0,0.352778,-1.1165,-0.702116)">
    <g
   id="g39"
   transform="translate(6.5450001,10.959)">
      <path
   d="m 6.015625,-8 c 0.015625,-0.046875 0.03125,-0.109375 0.03125,-0.171875 0,-0.125 -0.125,-0.125 -0.140625,-0.125 -0.015625,0 -0.59375,0.046875 -0.65625,0.0625 -0.203125,0.015625 -0.390625,0.03125 -0.59375,0.046875 -0.3125,0.03125 -0.390625,0.03125 -0.390625,0.25 0,0.125 0.09375,0.125 0.265625,0.125 0.578125,0 0.59375,0.109375 0.59375,0.21875 0,0.078125 -0.015625,0.171875 -0.03125,0.203125 l -0.734375,2.90625 c -0.125,-0.3125 -0.453125,-0.78125 -1.078125,-0.78125 -1.34375,0 -2.796875,1.734375 -2.796875,3.515625 0,1.171875 0.6875,1.875 1.5,1.875 0.65625,0 1.21875,-0.515625 1.546875,-0.90625 0.125,0.703125 0.6875,0.90625 1.046875,0.90625 0.359375,0 0.640625,-0.21875 0.859375,-0.65625 0.1875,-0.40625 0.359375,-1.125 0.359375,-1.171875 0,-0.0625 -0.046875,-0.109375 -0.125,-0.109375 C 5.5625,-1.8125 5.5625,-1.75 5.515625,-1.578125 5.328125,-0.875 5.109375,-0.125 4.609375,-0.125 4.265625,-0.125 4.25,-0.4375 4.25,-0.671875 c 0,-0.046875 0,-0.296875 0.078125,-0.625 z M 3.59375,-1.421875 C 3.53125,-1.21875 3.53125,-1.1875 3.375,-0.96875 3.109375,-0.640625 2.578125,-0.125 2.015625,-0.125 1.53125,-0.125 1.25,-0.5625 1.25,-1.265625 c 0,-0.65625 0.375,-2 0.609375,-2.5 0.40625,-0.84375 0.96875,-1.265625 1.421875,-1.265625 0.796875,0 0.953125,0.984375 0.953125,1.078125 0,0.015625 -0.03125,0.15625 -0.046875,0.1875 z m 0,0"
   id="path38" />
    </g>
    <g
   id="g40"
   transform="translate(12.627806,10.959)">
      <path
   d="m 3.140625,1.34375 c -0.3125,0.453125 -0.78125,0.859375 -1.375,0.859375 C 1.625,2.203125 1.046875,2.171875 0.875,1.625 c 0.03125,0.015625 0.09375,0.015625 0.109375,0.015625 0.359375,0 0.609375,-0.3125 0.609375,-0.59375 C 1.59375,0.78125 1.359375,0.6875 1.1875,0.6875 c -0.203125,0 -0.609375,0.140625 -0.609375,0.71875 0,0.609375 0.515625,1.03125 1.1875,1.03125 C 2.96875,2.4375 4.171875,1.34375 4.5,0.015625 L 5.671875,-4.65625 C 5.6875,-4.703125 5.71875,-4.78125 5.71875,-4.859375 5.71875,-5.03125 5.5625,-5.15625 5.390625,-5.15625 5.28125,-5.15625 5.03125,-5.109375 4.9375,-4.75 L 4.046875,-1.234375 C 4,-1.015625 4,-0.984375 3.890625,-0.859375 3.65625,-0.53125 3.265625,-0.125 2.6875,-0.125 c -0.671875,0 -0.734375,-0.65625 -0.734375,-0.96875 0,-0.6875 0.328125,-1.609375 0.65625,-2.46875 0.125,-0.34375 0.203125,-0.515625 0.203125,-0.75 0,-0.5 -0.359375,-0.953125 -0.953125,-0.953125 -1.09375,0 -1.53125,1.734375 -1.53125,1.828125 0,0.046875 0.046875,0.109375 0.125,0.109375 0.109375,0 0.125,-0.046875 0.171875,-0.21875 0.28125,-1 0.734375,-1.484375 1.203125,-1.484375 0.109375,0 0.3125,0 0.3125,0.390625 0,0.3125 -0.125,0.65625 -0.3125,1.109375 C 1.25,-1.953125 1.25,-1.5625 1.25,-1.28125 1.25,-0.140625 2.0625,0.125 2.65625,0.125 3,0.125 3.4375,0.015625 3.84375,-0.4375 l 0.015625,0.015625 C 3.6875,0.28125 3.5625,0.75 3.140625,1.34375 Z m 0,0"
   id="path39" />
    </g>
  </g>
  <g
   fill="#000000"
   fill-opacity="1"
   id="g45"
   transform="matrix(0.352778,0,0,0.352778,-1.1165,-0.702116)">
    <g
   id="g42"
   transform="translate(18.765606,10.959)">
      <path
   d="m 5.125,-8.515625 c 0,-0.015625 0.078125,-0.203125 0.078125,-0.21875 0,-0.140625 -0.125,-0.234375 -0.21875,-0.234375 -0.0625,0 -0.171875,0 -0.265625,0.265625 l -4,11.25 c 0,0.015625 -0.078125,0.1875 -0.078125,0.21875 0,0.140625 0.125,0.21875 0.21875,0.21875 0.078125,0 0.1875,-0.015625 0.265625,-0.265625 z m 0,0"
   id="path41" />
    </g>
    <g
   id="g43"
   transform="translate(24.618872,10.959)">
      <path
   d="m 6.015625,-8 c 0.015625,-0.046875 0.03125,-0.109375 0.03125,-0.171875 0,-0.125 -0.125,-0.125 -0.140625,-0.125 -0.015625,0 -0.59375,0.046875 -0.65625,0.0625 -0.203125,0.015625 -0.390625,0.03125 -0.59375,0.046875 -0.3125,0.03125 -0.390625,0.03125 -0.390625,0.25 0,0.125 0.09375,0.125 0.265625,0.125 0.578125,0 0.59375,0.109375 0.59375,0.21875 0,0.078125 -0.015625,0.171875 -0.03125,0.203125 l -0.734375,2.90625 c -0.125,-0.3125 -0.453125,-0.78125 -1.078125,-0.78125 -1.34375,0 -2.796875,1.734375 -2.796875,3.515625 0,1.171875 0.6875,1.875 1.5,1.875 0.65625,0 1.21875,-0.515625 1.546875,-0.90625 0.125,0.703125 0.6875,0.90625 1.046875,0.90625 0.359375,0 0.640625,-0.21875 0.859375,-0.65625 0.1875,-0.40625 0.359375,-1.125 0.359375,-1.171875 0,-0.0625 -0.046875,-0.109375 -0.125,-0.109375 C 5.5625,-1.8125 5.5625,-1.75 5.515625,-1.578125 5.328125,-0.875 5.109375,-0.125 4.609375,-0.125 4.265625,-0.125 4.25,-0.4375 4.25,-0.671875 c 0,-0.046875 0,-0.296875 0.078125,-0.625 z M 3.59375,-1.421875 C 3.53125,-1.21875 3.53125,-1.1875 3.375,-0.96875 3.109375,-0.640625 2.578125,-0.125 2.015625,-0.125 1.53125,-0.125 1.25,-0.5625 1.25,-1.265625 c 0,-0.65625 0.375,-2 0.609375,-2.5 0.40625,-0.84375 0.96875,-1.265625 1.421875,-1.265625 0.796875,0 0.953125,0.984375 0.953125,1.078125 0,0.015625 -0.03125,0.15625 -0.046875,0.1875 z m 0,0"
   id="path42" />
    </g>
    <g
   id="g44"
   transform="translate(30.701677,10.959)">
      <path
   d="m 5.671875,-4.875 c -0.390625,0.0625 -0.53125,0.359375 -0.53125,0.578125 0,0.296875 0.21875,0.390625 0.390625,0.390625 0.359375,0 0.609375,-0.3125 0.609375,-0.640625 0,-0.5 -0.578125,-0.71875 -1.078125,-0.71875 -0.71875,0 -1.125,0.71875 -1.234375,0.9375 -0.28125,-0.890625 -1.015625,-0.9375 -1.234375,-0.9375 -1.21875,0 -1.859375,1.5625 -1.859375,1.828125 0,0.046875 0.046875,0.109375 0.125,0.109375 0.09375,0 0.125,-0.078125 0.140625,-0.125 0.40625,-1.328125 1.21875,-1.578125 1.5625,-1.578125 0.53125,0 0.640625,0.5 0.640625,0.78125 0,0.265625 -0.078125,0.546875 -0.21875,1.125 L 2.578125,-1.5 c -0.171875,0.71875 -0.515625,1.375 -1.15625,1.375 -0.0625,0 -0.359375,0 -0.609375,-0.15625 C 1.25,-0.359375 1.34375,-0.71875 1.34375,-0.859375 1.34375,-1.09375 1.15625,-1.25 0.9375,-1.25 c -0.296875,0 -0.609375,0.265625 -0.609375,0.640625 0,0.5 0.5625,0.734375 1.078125,0.734375 0.578125,0 0.984375,-0.453125 1.234375,-0.953125 C 2.828125,-0.125 3.4375,0.125 3.875,0.125 5.09375,0.125 5.734375,-1.453125 5.734375,-1.703125 5.734375,-1.765625 5.6875,-1.8125 5.625,-1.8125 5.515625,-1.8125 5.5,-1.75 5.46875,-1.65625 5.140625,-0.609375 4.453125,-0.125 3.90625,-0.125 3.484375,-0.125 3.265625,-0.4375 3.265625,-0.921875 3.265625,-1.1875 3.3125,-1.375 3.5,-2.15625 L 3.921875,-3.796875 C 4.09375,-4.5 4.5,-5.03125 5.0625,-5.03125 c 0.015625,0 0.359375,0 0.609375,0.15625 z m 0,0"
   id="path43" />
    </g>
  </g>
  <g
   fill="#000000"
   fill-opacity="1"
   id="g47"
   transform="matrix(0.352778,0,0,0.352778,-1.1165,-0.702116)">
    <g
   id="g46"
   transform="translate(37.352001,10.959)">
      <path
   d="M 3.375,-2.96875 C 3.375,-3.890625 3.25,-5.359375 2.578125,-6.75 1.875,-8.1875 0.890625,-8.96875 0.765625,-8.96875 c -0.046875,0 -0.109375,0.03125 -0.109375,0.09375 0,0.046875 0,0.0625 0.203125,0.265625 1.203125,1.203125 1.859375,3.1875 1.859375,5.625 0,2.3125 -0.5625,4.3125 -1.9375,5.71875 C 0.65625,2.84375 0.65625,2.875 0.65625,2.90625 0.65625,2.96875 0.71875,3 0.765625,3 0.921875,3 1.90625,2.140625 2.484375,0.96875 3.09375,-0.25 3.375,-1.546875 3.375,-2.96875 Z m 0,0"
   id="path45" />
    </g>
  </g>
  <g
   fill="#000000"
   fill-opacity="1"
   id="g49"
   transform="matrix(0.352778,0,0,0.352778,-1.1165,-0.702116)">
    <g
   id="g48"
   transform="translate(41.903999,12.752)">
      <path
   d="m 3.140625,-5.15625 c 0,-0.15625 0,-0.21875 -0.171875,-0.21875 -0.09375,0 -0.109375,0 -0.1875,0.109375 L 0.234375,-1.5625 v 0.25 h 2.25 v 0.671875 c 0,0.296875 -0.015625,0.375 -0.640625,0.375 H 1.671875 V 0 c 0.671875,-0.03125 0.6875,-0.03125 1.140625,-0.03125 0.453125,0 0.46875,0 1.140625,0.03125 V -0.265625 H 3.78125 c -0.625,0 -0.640625,-0.078125 -0.640625,-0.375 V -1.3125 h 0.84375 v -0.25 h -0.84375 z m -0.59375,0.640625 V -1.5625 h -2.03125 z m 0,0"
   id="path47" />
    </g>
  </g>
</g><path
     style="fill:none;fill-opacity:1;stroke:#525353;stroke-width:0.132292;stroke-dasharray:none;stroke-opacity:1;marker-end:url(#marker15);paint-order:markers fill stroke"
     d="m 43.127082,51.593752 c -1.018374,0.06658 -1.853382,0.369572 -2.234501,0.948126"
     id="path50"
     inkscape:transform-center-x="0.77988063"
     inkscape:transform-center-y="0.50135184"
     sodipodi:nodetypes="cc" /><text
     xml:space="preserve"
     style="font-style:normal;font-variant:normal;font-weight:normal;font-stretch:normal;font-size:2.73825px;line-height:125%;font-family:'IBM Plex Sans';-inkscape-font-specification:'IBM Plex Sans, Normal';font-variant-ligatures:normal;font-variant-caps:normal;font-variant-numeric:normal;font-variant-east-asian:normal;text-decoration-color:#000000;letter-spacing:0px;word-spacing:0px;text-anchor:end;fill:#9f1d54;fill-opacity:1;stroke:none;stroke-width:0.529167;stroke-dasharray:none;paint-order:markers fill stroke"
     x="35.655769"
     y="43.498692"
     id="text51"><tspan
       sodipodi:role="line"
       style="font-style:normal;font-variant:normal;font-weight:normal;font-stretch:normal;font-size:2.73825px;font-family:'IBM Plex Sans';-inkscape-font-specification:'IBM Plex Sans, Normal';font-variant-ligatures:normal;font-variant-caps:normal;font-variant-numeric:normal;font-variant-east-asian:normal;text-align:start;text-anchor:start;fill:#9f1d54;stroke:none;stroke-width:0.529167;fill-opacity:1"
       x="35.655769"
       y="43.498692"
       id="tspan51">Area under the curve is</tspan><tspan
       sodipodi:role="line"
       style="font-style:normal;font-variant:normal;font-weight:normal;font-stretch:normal;font-size:2.73825px;font-family:'IBM Plex Sans';-inkscape-font-specification:'IBM Plex Sans, Normal';font-variant-ligatures:normal;font-variant-caps:normal;font-variant-numeric:normal;font-variant-east-asian:normal;text-align:start;text-anchor:start;fill:#9f1d54;stroke:none;stroke-width:0.529167;fill-opacity:1"
       x="35.655769"
       y="46.921505"
       id="tspan52">same as the area under the bars</tspan></text><path
     style="fill:none;fill-opacity:1;stroke:#525353;stroke-width:0.132292;stroke-dasharray:none;stroke-opacity:1;marker-end:url(#marker15);paint-order:markers fill stroke"
     d="m 62.177081,66.410419 c -2.110501,2.740439 -3.847187,2.764661 -5.291666,3.278127"
     id="path1"
     inkscape:transform-center-x="0.77988063"
     inkscape:transform-center-y="0.50135184"
     sodipodi:nodetypes="cc" /><ellipse
     style="fill:#388ecc;fill-opacity:1;stroke:none;stroke-width:0.229058;stroke-dasharray:none;paint-order:markers fill stroke"
     id="ellipse26"
     cx="-55.477039"
     cy="-68.760147"
     rx="0.25966844"
     ry="0.25"
     transform="scale(-1)" /></svg>
