<?xml version="1.0" encoding="UTF-8" standalone="no"?>
<!-- Created with Inkscape (http://www.inkscape.org/) -->

<svg
   width="210mm"
   height="297mm"
   viewBox="0 0 210 297"
   version="1.1"
   id="svg1"
   inkscape:version="1.3.2 (091e20e, 2023-11-25, custom)"
   sodipodi:docname="half-life-method-n-order.svg"
   xmlns:inkscape="http://www.inkscape.org/namespaces/inkscape"
   xmlns:sodipodi="http://sodipodi.sourceforge.net/DTD/sodipodi-0.dtd"
   xmlns="http://www.w3.org/2000/svg"
   xmlns:svg="http://www.w3.org/2000/svg">
  <sodipodi:namedview
     id="namedview1"
     pagecolor="#ffffff"
     bordercolor="#000000"
     borderopacity="0.25"
     inkscape:showpageshadow="2"
     inkscape:pageopacity="0.0"
     inkscape:pagecheckerboard="0"
     inkscape:deskcolor="#d1d1d1"
     inkscape:document-units="mm"
     showgrid="true"
     inkscape:zoom="3.3585157"
     inkscape:cx="174.03521"
     inkscape:cy="182.81886"
     inkscape:window-width="2729"
     inkscape:window-height="2088"
     inkscape:window-x="1351"
     inkscape:window-y="0"
     inkscape:window-maximized="0"
     inkscape:current-layer="g31">
    <inkscape:grid
       id="grid1"
       units="px"
       originx="0"
       originy="0"
       spacingx="0.26458333"
       spacingy="0.26458334"
       empcolor="#0099e5"
       empopacity="0.30196078"
       color="#0099e5"
       opacity="0.14901961"
       empspacing="5"
       dotted="false"
       gridanglex="30"
       gridanglez="30"
       visible="true" />
  </sodipodi:namedview>
  <defs
     id="defs1">
    <marker
       style="overflow:visible"
       id="marker15"
       refX="0"
       refY="0"
       orient="auto-start-reverse"
       inkscape:stockid="Triangle arrow"
       markerWidth="0.89999998"
       markerHeight="0.60000002"
       viewBox="0 0 1 1"
       inkscape:isstock="true"
       inkscape:collect="always"
       preserveAspectRatio="none">
      <path
         transform="scale(0.5)"
         style="fill:context-stroke;fill-rule:evenodd;stroke:context-stroke;stroke-width:1pt"
         d="M 5.77,0 -2.88,5 V -5 Z"
         id="path15" />
    </marker>
  </defs>
  <g
     inkscape:label="Dark-Color-Pellette"
     inkscape:groupmode="layer"
     id="layer1"
     style="display:inline">
    <rect
       style="fill:#000000;stroke:none;stroke-width:0.264583px;-inkscape-stroke:none;paint-order:markers fill stroke"
       id="rect1"
       width="13.229166"
       height="14.552083"
       x="0.43676892"
       y="-16.536459" />
    <rect
       style="fill:#65489d;fill-opacity:1;stroke:none;stroke-width:0.264583px;-inkscape-stroke:none;paint-order:markers fill stroke"
       id="rect2"
       width="13.229166"
       height="14.552083"
       x="13.961318"
       y="-16.536459" />
    <rect
       style="fill:#388ecc;stroke:none;stroke-width:0.264583px;-inkscape-stroke:none;paint-order:markers fill stroke"
       id="rect3"
       width="13.229166"
       height="14.552083"
       x="27.485868"
       y="-16.536459" />
    <rect
       style="fill:#105e5d;fill-opacity:1;stroke:none;stroke-width:0.264583px;-inkscape-stroke:none;paint-order:markers fill stroke"
       id="rect4"
       width="13.229166"
       height="14.552083"
       x="41.010414"
       y="-16.536459" />
    <rect
       style="fill:#9f1d54;fill-opacity:1;stroke:none;stroke-width:0.264583px;-inkscape-stroke:none;paint-order:markers fill stroke"
       id="rect5"
       width="13.229166"
       height="14.552083"
       x="54.534966"
       y="-16.536459" />
    <rect
       style="fill:#4d1013;fill-opacity:1;stroke:none;stroke-width:0.264583px;-inkscape-stroke:none;paint-order:markers fill stroke"
       id="rect6"
       width="13.229166"
       height="14.552083"
       x="68.059517"
       y="-16.536459" />
    <rect
       style="fill:#f04e58;fill-opacity:1;stroke:none;stroke-width:0.264583px;-inkscape-stroke:none;paint-order:markers fill stroke"
       id="rect7"
       width="13.229166"
       height="14.552083"
       x="81.584061"
       y="-16.536459" />
    <rect
       style="fill:#148040;fill-opacity:1;stroke:none;stroke-width:0.264583px;-inkscape-stroke:none;paint-order:markers fill stroke"
       id="rect8"
       width="13.229166"
       height="14.552083"
       x="95.108612"
       y="-16.536459" />
  </g>
  <g
     inkscape:groupmode="layer"
     id="layer2"
     inkscape:label="Drawing" />
  <g
     id="g31">
    <path
       style="fill:none;fill-opacity:1;stroke:#000000;stroke-width:0.529167;stroke-dasharray:none;marker-start:url(#marker15);marker-end:url(#marker15);paint-order:markers fill stroke"
       d="m 29.104166,43.034971 v 43.391667 l 44.714582,10e-7"
       id="path13"
       sodipodi:nodetypes="ccc"
       inkscape:export-filename="half-life-method-n-order.png"
       inkscape:export-xdpi="300"
       inkscape:export-ydpi="300" />
    <ellipse
       style="fill:#388ecc;fill-opacity:1;stroke:none;stroke-width:0.605793;stroke-dasharray:none;paint-order:markers fill stroke"
       id="path16"
       cx="34.4827"
       cy="50.530846"
       rx="0.68674982"
       ry="0.66117954" />
    <ellipse
       style="fill:#388ecc;fill-opacity:1;stroke:none;stroke-width:0.605793;stroke-dasharray:none;paint-order:markers fill stroke"
       id="ellipse16"
       cx="38.354748"
       cy="53.751934"
       rx="0.68674982"
       ry="0.66117954" />
    <ellipse
       style="fill:#388ecc;fill-opacity:1;stroke:none;stroke-width:0.605793;stroke-dasharray:none;paint-order:markers fill stroke"
       id="ellipse17"
       cx="42.226791"
       cy="55.266415"
       rx="0.68674982"
       ry="0.66117954" />
    <ellipse
       style="fill:#388ecc;fill-opacity:1;stroke:none;stroke-width:0.605793;stroke-dasharray:none;paint-order:markers fill stroke"
       id="ellipse18"
       cx="46.098843"
       cy="59.809856"
       rx="0.68674982"
       ry="0.66117954" />
    <ellipse
       style="fill:#388ecc;fill-opacity:1;stroke:none;stroke-width:0.605793;stroke-dasharray:none;paint-order:markers fill stroke"
       id="ellipse19"
       cx="49.97089"
       cy="62.646702"
       rx="0.68674982"
       ry="0.66117954" />
    <ellipse
       style="fill:#388ecc;fill-opacity:1;stroke:none;stroke-width:0.605793;stroke-dasharray:none;paint-order:markers fill stroke"
       id="ellipse20"
       cx="65.459084"
       cy="76.469154"
       rx="0.68674982"
       ry="0.66117954" />
    <ellipse
       style="fill:#388ecc;fill-opacity:1;stroke:none;stroke-width:0.605793;stroke-dasharray:none;paint-order:markers fill stroke"
       id="ellipse21"
       cx="53.842937"
       cy="67.305733"
       rx="0.68674982"
       ry="0.66117954" />
    <ellipse
       style="fill:#388ecc;fill-opacity:1;stroke:none;stroke-width:0.605793;stroke-dasharray:none;paint-order:markers fill stroke"
       id="ellipse22"
       cx="57.714985"
       cy="67.966904"
       rx="0.68674982"
       ry="0.66117954" />
    <ellipse
       style="fill:#388ecc;fill-opacity:1;stroke:none;stroke-width:0.605793;stroke-dasharray:none;paint-order:markers fill stroke"
       id="ellipse23"
       cx="61.587032"
       cy="73.440193"
       rx="0.68674982"
       ry="0.66117954" />
    <path
       style="fill:none;fill-opacity:1;stroke:#388ecc;stroke-width:0.529167;stroke-dasharray:none;paint-order:markers fill stroke;stroke-opacity:1"
       d="M 34.395833,50.270835 66.14583,76.729168"
       id="path23" />
    <path
       style="fill:none;fill-opacity:1;stroke:#000000;stroke-width:0.26458333;stroke-dasharray:none;stroke-opacity:1;paint-order:markers fill stroke"
       d="m 47.624997,61.647919 v 3.174999 h 3.96875"
       id="path24" />
    <text
       xml:space="preserve"
       style="font-size:4.23333px;line-height:125%;font-family:'IBM Plex Sans';-inkscape-font-specification:'IBM Plex Sans, Normal';text-decoration-color:#000000;letter-spacing:0px;word-spacing:0px;text-anchor:end;fill:#000000;fill-opacity:1;stroke:none;stroke-width:0.529167;stroke-dasharray:none;paint-order:markers fill stroke"
       x="57.576992"
       y="75.407349"
       id="text31"><tspan
         sodipodi:role="line"
         id="tspan31"
         style="fill:#000000;stroke:none;stroke-width:0.529167"
         x="57.576992"
         y="75.407349">slope = (1-α)</tspan></text>
    <path
       style="fill:none;fill-opacity:1;stroke:#000000;stroke-width:0.264583;stroke-dasharray:none;stroke-opacity:1;marker-end:url(#marker15);paint-order:markers fill stroke"
       d="m 37.667998,71.589602 c 0.696584,-4.12085 5.245543,-8.281721 9.117594,-7.652866"
       id="path31"
       inkscape:transform-center-x="-0.77988064"
       inkscape:transform-center-y="0.50135184"
       sodipodi:nodetypes="cc" />
    <g
       inkscape:label=""
       transform="translate(16.906827,62.232205)"
       id="g3">
      <g
         fill="#000000"
         fill-opacity="1"
         id="g7"
         transform="matrix(0.352778,0,0,0.352778,-0.84089,-0.704541)">
        <g
           id="use6"
           transform="translate(1.993,10.294)">
          <path
             d="M 2.0625,-8.296875 0.390625,-8.15625 v 0.34375 c 0.8125,0 0.90625,0.078125 0.90625,0.671875 v 6.25 c 0,0.546875 -0.125,0.546875 -0.90625,0.546875 V 0 c 0.34375,-0.03125 0.921875,-0.03125 1.28125,-0.03125 0.359375,0 0.953125,0 1.296875,0.03125 v -0.34375 c -0.765625,0 -0.90625,0 -0.90625,-0.546875 z m 0,0"
             id="path11" />
        </g>
        <g
           id="use7"
           transform="translate(5.2448139,10.294)">
          <path
             d="m 5.3125,-2.90625 c 0,-1.109375 0,-1.4375 -0.265625,-1.828125 -0.34375,-0.46875 -0.90625,-0.53125 -1.3125,-0.53125 -1.171875,0 -1.625,0.984375 -1.71875,1.21875 v -1.21875 l -1.640625,0.125 v 0.34375 c 0.8125,0 0.921875,0.09375 0.921875,0.671875 v 3.234375 c 0,0.546875 -0.140625,0.546875 -0.921875,0.546875 V 0 c 0.3125,-0.03125 0.96875,-0.03125 1.296875,-0.03125 0.34375,0 1,0 1.296875,0.03125 v -0.34375 c -0.75,0 -0.90625,0 -0.90625,-0.546875 v -2.21875 c 0,-1.25 0.828125,-1.921875 1.578125,-1.921875 0.734375,0 0.90625,0.609375 0.90625,1.34375 v 2.796875 c 0,0.546875 -0.140625,0.546875 -0.90625,0.546875 V 0 c 0.296875,-0.03125 0.953125,-0.03125 1.28125,-0.03125 0.34375,0 1,0 1.3125,0.03125 v -0.34375 c -0.609375,0 -0.90625,0 -0.921875,-0.359375 z m 0,0"
             id="path12" />
        </g>
      </g>
      <g
         fill="#000000"
         fill-opacity="1"
         id="g8"
         transform="matrix(0.352778,0,0,0.352778,-0.84089,-0.704541)">
        <g
           id="use8"
           transform="translate(13.74,10.294)">
          <path
             d="M 2.40625,-4.8125 H 3.5 c 0.234375,0 0.34375,0 0.34375,-0.203125 0,-0.140625 -0.0625,-0.140625 -0.3125,-0.140625 H 2.484375 l 0.4375,-1.734375 C 2.96875,-7.0625 2.96875,-7.09375 2.96875,-7.171875 c 0,-0.1875 -0.140625,-0.296875 -0.296875,-0.296875 -0.109375,0 -0.375,0.03125 -0.46875,0.421875 l -0.46875,1.890625 h -1.125 c -0.234375,0 -0.34375,0 -0.34375,0.234375 0,0.109375 0.078125,0.109375 0.3125,0.109375 h 1.0625 L 0.84375,-1.65625 c -0.09375,0.421875 -0.125,0.546875 -0.125,0.703125 0,0.5625 0.390625,1.078125 1.0625,1.078125 1.203125,0 1.859375,-1.75 1.859375,-1.828125 0,-0.078125 -0.0625,-0.109375 -0.125,-0.109375 -0.03125,0 -0.078125,0 -0.09375,0.046875 C 3.40625,-1.75 3.390625,-1.75 3.3125,-1.546875 c -0.25,0.59375 -0.796875,1.421875 -1.5,1.421875 -0.359375,0 -0.375,-0.296875 -0.375,-0.5625 0,0 0,-0.234375 0.03125,-0.375 z m 0,0"
             id="path1" />
        </g>
      </g>
      <g
         fill="#000000"
         fill-opacity="1"
         id="g9"
         transform="matrix(0.352778,0,0,0.352778,-0.84089,-0.704541)">
        <g
           id="use9"
           transform="translate(17.966999,12.154)">
          <path
             d="m 2.5,-5.078125 c 0,-0.21875 -0.015625,-0.21875 -0.234375,-0.21875 -0.328125,0.3125 -0.75,0.5 -1.5,0.5 v 0.265625 c 0.21875,0 0.640625,0 1.109375,-0.203125 v 4.078125 c 0,0.296875 -0.03125,0.390625 -0.78125,0.390625 H 0.8125 V 0 c 0.328125,-0.03125 1.015625,-0.03125 1.375,-0.03125 0.359375,0 1.046875,0 1.375,0.03125 V -0.265625 H 3.28125 c -0.75,0 -0.78125,-0.09375 -0.78125,-0.390625 z m 0,0"
             id="path14" />
        </g>
      </g>
      <g
         fill="#000000"
         fill-opacity="1"
         id="g10"
         transform="matrix(0.352778,0,0,0.352778,-0.84089,-0.704541)">
        <g
           id="use10"
           transform="translate(22.201,12.154)">
          <path
             d="M 3.703125,-5.640625 C 3.75,-5.75 3.75,-5.765625 3.75,-5.796875 c 0,-0.09375 -0.078125,-0.171875 -0.1875,-0.171875 -0.125,0 -0.15625,0.09375 -0.1875,0.171875 L 0.515625,1.65625 C 0.46875,1.765625 0.46875,1.78125 0.46875,1.8125 c 0,0.09375 0.078125,0.171875 0.1875,0.171875 0.125,0 0.15625,-0.09375 0.1875,-0.171875 z m 0,0"
             id="path2" />
        </g>
      </g>
      <g
         fill="#000000"
         fill-opacity="1"
         id="g11"
         transform="matrix(0.352778,0,0,0.352778,-0.84089,-0.704541)">
        <g
           id="use11"
           transform="translate(26.436001,12.154)">
          <path
             d="m 2.25,-1.625 c 0.125,-0.125 0.453125,-0.390625 0.59375,-0.5 0.484375,-0.453125 0.953125,-0.890625 0.953125,-1.609375 0,-0.953125 -0.796875,-1.5625 -1.78125,-1.5625 -0.96875,0 -1.59375,0.71875 -1.59375,1.4375 0,0.390625 0.3125,0.4375 0.421875,0.4375 0.171875,0 0.421875,-0.109375 0.421875,-0.421875 0,-0.40625 -0.40625,-0.40625 -0.5,-0.40625 C 1,-4.84375 1.53125,-5.03125 1.921875,-5.03125 c 0.734375,0 1.125,0.625 1.125,1.296875 0,0.828125 -0.578125,1.4375 -1.53125,2.390625 l -1,1.046875 C 0.421875,-0.21875 0.421875,-0.203125 0.421875,0 H 3.5625 l 0.234375,-1.421875 h -0.25 C 3.53125,-1.265625 3.46875,-0.875 3.375,-0.71875 c -0.046875,0.0625 -0.65625,0.0625 -0.78125,0.0625 H 1.171875 Z m 0,0"
             id="path3" />
        </g>
      </g>
    </g>
    <g
       inkscape:label=""
       transform="translate(46.532976,88.580297)"
       id="g21">
      <g
         fill="#000000"
         fill-opacity="1"
         id="g6"
         transform="matrix(0.352778,0,0,0.352778,-0.84089,-0.660444)">
        <g
           id="use5"
           transform="translate(1.993,10.294)">
          <path
             d="M 2.0625,-8.296875 0.390625,-8.15625 v 0.34375 c 0.8125,0 0.90625,0.078125 0.90625,0.671875 v 6.25 c 0,0.546875 -0.125,0.546875 -0.90625,0.546875 V 0 c 0.34375,-0.03125 0.921875,-0.03125 1.28125,-0.03125 0.359375,0 0.953125,0 1.296875,0.03125 v -0.34375 c -0.765625,0 -0.90625,0 -0.90625,-0.546875 z m 0,0"
             id="path9" />
        </g>
        <g
           id="g4"
           transform="translate(5.2448139,10.294)">
          <path
             d="m 5.3125,-2.90625 c 0,-1.109375 0,-1.4375 -0.265625,-1.828125 -0.34375,-0.46875 -0.90625,-0.53125 -1.3125,-0.53125 -1.171875,0 -1.625,0.984375 -1.71875,1.21875 v -1.21875 l -1.640625,0.125 v 0.34375 c 0.8125,0 0.921875,0.09375 0.921875,0.671875 v 3.234375 c 0,0.546875 -0.140625,0.546875 -0.921875,0.546875 V 0 c 0.3125,-0.03125 0.96875,-0.03125 1.296875,-0.03125 0.34375,0 1,0 1.296875,0.03125 v -0.34375 c -0.75,0 -0.90625,0 -0.90625,-0.546875 v -2.21875 c 0,-1.25 0.828125,-1.921875 1.578125,-1.921875 0.734375,0 0.90625,0.609375 0.90625,1.34375 v 2.796875 c 0,0.546875 -0.140625,0.546875 -0.90625,0.546875 V 0 c 0.296875,-0.03125 0.953125,-0.03125 1.28125,-0.03125 0.34375,0 1,0 1.3125,0.03125 v -0.34375 c -0.609375,0 -0.90625,0 -0.921875,-0.359375 z m 0,0"
             id="path10" />
        </g>
      </g>
      <g
         fill="#000000"
         fill-opacity="1"
         id="g12"
         transform="matrix(0.352778,0,0,0.352778,-0.84089,-0.660444)">
        <g
           id="g5"
           transform="translate(13.74,10.294)">
          <path
             d="m 8.921875,-8.3125 c 0,-0.109375 -0.078125,-0.109375 -0.09375,-0.109375 -0.03125,0 -0.078125,0 -0.171875,0.125 l -0.828125,1 c -0.421875,-0.71875 -1.078125,-1.125 -1.96875,-1.125 -2.578125,0 -5.265625,2.625 -5.265625,5.4375 0,2 1.40625,3.234375 3.140625,3.234375 0.96875,0 1.796875,-0.40625 2.5,-0.984375 1.03125,-0.875 1.34375,-2.03125 1.34375,-2.140625 0,-0.09375 -0.09375,-0.09375 -0.125,-0.09375 -0.109375,0 -0.125,0.0625 -0.15625,0.109375 -0.546875,1.875 -2.15625,2.765625 -3.359375,2.765625 -1.265625,0 -2.359375,-0.8125 -2.359375,-2.515625 0,-0.375 0.125,-2.453125 1.46875,-4.03125 0.65625,-0.765625 1.78125,-1.421875 2.921875,-1.421875 1.3125,0 1.890625,1.078125 1.890625,2.296875 0,0.3125 -0.03125,0.578125 -0.03125,0.625 0,0.109375 0.125,0.109375 0.15625,0.109375 0.125,0 0.140625,-0.015625 0.1875,-0.234375 z m 0,0"
             id="path4" />
        </g>
      </g>
      <g
         fill="#000000"
         fill-opacity="1"
         id="g18"
         transform="matrix(0.352778,0,0,0.352778,-0.84089,-0.660444)">
        <g
           id="g17"
           transform="translate(22.115,12.087)">
          <path
             d="M 1.46875,-0.953125 C 1.109375,-0.359375 0.78125,-0.28125 0.5,-0.265625 0.421875,-0.25 0.3125,-0.25 0.3125,-0.109375 0.3125,-0.09375 0.328125,0 0.4375,0 0.5,0 0.546875,-0.03125 1.109375,-0.03125 1.65625,-0.03125 1.828125,0 1.875,0 c 0.03125,0 0.15625,0 0.15625,-0.15625 0,-0.09375 -0.109375,-0.109375 -0.140625,-0.109375 -0.171875,0 -0.34375,-0.0625 -0.34375,-0.25 0,-0.109375 0.078125,-0.21875 0.21875,-0.453125 L 2.3125,-1.84375 H 4.5 L 4.65625,-0.5 c 0,0.125 -0.140625,0.234375 -0.515625,0.234375 -0.109375,0 -0.21875,0 -0.21875,0.15625 0,0 0,0.109375 0.140625,0.109375 0.078125,0 0.375,-0.015625 0.453125,-0.03125 h 0.5 C 5.734375,-0.03125 5.859375,0 5.921875,0 5.953125,0 6.09375,0 6.09375,-0.15625 c 0,-0.109375 -0.109375,-0.109375 -0.234375,-0.109375 -0.4375,0 -0.453125,-0.0625 -0.46875,-0.265625 L 4.75,-5.453125 C 4.734375,-5.640625 4.71875,-5.6875 4.59375,-5.6875 c -0.140625,0 -0.1875,0.078125 -0.25,0.15625 z M 2.484375,-2.109375 4.125,-4.71875 4.46875,-2.109375 Z m 0,0"
             id="path17" />
        </g>
      </g>
      <g
         fill="#000000"
         fill-opacity="1"
         id="g20"
         transform="matrix(0.352778,0,0,0.352778,-0.84089,-0.660444)">
        <g
           id="g19"
           transform="translate(28.458,12.087)">
          <path
             d="m 3.890625,-2.546875 c 0,-0.84375 -0.078125,-1.359375 -0.34375,-1.875 -0.34375,-0.703125 -1,-0.875 -1.4375,-0.875 -1,0 -1.375,0.75 -1.484375,0.96875 -0.28125,0.578125 -0.296875,1.375 -0.296875,1.78125 0,0.53125 0.015625,1.328125 0.40625,1.96875 0.359375,0.59375 0.953125,0.75 1.375,0.75 0.390625,0 1.0625,-0.125 1.46875,-0.90625 0.296875,-0.578125 0.3125,-1.296875 0.3125,-1.8125 z M 2.109375,-0.0625 C 1.84375,-0.0625 1.296875,-0.1875 1.125,-1.015625 1.03125,-1.46875 1.03125,-2.21875 1.03125,-2.640625 1.03125,-3.1875 1.03125,-3.75 1.125,-4.1875 1.296875,-5 1.90625,-5.078125 2.109375,-5.078125 c 0.265625,0 0.828125,0.140625 0.984375,0.859375 0.09375,0.4375 0.09375,1.046875 0.09375,1.578125 0,0.46875 0,1.1875 -0.09375,1.640625 -0.171875,0.828125 -0.71875,0.9375 -0.984375,0.9375 z m 0,0"
             id="path18" />
        </g>
      </g>
    </g>
  </g>
</svg>
