<?xml version="1.0" encoding="UTF-8" standalone="no"?>
<!-- Created with Inkscape (http://www.inkscape.org/) -->

<svg
   width="210mm"
   height="297mm"
   viewBox="0 0 210 297"
   version="1.1"
   id="svg1"
   inkscape:version="1.3.2 (091e20e, 2023-11-25, custom)"
   sodipodi:docname="integral-method-1st-order.svg"
   xmlns:inkscape="http://www.inkscape.org/namespaces/inkscape"
   xmlns:sodipodi="http://sodipodi.sourceforge.net/DTD/sodipodi-0.dtd"
   xmlns="http://www.w3.org/2000/svg"
   xmlns:svg="http://www.w3.org/2000/svg">
  <sodipodi:namedview
     id="namedview1"
     pagecolor="#ffffff"
     bordercolor="#000000"
     borderopacity="0.25"
     inkscape:showpageshadow="2"
     inkscape:pageopacity="0.0"
     inkscape:pagecheckerboard="0"
     inkscape:deskcolor="#d1d1d1"
     inkscape:document-units="mm"
     showgrid="true"
     inkscape:zoom="4.7496585"
     inkscape:cx="197.59315"
     inkscape:cy="281.70447"
     inkscape:window-width="2729"
     inkscape:window-height="2088"
     inkscape:window-x="1358"
     inkscape:window-y="0"
     inkscape:window-maximized="0"
     inkscape:current-layer="svg1">
    <inkscape:grid
       id="grid1"
       units="px"
       originx="0"
       originy="0"
       spacingx="0.26458333"
       spacingy="0.26458334"
       empcolor="#0099e5"
       empopacity="0.30196078"
       color="#0099e5"
       opacity="0.14901961"
       empspacing="5"
       dotted="false"
       gridanglex="30"
       gridanglez="30"
       visible="true" />
  </sodipodi:namedview>
  <defs
     id="defs1">
    <marker
       style="overflow:visible"
       id="marker15"
       refX="0"
       refY="0"
       orient="auto-start-reverse"
       inkscape:stockid="Triangle arrow"
       markerWidth="0.89999998"
       markerHeight="0.60000002"
       viewBox="0 0 1 1"
       inkscape:isstock="true"
       inkscape:collect="always"
       preserveAspectRatio="none">
      <path
         transform="scale(0.5)"
         style="fill:context-stroke;fill-rule:evenodd;stroke:context-stroke;stroke-width:1pt"
         d="M 5.77,0 -2.88,5 V -5 Z"
         id="path15" />
    </marker>
  </defs>
  <g
     inkscape:label="Dark-Color-Pellette"
     inkscape:groupmode="layer"
     id="layer1"
     style="display:inline">
    <rect
       style="fill:#000000;stroke:none;stroke-width:0.264583px;-inkscape-stroke:none;paint-order:markers fill stroke"
       id="rect1"
       width="13.229166"
       height="14.552083"
       x="0.43676892"
       y="-16.536459" />
    <rect
       style="fill:#65489d;fill-opacity:1;stroke:none;stroke-width:0.264583px;-inkscape-stroke:none;paint-order:markers fill stroke"
       id="rect2"
       width="13.229166"
       height="14.552083"
       x="13.961318"
       y="-16.536459" />
    <rect
       style="fill:#388ecc;stroke:none;stroke-width:0.264583px;-inkscape-stroke:none;paint-order:markers fill stroke"
       id="rect3"
       width="13.229166"
       height="14.552083"
       x="-69.616676"
       y="-16.901552"
       transform="scale(-1,1)" />
    <rect
       style="fill:#105e5d;fill-opacity:1;stroke:none;stroke-width:0.264583px;-inkscape-stroke:none;paint-order:markers fill stroke"
       id="rect4"
       width="13.229166"
       height="14.552083"
       x="41.010414"
       y="-16.536459" />
    <rect
       style="fill:#9f1d54;fill-opacity:1;stroke:none;stroke-width:0.264583px;-inkscape-stroke:none;paint-order:markers fill stroke"
       id="rect5"
       width="13.229166"
       height="14.552083"
       x="54.534966"
       y="-16.536459" />
    <rect
       style="fill:#4d1013;fill-opacity:1;stroke:none;stroke-width:0.264583px;-inkscape-stroke:none;paint-order:markers fill stroke"
       id="rect6"
       width="13.229166"
       height="14.552083"
       x="68.059517"
       y="-16.536459" />
    <rect
       style="fill:#f04e58;fill-opacity:1;stroke:none;stroke-width:0.264583px;-inkscape-stroke:none;paint-order:markers fill stroke"
       id="rect7"
       width="13.229166"
       height="14.552083"
       x="81.584061"
       y="-16.536459" />
    <rect
       style="fill:#148040;fill-opacity:1;stroke:none;stroke-width:0.264583px;-inkscape-stroke:none;paint-order:markers fill stroke"
       id="rect8"
       width="13.229166"
       height="14.552083"
       x="95.108612"
       y="-16.536459" />
  </g>
  <g
     inkscape:groupmode="layer"
     id="layer2"
     inkscape:label="Drawing" />
  <path
     style="fill:none;fill-opacity:1;stroke:#000000;stroke-width:0.529167;stroke-dasharray:none;paint-order:markers fill stroke;marker-end:url(#marker15);marker-start:url(#marker15)"
     d="m 29.104166,42.597918 v 43.391667 l 44.714582,10e-7"
     id="path13"
     sodipodi:nodetypes="ccc"
     inkscape:export-filename="integral-method-1st-order.png"
     inkscape:export-xdpi="300"
     inkscape:export-ydpi="300" />
  <text
     xml:space="preserve"
     style="font-size:4.23333px;line-height:125%;font-family:'IBM Plex Sans';-inkscape-font-specification:'IBM Plex Sans, Normal';text-decoration-color:#000000;letter-spacing:0px;word-spacing:0px;text-anchor:end;fill:#000000;fill-opacity:1;stroke:none;stroke-width:0.529167;stroke-dasharray:none;paint-order:markers fill stroke"
     x="52.103863"
     y="91.28125"
     id="text13"><tspan
       sodipodi:role="line"
       id="tspan13"
       style="fill:#000000;stroke:none;stroke-width:0.529167"
       x="52.103863"
       y="91.28125">t</tspan></text>
  <ellipse
     style="fill:#388ecc;fill-opacity:1;stroke:none;stroke-width:0.605793;stroke-dasharray:none;paint-order:markers fill stroke"
     id="path16"
     cx="-60.269978"
     cy="59.954281"
     rx="0.68674982"
     ry="0.66117954"
     transform="scale(-1,1)" />
  <ellipse
     style="fill:#388ecc;fill-opacity:1;stroke:none;stroke-width:0.605793;stroke-dasharray:none;paint-order:markers fill stroke"
     id="ellipse16"
     cx="-56.39793"
     cy="63.175369"
     rx="0.68674982"
     ry="0.66117954"
     transform="scale(-1,1)" />
  <ellipse
     style="fill:#388ecc;fill-opacity:1;stroke:none;stroke-width:0.605793;stroke-dasharray:none;paint-order:markers fill stroke"
     id="ellipse17"
     cx="-52.525887"
     cy="64.68985"
     rx="0.68674982"
     ry="0.66117954"
     transform="scale(-1,1)" />
  <ellipse
     style="fill:#388ecc;fill-opacity:1;stroke:none;stroke-width:0.605793;stroke-dasharray:none;paint-order:markers fill stroke"
     id="ellipse18"
     cx="-48.653835"
     cy="69.233292"
     rx="0.68674982"
     ry="0.66117954"
     transform="scale(-1,1)" />
  <ellipse
     style="fill:#388ecc;fill-opacity:1;stroke:none;stroke-width:0.605793;stroke-dasharray:none;paint-order:markers fill stroke"
     id="ellipse19"
     cx="-44.781788"
     cy="72.070137"
     rx="0.68674982"
     ry="0.66117954"
     transform="scale(-1,1)" />
  <ellipse
     style="fill:#388ecc;fill-opacity:1;stroke:none;stroke-width:0.605793;stroke-dasharray:none;paint-order:markers fill stroke"
     id="ellipse20"
     cx="-65.459084"
     cy="55.5625"
     rx="0.68674982"
     ry="0.66117954"
     transform="scale(-1,1)" />
  <ellipse
     style="fill:#388ecc;fill-opacity:1;stroke:none;stroke-width:0.605793;stroke-dasharray:none;paint-order:markers fill stroke"
     id="ellipse21"
     cx="-40.90974"
     cy="76.729172"
     rx="0.68674982"
     ry="0.66117954"
     transform="scale(-1,1)" />
  <ellipse
     style="fill:#388ecc;fill-opacity:1;stroke:none;stroke-width:0.605793;stroke-dasharray:none;paint-order:markers fill stroke"
     id="ellipse22"
     cx="-37.037697"
     cy="77.390343"
     rx="0.68674982"
     ry="0.66117954"
     transform="scale(-1,1)" />
  <ellipse
     style="fill:#388ecc;fill-opacity:1;stroke:none;stroke-width:0.605793;stroke-dasharray:none;paint-order:markers fill stroke"
     id="ellipse23"
     cx="-33.165649"
     cy="82.863632"
     rx="0.68674982"
     ry="0.66117954"
     transform="scale(-1,1)" />
  <path
     style="fill:none;fill-opacity:1;stroke:#388ecc;stroke-width:0.529167;stroke-dasharray:none;stroke-opacity:1;paint-order:markers fill stroke"
     d="M 68.072056,53.239253 29.104166,85.989585"
     id="path23"
     sodipodi:nodetypes="cc" />
  <path
     style="fill:none;fill-opacity:1;stroke:#000000;stroke-width:0.264583;stroke-dasharray:none;stroke-opacity:1;paint-order:markers fill stroke"
     d="m 47.127682,71.071355 v 3.174999 h -3.96875"
     id="path24" />
  <text
     xml:space="preserve"
     style="font-size:4.23333px;line-height:125%;font-family:'IBM Plex Sans';-inkscape-font-specification:'IBM Plex Sans, Normal';text-decoration-color:#000000;letter-spacing:0px;word-spacing:0px;text-anchor:end;fill:#000000;fill-opacity:1;stroke:none;stroke-width:0.529167;stroke-dasharray:none;paint-order:markers fill stroke"
     x="41.376774"
     y="46.769463"
     id="text28"><tspan
       sodipodi:role="line"
       id="tspan28"
       style="fill:#000000;stroke:none;stroke-width:0.529167"
       x="41.376774"
       y="46.769463">α = 1</tspan></text>
  <text
     xml:space="preserve"
     style="font-size:4.23333px;line-height:125%;font-family:'IBM Plex Sans';-inkscape-font-specification:'IBM Plex Sans, Normal';text-decoration-color:#000000;letter-spacing:0px;word-spacing:0px;text-anchor:end;fill:#000000;fill-opacity:1;stroke:none;stroke-width:0.529167;stroke-dasharray:none;paint-order:markers fill stroke"
     x="70.19252"
     y="79.861839"
     id="text31"><tspan
       sodipodi:role="line"
       id="tspan31"
       style="fill:#000000;stroke:none;stroke-width:0.529167"
       x="70.19252"
       y="79.861839">slope = k</tspan></text>
  <path
     style="fill:none;fill-opacity:1;stroke:#000000;stroke-width:0.264583;stroke-dasharray:none;stroke-opacity:1;marker-end:url(#marker15);paint-order:markers fill stroke"
     d="m 54.406699,76.067992 c -0.167117,-1.984656 -4.135867,-3.307573 -6.439612,-2.70782"
     id="path31"
     inkscape:transform-center-x="0.77988063"
     inkscape:transform-center-y="0.50135184"
     sodipodi:nodetypes="cc" />
  <g
     inkscape:label=""
     transform="translate(31.81623,48.870747)"
     id="g37">
    <g
       fill="#000000"
       fill-opacity="1"
       id="g9"
       transform="matrix(0.352778,0,0,0.352778,-1.12448,-0.676495)">
      <g
         id="use8"
         transform="translate(3.188,7.527)">
        <path
           d="m 1.515625,-5.53125 -1.1875,0.09375 v 0.265625 c 0.546875,0 0.609375,0.046875 0.609375,0.4375 V -0.625 c 0,0.359375 -0.09375,0.359375 -0.609375,0.359375 V 0 c 0.3125,-0.03125 0.765625,-0.03125 0.90625,-0.03125 0.15625,0 0.578125,0 0.890625,0.03125 v -0.265625 c -0.5,0 -0.609375,0 -0.609375,-0.359375 z m 0,0"
           id="path17" />
      </g>
      <g
         id="use9"
         transform="translate(5.5399771,7.527)">
        <path
           d="m 3.875,-2.421875 c 0,-0.65625 -0.3125,-1.09375 -1.140625,-1.09375 -0.796875,0 -1.15625,0.578125 -1.25,0.765625 v -0.765625 l -1.15625,0.09375 v 0.265625 c 0.546875,0 0.609375,0.046875 0.609375,0.4375 V -0.625 c 0,0.359375 -0.09375,0.359375 -0.609375,0.359375 V 0 c 0.34375,-0.03125 0.6875,-0.03125 0.90625,-0.03125 0.234375,0 0.5625,0 0.90625,0.03125 v -0.265625 c -0.5,0 -0.609375,0 -0.609375,-0.359375 v -1.4375 c 0,-0.84375 0.640625,-1.234375 1.125,-1.234375 0.484375,0 0.609375,0.34375 0.609375,0.84375 V -0.625 c 0,0.359375 -0.09375,0.359375 -0.609375,0.359375 V 0 C 3,-0.03125 3.359375,-0.03125 3.5625,-0.03125 c 0.234375,0 0.578125,0 0.921875,0.03125 v -0.265625 c -0.515625,0 -0.609375,0 -0.609375,-0.359375 z m 0,0"
           id="path18" />
      </g>
    </g>
    <g
       fill="#000000"
       fill-opacity="1"
       id="g10"
       transform="matrix(0.352778,0,0,0.352778,-1.12448,-0.676495)">
      <g
         id="use10"
         transform="translate(11.656,7.527)">
        <path
           d="m 6.34375,-5.390625 c 0,-0.03125 0.015625,-0.078125 0.015625,-0.125 0,-0.046875 -0.046875,-0.09375 -0.09375,-0.09375 -0.0625,0 -0.078125,0.015625 -0.140625,0.09375 L 5.5625,-4.90625 C 5.484375,-5 5.0625,-5.609375 4.140625,-5.609375 c -1.859375,0 -3.71875,1.71875 -3.71875,3.546875 0,1.390625 1.046875,2.234375 2.3125,2.234375 1.046875,0 1.9375,-0.640625 2.359375,-1.265625 0.265625,-0.390625 0.375,-0.765625 0.375,-0.8125 0,-0.078125 -0.046875,-0.109375 -0.125,-0.109375 -0.09375,0 -0.109375,0.046875 -0.125,0.125 -0.34375,1.109375 -1.421875,1.796875 -2.375,1.796875 -0.8125,0 -1.671875,-0.484375 -1.671875,-1.703125 0,-0.25 0.09375,-1.578125 0.984375,-2.578125 C 2.75,-5.046875 3.5625,-5.34375 4.1875,-5.34375 c 1.015625,0 1.421875,0.796875 1.421875,1.5625 0,0.109375 -0.03125,0.265625 -0.03125,0.359375 0,0.09375 0.109375,0.09375 0.140625,0.09375 0.09375,0 0.109375,-0.03125 0.140625,-0.171875 z m 0,0"
           id="path19" />
      </g>
    </g>
    <g
       fill="#000000"
       fill-opacity="1"
       id="g11"
       transform="matrix(0.352778,0,0,0.352778,-1.12448,-0.676495)">
      <g
         id="use11"
         transform="translate(17.691999,8.8660002)">
        <path
           d="m 1.359375,-0.734375 c -0.234375,0.34375 -0.4375,0.46875 -0.765625,0.5 -0.09375,0 -0.15625,0 -0.15625,0.140625 C 0.4375,-0.03125 0.484375,0 0.515625,0 0.6875,0 0.890625,-0.03125 1.0625,-0.03125 1.203125,-0.03125 1.5625,0 1.703125,0 c 0.0625,0 0.125,-0.03125 0.125,-0.15625 0,-0.078125 -0.078125,-0.078125 -0.09375,-0.078125 C 1.578125,-0.25 1.453125,-0.28125 1.453125,-0.40625 c 0,-0.078125 0.0625,-0.1875 0.078125,-0.21875 l 0.5,-0.734375 h 1.796875 l 0.15625,0.96875 c 0,0.15625 -0.34375,0.15625 -0.40625,0.15625 -0.078125,0 -0.171875,0 -0.171875,0.140625 C 3.40625,-0.0625 3.4375,0 3.5,0 c 0.1875,0 0.625,-0.03125 0.796875,-0.03125 0.125,0 0.234375,0.015625 0.359375,0.015625 C 4.78125,-0.015625 4.90625,0 5.015625,0 5.0625,0 5.15625,0 5.15625,-0.15625 c 0,-0.078125 -0.078125,-0.078125 -0.171875,-0.078125 -0.375,0 -0.375,-0.046875 -0.40625,-0.203125 L 3.984375,-4.109375 C 3.96875,-4.21875 3.96875,-4.265625 3.828125,-4.265625 c -0.125,0 -0.15625,0.046875 -0.21875,0.125 z M 2.1875,-1.59375 3.484375,-3.546875 3.78125,-1.59375 Z m 0,0"
           id="path20" />
      </g>
    </g>
    <g
       fill="#000000"
       fill-opacity="1"
       id="g12"
       transform="matrix(0.352778,0,0,0.352778,-1.12448,-0.676495)">
      <g
         id="use12"
         transform="translate(23.216,8.8660002)">
        <path
           d="m 3.296875,-1.90625 c 0,-0.4375 0,-2.078125 -1.46875,-2.078125 -1.46875,0 -1.46875,1.640625 -1.46875,2.078125 0,0.421875 0,2.03125 1.46875,2.03125 1.46875,0 1.46875,-1.609375 1.46875,-2.03125 z m -1.46875,1.84375 c -0.25,0 -0.65625,-0.125 -0.8125,-0.625 -0.09375,-0.34375 -0.09375,-0.921875 -0.09375,-1.296875 0,-0.40625 0,-0.859375 0.09375,-1.1875 0.140625,-0.53125 0.59375,-0.609375 0.8125,-0.609375 0.265625,0 0.671875,0.125 0.796875,0.578125 0.09375,0.3125 0.09375,0.75 0.09375,1.21875 0,0.375 0,0.984375 -0.09375,1.3125 C 2.453125,-0.140625 2.015625,-0.0625 1.828125,-0.0625 Z m 0,0"
           id="path21" />
      </g>
    </g>
    <path
       fill="none"
       stroke-width="0.478"
       stroke-linecap="butt"
       stroke-linejoin="miter"
       stroke="#000000"
       stroke-opacity="1"
       stroke-miterlimit="10"
       d="M 0,7.6683125 H 24.179688"
       id="path12"
       transform="scale(0.352778)" />
    <g
       fill="#000000"
       fill-opacity="1"
       id="g13"
       transform="matrix(0.352778,0,0,0.352778,-1.12448,-0.676495)">
      <g
         id="use13"
         transform="translate(9.2489996,16.695)">
        <path
           d="m 6.34375,-5.390625 c 0,-0.03125 0.015625,-0.078125 0.015625,-0.125 0,-0.046875 -0.046875,-0.09375 -0.09375,-0.09375 -0.0625,0 -0.078125,0.015625 -0.140625,0.09375 L 5.5625,-4.90625 C 5.484375,-5 5.0625,-5.609375 4.140625,-5.609375 c -1.859375,0 -3.71875,1.71875 -3.71875,3.546875 0,1.390625 1.046875,2.234375 2.3125,2.234375 1.046875,0 1.9375,-0.640625 2.359375,-1.265625 0.265625,-0.390625 0.375,-0.765625 0.375,-0.8125 0,-0.078125 -0.046875,-0.109375 -0.125,-0.109375 -0.09375,0 -0.109375,0.046875 -0.125,0.125 -0.34375,1.109375 -1.421875,1.796875 -2.375,1.796875 -0.8125,0 -1.671875,-0.484375 -1.671875,-1.703125 0,-0.25 0.09375,-1.578125 0.984375,-2.578125 C 2.75,-5.046875 3.5625,-5.34375 4.1875,-5.34375 c 1.015625,0 1.421875,0.796875 1.421875,1.5625 0,0.109375 -0.03125,0.265625 -0.03125,0.359375 0,0.09375 0.109375,0.09375 0.140625,0.09375 0.09375,0 0.109375,-0.03125 0.140625,-0.171875 z m 0,0"
           id="path22" />
      </g>
    </g>
    <g
       fill="#000000"
       fill-opacity="1"
       id="g14"
       transform="matrix(0.352778,0,0,0.352778,-1.12448,-0.676495)">
      <g
         id="use14"
         transform="translate(15.284,18.034)">
        <path
           d="m 1.359375,-0.734375 c -0.234375,0.34375 -0.4375,0.46875 -0.765625,0.5 -0.09375,0 -0.15625,0 -0.15625,0.140625 C 0.4375,-0.03125 0.484375,0 0.515625,0 0.6875,0 0.890625,-0.03125 1.0625,-0.03125 1.203125,-0.03125 1.5625,0 1.703125,0 c 0.0625,0 0.125,-0.03125 0.125,-0.15625 0,-0.078125 -0.078125,-0.078125 -0.09375,-0.078125 C 1.578125,-0.25 1.453125,-0.28125 1.453125,-0.40625 c 0,-0.078125 0.0625,-0.1875 0.078125,-0.21875 l 0.5,-0.734375 h 1.796875 l 0.15625,0.96875 c 0,0.15625 -0.34375,0.15625 -0.40625,0.15625 -0.078125,0 -0.171875,0 -0.171875,0.140625 C 3.40625,-0.0625 3.4375,0 3.5,0 c 0.1875,0 0.625,-0.03125 0.796875,-0.03125 0.125,0 0.234375,0.015625 0.359375,0.015625 C 4.78125,-0.015625 4.90625,0 5.015625,0 5.0625,0 5.15625,0 5.15625,-0.15625 c 0,-0.078125 -0.078125,-0.078125 -0.171875,-0.078125 -0.375,0 -0.375,-0.046875 -0.40625,-0.203125 L 3.984375,-4.109375 C 3.96875,-4.21875 3.96875,-4.265625 3.828125,-4.265625 c -0.125,0 -0.15625,0.046875 -0.21875,0.125 z M 2.1875,-1.59375 3.484375,-3.546875 3.78125,-1.59375 Z m 0,0"
           id="path36" />
      </g>
    </g>
    <g
       fill="#000000"
       fill-opacity="1"
       id="g15"
       transform="matrix(0.352778,0,0,0.352778,-1.12448,-0.676495)">
      <g
         id="use15"
         transform="translate(31.882999,12.572)">
        <path
           d="m 8.0625,-3.875 c 0.171875,0 0.390625,0 0.390625,-0.21875 C 8.453125,-4.3125 8.25,-4.3125 8.0625,-4.3125 H 1.03125 c -0.171875,0 -0.390625,0 -0.390625,0.21875 0,0.21875 0.203125,0.21875 0.390625,0.21875 z m 0,2.21875 c 0.171875,0 0.390625,0 0.390625,-0.203125 C 8.453125,-2.09375 8.25,-2.09375 8.0625,-2.09375 H 1.03125 c -0.171875,0 -0.390625,0 -0.390625,0.21875 0,0.21875 0.203125,0.21875 0.390625,0.21875 z m 0,0"
           id="path37" />
      </g>
    </g>
    <g
       fill="#000000"
       fill-opacity="1"
       id="g16"
       transform="matrix(0.352778,0,0,0.352778,-1.12448,-0.676495)">
      <g
         id="use16"
         transform="translate(44.307999,12.572)">
        <path
           d="m 3.359375,-8 c 0.015625,-0.046875 0.03125,-0.109375 0.03125,-0.171875 0,-0.125 -0.109375,-0.125 -0.140625,-0.125 -0.015625,0 -0.4375,0.03125 -0.65625,0.0625 C 2.390625,-8.21875 2.21875,-8.203125 2,-8.1875 c -0.296875,0.03125 -0.375,0.03125 -0.375,0.25 0,0.125 0.125,0.125 0.234375,0.125 0.609375,0 0.609375,0.109375 0.609375,0.21875 0,0.046875 0,0.078125 -0.046875,0.296875 L 0.703125,-0.46875 C 0.65625,-0.28125 0.65625,-0.265625 0.65625,-0.1875 c 0,0.265625 0.203125,0.3125 0.328125,0.3125 0.328125,0 0.40625,-0.265625 0.5,-0.640625 L 2.046875,-2.75 c 0.859375,0.09375 1.375,0.453125 1.375,1.03125 0,0.0625 0,0.109375 -0.046875,0.296875 -0.046875,0.171875 -0.046875,0.328125 -0.046875,0.375 0,0.703125 0.46875,1.171875 1.078125,1.171875 0.546875,0 0.828125,-0.5 0.921875,-0.671875 0.25,-0.4375 0.40625,-1.109375 0.40625,-1.15625 0,-0.0625 -0.046875,-0.109375 -0.109375,-0.109375 -0.109375,0 -0.125,0.046875 -0.171875,0.234375 C 5.28125,-0.953125 5.03125,-0.125 4.421875,-0.125 4.1875,-0.125 4.03125,-0.234375 4.03125,-0.6875 c 0,-0.234375 0.046875,-0.5 0.09375,-0.671875 0.046875,-0.21875 0.046875,-0.234375 0.046875,-0.375 0,-0.703125 -0.640625,-1.09375 -1.734375,-1.234375 0.4375,-0.265625 0.859375,-0.734375 1.03125,-0.921875 0.671875,-0.765625 1.140625,-1.140625 1.6875,-1.140625 0.28125,0 0.359375,0.078125 0.4375,0.140625 -0.4375,0.046875 -0.609375,0.359375 -0.609375,0.59375 0,0.296875 0.234375,0.390625 0.390625,0.390625 0.328125,0 0.609375,-0.28125 0.609375,-0.65625 0,-0.34375 -0.265625,-0.703125 -0.8125,-0.703125 -0.65625,0 -1.1875,0.453125 -2.046875,1.421875 -0.109375,0.140625 -0.5625,0.59375 -1,0.765625 z m 0,0"
           id="path25" />
      </g>
    </g>
    <g
       fill="#000000"
       fill-opacity="1"
       id="g17"
       transform="matrix(0.352778,0,0,0.352778,-1.12448,-0.676495)">
      <g
         id="use17"
         transform="translate(50.803261,12.572)">
        <path
           d="M 2.40625,-4.8125 H 3.5 c 0.234375,0 0.34375,0 0.34375,-0.203125 0,-0.140625 -0.0625,-0.140625 -0.3125,-0.140625 H 2.484375 l 0.4375,-1.734375 C 2.96875,-7.0625 2.96875,-7.09375 2.96875,-7.171875 c 0,-0.1875 -0.140625,-0.296875 -0.296875,-0.296875 -0.109375,0 -0.375,0.03125 -0.46875,0.421875 l -0.46875,1.890625 h -1.125 c -0.234375,0 -0.34375,0 -0.34375,0.234375 0,0.109375 0.078125,0.109375 0.3125,0.109375 h 1.0625 L 0.84375,-1.65625 c -0.09375,0.421875 -0.125,0.546875 -0.125,0.703125 0,0.5625 0.390625,1.078125 1.0625,1.078125 1.203125,0 1.859375,-1.75 1.859375,-1.828125 0,-0.078125 -0.0625,-0.109375 -0.125,-0.109375 -0.03125,0 -0.078125,0 -0.09375,0.046875 C 3.40625,-1.75 3.390625,-1.75 3.3125,-1.546875 c -0.25,0.59375 -0.796875,1.421875 -1.5,1.421875 -0.359375,0 -0.375,-0.296875 -0.375,-0.5625 0,0 0,-0.234375 0.03125,-0.375 z m 0,0"
           id="path26" />
      </g>
    </g>
  </g>
  <g
     inkscape:label=""
     transform="translate(60.532868,106.88895)"
     id="g57">
    <g
       id="g58"
       transform="translate(-41.286022,-45.79497)">
      <g
         fill="#000000"
         fill-opacity="1"
         id="g40"
         transform="matrix(0.352778,0,0,0.352778,-1.12448,-0.676495)">
        <g
           id="g38"
           transform="translate(3.188,7.527)">
          <path
             d="m 1.515625,-5.53125 -1.1875,0.09375 v 0.265625 c 0.546875,0 0.609375,0.046875 0.609375,0.4375 V -0.625 c 0,0.359375 -0.09375,0.359375 -0.609375,0.359375 V 0 c 0.3125,-0.03125 0.765625,-0.03125 0.90625,-0.03125 0.15625,0 0.578125,0 0.890625,0.03125 v -0.265625 c -0.5,0 -0.609375,0 -0.609375,-0.359375 z m 0,0"
             id="path38" />
        </g>
        <g
           id="g39"
           transform="translate(5.5399771,7.527)">
          <path
             d="m 3.875,-2.421875 c 0,-0.65625 -0.3125,-1.09375 -1.140625,-1.09375 -0.796875,0 -1.15625,0.578125 -1.25,0.765625 v -0.765625 l -1.15625,0.09375 v 0.265625 c 0.546875,0 0.609375,0.046875 0.609375,0.4375 V -0.625 c 0,0.359375 -0.09375,0.359375 -0.609375,0.359375 V 0 c 0.34375,-0.03125 0.6875,-0.03125 0.90625,-0.03125 0.234375,0 0.5625,0 0.90625,0.03125 v -0.265625 c -0.5,0 -0.609375,0 -0.609375,-0.359375 v -1.4375 c 0,-0.84375 0.640625,-1.234375 1.125,-1.234375 0.484375,0 0.609375,0.34375 0.609375,0.84375 V -0.625 c 0,0.359375 -0.09375,0.359375 -0.609375,0.359375 V 0 C 3,-0.03125 3.359375,-0.03125 3.5625,-0.03125 c 0.234375,0 0.578125,0 0.921875,0.03125 v -0.265625 c -0.515625,0 -0.609375,0 -0.609375,-0.359375 z m 0,0"
             id="path39" />
        </g>
      </g>
      <g
         fill="#000000"
         fill-opacity="1"
         id="g42"
         transform="matrix(0.352778,0,0,0.352778,-1.12448,-0.676495)">
        <g
           id="g41"
           transform="translate(11.656,7.527)">
          <path
             d="m 6.34375,-5.390625 c 0,-0.03125 0.015625,-0.078125 0.015625,-0.125 0,-0.046875 -0.046875,-0.09375 -0.09375,-0.09375 -0.0625,0 -0.078125,0.015625 -0.140625,0.09375 L 5.5625,-4.90625 C 5.484375,-5 5.0625,-5.609375 4.140625,-5.609375 c -1.859375,0 -3.71875,1.71875 -3.71875,3.546875 0,1.390625 1.046875,2.234375 2.3125,2.234375 1.046875,0 1.9375,-0.640625 2.359375,-1.265625 0.265625,-0.390625 0.375,-0.765625 0.375,-0.8125 0,-0.078125 -0.046875,-0.109375 -0.125,-0.109375 -0.09375,0 -0.109375,0.046875 -0.125,0.125 -0.34375,1.109375 -1.421875,1.796875 -2.375,1.796875 -0.8125,0 -1.671875,-0.484375 -1.671875,-1.703125 0,-0.25 0.09375,-1.578125 0.984375,-2.578125 C 2.75,-5.046875 3.5625,-5.34375 4.1875,-5.34375 c 1.015625,0 1.421875,0.796875 1.421875,1.5625 0,0.109375 -0.03125,0.265625 -0.03125,0.359375 0,0.09375 0.109375,0.09375 0.140625,0.09375 0.09375,0 0.109375,-0.03125 0.140625,-0.171875 z m 0,0"
             id="path40" />
        </g>
      </g>
      <g
         fill="#000000"
         fill-opacity="1"
         id="g44"
         transform="matrix(0.352778,0,0,0.352778,-1.12448,-0.676495)">
        <g
           id="g43"
           transform="translate(17.691999,8.8660002)">
          <path
             d="m 1.359375,-0.734375 c -0.234375,0.34375 -0.4375,0.46875 -0.765625,0.5 -0.09375,0 -0.15625,0 -0.15625,0.140625 C 0.4375,-0.03125 0.484375,0 0.515625,0 0.6875,0 0.890625,-0.03125 1.0625,-0.03125 1.203125,-0.03125 1.5625,0 1.703125,0 c 0.0625,0 0.125,-0.03125 0.125,-0.15625 0,-0.078125 -0.078125,-0.078125 -0.09375,-0.078125 C 1.578125,-0.25 1.453125,-0.28125 1.453125,-0.40625 c 0,-0.078125 0.0625,-0.1875 0.078125,-0.21875 l 0.5,-0.734375 h 1.796875 l 0.15625,0.96875 c 0,0.15625 -0.34375,0.15625 -0.40625,0.15625 -0.078125,0 -0.171875,0 -0.171875,0.140625 C 3.40625,-0.0625 3.4375,0 3.5,0 c 0.1875,0 0.625,-0.03125 0.796875,-0.03125 0.125,0 0.234375,0.015625 0.359375,0.015625 C 4.78125,-0.015625 4.90625,0 5.015625,0 5.0625,0 5.15625,0 5.15625,-0.15625 c 0,-0.078125 -0.078125,-0.078125 -0.171875,-0.078125 -0.375,0 -0.375,-0.046875 -0.40625,-0.203125 L 3.984375,-4.109375 C 3.96875,-4.21875 3.96875,-4.265625 3.828125,-4.265625 c -0.125,0 -0.15625,0.046875 -0.21875,0.125 z M 2.1875,-1.59375 3.484375,-3.546875 3.78125,-1.59375 Z m 0,0"
             id="path42" />
        </g>
      </g>
      <g
         fill="#000000"
         fill-opacity="1"
         id="g46"
         transform="matrix(0.352778,0,0,0.352778,-1.12448,-0.676495)">
        <g
           id="g45"
           transform="translate(23.216,8.8660002)">
          <path
             d="m 3.296875,-1.90625 c 0,-0.4375 0,-2.078125 -1.46875,-2.078125 -1.46875,0 -1.46875,1.640625 -1.46875,2.078125 0,0.421875 0,2.03125 1.46875,2.03125 1.46875,0 1.46875,-1.609375 1.46875,-2.03125 z m -1.46875,1.84375 c -0.25,0 -0.65625,-0.125 -0.8125,-0.625 -0.09375,-0.34375 -0.09375,-0.921875 -0.09375,-1.296875 0,-0.40625 0,-0.859375 0.09375,-1.1875 0.140625,-0.53125 0.59375,-0.609375 0.8125,-0.609375 0.265625,0 0.671875,0.125 0.796875,0.578125 0.09375,0.3125 0.09375,0.75 0.09375,1.21875 0,0.375 0,0.984375 -0.09375,1.3125 C 2.453125,-0.140625 2.015625,-0.0625 1.828125,-0.0625 Z m 0,0"
             id="path44" />
        </g>
      </g>
      <path
         fill="none"
         stroke-width="0.478"
         stroke-linecap="butt"
         stroke-linejoin="miter"
         stroke="#000000"
         stroke-opacity="1"
         stroke-miterlimit="10"
         d="M 0,7.6683125 H 24.179688"
         id="path46"
         transform="scale(0.352778)" />
      <g
         fill="#000000"
         fill-opacity="1"
         id="g48"
         transform="matrix(0.352778,0,0,0.352778,-1.12448,-0.676495)">
        <g
           id="g47"
           transform="translate(9.2489996,16.695)">
          <path
             d="m 6.34375,-5.390625 c 0,-0.03125 0.015625,-0.078125 0.015625,-0.125 0,-0.046875 -0.046875,-0.09375 -0.09375,-0.09375 -0.0625,0 -0.078125,0.015625 -0.140625,0.09375 L 5.5625,-4.90625 C 5.484375,-5 5.0625,-5.609375 4.140625,-5.609375 c -1.859375,0 -3.71875,1.71875 -3.71875,3.546875 0,1.390625 1.046875,2.234375 2.3125,2.234375 1.046875,0 1.9375,-0.640625 2.359375,-1.265625 0.265625,-0.390625 0.375,-0.765625 0.375,-0.8125 0,-0.078125 -0.046875,-0.109375 -0.125,-0.109375 -0.09375,0 -0.109375,0.046875 -0.125,0.125 -0.34375,1.109375 -1.421875,1.796875 -2.375,1.796875 -0.8125,0 -1.671875,-0.484375 -1.671875,-1.703125 0,-0.25 0.09375,-1.578125 0.984375,-2.578125 C 2.75,-5.046875 3.5625,-5.34375 4.1875,-5.34375 c 1.015625,0 1.421875,0.796875 1.421875,1.5625 0,0.109375 -0.03125,0.265625 -0.03125,0.359375 0,0.09375 0.109375,0.09375 0.140625,0.09375 0.09375,0 0.109375,-0.03125 0.140625,-0.171875 z m 0,0"
             id="path47" />
        </g>
      </g>
      <g
         fill="#000000"
         fill-opacity="1"
         id="g50"
         transform="matrix(0.352778,0,0,0.352778,-1.12448,-0.676495)">
        <g
           id="g49"
           transform="translate(15.284,18.034)">
          <path
             d="m 1.359375,-0.734375 c -0.234375,0.34375 -0.4375,0.46875 -0.765625,0.5 -0.09375,0 -0.15625,0 -0.15625,0.140625 C 0.4375,-0.03125 0.484375,0 0.515625,0 0.6875,0 0.890625,-0.03125 1.0625,-0.03125 1.203125,-0.03125 1.5625,0 1.703125,0 c 0.0625,0 0.125,-0.03125 0.125,-0.15625 0,-0.078125 -0.078125,-0.078125 -0.09375,-0.078125 C 1.578125,-0.25 1.453125,-0.28125 1.453125,-0.40625 c 0,-0.078125 0.0625,-0.1875 0.078125,-0.21875 l 0.5,-0.734375 h 1.796875 l 0.15625,0.96875 c 0,0.15625 -0.34375,0.15625 -0.40625,0.15625 -0.078125,0 -0.171875,0 -0.171875,0.140625 C 3.40625,-0.0625 3.4375,0 3.5,0 c 0.1875,0 0.625,-0.03125 0.796875,-0.03125 0.125,0 0.234375,0.015625 0.359375,0.015625 C 4.78125,-0.015625 4.90625,0 5.015625,0 5.0625,0 5.15625,0 5.15625,-0.15625 c 0,-0.078125 -0.078125,-0.078125 -0.171875,-0.078125 -0.375,0 -0.375,-0.046875 -0.40625,-0.203125 L 3.984375,-4.109375 C 3.96875,-4.21875 3.96875,-4.265625 3.828125,-4.265625 c -0.125,0 -0.15625,0.046875 -0.21875,0.125 z M 2.1875,-1.59375 3.484375,-3.546875 3.78125,-1.59375 Z m 0,0"
             id="path48" />
        </g>
      </g>
    </g>
  </g>
</svg>
