<?xml version="1.0" encoding="UTF-8" standalone="no"?>
<!-- Created with Inkscape (http://www.inkscape.org/) -->

<svg
   width="210mm"
   height="297mm"
   viewBox="0 0 210 297"
   version="1.1"
   id="svg1"
   inkscape:version="1.3.2 (091e20e, 2023-11-25, custom)"
   sodipodi:docname="method-of-initial-rates.svg"
   xmlns:inkscape="http://www.inkscape.org/namespaces/inkscape"
   xmlns:sodipodi="http://sodipodi.sourceforge.net/DTD/sodipodi-0.dtd"
   xmlns="http://www.w3.org/2000/svg"
   xmlns:svg="http://www.w3.org/2000/svg">
  <sodipodi:namedview
     id="namedview1"
     pagecolor="#ffffff"
     bordercolor="#000000"
     borderopacity="0.25"
     inkscape:showpageshadow="2"
     inkscape:pageopacity="0.0"
     inkscape:pagecheckerboard="0"
     inkscape:deskcolor="#d1d1d1"
     inkscape:document-units="mm"
     showgrid="true"
     inkscape:zoom="4.7496586"
     inkscape:cx="153.80053"
     inkscape:cy="207.80441"
     inkscape:window-width="2729"
     inkscape:window-height="2088"
     inkscape:window-x="1358"
     inkscape:window-y="0"
     inkscape:window-maximized="0"
     inkscape:current-layer="svg1">
    <inkscape:grid
       id="grid1"
       units="px"
       originx="0"
       originy="0"
       spacingx="0.26458333"
       spacingy="0.26458334"
       empcolor="#0099e5"
       empopacity="0.30196078"
       color="#0099e5"
       opacity="0.14901961"
       empspacing="5"
       dotted="false"
       gridanglex="30"
       gridanglez="30"
       visible="true" />
  </sodipodi:namedview>
  <defs
     id="defs1">
    <marker
       style="overflow:visible"
       id="marker15"
       refX="0"
       refY="0"
       orient="auto-start-reverse"
       inkscape:stockid="Triangle arrow"
       markerWidth="0.89999998"
       markerHeight="0.60000002"
       viewBox="0 0 1 1"
       inkscape:isstock="true"
       inkscape:collect="always"
       preserveAspectRatio="none">
      <path
         transform="scale(0.5)"
         style="fill:context-stroke;fill-rule:evenodd;stroke:context-stroke;stroke-width:1pt"
         d="M 5.77,0 -2.88,5 V -5 Z"
         id="path15" />
    </marker>
  </defs>
  <g
     inkscape:label="Dark-Color-Pellette"
     inkscape:groupmode="layer"
     id="layer1"
     style="display:inline">
    <rect
       style="fill:#000000;stroke:none;stroke-width:0.264583px;-inkscape-stroke:none;paint-order:markers fill stroke"
       id="rect1"
       width="13.229166"
       height="14.552083"
       x="0.43676892"
       y="-16.536459" />
    <rect
       style="fill:#65489d;fill-opacity:1;stroke:none;stroke-width:0.264583px;-inkscape-stroke:none;paint-order:markers fill stroke"
       id="rect2"
       width="13.229166"
       height="14.552083"
       x="13.961318"
       y="-16.536459" />
    <rect
       style="fill:#388ecc;stroke:none;stroke-width:0.264583px;-inkscape-stroke:none;paint-order:markers fill stroke"
       id="rect3"
       width="13.229166"
       height="14.552083"
       x="-40.715027"
       y="-16.536459"
       transform="scale(-1,1)" />
    <rect
       style="fill:#105e5d;fill-opacity:1;stroke:none;stroke-width:0.264583px;-inkscape-stroke:none;paint-order:markers fill stroke"
       id="rect4"
       width="13.229166"
       height="14.552083"
       x="41.010414"
       y="-16.536459" />
    <rect
       style="fill:#9f1d54;fill-opacity:1;stroke:none;stroke-width:0.264583px;-inkscape-stroke:none;paint-order:markers fill stroke"
       id="rect5"
       width="13.229166"
       height="14.552083"
       x="54.534966"
       y="-16.536459" />
    <rect
       style="fill:#4d1013;fill-opacity:1;stroke:none;stroke-width:0.264583px;-inkscape-stroke:none;paint-order:markers fill stroke"
       id="rect6"
       width="13.229166"
       height="14.552083"
       x="68.059517"
       y="-16.536459" />
    <rect
       style="fill:#f04e58;fill-opacity:1;stroke:none;stroke-width:0.264583px;-inkscape-stroke:none;paint-order:markers fill stroke"
       id="rect7"
       width="13.229166"
       height="14.552083"
       x="81.584061"
       y="-16.536459" />
    <rect
       style="fill:#148040;fill-opacity:1;stroke:none;stroke-width:0.264583px;-inkscape-stroke:none;paint-order:markers fill stroke"
       id="rect8"
       width="13.229166"
       height="14.552083"
       x="95.108612"
       y="-16.536459" />
  </g>
  <g
     inkscape:groupmode="layer"
     id="layer2"
     inkscape:label="Drawing" />
  <path
     style="fill:none;fill-opacity:1;stroke:#000000;stroke-width:0.529167;stroke-dasharray:none;marker-start:url(#marker15);marker-end:url(#marker15);paint-order:markers fill stroke"
     d="m 29.104166,42.597918 v 43.391667 l 44.714582,10e-7"
     id="path13"
     sodipodi:nodetypes="ccc"
     inkscape:export-filename="method-of-initial-rates.png"
     inkscape:export-xdpi="300"
     inkscape:export-ydpi="300" />
  <text
     xml:space="preserve"
     style="font-size:4.23333px;line-height:125%;font-family:'IBM Plex Sans';-inkscape-font-specification:'IBM Plex Sans, Normal';text-decoration-color:#000000;letter-spacing:0px;word-spacing:0px;text-anchor:end;fill:#000000;fill-opacity:1;stroke:none;stroke-width:0.529167;stroke-dasharray:none;paint-order:markers fill stroke"
     x="75.848618"
     y="91.28125"
     id="text13"><tspan
       sodipodi:role="line"
       id="tspan13"
       style="fill:#000000;stroke:none;stroke-width:0.529167"
       x="75.848618"
       y="91.28125">ln</tspan></text>
  <ellipse
     style="fill:#388ecc;fill-opacity:1;stroke:none;stroke-width:0.605793;stroke-dasharray:none;paint-order:markers fill stroke"
     id="path16"
     cx="-62.619839"
     cy="52.811588"
     rx="0.68674982"
     ry="0.66117954"
     transform="scale(-1,1)" />
  <ellipse
     style="fill:#388ecc;fill-opacity:1;stroke:none;stroke-width:0.605793;stroke-dasharray:none;paint-order:markers fill stroke"
     id="ellipse16"
     cx="-58.747791"
     cy="56.032677"
     rx="0.68674982"
     ry="0.66117954"
     transform="scale(-1,1)" />
  <ellipse
     style="fill:#388ecc;fill-opacity:1;stroke:none;stroke-width:0.605793;stroke-dasharray:none;paint-order:markers fill stroke"
     id="ellipse17"
     cx="-54.875748"
     cy="57.547157"
     rx="0.68674982"
     ry="0.66117954"
     transform="scale(-1,1)" />
  <ellipse
     style="fill:#388ecc;fill-opacity:1;stroke:none;stroke-width:0.605793;stroke-dasharray:none;paint-order:markers fill stroke"
     id="ellipse18"
     cx="-51.003696"
     cy="62.090599"
     rx="0.68674982"
     ry="0.66117954"
     transform="scale(-1,1)" />
  <ellipse
     style="fill:#388ecc;fill-opacity:1;stroke:none;stroke-width:0.605793;stroke-dasharray:none;paint-order:markers fill stroke"
     id="ellipse19"
     cx="-47.131649"
     cy="64.927444"
     rx="0.68674982"
     ry="0.66117954"
     transform="scale(-1,1)" />
  <ellipse
     style="fill:#388ecc;fill-opacity:1;stroke:none;stroke-width:0.605793;stroke-dasharray:none;paint-order:markers fill stroke"
     id="ellipse20"
     cx="-31.643457"
     cy="78.749901"
     rx="0.68674982"
     ry="0.66117954"
     transform="scale(-1,1)" />
  <ellipse
     style="fill:#388ecc;fill-opacity:1;stroke:none;stroke-width:0.605793;stroke-dasharray:none;paint-order:markers fill stroke"
     id="ellipse21"
     cx="-43.259602"
     cy="69.586479"
     rx="0.68674982"
     ry="0.66117954"
     transform="scale(-1,1)" />
  <ellipse
     style="fill:#388ecc;fill-opacity:1;stroke:none;stroke-width:0.605793;stroke-dasharray:none;paint-order:markers fill stroke"
     id="ellipse22"
     cx="-39.387558"
     cy="70.24765"
     rx="0.68674982"
     ry="0.66117954"
     transform="scale(-1,1)" />
  <ellipse
     style="fill:#388ecc;fill-opacity:1;stroke:none;stroke-width:0.605793;stroke-dasharray:none;paint-order:markers fill stroke"
     id="ellipse23"
     cx="-35.515511"
     cy="75.72094"
     rx="0.68674982"
     ry="0.66117954"
     transform="scale(-1,1)" />
  <path
     style="fill:none;fill-opacity:1;stroke:#388ecc;stroke-width:0.529167;stroke-dasharray:none;stroke-opacity:1;paint-order:markers fill stroke"
     d="M 62.706708,52.551578 30.956711,79.009911"
     id="path23" />
  <path
     style="fill:none;fill-opacity:1;stroke:#000000;stroke-width:0.264583;stroke-dasharray:none;stroke-opacity:1;paint-order:markers fill stroke"
     d="m 49.477544,63.928662 v 3.174999 h -3.96875"
     id="path24" />
  <text
     xml:space="preserve"
     style="font-size:4.23333px;line-height:125%;font-family:'IBM Plex Sans';-inkscape-font-specification:'IBM Plex Sans, Normal';text-decoration-color:#000000;letter-spacing:0px;word-spacing:0px;text-anchor:end;fill:#000000;fill-opacity:1;stroke:none;stroke-width:0.529167;stroke-dasharray:none;paint-order:markers fill stroke"
     x="67.46875"
     y="76.729172"
     id="text31"><tspan
       sodipodi:role="line"
       id="tspan31"
       style="fill:#000000;stroke:none;stroke-width:0.529167"
       x="67.46875"
       y="76.729172">slope = α</tspan></text>
  <path
     style="fill:none;fill-opacity:1;stroke:#000000;stroke-width:0.264583;stroke-dasharray:none;stroke-opacity:1;marker-end:url(#marker15);paint-order:markers fill stroke"
     d="m 53.94361,73.555226 c 1.193802,-4.593987 -1.118294,-6.218364 -3.626661,-7.337747"
     id="path31"
     inkscape:transform-center-x="0.77988063"
     inkscape:transform-center-y="0.50135184"
     sodipodi:nodetypes="cc" />
  <text
     xml:space="preserve"
     style="font-size:4.23333px;line-height:125%;font-family:'IBM Plex Sans';-inkscape-font-specification:'IBM Plex Sans, Normal';text-decoration-color:#000000;letter-spacing:0px;word-spacing:0px;text-anchor:end;fill:#000000;fill-opacity:1;stroke:none;stroke-width:0.529167;stroke-dasharray:none;paint-order:markers fill stroke"
     x="27.382038"
     y="44.039383"
     id="text1"><tspan
       sodipodi:role="line"
       id="tspan1"
       style="fill:#000000;stroke:none;stroke-width:0.529167"
       x="27.382038"
       y="44.039383">ln</tspan></text>
  <g
     inkscape:label=""
     transform="translate(8.8407287,61.201074)"
     id="g9">
    <g
       fill="#000000"
       fill-opacity="1"
       id="g11"
       transform="matrix(0.352778,0,0,0.352778,-0.84089,-0.676495)" />
    <g
       id="g1">
      <g
         fill="#000000"
         fill-opacity="1"
         id="g12"
         transform="matrix(0.352778,0,0,0.352778,-0.84089,-0.676495)">
        <g
           id="use12"
           transform="translate(13.74,2.8889999)">
          <path
             d="M 4.9375,13.734375 C 4.9375,13.6875 4.90625,13.65625 4.890625,13.625 4.34375,13.046875 3.53125,12.078125 3.03125,10.125 2.75,9.03125 2.640625,7.8125 2.640625,6.6875 c 0,-3.140625 0.75,-5.34375 2.1875,-6.890625 0.109375,-0.109375 0.109375,-0.125 0.109375,-0.15625 0,-0.125 -0.09375,-0.125 -0.140625,-0.125 -0.1875,0 -0.828125,0.71875 -0.984375,0.90625 -1.21875,1.4375 -2,3.59375 -2,6.265625 0,1.6875 0.296875,4.09375 1.875,6.109375 0.109375,0.140625 0.890625,1.0625 1.109375,1.0625 0.046875,0 0.140625,0 0.140625,-0.125 z m 0,0"
             id="path22" />
        </g>
      </g>
      <g
         fill="#000000"
         fill-opacity="1"
         id="g13"
         transform="matrix(0.352778,0,0,0.352778,-0.84089,-0.676495)">
        <g
           id="use13"
           transform="translate(20.415001,7.527)">
          <path
             d="m 5.5625,-1.8125 c 0.140625,0 0.3125,0 0.3125,-0.171875 0,-0.1875 -0.171875,-0.1875 -0.3125,-0.1875 H 1 c -0.125,0 -0.296875,0 -0.296875,0.1875 C 0.703125,-1.8125 0.875,-1.8125 1,-1.8125 Z m 0,0"
             id="path3" />
        </g>
      </g>
      <g
         fill="#000000"
         fill-opacity="1"
         id="g15"
         transform="matrix(0.352778,0,0,0.352778,-0.84089,-0.676495)">
        <g
           id="use14"
           transform="translate(27.002001,7.527)">
          <path
             d="m 4.28125,-5.296875 c 0.015625,-0.015625 0.03125,-0.109375 0.03125,-0.125 0,-0.03125 -0.03125,-0.109375 -0.125,-0.109375 -0.03125,0 -0.28125,0.03125 -0.453125,0.046875 l -0.453125,0.03125 c -0.171875,0.015625 -0.25,0.015625 -0.25,0.15625 0,0.125 0.109375,0.125 0.203125,0.125 0.390625,0 0.390625,0.046875 0.390625,0.109375 0,0.046875 -0.078125,0.3125 -0.109375,0.46875 L 3.125,-3.03125 C 3.046875,-3.171875 2.828125,-3.515625 2.328125,-3.515625 c -0.9375,0 -1.984375,1.109375 -1.984375,2.28125 0,0.84375 0.53125,1.3125 1.140625,1.3125 0.515625,0 0.953125,-0.40625 1.09375,-0.5625 0.140625,0.546875 0.6875,0.5625 0.78125,0.5625 0.375,0 0.546875,-0.296875 0.609375,-0.4375 C 4.140625,-0.640625 4.25,-1.109375 4.25,-1.140625 4.25,-1.1875 4.21875,-1.25 4.125,-1.25 c -0.09375,0 -0.109375,0.0625 -0.171875,0.25 -0.109375,0.4375 -0.25,0.859375 -0.5625,0.859375 -0.1875,0 -0.265625,-0.15625 -0.265625,-0.375 0,-0.15625 0.03125,-0.234375 0.046875,-0.34375 z m -1.703125,4.4375 c -0.390625,0.546875 -0.8125,0.71875 -1.0625,0.71875 -0.375,0 -0.546875,-0.34375 -0.546875,-0.75 0,-0.375 0.203125,-1.234375 0.390625,-1.578125 0.21875,-0.484375 0.609375,-0.828125 0.984375,-0.828125 0.515625,0 0.671875,0.59375 0.671875,0.6875 0,0.03125 -0.203125,0.8125 -0.25,1.015625 -0.109375,0.375 -0.109375,0.390625 -0.1875,0.734375 z m 0,0"
             id="path6" />
        </g>
        <g
           id="use15"
           transform="translate(31.359255,7.527)">
          <path
             d="m 6.34375,-5.390625 c 0,-0.03125 0.015625,-0.078125 0.015625,-0.125 0,-0.046875 -0.046875,-0.09375 -0.09375,-0.09375 -0.0625,0 -0.078125,0.015625 -0.140625,0.09375 L 5.5625,-4.90625 C 5.484375,-5 5.0625,-5.609375 4.140625,-5.609375 c -1.859375,0 -3.71875,1.71875 -3.71875,3.546875 0,1.390625 1.046875,2.234375 2.3125,2.234375 1.046875,0 1.9375,-0.640625 2.359375,-1.265625 0.265625,-0.390625 0.375,-0.765625 0.375,-0.8125 0,-0.078125 -0.046875,-0.109375 -0.125,-0.109375 -0.09375,0 -0.109375,0.046875 -0.125,0.125 -0.34375,1.109375 -1.421875,1.796875 -2.375,1.796875 -0.8125,0 -1.671875,-0.484375 -1.671875,-1.703125 0,-0.25 0.09375,-1.578125 0.984375,-2.578125 C 2.75,-5.046875 3.5625,-5.34375 4.1875,-5.34375 c 1.015625,0 1.421875,0.796875 1.421875,1.5625 0,0.109375 -0.03125,0.265625 -0.03125,0.359375 0,0.09375 0.109375,0.09375 0.140625,0.09375 0.09375,0 0.109375,-0.03125 0.140625,-0.171875 z m 0,0"
             id="path25" />
        </g>
      </g>
      <g
         fill="#000000"
         fill-opacity="1"
         id="g16"
         transform="matrix(0.352778,0,0,0.352778,-0.84089,-0.676495)">
        <g
           id="use16"
           transform="translate(37.394001,8.8669996)">
          <path
             d="m 1.359375,-0.734375 c -0.234375,0.34375 -0.4375,0.46875 -0.765625,0.5 -0.09375,0 -0.15625,0 -0.15625,0.140625 C 0.4375,-0.03125 0.484375,0 0.515625,0 0.6875,0 0.890625,-0.03125 1.0625,-0.03125 1.203125,-0.03125 1.5625,0 1.703125,0 c 0.0625,0 0.125,-0.03125 0.125,-0.15625 0,-0.078125 -0.078125,-0.078125 -0.09375,-0.078125 C 1.578125,-0.25 1.453125,-0.28125 1.453125,-0.40625 c 0,-0.078125 0.0625,-0.1875 0.078125,-0.21875 l 0.5,-0.734375 h 1.796875 l 0.15625,0.96875 c 0,0.15625 -0.34375,0.15625 -0.40625,0.15625 -0.078125,0 -0.171875,0 -0.171875,0.140625 C 3.40625,-0.0625 3.4375,0 3.5,0 c 0.1875,0 0.625,-0.03125 0.796875,-0.03125 0.125,0 0.234375,0.015625 0.359375,0.015625 C 4.78125,-0.015625 4.90625,0 5.015625,0 5.0625,0 5.15625,0 5.15625,-0.15625 c 0,-0.078125 -0.078125,-0.078125 -0.171875,-0.078125 -0.375,0 -0.375,-0.046875 -0.40625,-0.203125 L 3.984375,-4.109375 C 3.96875,-4.21875 3.96875,-4.265625 3.828125,-4.265625 c -0.125,0 -0.15625,0.046875 -0.21875,0.125 z M 2.1875,-1.59375 3.484375,-3.546875 3.78125,-1.59375 Z m 0,0"
             id="path26" />
        </g>
      </g>
      <path
         fill="none"
         stroke-width="0.478"
         stroke-linecap="butt"
         stroke-linejoin="miter"
         stroke="#000000"
         stroke-opacity="1"
         stroke-miterlimit="10"
         d="M 18.030437,7.6683125 H 41.030438"
         id="path7"
         transform="scale(0.352778)" />
      <g
         fill="#000000"
         fill-opacity="1"
         id="g18"
         transform="matrix(0.352778,0,0,0.352778,-0.84089,-0.676495)">
        <g
           id="use17"
           transform="translate(28.208,16.695999)">
          <path
             d="m 4.28125,-5.296875 c 0.015625,-0.015625 0.03125,-0.109375 0.03125,-0.125 0,-0.03125 -0.03125,-0.109375 -0.125,-0.109375 -0.03125,0 -0.28125,0.03125 -0.453125,0.046875 l -0.453125,0.03125 c -0.171875,0.015625 -0.25,0.015625 -0.25,0.15625 0,0.125 0.109375,0.125 0.203125,0.125 0.390625,0 0.390625,0.046875 0.390625,0.109375 0,0.046875 -0.078125,0.3125 -0.109375,0.46875 L 3.125,-3.03125 C 3.046875,-3.171875 2.828125,-3.515625 2.328125,-3.515625 c -0.9375,0 -1.984375,1.109375 -1.984375,2.28125 0,0.84375 0.53125,1.3125 1.140625,1.3125 0.515625,0 0.953125,-0.40625 1.09375,-0.5625 0.140625,0.546875 0.6875,0.5625 0.78125,0.5625 0.375,0 0.546875,-0.296875 0.609375,-0.4375 C 4.140625,-0.640625 4.25,-1.109375 4.25,-1.140625 4.25,-1.1875 4.21875,-1.25 4.125,-1.25 c -0.09375,0 -0.109375,0.0625 -0.171875,0.25 -0.109375,0.4375 -0.25,0.859375 -0.5625,0.859375 -0.1875,0 -0.265625,-0.15625 -0.265625,-0.375 0,-0.15625 0.03125,-0.234375 0.046875,-0.34375 z m -1.703125,4.4375 c -0.390625,0.546875 -0.8125,0.71875 -1.0625,0.71875 -0.375,0 -0.546875,-0.34375 -0.546875,-0.75 0,-0.375 0.203125,-1.234375 0.390625,-1.578125 0.21875,-0.484375 0.609375,-0.828125 0.984375,-0.828125 0.515625,0 0.671875,0.59375 0.671875,0.6875 0,0.03125 -0.203125,0.8125 -0.25,1.015625 -0.109375,0.375 -0.109375,0.390625 -0.1875,0.734375 z m 0,0"
             id="path27" />
        </g>
        <g
           id="use18"
           transform="translate(32.565254,16.695999)">
          <path
             d="m 1.765625,-3.171875 h 0.78125 c 0.140625,0 0.234375,0 0.234375,-0.15625 C 2.78125,-3.4375 2.6875,-3.4375 2.546875,-3.4375 h -0.71875 l 0.28125,-1.125 c 0.03125,-0.125 0.03125,-0.15625 0.03125,-0.171875 0,-0.171875 -0.125,-0.25 -0.265625,-0.25 -0.265625,0 -0.328125,0.21875 -0.40625,0.578125 l -0.25,0.96875 H 0.453125 c -0.15625,0 -0.25,0 -0.25,0.15625 0,0.109375 0.09375,0.109375 0.234375,0.109375 h 0.71875 l -0.484375,1.90625 C 0.625,-1.0625 0.5625,-0.78125 0.5625,-0.671875 c 0,0.484375 0.390625,0.75 0.8125,0.75 0.84375,0 1.328125,-1.125 1.328125,-1.21875 C 2.703125,-1.234375 2.640625,-1.25 2.59375,-1.25 2.5,-1.25 2.5,-1.21875 2.4375,-1.09375 2.28125,-0.703125 1.875,-0.140625 1.390625,-0.140625 1.234375,-0.140625 1.125,-0.25 1.125,-0.515625 c 0,-0.15625 0.03125,-0.234375 0.046875,-0.34375 z m 0,0"
             id="path28" />
        </g>
      </g>
      <g
         fill="#000000"
         fill-opacity="1"
         id="g19"
         transform="matrix(0.352778,0,0,0.352778,-0.84089,-0.676495)">
        <g
           id="use19"
           transform="translate(44.612,2.8889999)">
          <path
             d="M 3.640625,6.6875 C 3.640625,5 3.34375,2.59375 1.78125,0.578125 c -0.125,-0.140625 -0.890625,-1.0625 -1.109375,-1.0625 -0.0625,0 -0.140625,0.03125 -0.140625,0.125 0,0.046875 0.015625,0.078125 0.0625,0.125 C 1.171875,0.375 1.953125,1.34375 2.4375,3.25 c 0.28125,1.09375 0.390625,2.3125 0.390625,3.4375 0,1.203125 -0.109375,2.421875 -0.421875,3.59375 -0.453125,1.671875 -1.15625,2.625 -1.765625,3.296875 -0.109375,0.109375 -0.109375,0.125 -0.109375,0.15625 0,0.09375 0.078125,0.125 0.140625,0.125 C 0.84375,13.859375 1.5,13.125 1.65625,12.953125 2.875,11.515625 3.640625,9.359375 3.640625,6.6875 Z m 0,0"
             id="path29" />
        </g>
      </g>
      <g
         fill="#000000"
         fill-opacity="1"
         id="g20"
         transform="matrix(0.352778,0,0,0.352778,-0.84089,-0.676495)">
        <g
           id="use20"
           transform="translate(50.091,17.254999)">
          <path
             d="m 3.890625,-2.546875 c 0,-0.84375 -0.078125,-1.359375 -0.34375,-1.875 -0.34375,-0.703125 -1,-0.875 -1.4375,-0.875 -1,0 -1.375,0.75 -1.484375,0.96875 -0.28125,0.578125 -0.296875,1.375 -0.296875,1.78125 0,0.53125 0.015625,1.328125 0.40625,1.96875 0.359375,0.59375 0.953125,0.75 1.375,0.75 0.390625,0 1.0625,-0.125 1.46875,-0.90625 0.296875,-0.578125 0.3125,-1.296875 0.3125,-1.8125 z M 2.109375,-0.0625 C 1.84375,-0.0625 1.296875,-0.1875 1.125,-1.015625 1.03125,-1.46875 1.03125,-2.21875 1.03125,-2.640625 1.03125,-3.1875 1.03125,-3.75 1.125,-4.1875 1.296875,-5 1.90625,-5.078125 2.109375,-5.078125 c 0.265625,0 0.828125,0.140625 0.984375,0.859375 0.09375,0.4375 0.09375,1.046875 0.09375,1.578125 0,0.46875 0,1.1875 -0.09375,1.640625 -0.171875,0.828125 -0.71875,0.9375 -0.984375,0.9375 z m 0,0"
             id="path30" />
        </g>
      </g>
    </g>
  </g>
  <g
     inkscape:label=""
     transform="translate(44.425106,87.617033)"
     id="g38">
    <g
       id="g2">
      <g
         fill="#000000"
         fill-opacity="1"
         id="g33"
         transform="matrix(0.352778,0,0,0.352778,-0.84089,-0.660444)">
        <g
           id="g32"
           transform="translate(13.74,10.294)">
          <path
             d="m 8.921875,-8.3125 c 0,-0.109375 -0.078125,-0.109375 -0.09375,-0.109375 -0.03125,0 -0.078125,0 -0.171875,0.125 l -0.828125,1 c -0.421875,-0.71875 -1.078125,-1.125 -1.96875,-1.125 -2.578125,0 -5.265625,2.625 -5.265625,5.4375 0,2 1.40625,3.234375 3.140625,3.234375 0.96875,0 1.796875,-0.40625 2.5,-0.984375 1.03125,-0.875 1.34375,-2.03125 1.34375,-2.140625 0,-0.09375 -0.09375,-0.09375 -0.125,-0.09375 -0.109375,0 -0.125,0.0625 -0.15625,0.109375 -0.546875,1.875 -2.15625,2.765625 -3.359375,2.765625 -1.265625,0 -2.359375,-0.8125 -2.359375,-2.515625 0,-0.375 0.125,-2.453125 1.46875,-4.03125 0.65625,-0.765625 1.78125,-1.421875 2.921875,-1.421875 1.3125,0 1.890625,1.078125 1.890625,2.296875 0,0.3125 -0.03125,0.578125 -0.03125,0.625 0,0.109375 0.125,0.109375 0.15625,0.109375 0.125,0 0.140625,-0.015625 0.1875,-0.234375 z m 0,0"
             id="path32" />
        </g>
      </g>
      <g
         fill="#000000"
         fill-opacity="1"
         id="g35"
         transform="matrix(0.352778,0,0,0.352778,-0.84089,-0.660444)">
        <g
           id="g34"
           transform="translate(22.115,12.087)">
          <path
             d="M 1.46875,-0.953125 C 1.109375,-0.359375 0.78125,-0.28125 0.5,-0.265625 0.421875,-0.25 0.3125,-0.25 0.3125,-0.109375 0.3125,-0.09375 0.328125,0 0.4375,0 0.5,0 0.546875,-0.03125 1.109375,-0.03125 1.65625,-0.03125 1.828125,0 1.875,0 c 0.03125,0 0.15625,0 0.15625,-0.15625 0,-0.09375 -0.109375,-0.109375 -0.140625,-0.109375 -0.171875,0 -0.34375,-0.0625 -0.34375,-0.25 0,-0.109375 0.078125,-0.21875 0.21875,-0.453125 L 2.3125,-1.84375 H 4.5 L 4.65625,-0.5 c 0,0.125 -0.140625,0.234375 -0.515625,0.234375 -0.109375,0 -0.21875,0 -0.21875,0.15625 0,0 0,0.109375 0.140625,0.109375 0.078125,0 0.375,-0.015625 0.453125,-0.03125 h 0.5 C 5.734375,-0.03125 5.859375,0 5.921875,0 5.953125,0 6.09375,0 6.09375,-0.15625 c 0,-0.109375 -0.109375,-0.109375 -0.234375,-0.109375 -0.4375,0 -0.453125,-0.0625 -0.46875,-0.265625 L 4.75,-5.453125 C 4.734375,-5.640625 4.71875,-5.6875 4.59375,-5.6875 c -0.140625,0 -0.1875,0.078125 -0.25,0.15625 z M 2.484375,-2.109375 4.125,-4.71875 4.46875,-2.109375 Z m 0,0"
             id="path33" />
        </g>
      </g>
      <g
         fill="#000000"
         fill-opacity="1"
         id="g37"
         transform="matrix(0.352778,0,0,0.352778,-0.84089,-0.660444)">
        <g
           id="g36"
           transform="translate(28.458,12.087)">
          <path
             d="m 3.890625,-2.546875 c 0,-0.84375 -0.078125,-1.359375 -0.34375,-1.875 -0.34375,-0.703125 -1,-0.875 -1.4375,-0.875 -1,0 -1.375,0.75 -1.484375,0.96875 -0.28125,0.578125 -0.296875,1.375 -0.296875,1.78125 0,0.53125 0.015625,1.328125 0.40625,1.96875 0.359375,0.59375 0.953125,0.75 1.375,0.75 0.390625,0 1.0625,-0.125 1.46875,-0.90625 0.296875,-0.578125 0.3125,-1.296875 0.3125,-1.8125 z M 2.109375,-0.0625 C 1.84375,-0.0625 1.296875,-0.1875 1.125,-1.015625 1.03125,-1.46875 1.03125,-2.21875 1.03125,-2.640625 1.03125,-3.1875 1.03125,-3.75 1.125,-4.1875 1.296875,-5 1.90625,-5.078125 2.109375,-5.078125 c 0.265625,0 0.828125,0.140625 0.984375,0.859375 0.09375,0.4375 0.09375,1.046875 0.09375,1.578125 0,0.46875 0,1.1875 -0.09375,1.640625 -0.171875,0.828125 -0.71875,0.9375 -0.984375,0.9375 z m 0,0"
             id="path35" />
        </g>
      </g>
    </g>
  </g>
</svg>
