<?xml version="1.0" encoding="UTF-8" standalone="no"?>
<!-- Created with Inkscape (http://www.inkscape.org/) -->

<svg
   width="210mm"
   height="297mm"
   viewBox="0 0 210 297"
   version="1.1"
   id="svg1"
   inkscape:version="1.3.2 (091e20e, 2023-11-25, custom)"
   sodipodi:docname="open-and-closed-system.svg"
   xmlns:inkscape="http://www.inkscape.org/namespaces/inkscape"
   xmlns:sodipodi="http://sodipodi.sourceforge.net/DTD/sodipodi-0.dtd"
   xmlns="http://www.w3.org/2000/svg"
   xmlns:svg="http://www.w3.org/2000/svg">
  <sodipodi:namedview
     id="namedview1"
     pagecolor="#ffffff"
     bordercolor="#000000"
     borderopacity="0.25"
     inkscape:showpageshadow="2"
     inkscape:pageopacity="0.0"
     inkscape:pagecheckerboard="0"
     inkscape:deskcolor="#d1d1d1"
     inkscape:document-units="mm"
     showgrid="true"
     inkscape:zoom="3.3585157"
     inkscape:cx="224.95056"
     inkscape:cy="309.95835"
     inkscape:window-width="2729"
     inkscape:window-height="2088"
     inkscape:window-x="1358"
     inkscape:window-y="0"
     inkscape:window-maximized="0"
     inkscape:current-layer="layer2"
     showguides="true">
    <inkscape:grid
       id="grid1"
       units="px"
       originx="0"
       originy="0"
       spacingx="0.26458333"
       spacingy="0.26458334"
       empcolor="#0099e5"
       empopacity="0.30196078"
       color="#0099e5"
       opacity="0.14901961"
       empspacing="5"
       dotted="false"
       gridanglex="30"
       gridanglez="30"
       visible="true" />
    <sodipodi:guide
       position="70.11458,228.20834"
       orientation="1,0"
       id="guide60"
       inkscape:locked="false" />
  </sodipodi:namedview>
  <defs
     id="defs1">
    <marker
       style="overflow:visible"
       id="RoundedArrow"
       refX="0"
       refY="0"
       orient="auto-start-reverse"
       inkscape:stockid="Rounded arrow"
       markerWidth="0.89999998"
       markerHeight="0.60000002"
       viewBox="0 0 1 1"
       inkscape:isstock="true"
       inkscape:collect="always"
       preserveAspectRatio="none">
      <path
         transform="scale(0.7)"
         d="m -0.21114562,-4.1055728 6.42229122,3.21114561 a 1,1 90 0 1 0,1.78885438 L -0.21114562,4.1055728 A 1.236068,1.236068 31.717474 0 1 -2,3 v -6 a 1.236068,1.236068 148.28253 0 1 1.78885438,-1.1055728 z"
         style="fill:context-stroke;fill-rule:evenodd;stroke:none"
         id="path8" />
    </marker>
  </defs>
  <g
     inkscape:label="Dark-Color-Pellette"
     inkscape:groupmode="layer"
     id="layer1"
     style="display:inline">
    <rect
       style="fill:#000000;stroke:none;stroke-width:0.264583px;-inkscape-stroke:none;paint-order:markers fill stroke"
       id="rect1"
       width="13.229166"
       height="14.552083"
       x="0.43676892"
       y="-16.536459" />
    <rect
       style="fill:#65489d;fill-opacity:1;stroke:none;stroke-width:0.264583px;-inkscape-stroke:none;paint-order:markers fill stroke"
       id="rect2"
       width="13.229166"
       height="14.552083"
       x="13.961318"
       y="-16.536459" />
    <rect
       style="fill:#388ecc;stroke:none;stroke-width:0.264583px;-inkscape-stroke:none;paint-order:markers fill stroke"
       id="rect3"
       width="13.229166"
       height="14.552083"
       x="27.485868"
       y="-16.536459" />
    <rect
       style="fill:#105e5d;fill-opacity:1;stroke:none;stroke-width:0.264583px;-inkscape-stroke:none;paint-order:markers fill stroke"
       id="rect4"
       width="13.229166"
       height="14.552083"
       x="41.010414"
       y="-16.536459" />
    <rect
       style="fill:#9f1d54;fill-opacity:1;stroke:none;stroke-width:0.264583px;-inkscape-stroke:none;paint-order:markers fill stroke"
       id="rect5"
       width="13.229166"
       height="14.552083"
       x="54.534966"
       y="-16.536459" />
    <rect
       style="fill:#4d1013;fill-opacity:1;stroke:none;stroke-width:0.264583px;-inkscape-stroke:none;paint-order:markers fill stroke"
       id="rect6"
       width="13.229166"
       height="14.552083"
       x="68.059517"
       y="-16.536459" />
    <rect
       style="fill:#f04e58;fill-opacity:1;stroke:none;stroke-width:0.264583px;-inkscape-stroke:none;paint-order:markers fill stroke"
       id="rect7"
       width="13.229166"
       height="14.552083"
       x="81.584061"
       y="-16.536459" />
    <rect
       style="fill:#148040;fill-opacity:1;stroke:none;stroke-width:0.264583px;-inkscape-stroke:none;paint-order:markers fill stroke"
       id="rect8"
       width="13.229166"
       height="14.552083"
       x="95.108612"
       y="-16.536459" />
  </g>
  <g
     inkscape:groupmode="layer"
     id="layer2"
     inkscape:label="Drawing">
    <path
       id="path9"
       style="fill:none;stroke:#000000;stroke-width:0.326543;stroke-dasharray:none;paint-order:markers fill stroke"
       inkscape:transform-center-x="4.3922847"
       inkscape:transform-center-y="-2.9188719"
       d="m 89.859957,45.021372 c -0.636493,1.818816 -3.379886,1.919137 -4.799963,3.221674 -1.29456,1.187414 -1.742857,3.299226 -3.303111,4.106339 -2.015031,1.042365 -4.553872,0.05377 -6.793183,0.417582 -2.214178,0.35971 -4.267182,1.925981 -6.502217,1.734677 -2.050373,-0.175494 -3.656233,-1.929007 -5.607789,-2.581905 -2.154185,-0.720688 -4.917741,0.01005 -6.658871,-1.448662 -1.20816,-1.012321 -0.946327,-3.04726 -1.798447,-4.373285 -0.975826,-1.518531 -3.567725,-2.153948 -3.69976,-3.954153 -0.122154,-1.665428 2.188751,-2.586004 2.852408,-4.118363 0.624574,-1.442116 -0.06821,-3.448004 0.990509,-4.609453 1.451813,-1.592736 4.201388,-1.05623 6.168587,-1.936406 1.847768,-0.826737 3.226543,-2.741088 5.217308,-3.107938 2.195748,-0.404622 4.372065,0.983134 6.598417,1.151611 2.32818,0.176179 4.822788,-0.988084 7.002865,-0.152185 1.682586,0.645141 2.471417,2.657587 3.940781,3.70078 1.689608,1.199555 4.548835,1.039954 5.511717,2.874776 0.705221,1.343857 -0.69944,3.006994 -0.560823,4.518311 0.145491,1.586409 1.967782,3.052946 1.441572,4.5566 z"
       sodipodi:nodetypes="aaaaaaaaaaaaaaaaaaa"
       inkscape:export-filename="closed-system.png"
       inkscape:export-xdpi="300"
       inkscape:export-ydpi="300" />
    <g
       inkscape:label=""
       transform="translate(61.217147,57.911107)"
       id="g9"
       style="fill:#388ecc;fill-opacity:1">
      <g
         fill="#000000"
         fill-opacity="1"
         id="g3"
         transform="matrix(0.352778,0,0,0.352778,-0.873963,-0.638395)"
         style="fill:#388ecc;fill-opacity:1">
        <g
           id="use2"
           transform="translate(1.993,10.294)"
           style="fill:#388ecc;fill-opacity:1">
          <path
             d="m 3.109375,-5.21875 c -1.53125,0.375 -2.625,1.96875 -2.625,3.359375 0,1.28125 0.859375,2 1.8125,2 1.40625,0 2.359375,-1.9375 2.359375,-3.515625 0,-1.078125 -0.5,-1.734375 -0.796875,-2.140625 C 3.421875,-6.078125 2.703125,-7 2.703125,-7.5625 c 0,-0.203125 0.15625,-0.5625 0.671875,-0.5625 0.375,0 0.609375,0.125 0.96875,0.328125 0.109375,0.078125 0.375,0.234375 0.53125,0.234375 0.25,0 0.4375,-0.25 0.4375,-0.453125 0,-0.21875 -0.1875,-0.25 -0.609375,-0.34375 -0.5625,-0.125 -0.71875,-0.125 -0.921875,-0.125 -0.203125,0 -1.375,0 -1.375,1.21875 0,0.578125 0.296875,1.265625 0.703125,2.046875 z m 0.125,0.234375 C 3.6875,-4.046875 3.875,-3.6875 3.875,-2.90625 c 0,0.9375 -0.5,2.8125 -1.5625,2.8125 -0.46875,0 -1.140625,-0.3125 -1.140625,-1.421875 0,-0.78125 0.4375,-3.03125 2.0625,-3.46875 z m 0,0"
             id="path4"
             style="fill:#388ecc;fill-opacity:1" />
        </g>
      </g>
      <g
         fill="#000000"
         fill-opacity="1"
         id="g4"
         transform="matrix(0.352778,0,0,0.352778,-0.873963,-0.638395)"
         style="fill:#388ecc;fill-opacity:1">
        <g
           id="use3"
           transform="translate(7.6203132,10.294)"
           style="fill:#388ecc;fill-opacity:1">
          <path
             d="m 10.796875,-6.84375 c 0.265625,-0.453125 0.53125,-0.90625 1.25,-0.96875 0.109375,-0.015625 0.21875,-0.03125 0.21875,-0.21875 0,-0.125 -0.109375,-0.125 -0.140625,-0.125 -0.03125,0 -0.109375,0.015625 -0.90625,0.015625 -0.359375,0 -0.71875,-0.015625 -1.078125,-0.015625 -0.0625,0 -0.203125,0 -0.203125,0.21875 0,0.109375 0.09375,0.125 0.15625,0.125 0.25,0 0.625,0.078125 0.625,0.453125 0,0.15625 -0.04687,0.234375 -0.171875,0.4375 l -3.25,5.71875 -0.4375,-6.234375 c 0,-0.140625 0.140625,-0.375 0.796875,-0.375 0.15625,0 0.28125,0 0.28125,-0.234375 0,-0.109375 -0.125,-0.109375 -0.1875,-0.109375 -0.40625,0 -0.859375,0.015625 -1.28125,0.015625 h -0.625 c -0.171875,0 -0.390625,-0.015625 -0.578125,-0.015625 -0.0625,0 -0.203125,0 -0.203125,0.21875 0,0.125 0.078125,0.125 0.28125,0.125 0.546875,0 0.546875,0 0.59375,0.734375 l 0.03125,0.4375 L 2.875,-1.203125 2.4375,-7.375 c 0,-0.125 0,-0.4375 0.8125,-0.4375 0.125,0 0.265625,0 0.265625,-0.21875 0,-0.125 -0.109375,-0.125 -0.1875,-0.125 -0.40625,0 -0.859375,0.015625 -1.28125,0.015625 h -0.625 C 1.25,-8.140625 1.03125,-8.15625 0.84375,-8.15625 c -0.0625,0 -0.203125,0 -0.203125,0.21875 0,0.125 0.09375,0.125 0.25,0.125 0.5625,0 0.578125,0.0625 0.609375,0.453125 L 2.015625,-0.03125 C 2.03125,0.171875 2.046875,0.25 2.1875,0.25 c 0.125,0 0.140625,-0.046875 0.25,-0.21875 L 6,-6.203125 6.4375,-0.03125 C 6.453125,0.171875 6.46875,0.25 6.609375,0.25 c 0.125,0 0.15625,-0.0625 0.25,-0.21875 z m 0,0"
             id="path5"
             style="fill:#388ecc;fill-opacity:1" />
        </g>
      </g>
    </g>
    <g
       inkscape:label=""
       transform="translate(72.246965,24.231423)"
       id="g14"
       style="fill:#65489d;fill-opacity:1">
      <g
         fill="#000000"
         fill-opacity="1"
         id="g11"
         transform="matrix(0.352778,0,0,0.352778,-0.873963,-0.638748)"
         style="fill:#65489d;fill-opacity:1">
        <g
           id="g10"
           transform="translate(1.993,10.295)"
           style="fill:#65489d;fill-opacity:1">
          <path
             d="m 3.109375,-5.21875 c -1.53125,0.375 -2.625,1.96875 -2.625,3.359375 0,1.28125 0.859375,2 1.8125,2 1.40625,0 2.359375,-1.9375 2.359375,-3.515625 0,-1.078125 -0.5,-1.734375 -0.796875,-2.140625 C 3.421875,-6.078125 2.703125,-7 2.703125,-7.5625 c 0,-0.203125 0.15625,-0.5625 0.671875,-0.5625 0.375,0 0.609375,0.125 0.96875,0.328125 0.109375,0.078125 0.375,0.234375 0.53125,0.234375 0.25,0 0.4375,-0.25 0.4375,-0.453125 0,-0.21875 -0.1875,-0.25 -0.609375,-0.34375 -0.5625,-0.125 -0.71875,-0.125 -0.921875,-0.125 -0.203125,0 -1.375,0 -1.375,1.21875 0,0.578125 0.296875,1.265625 0.703125,2.046875 z m 0.125,0.234375 C 3.6875,-4.046875 3.875,-3.6875 3.875,-2.90625 c 0,0.9375 -0.5,2.8125 -1.5625,2.8125 -0.46875,0 -1.140625,-0.3125 -1.140625,-1.421875 0,-0.78125 0.4375,-3.03125 2.0625,-3.46875 z m 0,0"
             id="path10"
             style="fill:#65489d;fill-opacity:1" />
        </g>
      </g>
      <g
         fill="#000000"
         fill-opacity="1"
         id="g13"
         transform="matrix(0.352778,0,0,0.352778,-0.873963,-0.638748)"
         style="fill:#65489d;fill-opacity:1">
        <g
           id="g12"
           transform="translate(7.6203132,10.295)"
           style="fill:#65489d;fill-opacity:1">
          <path
             d="m 5.09375,-0.078125 c 2.046875,-0.8125 3.578125,-3 3.578125,-5.15625 0,-1.96875 -1.28125,-3.1875 -2.953125,-3.1875 -2.5625,0 -5.140625,2.75 -5.140625,5.515625 0,1.875 1.234375,3.15625 2.96875,3.15625 0.40625,0 0.796875,-0.0625 1.1875,-0.171875 -0.078125,0.703125 -0.078125,0.765625 -0.078125,1 0,0.34375 0,1.234375 0.96875,1.234375 1.421875,0 1.9375,-2.234375 1.9375,-2.296875 0,-0.078125 -0.046875,-0.125 -0.109375,-0.125 -0.0625,0 -0.09375,0.0625 -0.125,0.1875 C 7.0625,0.84375 6.4375,1.265625 5.921875,1.265625 5.3125,1.265625 5.15625,0.84375 5.09375,-0.078125 Z M 2.9375,-0.125 C 2,-0.453125 1.546875,-1.453125 1.546875,-2.546875 c 0,-0.828125 0.3125,-2.421875 1.09375,-3.640625 0.890625,-1.359375 2.0625,-1.96875 3,-1.96875 1.25,0 2.078125,1.015625 2.078125,2.5625 0,0.890625 -0.421875,3.84375 -2.65625,5.15625 C 5,-1.046875 4.828125,-1.75 4.046875,-1.75 c -0.65625,0 -1.203125,0.640625 -1.203125,1.21875 0,0.140625 0.046875,0.3125 0.09375,0.40625 z M 4.75,-0.28125 c -0.421875,0.203125 -0.796875,0.265625 -1.125,0.265625 -0.125,0 -0.546875,0 -0.546875,-0.515625 0,-0.4375 0.421875,-0.984375 0.96875,-0.984375 0.59375,0 0.71875,0.40625 0.71875,1 0,0.078125 0,0.171875 -0.015625,0.234375 z m 0,0"
             id="path11"
             style="fill:#65489d;fill-opacity:1" />
        </g>
      </g>
    </g>
    <path
       style="fill:none;fill-rule:evenodd;stroke:#65489d;stroke-width:0.529167;stroke-linecap:butt;stroke-linejoin:miter;stroke-dasharray:none;stroke-opacity:1;marker-end:url(#RoundedArrow)"
       d="M 69.878011,24.231424 V 34.814757"
       id="path14"
       inkscape:connector-type="polyline"
       inkscape:connector-curvature="0" />
    <g
       id="g61">
      <ellipse
         style="fill:none;stroke:#388ecc;stroke-width:0.529167;stroke-dasharray:none;stroke-opacity:1;paint-order:markers fill stroke"
         id="path15"
         cx="48.795948"
         cy="-71.607277"
         rx="0.67630637"
         ry="1.680468"
         transform="rotate(89.71613)" />
      <ellipse
         style="fill:none;stroke:#388ecc;stroke-width:0.529167;stroke-dasharray:none;stroke-opacity:1;paint-order:markers fill stroke"
         id="ellipse15"
         cx="48.795948"
         cy="-68.000313"
         rx="0.67630637"
         ry="1.680468"
         transform="rotate(89.71613)" />
      <path
         style="fill:none;stroke:#388ecc;stroke-width:0.529167;stroke-dasharray:none;stroke-opacity:1;paint-order:markers fill stroke;marker-end:url(#RoundedArrow)"
         d="m 70.063299,48.387131 0.05128,10.350371"
         id="path16"
         sodipodi:nodetypes="cc" />
    </g>
    <text
       xml:space="preserve"
       style="font-size:4.23333px;line-height:125%;font-family:'IBM Plex Sans';-inkscape-font-specification:'IBM Plex Sans, Normal';text-align:center;text-decoration-color:#000000;letter-spacing:0px;word-spacing:0px;text-anchor:middle;fill:#105e5d;fill-opacity:1;stroke:none;stroke-width:0.529167;stroke-dasharray:none;stroke-opacity:1;paint-order:markers fill stroke"
       x="80.461342"
       y="50.689758"
       id="text16"><tspan
         sodipodi:role="line"
         id="tspan16"
         style="fill:#105e5d;fill-opacity:1;stroke:none;stroke-width:0.529167"
         x="80.461342"
         y="50.689758">s</tspan></text>
    <path
       id="path17"
       style="fill:none;stroke:#000000;stroke-width:0.326543;stroke-dasharray:none;paint-order:markers fill stroke"
       inkscape:transform-center-x="4.3922847"
       inkscape:transform-center-y="-2.9188719"
       d="m 90.36111,101.48787 c -0.636493,1.81881 -3.379886,1.91913 -4.799963,3.22167 -1.29456,1.18742 -1.742857,3.29923 -3.303111,4.10634 -2.015031,1.04237 -4.553872,0.0538 -6.793183,0.41758 -2.214178,0.35971 -4.267182,1.92598 -6.502217,1.73468 -2.050373,-0.17549 -3.656233,-1.92901 -5.607789,-2.58191 -2.154185,-0.72068 -4.917741,0.0101 -6.658871,-1.44866 -1.20816,-1.01232 -0.946327,-3.04726 -1.798447,-4.37328 -0.975826,-1.51853 -3.567725,-2.15395 -3.69976,-3.954154 -0.122154,-1.665428 2.188751,-2.586004 2.852408,-4.118363 0.624574,-1.442116 -0.06821,-3.448004 0.990509,-4.609453 1.451813,-1.592736 4.201388,-1.05623 6.168587,-1.936406 1.847768,-0.826737 3.226543,-2.741088 5.217308,-3.107938 2.195748,-0.404622 4.372065,0.983134 6.598417,1.151611 2.32818,0.176179 4.822788,-0.988084 7.002865,-0.152185 1.682586,0.645141 2.471417,2.657587 3.940781,3.70078 1.689608,1.199555 4.548835,1.039954 5.511717,2.874776 0.705221,1.343857 -0.69944,3.006994 -0.560823,4.518311 0.145491,1.586409 1.967782,3.052942 1.441572,4.556601 z"
       sodipodi:nodetypes="aaaaaaaaaaaaaaaaaaa"
       inkscape:export-filename="open-system.png"
       inkscape:export-xdpi="300"
       inkscape:export-ydpi="300" />
    <path
       style="fill:none;fill-rule:evenodd;stroke:#65489d;stroke-width:0.529167;stroke-linecap:butt;stroke-linejoin:miter;stroke-dasharray:none;stroke-opacity:1;marker-end:url(#RoundedArrow)"
       d="M 70.379164,80.168753 V 90.752086"
       id="path27"
       inkscape:connector-type="polyline"
       inkscape:connector-curvature="0" />
    <text
       xml:space="preserve"
       style="font-size:4.23333px;line-height:125%;font-family:'IBM Plex Sans';-inkscape-font-specification:'IBM Plex Sans, Normal';text-align:center;text-decoration-color:#000000;letter-spacing:0px;word-spacing:0px;text-anchor:middle;fill:#105e5d;fill-opacity:1;stroke:none;stroke-width:0.529167;stroke-dasharray:none;stroke-opacity:1;paint-order:markers fill stroke"
       x="80.962494"
       y="107.15625"
       id="text28"><tspan
         sodipodi:role="line"
         id="tspan28"
         style="fill:#105e5d;fill-opacity:1;stroke:none;stroke-width:0.529167"
         x="80.962494"
         y="107.15625">s</tspan></text>
    <path
       style="fill:none;fill-rule:evenodd;stroke:#9f1d54;stroke-width:0.529167;stroke-linecap:butt;stroke-linejoin:miter;stroke-dasharray:none;stroke-opacity:1;marker-end:url(#RoundedArrow)"
       d="M 38.629166,98.889101 H 49.212499"
       id="path29"
       inkscape:connector-type="polyline"
       inkscape:connector-curvature="0" />
    <path
       style="fill:none;fill-rule:evenodd;stroke:#9f1d54;stroke-width:0.529167;stroke-linecap:butt;stroke-linejoin:miter;stroke-dasharray:none;stroke-opacity:1;marker-end:url(#RoundedArrow)"
       d="M 89.429198,98.889101 H 100.01252"
       id="path30"
       inkscape:connector-type="polyline"
       inkscape:connector-curvature="0" />
    <g
       inkscape:label=""
       transform="translate(72.246965,80.168752)"
       id="g35"
       style="fill:#65479d;fill-opacity:1">
      <g
         fill="#000000"
         fill-opacity="1"
         id="g32"
         transform="matrix(0.352778,0,0,0.352778,-0.907036,-0.696339)"
         style="fill:#65479d;fill-opacity:1">
        <g
           id="g31"
           transform="translate(5.9780002,9.927)"
           style="fill:#65479d;fill-opacity:1">
          <path
             d="m 2.203125,-7.359375 c 0,-0.359375 -0.296875,-0.59375 -0.578125,-0.59375 -0.328125,0 -0.578125,0.265625 -0.578125,0.59375 0,0.3125 0.25,0.5625 0.5625,0.5625 0.359375,0 0.59375,-0.28125 0.59375,-0.5625 z m 0,0"
             id="path31"
             style="fill:#65479d;fill-opacity:1" />
        </g>
      </g>
      <g
         fill="#000000"
         fill-opacity="1"
         id="g34"
         transform="matrix(0.352778,0,0,0.352778,-0.907036,-0.696339)"
         style="fill:#65479d;fill-opacity:1">
        <g
           id="g33"
           transform="translate(1.993,12.949)"
           style="fill:#65479d;fill-opacity:1">
          <path
             d="m 5.09375,-0.078125 c 2.046875,-0.8125 3.578125,-3 3.578125,-5.15625 0,-1.96875 -1.28125,-3.1875 -2.953125,-3.1875 -2.5625,0 -5.140625,2.75 -5.140625,5.515625 0,1.875 1.234375,3.15625 2.96875,3.15625 0.40625,0 0.796875,-0.0625 1.1875,-0.171875 -0.078125,0.703125 -0.078125,0.765625 -0.078125,1 0,0.34375 0,1.234375 0.96875,1.234375 1.421875,0 1.9375,-2.234375 1.9375,-2.296875 0,-0.078125 -0.046875,-0.125 -0.109375,-0.125 -0.0625,0 -0.09375,0.0625 -0.125,0.1875 C 7.0625,0.84375 6.4375,1.265625 5.921875,1.265625 5.3125,1.265625 5.15625,0.84375 5.09375,-0.078125 Z M 2.9375,-0.125 C 2,-0.453125 1.546875,-1.453125 1.546875,-2.546875 c 0,-0.828125 0.3125,-2.421875 1.09375,-3.640625 0.890625,-1.359375 2.0625,-1.96875 3,-1.96875 1.25,0 2.078125,1.015625 2.078125,2.5625 0,0.890625 -0.421875,3.84375 -2.65625,5.15625 C 5,-1.046875 4.828125,-1.75 4.046875,-1.75 c -0.65625,0 -1.203125,0.640625 -1.203125,1.21875 0,0.140625 0.046875,0.3125 0.09375,0.40625 z M 4.75,-0.28125 c -0.421875,0.203125 -0.796875,0.265625 -1.125,0.265625 -0.125,0 -0.546875,0 -0.546875,-0.515625 0,-0.4375 0.421875,-0.984375 0.96875,-0.984375 0.59375,0 0.71875,0.40625 0.71875,1 0,0.078125 0,0.171875 -0.015625,0.234375 z m 0,0"
             id="path32"
             style="fill:#65479d;fill-opacity:1" />
        </g>
      </g>
    </g>
    <g
       inkscape:label=""
       transform="translate(63.25746,113.65325)"
       id="g40"
       style="fill:#388ecc;fill-opacity:1">
      <g
         fill="#000000"
         fill-opacity="1"
         id="g37"
         transform="matrix(0.352778,0,0,0.352778,-0.929084,-0.696339)"
         style="fill:#388ecc;fill-opacity:1">
        <g
           id="g36"
           transform="translate(6.7049999,9.927)"
           style="fill:#388ecc;fill-opacity:1">
          <path
             d="m 2.203125,-7.359375 c 0,-0.359375 -0.296875,-0.59375 -0.578125,-0.59375 -0.328125,0 -0.578125,0.265625 -0.578125,0.59375 0,0.3125 0.25,0.5625 0.5625,0.5625 0.359375,0 0.59375,-0.28125 0.59375,-0.5625 z m 0,0"
             id="path35"
             style="fill:#388ecc;fill-opacity:1" />
        </g>
      </g>
      <g
         fill="#000000"
         fill-opacity="1"
         id="g39"
         transform="matrix(0.352778,0,0,0.352778,-0.929084,-0.696339)"
         style="fill:#388ecc;fill-opacity:1">
        <g
           id="g38"
           transform="translate(1.993,12.949)"
           style="fill:#388ecc;fill-opacity:1">
          <path
             d="m 10.796875,-6.84375 c 0.265625,-0.453125 0.53125,-0.90625 1.25,-0.96875 0.109375,-0.015625 0.21875,-0.03125 0.21875,-0.21875 0,-0.125 -0.109375,-0.125 -0.140625,-0.125 -0.03125,0 -0.109375,0.015625 -0.90625,0.015625 -0.359375,0 -0.71875,-0.015625 -1.078125,-0.015625 -0.0625,0 -0.203125,0 -0.203125,0.21875 0,0.109375 0.09375,0.125 0.15625,0.125 0.25,0 0.625,0.078125 0.625,0.453125 0,0.15625 -0.04687,0.234375 -0.171875,0.4375 l -3.25,5.71875 -0.4375,-6.234375 c 0,-0.140625 0.140625,-0.375 0.796875,-0.375 0.15625,0 0.28125,0 0.28125,-0.234375 0,-0.109375 -0.125,-0.109375 -0.1875,-0.109375 -0.40625,0 -0.859375,0.015625 -1.28125,0.015625 h -0.625 c -0.171875,0 -0.390625,-0.015625 -0.578125,-0.015625 -0.0625,0 -0.203125,0 -0.203125,0.21875 0,0.125 0.078125,0.125 0.28125,0.125 0.546875,0 0.546875,0 0.59375,0.734375 l 0.03125,0.4375 L 2.875,-1.203125 2.4375,-7.375 c 0,-0.125 0,-0.4375 0.8125,-0.4375 0.125,0 0.265625,0 0.265625,-0.21875 0,-0.125 -0.109375,-0.125 -0.1875,-0.125 -0.40625,0 -0.859375,0.015625 -1.28125,0.015625 h -0.625 C 1.25,-8.140625 1.03125,-8.15625 0.84375,-8.15625 c -0.0625,0 -0.203125,0 -0.203125,0.21875 0,0.125 0.09375,0.125 0.25,0.125 0.5625,0 0.578125,0.0625 0.609375,0.453125 L 2.015625,-0.03125 C 2.03125,0.171875 2.046875,0.25 2.1875,0.25 c 0.125,0 0.140625,-0.046875 0.25,-0.21875 L 6,-6.203125 6.4375,-0.03125 C 6.453125,0.171875 6.46875,0.25 6.609375,0.25 c 0.125,0 0.15625,-0.0625 0.25,-0.21875 z m 0,0"
             id="path37"
             style="fill:#388ecc;fill-opacity:1" />
        </g>
      </g>
    </g>
    <g
       id="g62"
       transform="translate(8.1602873e-7,56.620834)">
      <ellipse
         style="fill:none;stroke:#388ecc;stroke-width:0.529167;stroke-dasharray:none;stroke-opacity:1;paint-order:markers fill stroke"
         id="ellipse61"
         cx="48.795948"
         cy="-71.607277"
         rx="0.67630637"
         ry="1.680468"
         transform="rotate(89.71613)" />
      <ellipse
         style="fill:none;stroke:#388ecc;stroke-width:0.529167;stroke-dasharray:none;stroke-opacity:1;paint-order:markers fill stroke"
         id="ellipse62"
         cx="48.795948"
         cy="-68.000313"
         rx="0.67630637"
         ry="1.680468"
         transform="rotate(89.71613)" />
      <path
         style="fill:none;stroke:#388ecc;stroke-width:0.529167;stroke-dasharray:none;stroke-opacity:1;marker-end:url(#RoundedArrow);paint-order:markers fill stroke"
         d="m 70.063299,48.387131 0.05128,10.350371"
         id="path62"
         sodipodi:nodetypes="cc" />
    </g>
    <g
       inkscape:label=""
       transform="translate(93.785962,93.311486)"
       id="g68"
       style="fill:#9f1d54;fill-opacity:1">
      <g
         fill="#000000"
         fill-opacity="1"
         id="g64"
         transform="matrix(0.352778,0,0,0.352778,-0.896011,-0.712744)"
         style="fill:#9f1d54;fill-opacity:1">
        <g
           id="g63"
           transform="translate(1.993,10.161)"
           style="fill:#9f1d54;fill-opacity:1">
          <path
             d="m 3.546875,-3.890625 h 1.15625 c 0.90625,0 0.96875,0.203125 0.96875,0.546875 0,0.15625 -0.015625,0.3125 -0.078125,0.578125 C 5.5625,-2.71875 5.5625,-2.65625 5.5625,-2.625 c 0,0.078125 0.046875,0.125 0.125,0.125 0.09375,0 0.109375,-0.046875 0.15625,-0.234375 l 0.6875,-2.78125 c 0,-0.046875 -0.03125,-0.125 -0.109375,-0.125 -0.109375,0 -0.125,0.046875 -0.171875,0.25 C 6,-4.5 5.765625,-4.25 4.71875,-4.25 H 3.640625 L 4.40625,-7.34375 C 4.515625,-7.75 4.546875,-7.796875 5.03125,-7.796875 h 1.609375 c 1.484375,0 1.703125,0.453125 1.703125,1.296875 0,0.0625 0,0.328125 -0.03125,0.640625 -0.015625,0.046875 -0.046875,0.203125 -0.046875,0.25 0,0.09375 0.0625,0.140625 0.140625,0.140625 0.078125,0 0.125,-0.046875 0.15625,-0.265625 l 0.25,-2.09375 c 0,-0.03125 0.015625,-0.15625 0.015625,-0.1875 0,-0.125 -0.109375,-0.125 -0.3125,-0.125 H 2.84375 c -0.21875,0 -0.34375,0 -0.34375,0.21875 0,0.125 0.078125,0.125 0.28125,0.125 0.75,0 0.75,0.09375 0.75,0.21875 0,0.0625 -0.015625,0.109375 -0.046875,0.234375 l -1.625,6.453125 C 1.75,-0.46875 1.734375,-0.34375 0.890625,-0.34375 c -0.21875,0 -0.34375,0 -0.34375,0.21875 C 0.546875,0 0.65625,0 0.734375,0 0.953125,0 1.1875,-0.03125 1.421875,-0.03125 H 2.96875 C 3.234375,-0.03125 3.53125,0 3.796875,0 c 0.09375,0 0.25,0 0.25,-0.21875 0,-0.125 -0.078125,-0.125 -0.34375,-0.125 -0.9375,0 -0.96875,-0.09375 -0.96875,-0.265625 0,-0.0625 0.03125,-0.15625 0.046875,-0.234375 z m 0,0"
             id="path63"
             style="fill:#9f1d54;fill-opacity:1" />
        </g>
      </g>
      <g
         fill="#000000"
         fill-opacity="1"
         id="g67"
         transform="matrix(0.352778,0,0,0.352778,-0.896011,-0.712744)"
         style="fill:#9f1d54;fill-opacity:1">
        <g
           id="g65"
           transform="translate(9.5699997,11.955)"
           style="fill:#9f1d54;fill-opacity:1">
          <path
             d="m 2.375,-4.96875 c 0,-0.171875 -0.125,-0.3125 -0.3125,-0.3125 -0.203125,0 -0.4375,0.203125 -0.4375,0.4375 0,0.171875 0.125,0.296875 0.3125,0.296875 0.203125,0 0.4375,-0.1875 0.4375,-0.421875 z m -1.15625,2.921875 -0.4375,1.09375 c -0.046875,0.125 -0.078125,0.21875 -0.078125,0.359375 0,0.390625 0.296875,0.671875 0.71875,0.671875 0.78125,0 1.109375,-1.109375 1.109375,-1.21875 0,-0.078125 -0.0625,-0.109375 -0.125,-0.109375 -0.09375,0 -0.109375,0.0625 -0.140625,0.140625 -0.171875,0.640625 -0.5,0.96875 -0.828125,0.96875 -0.09375,0 -0.1875,-0.046875 -0.1875,-0.25 0,-0.203125 0.0625,-0.34375 0.15625,-0.59375 C 1.484375,-1.1875 1.5625,-1.40625 1.65625,-1.625 l 0.25,-0.640625 c 0.0625,-0.1875 0.171875,-0.4375 0.171875,-0.578125 0,-0.390625 -0.328125,-0.671875 -0.734375,-0.671875 -0.765625,0 -1.109375,1.109375 -1.109375,1.21875 0,0.078125 0.0625,0.109375 0.125,0.109375 0.109375,0 0.109375,-0.046875 0.140625,-0.125 0.21875,-0.765625 0.578125,-0.984375 0.828125,-0.984375 0.109375,0 0.1875,0.046875 0.1875,0.265625 0,0.078125 -0.015625,0.1875 -0.09375,0.4375 z m 0,0"
             id="path12"
             style="fill:#9f1d54;fill-opacity:1" />
        </g>
        <g
           id="use8"
           transform="translate(12.452785,11.955)"
           style="fill:#9f1d54;fill-opacity:1">
          <path
             d="m 1.484375,-0.125 c 0,0.515625 -0.109375,0.984375 -0.59375,1.46875 C 0.859375,1.375 0.84375,1.390625 0.84375,1.421875 c 0,0.0625 0.0625,0.109375 0.109375,0.109375 0.09375,0 0.765625,-0.625 0.765625,-1.5625 0,-0.5 -0.203125,-0.859375 -0.546875,-0.859375 -0.28125,0 -0.4375,0.234375 -0.4375,0.4375 C 0.734375,-0.21875 0.890625,0 1.171875,0 1.375,0 1.484375,-0.109375 1.484375,-0.125 Z m 0,0"
             id="path13"
             style="fill:#9f1d54;fill-opacity:1" />
        </g>
        <g
           id="use9"
           transform="translate(14.804762,11.955)"
           style="fill:#9f1d54;fill-opacity:1">
          <path
             d="m 3.96875,-2.140625 c 0,-0.78125 -0.5625,-1.375 -1.390625,-1.375 -1.125,0 -2.234375,1.09375 -2.234375,2.21875 0,0.8125 0.578125,1.375 1.390625,1.375 1.140625,0 2.234375,-1.109375 2.234375,-2.21875 z m -2.21875,2 c -0.28125,0 -0.75,-0.140625 -0.75,-0.875 0,-0.328125 0.140625,-1.1875 0.53125,-1.6875 0.390625,-0.5 0.828125,-0.59375 1.046875,-0.59375 0.328125,0 0.75,0.203125 0.75,0.875 0,0.3125 -0.15625,1.078125 -0.453125,1.546875 -0.296875,0.453125 -0.734375,0.734375 -1.125,0.734375 z m 0,0"
             id="path65"
             style="fill:#9f1d54;fill-opacity:1" />
        </g>
        <g
           id="use10"
           transform="translate(18.897408,11.955)"
           style="fill:#9f1d54;fill-opacity:1">
          <path
             d="m 2.984375,-0.875 c -0.03125,0.15625 -0.40625,0.734375 -0.9375,0.734375 -0.390625,0 -0.53125,-0.296875 -0.53125,-0.640625 0,-0.484375 0.28125,-1.1875 0.453125,-1.640625 C 2.046875,-2.625 2.078125,-2.6875 2.078125,-2.84375 c 0,-0.4375 -0.359375,-0.671875 -0.71875,-0.671875 -0.796875,0 -1.125,1.125 -1.125,1.21875 0,0.078125 0.0625,0.109375 0.125,0.109375 0.109375,0 0.109375,-0.046875 0.140625,-0.125 0.203125,-0.71875 0.546875,-0.984375 0.828125,-0.984375 0.125,0 0.1875,0.078125 0.1875,0.265625 0,0.1875 -0.0625,0.375 -0.171875,0.65625 -0.328125,0.84375 -0.40625,1.1875 -0.40625,1.46875 0,0.78125 0.59375,0.984375 1.0625,0.984375 0.59375,0 0.96875,-0.46875 1,-0.515625 0.125,0.375 0.484375,0.515625 0.765625,0.515625 0.375,0 0.5625,-0.3125 0.609375,-0.4375 0.171875,-0.28125 0.28125,-0.75 0.28125,-0.78125 C 4.65625,-1.1875 4.625,-1.25 4.53125,-1.25 4.4375,-1.25 4.421875,-1.203125 4.359375,-1 c -0.09375,0.40625 -0.234375,0.859375 -0.5625,0.859375 -0.1875,0 -0.265625,-0.15625 -0.265625,-0.375 0,-0.140625 0.078125,-0.40625 0.125,-0.609375 0.046875,-0.203125 0.171875,-0.671875 0.203125,-0.8125 l 0.15625,-0.609375 C 4.0625,-2.765625 4.15625,-3.140625 4.15625,-3.1875 c 0,-0.203125 -0.15625,-0.25 -0.25,-0.25 -0.109375,0 -0.28125,0.078125 -0.34375,0.265625 z m 0,0"
             id="path66"
             style="fill:#9f1d54;fill-opacity:1" />
        </g>
        <g
           id="use11"
           transform="translate(23.800613,11.955)"
           style="fill:#9f1d54;fill-opacity:1">
          <path
             d="m 1.765625,-3.171875 h 0.78125 c 0.140625,0 0.234375,0 0.234375,-0.15625 C 2.78125,-3.4375 2.6875,-3.4375 2.546875,-3.4375 h -0.71875 l 0.28125,-1.125 c 0.03125,-0.125 0.03125,-0.15625 0.03125,-0.171875 0,-0.171875 -0.125,-0.25 -0.265625,-0.25 -0.265625,0 -0.328125,0.21875 -0.40625,0.578125 l -0.25,0.96875 H 0.453125 c -0.15625,0 -0.25,0 -0.25,0.15625 0,0.109375 0.09375,0.109375 0.234375,0.109375 h 0.71875 l -0.484375,1.90625 C 0.625,-1.0625 0.5625,-0.78125 0.5625,-0.671875 c 0,0.484375 0.390625,0.75 0.8125,0.75 0.84375,0 1.328125,-1.125 1.328125,-1.21875 C 2.703125,-1.234375 2.640625,-1.25 2.59375,-1.25 2.5,-1.25 2.5,-1.21875 2.4375,-1.09375 2.28125,-0.703125 1.875,-0.140625 1.390625,-0.140625 1.234375,-0.140625 1.125,-0.25 1.125,-0.515625 c 0,-0.15625 0.03125,-0.234375 0.046875,-0.34375 z m 0,0"
             id="path67"
             style="fill:#9f1d54;fill-opacity:1" />
        </g>
      </g>
    </g>
    <g
       inkscape:label=""
       transform="translate(93.402139,100.42732)"
       id="g77"
       style="fill:#9f1d54;fill-opacity:1">
      <g
         fill="#000000"
         fill-opacity="1"
         id="g70"
         transform="matrix(0.352778,0,0,0.352778,-0.896011,-0.712744)"
         style="fill:#9f1d54;fill-opacity:1">
        <g
           id="g69"
           transform="translate(1.993,10.161)"
           style="fill:#9f1d54;fill-opacity:1">
          <path
             d="m 8.3125,-2.765625 c 0,-0.046875 0.046875,-0.125 0.046875,-0.171875 0,-0.0625 -0.046875,-0.125 -0.125,-0.125 C 8.1875,-3.0625 8.15625,-3.046875 8.125,-3.015625 8.109375,-3 8.109375,-2.96875 8,-2.734375 7.296875,-1.0625 6.78125,-0.34375 4.859375,-0.34375 H 3.125 c -0.171875,0 -0.203125,0 -0.265625,-0.015625 C 2.71875,-0.375 2.71875,-0.390625 2.71875,-0.484375 c 0,-0.09375 0.015625,-0.15625 0.046875,-0.265625 l 0.8125,-3.296875 h 1.1875 c 0.9375,0 1,0.203125 1,0.5625 0,0.109375 0,0.21875 -0.078125,0.578125 -0.015625,0.046875 -0.03125,0.09375 -0.03125,0.140625 0,0.078125 0.0625,0.109375 0.125,0.109375 0.109375,0 0.125,-0.078125 0.171875,-0.25 l 0.6875,-2.765625 c 0,-0.0625 -0.046875,-0.125 -0.125,-0.125 -0.109375,0 -0.125,0.046875 -0.171875,0.21875 C 6.109375,-4.65625 5.875,-4.40625 4.8125,-4.40625 H 3.671875 L 4.40625,-7.34375 C 4.515625,-7.75 4.546875,-7.796875 5.03125,-7.796875 h 1.703125 c 1.484375,0 1.78125,0.390625 1.78125,1.3125 0,0 0,0.34375 -0.046875,0.734375 -0.015625,0.046875 -0.03125,0.125 -0.03125,0.140625 0,0.09375 0.0625,0.140625 0.140625,0.140625 0.078125,0 0.125,-0.046875 0.140625,-0.265625 l 0.265625,-2.09375 C 8.984375,-7.859375 9,-7.984375 9,-8.015625 c 0,-0.125 -0.109375,-0.125 -0.328125,-0.125 H 2.84375 c -0.21875,0 -0.34375,0 -0.34375,0.21875 0,0.125 0.078125,0.125 0.28125,0.125 0.75,0 0.75,0.09375 0.75,0.21875 0,0.0625 -0.015625,0.109375 -0.046875,0.234375 l -1.625,6.453125 C 1.75,-0.46875 1.734375,-0.34375 0.890625,-0.34375 c -0.21875,0 -0.34375,0 -0.34375,0.21875 C 0.546875,0 0.625,0 0.859375,0 h 6 C 7.125,0 7.140625,-0.015625 7.21875,-0.203125 Z m 0,0"
             id="path68"
             style="fill:#9f1d54;fill-opacity:1" />
        </g>
      </g>
      <g
         fill="#000000"
         fill-opacity="1"
         id="g76"
         transform="matrix(0.352778,0,0,0.352778,-0.896011,-0.712744)"
         style="fill:#9f1d54;fill-opacity:1">
        <g
           id="g71"
           transform="translate(10.658,11.955)"
           style="fill:#9f1d54;fill-opacity:1">
          <path
             d="m 2.375,-4.96875 c 0,-0.171875 -0.125,-0.3125 -0.3125,-0.3125 -0.203125,0 -0.4375,0.203125 -0.4375,0.4375 0,0.171875 0.125,0.296875 0.3125,0.296875 0.203125,0 0.4375,-0.1875 0.4375,-0.421875 z m -1.15625,2.921875 -0.4375,1.09375 c -0.046875,0.125 -0.078125,0.21875 -0.078125,0.359375 0,0.390625 0.296875,0.671875 0.71875,0.671875 0.78125,0 1.109375,-1.109375 1.109375,-1.21875 0,-0.078125 -0.0625,-0.109375 -0.125,-0.109375 -0.09375,0 -0.109375,0.0625 -0.140625,0.140625 -0.171875,0.640625 -0.5,0.96875 -0.828125,0.96875 -0.09375,0 -0.1875,-0.046875 -0.1875,-0.25 0,-0.203125 0.0625,-0.34375 0.15625,-0.59375 C 1.484375,-1.1875 1.5625,-1.40625 1.65625,-1.625 l 0.25,-0.640625 c 0.0625,-0.1875 0.171875,-0.4375 0.171875,-0.578125 0,-0.390625 -0.328125,-0.671875 -0.734375,-0.671875 -0.765625,0 -1.109375,1.109375 -1.109375,1.21875 0,0.078125 0.0625,0.109375 0.125,0.109375 0.109375,0 0.109375,-0.046875 0.140625,-0.125 0.21875,-0.765625 0.578125,-0.984375 0.828125,-0.984375 0.109375,0 0.1875,0.046875 0.1875,0.265625 0,0.078125 -0.015625,0.1875 -0.09375,0.4375 z m 0,0"
             id="path70"
             style="fill:#9f1d54;fill-opacity:1" />
        </g>
        <g
           id="g72"
           transform="translate(13.540785,11.955)"
           style="fill:#9f1d54;fill-opacity:1">
          <path
             d="m 1.484375,-0.125 c 0,0.515625 -0.109375,0.984375 -0.59375,1.46875 C 0.859375,1.375 0.84375,1.390625 0.84375,1.421875 c 0,0.0625 0.0625,0.109375 0.109375,0.109375 0.09375,0 0.765625,-0.625 0.765625,-1.5625 0,-0.5 -0.203125,-0.859375 -0.546875,-0.859375 -0.28125,0 -0.4375,0.234375 -0.4375,0.4375 C 0.734375,-0.21875 0.890625,0 1.171875,0 1.375,0 1.484375,-0.109375 1.484375,-0.125 Z m 0,0"
             id="path71"
             style="fill:#9f1d54;fill-opacity:1" />
        </g>
        <g
           id="g73"
           transform="translate(15.892762,11.955)"
           style="fill:#9f1d54;fill-opacity:1">
          <path
             d="m 3.96875,-2.140625 c 0,-0.78125 -0.5625,-1.375 -1.390625,-1.375 -1.125,0 -2.234375,1.09375 -2.234375,2.21875 0,0.8125 0.578125,1.375 1.390625,1.375 1.140625,0 2.234375,-1.109375 2.234375,-2.21875 z m -2.21875,2 c -0.28125,0 -0.75,-0.140625 -0.75,-0.875 0,-0.328125 0.140625,-1.1875 0.53125,-1.6875 0.390625,-0.5 0.828125,-0.59375 1.046875,-0.59375 0.328125,0 0.75,0.203125 0.75,0.875 0,0.3125 -0.15625,1.078125 -0.453125,1.546875 -0.296875,0.453125 -0.734375,0.734375 -1.125,0.734375 z m 0,0"
             id="path72"
             style="fill:#9f1d54;fill-opacity:1" />
        </g>
        <g
           id="g74"
           transform="translate(19.985409,11.955)"
           style="fill:#9f1d54;fill-opacity:1">
          <path
             d="m 2.984375,-0.875 c -0.03125,0.15625 -0.40625,0.734375 -0.9375,0.734375 -0.390625,0 -0.53125,-0.296875 -0.53125,-0.640625 0,-0.484375 0.28125,-1.1875 0.453125,-1.640625 C 2.046875,-2.625 2.078125,-2.6875 2.078125,-2.84375 c 0,-0.4375 -0.359375,-0.671875 -0.71875,-0.671875 -0.796875,0 -1.125,1.125 -1.125,1.21875 0,0.078125 0.0625,0.109375 0.125,0.109375 0.109375,0 0.109375,-0.046875 0.140625,-0.125 0.203125,-0.71875 0.546875,-0.984375 0.828125,-0.984375 0.125,0 0.1875,0.078125 0.1875,0.265625 0,0.1875 -0.0625,0.375 -0.171875,0.65625 -0.328125,0.84375 -0.40625,1.1875 -0.40625,1.46875 0,0.78125 0.59375,0.984375 1.0625,0.984375 0.59375,0 0.96875,-0.46875 1,-0.515625 0.125,0.375 0.484375,0.515625 0.765625,0.515625 0.375,0 0.5625,-0.3125 0.609375,-0.4375 0.171875,-0.28125 0.28125,-0.75 0.28125,-0.78125 C 4.65625,-1.1875 4.625,-1.25 4.53125,-1.25 4.4375,-1.25 4.421875,-1.203125 4.359375,-1 c -0.09375,0.40625 -0.234375,0.859375 -0.5625,0.859375 -0.1875,0 -0.265625,-0.15625 -0.265625,-0.375 0,-0.140625 0.078125,-0.40625 0.125,-0.609375 0.046875,-0.203125 0.171875,-0.671875 0.203125,-0.8125 l 0.15625,-0.609375 C 4.0625,-2.765625 4.15625,-3.140625 4.15625,-3.1875 c 0,-0.203125 -0.15625,-0.25 -0.25,-0.25 -0.109375,0 -0.28125,0.078125 -0.34375,0.265625 z m 0,0"
             id="path73"
             style="fill:#9f1d54;fill-opacity:1" />
        </g>
        <g
           id="g75"
           transform="translate(24.888615,11.955)"
           style="fill:#9f1d54;fill-opacity:1">
          <path
             d="m 1.765625,-3.171875 h 0.78125 c 0.140625,0 0.234375,0 0.234375,-0.15625 C 2.78125,-3.4375 2.6875,-3.4375 2.546875,-3.4375 h -0.71875 l 0.28125,-1.125 c 0.03125,-0.125 0.03125,-0.15625 0.03125,-0.171875 0,-0.171875 -0.125,-0.25 -0.265625,-0.25 -0.265625,0 -0.328125,0.21875 -0.40625,0.578125 l -0.25,0.96875 H 0.453125 c -0.15625,0 -0.25,0 -0.25,0.15625 0,0.109375 0.09375,0.109375 0.234375,0.109375 h 0.71875 l -0.484375,1.90625 C 0.625,-1.0625 0.5625,-0.78125 0.5625,-0.671875 c 0,0.484375 0.390625,0.75 0.8125,0.75 0.84375,0 1.328125,-1.125 1.328125,-1.21875 C 2.703125,-1.234375 2.640625,-1.25 2.59375,-1.25 2.5,-1.25 2.5,-1.21875 2.4375,-1.09375 2.28125,-0.703125 1.875,-0.140625 1.390625,-0.140625 1.234375,-0.140625 1.125,-0.25 1.125,-0.515625 c 0,-0.15625 0.03125,-0.234375 0.046875,-0.34375 z m 0,0"
             id="path74"
             style="fill:#9f1d54;fill-opacity:1" />
        </g>
      </g>
    </g>
    <g
       inkscape:label=""
       transform="translate(38.629165,100.42732)"
       id="g84"
       style="fill:#9f1d54;fill-opacity:1">
      <g
         fill="#000000"
         fill-opacity="1"
         id="g79"
         transform="matrix(0.352778,0,0,0.352778,-0.896011,-0.712744)"
         style="fill:#9f1d54;fill-opacity:1">
        <g
           id="g78"
           transform="translate(1.993,10.161)"
           style="fill:#9f1d54;fill-opacity:1">
          <path
             d="m 8.3125,-2.765625 c 0,-0.046875 0.046875,-0.125 0.046875,-0.171875 0,-0.0625 -0.046875,-0.125 -0.125,-0.125 C 8.1875,-3.0625 8.15625,-3.046875 8.125,-3.015625 8.109375,-3 8.109375,-2.96875 8,-2.734375 7.296875,-1.0625 6.78125,-0.34375 4.859375,-0.34375 H 3.125 c -0.171875,0 -0.203125,0 -0.265625,-0.015625 C 2.71875,-0.375 2.71875,-0.390625 2.71875,-0.484375 c 0,-0.09375 0.015625,-0.15625 0.046875,-0.265625 l 0.8125,-3.296875 h 1.1875 c 0.9375,0 1,0.203125 1,0.5625 0,0.109375 0,0.21875 -0.078125,0.578125 -0.015625,0.046875 -0.03125,0.09375 -0.03125,0.140625 0,0.078125 0.0625,0.109375 0.125,0.109375 0.109375,0 0.125,-0.078125 0.171875,-0.25 l 0.6875,-2.765625 c 0,-0.0625 -0.046875,-0.125 -0.125,-0.125 -0.109375,0 -0.125,0.046875 -0.171875,0.21875 C 6.109375,-4.65625 5.875,-4.40625 4.8125,-4.40625 H 3.671875 L 4.40625,-7.34375 C 4.515625,-7.75 4.546875,-7.796875 5.03125,-7.796875 h 1.703125 c 1.484375,0 1.78125,0.390625 1.78125,1.3125 0,0 0,0.34375 -0.046875,0.734375 -0.015625,0.046875 -0.03125,0.125 -0.03125,0.140625 0,0.09375 0.0625,0.140625 0.140625,0.140625 0.078125,0 0.125,-0.046875 0.140625,-0.265625 l 0.265625,-2.09375 C 8.984375,-7.859375 9,-7.984375 9,-8.015625 c 0,-0.125 -0.109375,-0.125 -0.328125,-0.125 H 2.84375 c -0.21875,0 -0.34375,0 -0.34375,0.21875 0,0.125 0.078125,0.125 0.28125,0.125 0.75,0 0.75,0.09375 0.75,0.21875 0,0.0625 -0.015625,0.109375 -0.046875,0.234375 l -1.625,6.453125 C 1.75,-0.46875 1.734375,-0.34375 0.890625,-0.34375 c -0.21875,0 -0.34375,0 -0.34375,0.21875 C 0.546875,0 0.625,0 0.859375,0 h 6 C 7.125,0 7.140625,-0.015625 7.21875,-0.203125 Z m 0,0"
             id="path77"
             style="fill:#9f1d54;fill-opacity:1" />
        </g>
      </g>
      <g
         fill="#000000"
         fill-opacity="1"
         id="g8"
         transform="matrix(0.352778,0,0,0.352778,-0.896011,-0.712744)"
         style="fill:#9f1d54;fill-opacity:1">
        <g
           id="g80"
           transform="translate(10.658,11.955)"
           style="fill:#9f1d54;fill-opacity:1">
          <path
             d="m 2.375,-4.96875 c 0,-0.171875 -0.125,-0.3125 -0.3125,-0.3125 -0.203125,0 -0.4375,0.203125 -0.4375,0.4375 0,0.171875 0.125,0.296875 0.3125,0.296875 0.203125,0 0.4375,-0.1875 0.4375,-0.421875 z m -1.15625,2.921875 -0.4375,1.09375 c -0.046875,0.125 -0.078125,0.21875 -0.078125,0.359375 0,0.390625 0.296875,0.671875 0.71875,0.671875 0.78125,0 1.109375,-1.109375 1.109375,-1.21875 0,-0.078125 -0.0625,-0.109375 -0.125,-0.109375 -0.09375,0 -0.109375,0.0625 -0.140625,0.140625 -0.171875,0.640625 -0.5,0.96875 -0.828125,0.96875 -0.09375,0 -0.1875,-0.046875 -0.1875,-0.25 0,-0.203125 0.0625,-0.34375 0.15625,-0.59375 C 1.484375,-1.1875 1.5625,-1.40625 1.65625,-1.625 l 0.25,-0.640625 c 0.0625,-0.1875 0.171875,-0.4375 0.171875,-0.578125 0,-0.390625 -0.328125,-0.671875 -0.734375,-0.671875 -0.765625,0 -1.109375,1.109375 -1.109375,1.21875 0,0.078125 0.0625,0.109375 0.125,0.109375 0.109375,0 0.109375,-0.046875 0.140625,-0.125 0.21875,-0.765625 0.578125,-0.984375 0.828125,-0.984375 0.109375,0 0.1875,0.046875 0.1875,0.265625 0,0.078125 -0.015625,0.1875 -0.09375,0.4375 z m 0,0"
             id="path79"
             style="fill:#9f1d54;fill-opacity:1" />
        </g>
        <g
           id="g81"
           transform="translate(13.540785,11.955)"
           style="fill:#9f1d54;fill-opacity:1">
          <path
             d="m 1.484375,-0.125 c 0,0.515625 -0.109375,0.984375 -0.59375,1.46875 C 0.859375,1.375 0.84375,1.390625 0.84375,1.421875 c 0,0.0625 0.0625,0.109375 0.109375,0.109375 0.09375,0 0.765625,-0.625 0.765625,-1.5625 0,-0.5 -0.203125,-0.859375 -0.546875,-0.859375 -0.28125,0 -0.4375,0.234375 -0.4375,0.4375 C 0.734375,-0.21875 0.890625,0 1.171875,0 1.375,0 1.484375,-0.109375 1.484375,-0.125 Z m 0,0"
             id="path80"
             style="fill:#9f1d54;fill-opacity:1" />
        </g>
        <g
           id="g82"
           transform="translate(15.892762,11.955)"
           style="fill:#9f1d54;fill-opacity:1">
          <path
             d="m 2.375,-4.96875 c 0,-0.171875 -0.125,-0.3125 -0.3125,-0.3125 -0.203125,0 -0.4375,0.203125 -0.4375,0.4375 0,0.171875 0.125,0.296875 0.3125,0.296875 0.203125,0 0.4375,-0.1875 0.4375,-0.421875 z m -1.15625,2.921875 -0.4375,1.09375 c -0.046875,0.125 -0.078125,0.21875 -0.078125,0.359375 0,0.390625 0.296875,0.671875 0.71875,0.671875 0.78125,0 1.109375,-1.109375 1.109375,-1.21875 0,-0.078125 -0.0625,-0.109375 -0.125,-0.109375 -0.09375,0 -0.109375,0.0625 -0.140625,0.140625 -0.171875,0.640625 -0.5,0.96875 -0.828125,0.96875 -0.09375,0 -0.1875,-0.046875 -0.1875,-0.25 0,-0.203125 0.0625,-0.34375 0.15625,-0.59375 C 1.484375,-1.1875 1.5625,-1.40625 1.65625,-1.625 l 0.25,-0.640625 c 0.0625,-0.1875 0.171875,-0.4375 0.171875,-0.578125 0,-0.390625 -0.328125,-0.671875 -0.734375,-0.671875 -0.765625,0 -1.109375,1.109375 -1.109375,1.21875 0,0.078125 0.0625,0.109375 0.125,0.109375 0.109375,0 0.109375,-0.046875 0.140625,-0.125 0.21875,-0.765625 0.578125,-0.984375 0.828125,-0.984375 0.109375,0 0.1875,0.046875 0.1875,0.265625 0,0.078125 -0.015625,0.1875 -0.09375,0.4375 z m 0,0"
             id="path81"
             style="fill:#9f1d54;fill-opacity:1" />
        </g>
        <g
           id="g83"
           transform="translate(18.775547,11.955)"
           style="fill:#9f1d54;fill-opacity:1">
          <path
             d="m 1.59375,-1.3125 c 0.03125,-0.109375 0.109375,-0.421875 0.125,-0.53125 0.109375,-0.4375 0.109375,-0.4375 0.296875,-0.703125 0.265625,-0.390625 0.640625,-0.75 1.171875,-0.75 0.28125,0 0.453125,0.171875 0.453125,0.546875 0,0.4375 -0.328125,1.34375 -0.484375,1.734375 -0.109375,0.265625 -0.109375,0.3125 -0.109375,0.421875 0,0.453125 0.375,0.671875 0.71875,0.671875 0.78125,0 1.109375,-1.109375 1.109375,-1.21875 C 4.875,-1.21875 4.8125,-1.25 4.75,-1.25 c -0.09375,0 -0.109375,0.0625 -0.125,0.140625 -0.1875,0.65625 -0.53125,0.96875 -0.828125,0.96875 -0.125,0 -0.1875,-0.078125 -0.1875,-0.265625 0,-0.1875 0.0625,-0.359375 0.140625,-0.5625 0.109375,-0.296875 0.46875,-1.21875 0.46875,-1.65625 0,-0.609375 -0.421875,-0.890625 -0.984375,-0.890625 -0.65625,0 -1.0625,0.390625 -1.296875,0.6875 -0.0625,-0.4375 -0.40625,-0.6875 -0.8125,-0.6875 -0.28125,0 -0.484375,0.1875 -0.609375,0.4375 -0.203125,0.375 -0.28125,0.765625 -0.28125,0.78125 0,0.078125 0.0625,0.109375 0.125,0.109375 0.109375,0 0.109375,-0.03125 0.171875,-0.25 0.09375,-0.390625 0.234375,-0.859375 0.5625,-0.859375 0.21875,0 0.265625,0.203125 0.265625,0.375 0,0.15625 -0.046875,0.296875 -0.109375,0.5625 -0.015625,0.0625 -0.140625,0.53125 -0.171875,0.640625 L 0.78125,-0.515625 c -0.03125,0.125 -0.078125,0.3125 -0.078125,0.34375 0,0.1875 0.15625,0.25 0.265625,0.25 0.140625,0 0.265625,-0.09375 0.3125,-0.1875 C 1.3125,-0.15625 1.375,-0.4375 1.40625,-0.59375 Z m 0,0"
             id="path82"
             style="fill:#9f1d54;fill-opacity:1" />
        </g>
      </g>
    </g>
    <g
       inkscape:label=""
       transform="translate(38.629165,93.311486)"
       id="g92"
       style="fill:#9f1d54;fill-opacity:1">
      <g
         fill="#000000"
         fill-opacity="1"
         id="g86"
         transform="matrix(0.352778,0,0,0.352778,-0.896011,-0.712744)"
         style="fill:#9f1d54;fill-opacity:1">
        <g
           id="g85"
           transform="translate(1.993,10.161)"
           style="fill:#9f1d54;fill-opacity:1">
          <path
             d="m 3.546875,-3.890625 h 1.15625 c 0.90625,0 0.96875,0.203125 0.96875,0.546875 0,0.15625 -0.015625,0.3125 -0.078125,0.578125 C 5.5625,-2.71875 5.5625,-2.65625 5.5625,-2.625 c 0,0.078125 0.046875,0.125 0.125,0.125 0.09375,0 0.109375,-0.046875 0.15625,-0.234375 l 0.6875,-2.78125 c 0,-0.046875 -0.03125,-0.125 -0.109375,-0.125 -0.109375,0 -0.125,0.046875 -0.171875,0.25 C 6,-4.5 5.765625,-4.25 4.71875,-4.25 H 3.640625 L 4.40625,-7.34375 C 4.515625,-7.75 4.546875,-7.796875 5.03125,-7.796875 h 1.609375 c 1.484375,0 1.703125,0.453125 1.703125,1.296875 0,0.0625 0,0.328125 -0.03125,0.640625 -0.015625,0.046875 -0.046875,0.203125 -0.046875,0.25 0,0.09375 0.0625,0.140625 0.140625,0.140625 0.078125,0 0.125,-0.046875 0.15625,-0.265625 l 0.25,-2.09375 c 0,-0.03125 0.015625,-0.15625 0.015625,-0.1875 0,-0.125 -0.109375,-0.125 -0.3125,-0.125 H 2.84375 c -0.21875,0 -0.34375,0 -0.34375,0.21875 0,0.125 0.078125,0.125 0.28125,0.125 0.75,0 0.75,0.09375 0.75,0.21875 0,0.0625 -0.015625,0.109375 -0.046875,0.234375 l -1.625,6.453125 C 1.75,-0.46875 1.734375,-0.34375 0.890625,-0.34375 c -0.21875,0 -0.34375,0 -0.34375,0.21875 C 0.546875,0 0.65625,0 0.734375,0 0.953125,0 1.1875,-0.03125 1.421875,-0.03125 H 2.96875 C 3.234375,-0.03125 3.53125,0 3.796875,0 c 0.09375,0 0.25,0 0.25,-0.21875 0,-0.125 -0.078125,-0.125 -0.34375,-0.125 -0.9375,0 -0.96875,-0.09375 -0.96875,-0.265625 0,-0.0625 0.03125,-0.15625 0.046875,-0.234375 z m 0,0"
             id="path84"
             style="fill:#9f1d54;fill-opacity:1" />
        </g>
      </g>
      <g
         fill="#000000"
         fill-opacity="1"
         id="g91"
         transform="matrix(0.352778,0,0,0.352778,-0.896011,-0.712744)"
         style="fill:#9f1d54;fill-opacity:1">
        <g
           id="g87"
           transform="translate(9.5699997,11.955)"
           style="fill:#9f1d54;fill-opacity:1">
          <path
             d="m 2.375,-4.96875 c 0,-0.171875 -0.125,-0.3125 -0.3125,-0.3125 -0.203125,0 -0.4375,0.203125 -0.4375,0.4375 0,0.171875 0.125,0.296875 0.3125,0.296875 0.203125,0 0.4375,-0.1875 0.4375,-0.421875 z m -1.15625,2.921875 -0.4375,1.09375 c -0.046875,0.125 -0.078125,0.21875 -0.078125,0.359375 0,0.390625 0.296875,0.671875 0.71875,0.671875 0.78125,0 1.109375,-1.109375 1.109375,-1.21875 0,-0.078125 -0.0625,-0.109375 -0.125,-0.109375 -0.09375,0 -0.109375,0.0625 -0.140625,0.140625 -0.171875,0.640625 -0.5,0.96875 -0.828125,0.96875 -0.09375,0 -0.1875,-0.046875 -0.1875,-0.25 0,-0.203125 0.0625,-0.34375 0.15625,-0.59375 C 1.484375,-1.1875 1.5625,-1.40625 1.65625,-1.625 l 0.25,-0.640625 c 0.0625,-0.1875 0.171875,-0.4375 0.171875,-0.578125 0,-0.390625 -0.328125,-0.671875 -0.734375,-0.671875 -0.765625,0 -1.109375,1.109375 -1.109375,1.21875 0,0.078125 0.0625,0.109375 0.125,0.109375 0.109375,0 0.109375,-0.046875 0.140625,-0.125 0.21875,-0.765625 0.578125,-0.984375 0.828125,-0.984375 0.109375,0 0.1875,0.046875 0.1875,0.265625 0,0.078125 -0.015625,0.1875 -0.09375,0.4375 z m 0,0"
             id="path86"
             style="fill:#9f1d54;fill-opacity:1" />
        </g>
        <g
           id="g88"
           transform="translate(12.452785,11.955)"
           style="fill:#9f1d54;fill-opacity:1">
          <path
             d="m 1.484375,-0.125 c 0,0.515625 -0.109375,0.984375 -0.59375,1.46875 C 0.859375,1.375 0.84375,1.390625 0.84375,1.421875 c 0,0.0625 0.0625,0.109375 0.109375,0.109375 0.09375,0 0.765625,-0.625 0.765625,-1.5625 0,-0.5 -0.203125,-0.859375 -0.546875,-0.859375 -0.28125,0 -0.4375,0.234375 -0.4375,0.4375 C 0.734375,-0.21875 0.890625,0 1.171875,0 1.375,0 1.484375,-0.109375 1.484375,-0.125 Z m 0,0"
             id="path87"
             style="fill:#9f1d54;fill-opacity:1" />
        </g>
        <g
           id="g89"
           transform="translate(14.804762,11.955)"
           style="fill:#9f1d54;fill-opacity:1">
          <path
             d="m 2.375,-4.96875 c 0,-0.171875 -0.125,-0.3125 -0.3125,-0.3125 -0.203125,0 -0.4375,0.203125 -0.4375,0.4375 0,0.171875 0.125,0.296875 0.3125,0.296875 0.203125,0 0.4375,-0.1875 0.4375,-0.421875 z m -1.15625,2.921875 -0.4375,1.09375 c -0.046875,0.125 -0.078125,0.21875 -0.078125,0.359375 0,0.390625 0.296875,0.671875 0.71875,0.671875 0.78125,0 1.109375,-1.109375 1.109375,-1.21875 0,-0.078125 -0.0625,-0.109375 -0.125,-0.109375 -0.09375,0 -0.109375,0.0625 -0.140625,0.140625 -0.171875,0.640625 -0.5,0.96875 -0.828125,0.96875 -0.09375,0 -0.1875,-0.046875 -0.1875,-0.25 0,-0.203125 0.0625,-0.34375 0.15625,-0.59375 C 1.484375,-1.1875 1.5625,-1.40625 1.65625,-1.625 l 0.25,-0.640625 c 0.0625,-0.1875 0.171875,-0.4375 0.171875,-0.578125 0,-0.390625 -0.328125,-0.671875 -0.734375,-0.671875 -0.765625,0 -1.109375,1.109375 -1.109375,1.21875 0,0.078125 0.0625,0.109375 0.125,0.109375 0.109375,0 0.109375,-0.046875 0.140625,-0.125 0.21875,-0.765625 0.578125,-0.984375 0.828125,-0.984375 0.109375,0 0.1875,0.046875 0.1875,0.265625 0,0.078125 -0.015625,0.1875 -0.09375,0.4375 z m 0,0"
             id="path88"
             style="fill:#9f1d54;fill-opacity:1" />
        </g>
        <g
           id="g90"
           transform="translate(17.687548,11.955)"
           style="fill:#9f1d54;fill-opacity:1">
          <path
             d="m 1.59375,-1.3125 c 0.03125,-0.109375 0.109375,-0.421875 0.125,-0.53125 0.109375,-0.4375 0.109375,-0.4375 0.296875,-0.703125 0.265625,-0.390625 0.640625,-0.75 1.171875,-0.75 0.28125,0 0.453125,0.171875 0.453125,0.546875 0,0.4375 -0.328125,1.34375 -0.484375,1.734375 -0.109375,0.265625 -0.109375,0.3125 -0.109375,0.421875 0,0.453125 0.375,0.671875 0.71875,0.671875 0.78125,0 1.109375,-1.109375 1.109375,-1.21875 C 4.875,-1.21875 4.8125,-1.25 4.75,-1.25 c -0.09375,0 -0.109375,0.0625 -0.125,0.140625 -0.1875,0.65625 -0.53125,0.96875 -0.828125,0.96875 -0.125,0 -0.1875,-0.078125 -0.1875,-0.265625 0,-0.1875 0.0625,-0.359375 0.140625,-0.5625 0.109375,-0.296875 0.46875,-1.21875 0.46875,-1.65625 0,-0.609375 -0.421875,-0.890625 -0.984375,-0.890625 -0.65625,0 -1.0625,0.390625 -1.296875,0.6875 -0.0625,-0.4375 -0.40625,-0.6875 -0.8125,-0.6875 -0.28125,0 -0.484375,0.1875 -0.609375,0.4375 -0.203125,0.375 -0.28125,0.765625 -0.28125,0.78125 0,0.078125 0.0625,0.109375 0.125,0.109375 0.109375,0 0.109375,-0.03125 0.171875,-0.25 0.09375,-0.390625 0.234375,-0.859375 0.5625,-0.859375 0.21875,0 0.265625,0.203125 0.265625,0.375 0,0.15625 -0.046875,0.296875 -0.109375,0.5625 -0.015625,0.0625 -0.140625,0.53125 -0.171875,0.640625 L 0.78125,-0.515625 c -0.03125,0.125 -0.078125,0.3125 -0.078125,0.34375 0,0.1875 0.15625,0.25 0.265625,0.25 0.140625,0 0.265625,-0.09375 0.3125,-0.1875 C 1.3125,-0.15625 1.375,-0.4375 1.40625,-0.59375 Z m 0,0"
             id="path89"
             style="fill:#9f1d54;fill-opacity:1" />
        </g>
      </g>
    </g>
  </g>
</svg>
